G04 #@! TF.GenerationSoftware,KiCad,Pcbnew,(5.0.0)*
G04 #@! TF.CreationDate,2019-02-24T20:09:27-05:00*
G04 #@! TF.ProjectId,AVR_LCD 2.0,4156525F4C434420322E302E6B696361,rev?*
G04 #@! TF.SameCoordinates,Original*
G04 #@! TF.FileFunction,Legend,Bot*
G04 #@! TF.FilePolarity,Positive*
%FSLAX46Y46*%
G04 Gerber Fmt 4.6, Leading zero omitted, Abs format (unit mm)*
G04 Created by KiCad (PCBNEW (5.0.0)) date 02/24/19 20:09:27*
%MOMM*%
%LPD*%
G01*
G04 APERTURE LIST*
%ADD10C,0.200000*%
%ADD11C,0.150000*%
G04 APERTURE END LIST*
D10*
X112590000Y-56000000D02*
X112590000Y-53800000D01*
X112590000Y-56200000D02*
X112590000Y-56000000D01*
X112440000Y-56350000D02*
X112590000Y-56200000D01*
X112390000Y-56350000D02*
X112440000Y-56350000D01*
X109990000Y-56350000D02*
X112440000Y-56350000D01*
X109990000Y-59000000D02*
X109990000Y-53800000D01*
X115140000Y-54150000D02*
X114790000Y-53800000D01*
X115140000Y-59000000D02*
X115140000Y-54150000D01*
X102490000Y-53800000D02*
X102440000Y-53800000D01*
X102440000Y-55350000D02*
X102440000Y-53800000D01*
X114790000Y-53800000D02*
X102490000Y-53800000D01*
X102440000Y-59000000D02*
X102440000Y-55400000D01*
X115140000Y-59000000D02*
X102440000Y-59000000D01*
X109990000Y-94500000D02*
X109990000Y-71600000D01*
X112590000Y-71450000D02*
X112590000Y-69000000D01*
X112440000Y-71600000D02*
X112590000Y-71450000D01*
X109990000Y-71600000D02*
X112440000Y-71600000D01*
X109990000Y-69000000D02*
X109990000Y-71600000D01*
X115140000Y-69000000D02*
X102390000Y-69000000D01*
X115140000Y-94500000D02*
X115140000Y-69000000D01*
X102390000Y-70650000D02*
X102390000Y-70400000D01*
X102390000Y-70500000D02*
X102390000Y-69000000D01*
X102390000Y-94500000D02*
X102390000Y-70550000D01*
X115140000Y-94500000D02*
X102390000Y-94500000D01*
X112590000Y-113100000D02*
X112590000Y-110600000D01*
X112490000Y-113200000D02*
X112590000Y-113100000D01*
X109940000Y-113200000D02*
X112490000Y-113200000D01*
X109940000Y-136150000D02*
X109940000Y-110600000D01*
X115190000Y-136150000D02*
X109940000Y-136150000D01*
X115190000Y-110600000D02*
X115190000Y-136150000D01*
X110040000Y-110600000D02*
X115190000Y-110600000D01*
X102390000Y-110650000D02*
X102390000Y-110750000D01*
X102390000Y-110600000D02*
X102390000Y-110650000D01*
X110040000Y-110600000D02*
X102390000Y-110600000D01*
X102390000Y-135500000D02*
X102390000Y-110700000D01*
X103040000Y-136150000D02*
X102390000Y-135500000D01*
X109940000Y-136150000D02*
X103040000Y-136150000D01*
G04 #@! TO.C,U2*
D11*
X92443024Y-67074977D02*
X92062072Y-67074977D01*
X91871596Y-67170216D01*
X91681119Y-67360692D01*
X91585881Y-67741644D01*
X91585881Y-68408311D01*
X91681119Y-68789263D01*
X91871596Y-68979739D01*
X92062072Y-69074977D01*
X92443024Y-69074977D01*
X92633500Y-68979739D01*
X92823977Y-68789263D01*
X92919215Y-68408311D01*
X92919215Y-67741644D01*
X92823977Y-67360692D01*
X92633500Y-67170216D01*
X92443024Y-67074977D01*
X89776357Y-69074977D02*
X90728738Y-69074977D01*
X90728738Y-67074977D01*
X89109691Y-68027358D02*
X88443024Y-68027358D01*
X88157310Y-69074977D02*
X89109691Y-69074977D01*
X89109691Y-67074977D01*
X88157310Y-67074977D01*
X87300167Y-69074977D02*
X87300167Y-67074977D01*
X86823977Y-67074977D01*
X86538262Y-67170216D01*
X86347786Y-67360692D01*
X86252548Y-67551168D01*
X86157310Y-67932120D01*
X86157310Y-68217835D01*
X86252548Y-68598787D01*
X86347786Y-68789263D01*
X86538262Y-68979739D01*
X86823977Y-69074977D01*
X87300167Y-69074977D01*
X83776357Y-69074977D02*
X83776357Y-67074977D01*
X83300167Y-67074977D01*
X83014453Y-67170216D01*
X82823977Y-67360692D01*
X82728738Y-67551168D01*
X82633500Y-67932120D01*
X82633500Y-68217835D01*
X82728738Y-68598787D01*
X82823977Y-68789263D01*
X83014453Y-68979739D01*
X83300167Y-69074977D01*
X83776357Y-69074977D01*
X81776357Y-69074977D02*
X81776357Y-67074977D01*
X80919215Y-68979739D02*
X80633500Y-69074977D01*
X80157310Y-69074977D01*
X79966834Y-68979739D01*
X79871596Y-68884501D01*
X79776357Y-68694025D01*
X79776357Y-68503549D01*
X79871596Y-68313073D01*
X79966834Y-68217835D01*
X80157310Y-68122596D01*
X80538262Y-68027358D01*
X80728738Y-67932120D01*
X80823977Y-67836882D01*
X80919215Y-67646406D01*
X80919215Y-67455930D01*
X80823977Y-67265454D01*
X80728738Y-67170216D01*
X80538262Y-67074977D01*
X80062072Y-67074977D01*
X79776357Y-67170216D01*
X78919215Y-69074977D02*
X78919215Y-67074977D01*
X78157310Y-67074977D01*
X77966834Y-67170216D01*
X77871596Y-67265454D01*
X77776357Y-67455930D01*
X77776357Y-67741644D01*
X77871596Y-67932120D01*
X77966834Y-68027358D01*
X78157310Y-68122596D01*
X78919215Y-68122596D01*
X75966834Y-69074977D02*
X76919215Y-69074977D01*
X76919215Y-67074977D01*
X75395405Y-68503549D02*
X74443024Y-68503549D01*
X75585881Y-69074977D02*
X74919215Y-67074977D01*
X74252548Y-69074977D01*
X73204929Y-68122596D02*
X73204929Y-69074977D01*
X73871596Y-67074977D02*
X73204929Y-68122596D01*
X72538262Y-67074977D01*
X91728738Y-72574977D02*
X92871596Y-72574977D01*
X92300167Y-72574977D02*
X92300167Y-70574977D01*
X92490643Y-70860692D01*
X92681119Y-71051168D01*
X92871596Y-71146406D01*
X90871596Y-72384501D02*
X90776357Y-72479739D01*
X90871596Y-72574977D01*
X90966834Y-72479739D01*
X90871596Y-72384501D01*
X90871596Y-72574977D01*
X88966834Y-70574977D02*
X89919215Y-70574977D01*
X90014453Y-71527358D01*
X89919215Y-71432120D01*
X89728738Y-71336882D01*
X89252548Y-71336882D01*
X89062072Y-71432120D01*
X88966834Y-71527358D01*
X88871596Y-71717835D01*
X88871596Y-72194025D01*
X88966834Y-72384501D01*
X89062072Y-72479739D01*
X89252548Y-72574977D01*
X89728738Y-72574977D01*
X89919215Y-72479739D01*
X90014453Y-72384501D01*
X87157310Y-71241644D02*
X87157310Y-72574977D01*
X87633500Y-70479739D02*
X88109691Y-71908311D01*
X86871596Y-71908311D01*
X86204929Y-70574977D02*
X86204929Y-70955930D01*
X85443024Y-70574977D02*
X85443024Y-70955930D01*
X82014453Y-72574977D02*
X83157310Y-72574977D01*
X82585881Y-72574977D02*
X82585881Y-70574977D01*
X82776357Y-70860692D01*
X82966834Y-71051168D01*
X83157310Y-71146406D01*
X81252548Y-70765454D02*
X81157310Y-70670216D01*
X80966834Y-70574977D01*
X80490643Y-70574977D01*
X80300167Y-70670216D01*
X80204929Y-70765454D01*
X80109691Y-70955930D01*
X80109691Y-71146406D01*
X80204929Y-71432120D01*
X81347786Y-72574977D01*
X80109691Y-72574977D01*
X78966834Y-71432120D02*
X79157310Y-71336882D01*
X79252548Y-71241644D01*
X79347786Y-71051168D01*
X79347786Y-70955930D01*
X79252548Y-70765454D01*
X79157310Y-70670216D01*
X78966834Y-70574977D01*
X78585881Y-70574977D01*
X78395405Y-70670216D01*
X78300167Y-70765454D01*
X78204929Y-70955930D01*
X78204929Y-71051168D01*
X78300167Y-71241644D01*
X78395405Y-71336882D01*
X78585881Y-71432120D01*
X78966834Y-71432120D01*
X79157310Y-71527358D01*
X79252548Y-71622596D01*
X79347786Y-71813073D01*
X79347786Y-72194025D01*
X79252548Y-72384501D01*
X79157310Y-72479739D01*
X78966834Y-72574977D01*
X78585881Y-72574977D01*
X78395405Y-72479739D01*
X78300167Y-72384501D01*
X78204929Y-72194025D01*
X78204929Y-71813073D01*
X78300167Y-71622596D01*
X78395405Y-71527358D01*
X78585881Y-71432120D01*
X77538262Y-72574977D02*
X76490643Y-71241644D01*
X77538262Y-71241644D02*
X76490643Y-72574977D01*
X74871596Y-70574977D02*
X75252548Y-70574977D01*
X75443024Y-70670216D01*
X75538262Y-70765454D01*
X75728738Y-71051168D01*
X75823977Y-71432120D01*
X75823977Y-72194025D01*
X75728738Y-72384501D01*
X75633500Y-72479739D01*
X75443024Y-72574977D01*
X75062072Y-72574977D01*
X74871596Y-72479739D01*
X74776357Y-72384501D01*
X74681119Y-72194025D01*
X74681119Y-71717835D01*
X74776357Y-71527358D01*
X74871596Y-71432120D01*
X75062072Y-71336882D01*
X75443024Y-71336882D01*
X75633500Y-71432120D01*
X75728738Y-71527358D01*
X75823977Y-71717835D01*
X72966834Y-71241644D02*
X72966834Y-72574977D01*
X73443024Y-70479739D02*
X73919215Y-71908311D01*
X72681119Y-71908311D01*
X79087619Y-61333333D02*
X78087619Y-61000000D01*
X79087619Y-60666666D01*
X78182857Y-59761904D02*
X78135238Y-59809523D01*
X78087619Y-59952380D01*
X78087619Y-60047619D01*
X78135238Y-60190476D01*
X78230476Y-60285714D01*
X78325714Y-60333333D01*
X78516190Y-60380952D01*
X78659047Y-60380952D01*
X78849523Y-60333333D01*
X78944761Y-60285714D01*
X79040000Y-60190476D01*
X79087619Y-60047619D01*
X79087619Y-59952380D01*
X79040000Y-59809523D01*
X78992380Y-59761904D01*
X78182857Y-58761904D02*
X78135238Y-58809523D01*
X78087619Y-58952380D01*
X78087619Y-59047619D01*
X78135238Y-59190476D01*
X78230476Y-59285714D01*
X78325714Y-59333333D01*
X78516190Y-59380952D01*
X78659047Y-59380952D01*
X78849523Y-59333333D01*
X78944761Y-59285714D01*
X79040000Y-59190476D01*
X79087619Y-59047619D01*
X79087619Y-58952380D01*
X79040000Y-58809523D01*
X78992380Y-58761904D01*
X83135238Y-61190476D02*
X83087619Y-61047619D01*
X83087619Y-60809523D01*
X83135238Y-60714285D01*
X83182857Y-60666666D01*
X83278095Y-60619047D01*
X83373333Y-60619047D01*
X83468571Y-60666666D01*
X83516190Y-60714285D01*
X83563809Y-60809523D01*
X83611428Y-61000000D01*
X83659047Y-61095238D01*
X83706666Y-61142857D01*
X83801904Y-61190476D01*
X83897142Y-61190476D01*
X83992380Y-61142857D01*
X84040000Y-61095238D01*
X84087619Y-61000000D01*
X84087619Y-60761904D01*
X84040000Y-60619047D01*
X83182857Y-59619047D02*
X83135238Y-59666666D01*
X83087619Y-59809523D01*
X83087619Y-59904761D01*
X83135238Y-60047619D01*
X83230476Y-60142857D01*
X83325714Y-60190476D01*
X83516190Y-60238095D01*
X83659047Y-60238095D01*
X83849523Y-60190476D01*
X83944761Y-60142857D01*
X84040000Y-60047619D01*
X84087619Y-59904761D01*
X84087619Y-59809523D01*
X84040000Y-59666666D01*
X83992380Y-59619047D01*
X83087619Y-58714285D02*
X83087619Y-59190476D01*
X84087619Y-59190476D01*
X85935238Y-61214285D02*
X85887619Y-61071428D01*
X85887619Y-60833333D01*
X85935238Y-60738095D01*
X85982857Y-60690476D01*
X86078095Y-60642857D01*
X86173333Y-60642857D01*
X86268571Y-60690476D01*
X86316190Y-60738095D01*
X86363809Y-60833333D01*
X86411428Y-61023809D01*
X86459047Y-61119047D01*
X86506666Y-61166666D01*
X86601904Y-61214285D01*
X86697142Y-61214285D01*
X86792380Y-61166666D01*
X86840000Y-61119047D01*
X86887619Y-61023809D01*
X86887619Y-60785714D01*
X86840000Y-60642857D01*
X85887619Y-60214285D02*
X86887619Y-60214285D01*
X86887619Y-59976190D01*
X86840000Y-59833333D01*
X86744761Y-59738095D01*
X86649523Y-59690476D01*
X86459047Y-59642857D01*
X86316190Y-59642857D01*
X86125714Y-59690476D01*
X86030476Y-59738095D01*
X85935238Y-59833333D01*
X85887619Y-59976190D01*
X85887619Y-60214285D01*
X86173333Y-59261904D02*
X86173333Y-58785714D01*
X85887619Y-59357142D02*
X86887619Y-59023809D01*
X85887619Y-58690476D01*
X81440000Y-60761904D02*
X81487619Y-60857142D01*
X81487619Y-61000000D01*
X81440000Y-61142857D01*
X81344761Y-61238095D01*
X81249523Y-61285714D01*
X81059047Y-61333333D01*
X80916190Y-61333333D01*
X80725714Y-61285714D01*
X80630476Y-61238095D01*
X80535238Y-61142857D01*
X80487619Y-61000000D01*
X80487619Y-60904761D01*
X80535238Y-60761904D01*
X80582857Y-60714285D01*
X80916190Y-60714285D01*
X80916190Y-60904761D01*
X80487619Y-60285714D02*
X81487619Y-60285714D01*
X80487619Y-59714285D01*
X81487619Y-59714285D01*
X80487619Y-59238095D02*
X81487619Y-59238095D01*
X81487619Y-59000000D01*
X81440000Y-58857142D01*
X81344761Y-58761904D01*
X81249523Y-58714285D01*
X81059047Y-58666666D01*
X80916190Y-58666666D01*
X80725714Y-58714285D01*
X80630476Y-58761904D01*
X80535238Y-58857142D01*
X80487619Y-59000000D01*
X80487619Y-59238095D01*
G04 #@! TD*
M02*
