G04 #@! TF.FileFunction,Legend,Top*
%FSLAX46Y46*%
G04 Gerber Fmt 4.6, Leading zero omitted, Abs format (unit mm)*
G04 Created by KiCad (PCBNEW 4.0.7) date 04/11/18 13:12:21*
%MOMM*%
%LPD*%
G01*
G04 APERTURE LIST*
%ADD10C,0.100000*%
%ADD11C,0.150000*%
%ADD12C,0.200000*%
%ADD13C,0.120000*%
%ADD14C,0.010000*%
G04 APERTURE END LIST*
D10*
D11*
X113927381Y-131412382D02*
X113451190Y-131745716D01*
X113927381Y-131983811D02*
X112927381Y-131983811D01*
X112927381Y-131602858D01*
X112975000Y-131507620D01*
X113022619Y-131460001D01*
X113117857Y-131412382D01*
X113260714Y-131412382D01*
X113355952Y-131460001D01*
X113403571Y-131507620D01*
X113451190Y-131602858D01*
X113451190Y-131983811D01*
X113927381Y-130983811D02*
X113260714Y-130983811D01*
X112927381Y-130983811D02*
X112975000Y-131031430D01*
X113022619Y-130983811D01*
X112975000Y-130936192D01*
X112927381Y-130983811D01*
X113022619Y-130983811D01*
X113260714Y-130079049D02*
X114070238Y-130079049D01*
X114165476Y-130126668D01*
X114213095Y-130174287D01*
X114260714Y-130269526D01*
X114260714Y-130412383D01*
X114213095Y-130507621D01*
X113879762Y-130079049D02*
X113927381Y-130174287D01*
X113927381Y-130364764D01*
X113879762Y-130460002D01*
X113832143Y-130507621D01*
X113736905Y-130555240D01*
X113451190Y-130555240D01*
X113355952Y-130507621D01*
X113308333Y-130460002D01*
X113260714Y-130364764D01*
X113260714Y-130174287D01*
X113308333Y-130079049D01*
X113927381Y-129602859D02*
X112927381Y-129602859D01*
X113927381Y-129174287D02*
X113403571Y-129174287D01*
X113308333Y-129221906D01*
X113260714Y-129317144D01*
X113260714Y-129460002D01*
X113308333Y-129555240D01*
X113355952Y-129602859D01*
X113260714Y-128840954D02*
X113260714Y-128460002D01*
X112927381Y-128698097D02*
X113784524Y-128698097D01*
X113879762Y-128650478D01*
X113927381Y-128555240D01*
X113927381Y-128460002D01*
X113641667Y-127412382D02*
X113641667Y-126936191D01*
X113927381Y-127507620D02*
X112927381Y-127174287D01*
X113927381Y-126840953D01*
X113260714Y-126507620D02*
X113927381Y-126507620D01*
X113355952Y-126507620D02*
X113308333Y-126460001D01*
X113260714Y-126364763D01*
X113260714Y-126221905D01*
X113308333Y-126126667D01*
X113403571Y-126079048D01*
X113927381Y-126079048D01*
X113260714Y-125174286D02*
X114070238Y-125174286D01*
X114165476Y-125221905D01*
X114213095Y-125269524D01*
X114260714Y-125364763D01*
X114260714Y-125507620D01*
X114213095Y-125602858D01*
X113879762Y-125174286D02*
X113927381Y-125269524D01*
X113927381Y-125460001D01*
X113879762Y-125555239D01*
X113832143Y-125602858D01*
X113736905Y-125650477D01*
X113451190Y-125650477D01*
X113355952Y-125602858D01*
X113308333Y-125555239D01*
X113260714Y-125460001D01*
X113260714Y-125269524D01*
X113308333Y-125174286D01*
X113927381Y-124555239D02*
X113879762Y-124650477D01*
X113784524Y-124698096D01*
X112927381Y-124698096D01*
X113879762Y-123793333D02*
X113927381Y-123888571D01*
X113927381Y-124079048D01*
X113879762Y-124174286D01*
X113784524Y-124221905D01*
X113403571Y-124221905D01*
X113308333Y-124174286D01*
X113260714Y-124079048D01*
X113260714Y-123888571D01*
X113308333Y-123793333D01*
X113403571Y-123745714D01*
X113498810Y-123745714D01*
X113594048Y-124221905D01*
X113403571Y-122221904D02*
X113403571Y-122555238D01*
X113927381Y-122555238D02*
X112927381Y-122555238D01*
X112927381Y-122079047D01*
X113879762Y-121317142D02*
X113927381Y-121412380D01*
X113927381Y-121602857D01*
X113879762Y-121698095D01*
X113784524Y-121745714D01*
X113403571Y-121745714D01*
X113308333Y-121698095D01*
X113260714Y-121602857D01*
X113260714Y-121412380D01*
X113308333Y-121317142D01*
X113403571Y-121269523D01*
X113498810Y-121269523D01*
X113594048Y-121745714D01*
X113927381Y-120840952D02*
X113260714Y-120840952D01*
X113355952Y-120840952D02*
X113308333Y-120793333D01*
X113260714Y-120698095D01*
X113260714Y-120555237D01*
X113308333Y-120459999D01*
X113403571Y-120412380D01*
X113927381Y-120412380D01*
X113403571Y-120412380D02*
X113308333Y-120364761D01*
X113260714Y-120269523D01*
X113260714Y-120126666D01*
X113308333Y-120031428D01*
X113403571Y-119983809D01*
X113927381Y-119983809D01*
X113927381Y-119079047D02*
X113403571Y-119079047D01*
X113308333Y-119126666D01*
X113260714Y-119221904D01*
X113260714Y-119412381D01*
X113308333Y-119507619D01*
X113879762Y-119079047D02*
X113927381Y-119174285D01*
X113927381Y-119412381D01*
X113879762Y-119507619D01*
X113784524Y-119555238D01*
X113689286Y-119555238D01*
X113594048Y-119507619D01*
X113546429Y-119412381D01*
X113546429Y-119174285D01*
X113498810Y-119079047D01*
X113927381Y-118460000D02*
X113879762Y-118555238D01*
X113784524Y-118602857D01*
X112927381Y-118602857D01*
X113879762Y-117698094D02*
X113927381Y-117793332D01*
X113927381Y-117983809D01*
X113879762Y-118079047D01*
X113784524Y-118126666D01*
X113403571Y-118126666D01*
X113308333Y-118079047D01*
X113260714Y-117983809D01*
X113260714Y-117793332D01*
X113308333Y-117698094D01*
X113403571Y-117650475D01*
X113498810Y-117650475D01*
X113594048Y-118126666D01*
X114672619Y-133126668D02*
X114625000Y-133079049D01*
X114577381Y-132983811D01*
X114577381Y-132745715D01*
X114625000Y-132650477D01*
X114672619Y-132602858D01*
X114767857Y-132555239D01*
X114863095Y-132555239D01*
X115005952Y-132602858D01*
X115577381Y-133174287D01*
X115577381Y-132555239D01*
X114577381Y-131936192D02*
X114577381Y-131840953D01*
X114625000Y-131745715D01*
X114672619Y-131698096D01*
X114767857Y-131650477D01*
X114958333Y-131602858D01*
X115196429Y-131602858D01*
X115386905Y-131650477D01*
X115482143Y-131698096D01*
X115529762Y-131745715D01*
X115577381Y-131840953D01*
X115577381Y-131936192D01*
X115529762Y-132031430D01*
X115482143Y-132079049D01*
X115386905Y-132126668D01*
X115196429Y-132174287D01*
X114958333Y-132174287D01*
X114767857Y-132126668D01*
X114672619Y-132079049D01*
X114625000Y-132031430D01*
X114577381Y-131936192D01*
X115577381Y-130412382D02*
X114577381Y-130412382D01*
X114577381Y-130031429D01*
X114625000Y-129936191D01*
X114672619Y-129888572D01*
X114767857Y-129840953D01*
X114910714Y-129840953D01*
X115005952Y-129888572D01*
X115053571Y-129936191D01*
X115101190Y-130031429D01*
X115101190Y-130412382D01*
X114577381Y-129221906D02*
X114577381Y-129031429D01*
X114625000Y-128936191D01*
X114720238Y-128840953D01*
X114910714Y-128793334D01*
X115244048Y-128793334D01*
X115434524Y-128840953D01*
X115529762Y-128936191D01*
X115577381Y-129031429D01*
X115577381Y-129221906D01*
X115529762Y-129317144D01*
X115434524Y-129412382D01*
X115244048Y-129460001D01*
X114910714Y-129460001D01*
X114720238Y-129412382D01*
X114625000Y-129317144D01*
X114577381Y-129221906D01*
X115529762Y-128412382D02*
X115577381Y-128269525D01*
X115577381Y-128031429D01*
X115529762Y-127936191D01*
X115482143Y-127888572D01*
X115386905Y-127840953D01*
X115291667Y-127840953D01*
X115196429Y-127888572D01*
X115148810Y-127936191D01*
X115101190Y-128031429D01*
X115053571Y-128221906D01*
X115005952Y-128317144D01*
X114958333Y-128364763D01*
X114863095Y-128412382D01*
X114767857Y-128412382D01*
X114672619Y-128364763D01*
X114625000Y-128317144D01*
X114577381Y-128221906D01*
X114577381Y-127983810D01*
X114625000Y-127840953D01*
X115053571Y-126317143D02*
X115053571Y-126650477D01*
X115577381Y-126650477D02*
X114577381Y-126650477D01*
X114577381Y-126174286D01*
X115529762Y-125412381D02*
X115577381Y-125507619D01*
X115577381Y-125698096D01*
X115529762Y-125793334D01*
X115434524Y-125840953D01*
X115053571Y-125840953D01*
X114958333Y-125793334D01*
X114910714Y-125698096D01*
X114910714Y-125507619D01*
X114958333Y-125412381D01*
X115053571Y-125364762D01*
X115148810Y-125364762D01*
X115244048Y-125840953D01*
X115577381Y-124936191D02*
X114910714Y-124936191D01*
X115005952Y-124936191D02*
X114958333Y-124888572D01*
X114910714Y-124793334D01*
X114910714Y-124650476D01*
X114958333Y-124555238D01*
X115053571Y-124507619D01*
X115577381Y-124507619D01*
X115053571Y-124507619D02*
X114958333Y-124460000D01*
X114910714Y-124364762D01*
X114910714Y-124221905D01*
X114958333Y-124126667D01*
X115053571Y-124079048D01*
X115577381Y-124079048D01*
X115577381Y-123174286D02*
X115053571Y-123174286D01*
X114958333Y-123221905D01*
X114910714Y-123317143D01*
X114910714Y-123507620D01*
X114958333Y-123602858D01*
X115529762Y-123174286D02*
X115577381Y-123269524D01*
X115577381Y-123507620D01*
X115529762Y-123602858D01*
X115434524Y-123650477D01*
X115339286Y-123650477D01*
X115244048Y-123602858D01*
X115196429Y-123507620D01*
X115196429Y-123269524D01*
X115148810Y-123174286D01*
X115577381Y-122555239D02*
X115529762Y-122650477D01*
X115434524Y-122698096D01*
X114577381Y-122698096D01*
X115529762Y-121793333D02*
X115577381Y-121888571D01*
X115577381Y-122079048D01*
X115529762Y-122174286D01*
X115434524Y-122221905D01*
X115053571Y-122221905D01*
X114958333Y-122174286D01*
X114910714Y-122079048D01*
X114910714Y-121888571D01*
X114958333Y-121793333D01*
X115053571Y-121745714D01*
X115148810Y-121745714D01*
X115244048Y-122221905D01*
X115577381Y-120555238D02*
X114577381Y-120555238D01*
X115053571Y-120555238D02*
X115053571Y-119983809D01*
X115577381Y-119983809D02*
X114577381Y-119983809D01*
X115529762Y-119126666D02*
X115577381Y-119221904D01*
X115577381Y-119412381D01*
X115529762Y-119507619D01*
X115434524Y-119555238D01*
X115053571Y-119555238D01*
X114958333Y-119507619D01*
X114910714Y-119412381D01*
X114910714Y-119221904D01*
X114958333Y-119126666D01*
X115053571Y-119079047D01*
X115148810Y-119079047D01*
X115244048Y-119555238D01*
X115577381Y-118221904D02*
X115053571Y-118221904D01*
X114958333Y-118269523D01*
X114910714Y-118364761D01*
X114910714Y-118555238D01*
X114958333Y-118650476D01*
X115529762Y-118221904D02*
X115577381Y-118317142D01*
X115577381Y-118555238D01*
X115529762Y-118650476D01*
X115434524Y-118698095D01*
X115339286Y-118698095D01*
X115244048Y-118650476D01*
X115196429Y-118555238D01*
X115196429Y-118317142D01*
X115148810Y-118221904D01*
X115577381Y-117317142D02*
X114577381Y-117317142D01*
X115529762Y-117317142D02*
X115577381Y-117412380D01*
X115577381Y-117602857D01*
X115529762Y-117698095D01*
X115482143Y-117745714D01*
X115386905Y-117793333D01*
X115101190Y-117793333D01*
X115005952Y-117745714D01*
X114958333Y-117698095D01*
X114910714Y-117602857D01*
X114910714Y-117412380D01*
X114958333Y-117317142D01*
X115529762Y-116459999D02*
X115577381Y-116555237D01*
X115577381Y-116745714D01*
X115529762Y-116840952D01*
X115434524Y-116888571D01*
X115053571Y-116888571D01*
X114958333Y-116840952D01*
X114910714Y-116745714D01*
X114910714Y-116555237D01*
X114958333Y-116459999D01*
X115053571Y-116412380D01*
X115148810Y-116412380D01*
X115244048Y-116888571D01*
X115577381Y-115983809D02*
X114910714Y-115983809D01*
X115101190Y-115983809D02*
X115005952Y-115936190D01*
X114958333Y-115888571D01*
X114910714Y-115793333D01*
X114910714Y-115698094D01*
X113927381Y-88232382D02*
X113451190Y-88565716D01*
X113927381Y-88803811D02*
X112927381Y-88803811D01*
X112927381Y-88422858D01*
X112975000Y-88327620D01*
X113022619Y-88280001D01*
X113117857Y-88232382D01*
X113260714Y-88232382D01*
X113355952Y-88280001D01*
X113403571Y-88327620D01*
X113451190Y-88422858D01*
X113451190Y-88803811D01*
X113927381Y-87803811D02*
X113260714Y-87803811D01*
X112927381Y-87803811D02*
X112975000Y-87851430D01*
X113022619Y-87803811D01*
X112975000Y-87756192D01*
X112927381Y-87803811D01*
X113022619Y-87803811D01*
X113260714Y-86899049D02*
X114070238Y-86899049D01*
X114165476Y-86946668D01*
X114213095Y-86994287D01*
X114260714Y-87089526D01*
X114260714Y-87232383D01*
X114213095Y-87327621D01*
X113879762Y-86899049D02*
X113927381Y-86994287D01*
X113927381Y-87184764D01*
X113879762Y-87280002D01*
X113832143Y-87327621D01*
X113736905Y-87375240D01*
X113451190Y-87375240D01*
X113355952Y-87327621D01*
X113308333Y-87280002D01*
X113260714Y-87184764D01*
X113260714Y-86994287D01*
X113308333Y-86899049D01*
X113927381Y-86422859D02*
X112927381Y-86422859D01*
X113927381Y-85994287D02*
X113403571Y-85994287D01*
X113308333Y-86041906D01*
X113260714Y-86137144D01*
X113260714Y-86280002D01*
X113308333Y-86375240D01*
X113355952Y-86422859D01*
X113260714Y-85660954D02*
X113260714Y-85280002D01*
X112927381Y-85518097D02*
X113784524Y-85518097D01*
X113879762Y-85470478D01*
X113927381Y-85375240D01*
X113927381Y-85280002D01*
X113641667Y-84232382D02*
X113641667Y-83756191D01*
X113927381Y-84327620D02*
X112927381Y-83994287D01*
X113927381Y-83660953D01*
X113260714Y-83327620D02*
X113927381Y-83327620D01*
X113355952Y-83327620D02*
X113308333Y-83280001D01*
X113260714Y-83184763D01*
X113260714Y-83041905D01*
X113308333Y-82946667D01*
X113403571Y-82899048D01*
X113927381Y-82899048D01*
X113260714Y-81994286D02*
X114070238Y-81994286D01*
X114165476Y-82041905D01*
X114213095Y-82089524D01*
X114260714Y-82184763D01*
X114260714Y-82327620D01*
X114213095Y-82422858D01*
X113879762Y-81994286D02*
X113927381Y-82089524D01*
X113927381Y-82280001D01*
X113879762Y-82375239D01*
X113832143Y-82422858D01*
X113736905Y-82470477D01*
X113451190Y-82470477D01*
X113355952Y-82422858D01*
X113308333Y-82375239D01*
X113260714Y-82280001D01*
X113260714Y-82089524D01*
X113308333Y-81994286D01*
X113927381Y-81375239D02*
X113879762Y-81470477D01*
X113784524Y-81518096D01*
X112927381Y-81518096D01*
X113879762Y-80613333D02*
X113927381Y-80708571D01*
X113927381Y-80899048D01*
X113879762Y-80994286D01*
X113784524Y-81041905D01*
X113403571Y-81041905D01*
X113308333Y-80994286D01*
X113260714Y-80899048D01*
X113260714Y-80708571D01*
X113308333Y-80613333D01*
X113403571Y-80565714D01*
X113498810Y-80565714D01*
X113594048Y-81041905D01*
X113403571Y-79041904D02*
X113403571Y-79375238D01*
X113927381Y-79375238D02*
X112927381Y-79375238D01*
X112927381Y-78899047D01*
X113879762Y-78137142D02*
X113927381Y-78232380D01*
X113927381Y-78422857D01*
X113879762Y-78518095D01*
X113784524Y-78565714D01*
X113403571Y-78565714D01*
X113308333Y-78518095D01*
X113260714Y-78422857D01*
X113260714Y-78232380D01*
X113308333Y-78137142D01*
X113403571Y-78089523D01*
X113498810Y-78089523D01*
X113594048Y-78565714D01*
X113927381Y-77660952D02*
X113260714Y-77660952D01*
X113355952Y-77660952D02*
X113308333Y-77613333D01*
X113260714Y-77518095D01*
X113260714Y-77375237D01*
X113308333Y-77279999D01*
X113403571Y-77232380D01*
X113927381Y-77232380D01*
X113403571Y-77232380D02*
X113308333Y-77184761D01*
X113260714Y-77089523D01*
X113260714Y-76946666D01*
X113308333Y-76851428D01*
X113403571Y-76803809D01*
X113927381Y-76803809D01*
X113927381Y-75899047D02*
X113403571Y-75899047D01*
X113308333Y-75946666D01*
X113260714Y-76041904D01*
X113260714Y-76232381D01*
X113308333Y-76327619D01*
X113879762Y-75899047D02*
X113927381Y-75994285D01*
X113927381Y-76232381D01*
X113879762Y-76327619D01*
X113784524Y-76375238D01*
X113689286Y-76375238D01*
X113594048Y-76327619D01*
X113546429Y-76232381D01*
X113546429Y-75994285D01*
X113498810Y-75899047D01*
X113927381Y-75280000D02*
X113879762Y-75375238D01*
X113784524Y-75422857D01*
X112927381Y-75422857D01*
X113879762Y-74518094D02*
X113927381Y-74613332D01*
X113927381Y-74803809D01*
X113879762Y-74899047D01*
X113784524Y-74946666D01*
X113403571Y-74946666D01*
X113308333Y-74899047D01*
X113260714Y-74803809D01*
X113260714Y-74613332D01*
X113308333Y-74518094D01*
X113403571Y-74470475D01*
X113498810Y-74470475D01*
X113594048Y-74946666D01*
X114672619Y-89946668D02*
X114625000Y-89899049D01*
X114577381Y-89803811D01*
X114577381Y-89565715D01*
X114625000Y-89470477D01*
X114672619Y-89422858D01*
X114767857Y-89375239D01*
X114863095Y-89375239D01*
X115005952Y-89422858D01*
X115577381Y-89994287D01*
X115577381Y-89375239D01*
X114577381Y-88756192D02*
X114577381Y-88660953D01*
X114625000Y-88565715D01*
X114672619Y-88518096D01*
X114767857Y-88470477D01*
X114958333Y-88422858D01*
X115196429Y-88422858D01*
X115386905Y-88470477D01*
X115482143Y-88518096D01*
X115529762Y-88565715D01*
X115577381Y-88660953D01*
X115577381Y-88756192D01*
X115529762Y-88851430D01*
X115482143Y-88899049D01*
X115386905Y-88946668D01*
X115196429Y-88994287D01*
X114958333Y-88994287D01*
X114767857Y-88946668D01*
X114672619Y-88899049D01*
X114625000Y-88851430D01*
X114577381Y-88756192D01*
X115577381Y-87232382D02*
X114577381Y-87232382D01*
X114577381Y-86851429D01*
X114625000Y-86756191D01*
X114672619Y-86708572D01*
X114767857Y-86660953D01*
X114910714Y-86660953D01*
X115005952Y-86708572D01*
X115053571Y-86756191D01*
X115101190Y-86851429D01*
X115101190Y-87232382D01*
X114577381Y-86041906D02*
X114577381Y-85851429D01*
X114625000Y-85756191D01*
X114720238Y-85660953D01*
X114910714Y-85613334D01*
X115244048Y-85613334D01*
X115434524Y-85660953D01*
X115529762Y-85756191D01*
X115577381Y-85851429D01*
X115577381Y-86041906D01*
X115529762Y-86137144D01*
X115434524Y-86232382D01*
X115244048Y-86280001D01*
X114910714Y-86280001D01*
X114720238Y-86232382D01*
X114625000Y-86137144D01*
X114577381Y-86041906D01*
X115529762Y-85232382D02*
X115577381Y-85089525D01*
X115577381Y-84851429D01*
X115529762Y-84756191D01*
X115482143Y-84708572D01*
X115386905Y-84660953D01*
X115291667Y-84660953D01*
X115196429Y-84708572D01*
X115148810Y-84756191D01*
X115101190Y-84851429D01*
X115053571Y-85041906D01*
X115005952Y-85137144D01*
X114958333Y-85184763D01*
X114863095Y-85232382D01*
X114767857Y-85232382D01*
X114672619Y-85184763D01*
X114625000Y-85137144D01*
X114577381Y-85041906D01*
X114577381Y-84803810D01*
X114625000Y-84660953D01*
X115053571Y-83137143D02*
X115053571Y-83470477D01*
X115577381Y-83470477D02*
X114577381Y-83470477D01*
X114577381Y-82994286D01*
X115529762Y-82232381D02*
X115577381Y-82327619D01*
X115577381Y-82518096D01*
X115529762Y-82613334D01*
X115434524Y-82660953D01*
X115053571Y-82660953D01*
X114958333Y-82613334D01*
X114910714Y-82518096D01*
X114910714Y-82327619D01*
X114958333Y-82232381D01*
X115053571Y-82184762D01*
X115148810Y-82184762D01*
X115244048Y-82660953D01*
X115577381Y-81756191D02*
X114910714Y-81756191D01*
X115005952Y-81756191D02*
X114958333Y-81708572D01*
X114910714Y-81613334D01*
X114910714Y-81470476D01*
X114958333Y-81375238D01*
X115053571Y-81327619D01*
X115577381Y-81327619D01*
X115053571Y-81327619D02*
X114958333Y-81280000D01*
X114910714Y-81184762D01*
X114910714Y-81041905D01*
X114958333Y-80946667D01*
X115053571Y-80899048D01*
X115577381Y-80899048D01*
X115577381Y-79994286D02*
X115053571Y-79994286D01*
X114958333Y-80041905D01*
X114910714Y-80137143D01*
X114910714Y-80327620D01*
X114958333Y-80422858D01*
X115529762Y-79994286D02*
X115577381Y-80089524D01*
X115577381Y-80327620D01*
X115529762Y-80422858D01*
X115434524Y-80470477D01*
X115339286Y-80470477D01*
X115244048Y-80422858D01*
X115196429Y-80327620D01*
X115196429Y-80089524D01*
X115148810Y-79994286D01*
X115577381Y-79375239D02*
X115529762Y-79470477D01*
X115434524Y-79518096D01*
X114577381Y-79518096D01*
X115529762Y-78613333D02*
X115577381Y-78708571D01*
X115577381Y-78899048D01*
X115529762Y-78994286D01*
X115434524Y-79041905D01*
X115053571Y-79041905D01*
X114958333Y-78994286D01*
X114910714Y-78899048D01*
X114910714Y-78708571D01*
X114958333Y-78613333D01*
X115053571Y-78565714D01*
X115148810Y-78565714D01*
X115244048Y-79041905D01*
X115577381Y-77375238D02*
X114577381Y-77375238D01*
X115053571Y-77375238D02*
X115053571Y-76803809D01*
X115577381Y-76803809D02*
X114577381Y-76803809D01*
X115529762Y-75946666D02*
X115577381Y-76041904D01*
X115577381Y-76232381D01*
X115529762Y-76327619D01*
X115434524Y-76375238D01*
X115053571Y-76375238D01*
X114958333Y-76327619D01*
X114910714Y-76232381D01*
X114910714Y-76041904D01*
X114958333Y-75946666D01*
X115053571Y-75899047D01*
X115148810Y-75899047D01*
X115244048Y-76375238D01*
X115577381Y-75041904D02*
X115053571Y-75041904D01*
X114958333Y-75089523D01*
X114910714Y-75184761D01*
X114910714Y-75375238D01*
X114958333Y-75470476D01*
X115529762Y-75041904D02*
X115577381Y-75137142D01*
X115577381Y-75375238D01*
X115529762Y-75470476D01*
X115434524Y-75518095D01*
X115339286Y-75518095D01*
X115244048Y-75470476D01*
X115196429Y-75375238D01*
X115196429Y-75137142D01*
X115148810Y-75041904D01*
X115577381Y-74137142D02*
X114577381Y-74137142D01*
X115529762Y-74137142D02*
X115577381Y-74232380D01*
X115577381Y-74422857D01*
X115529762Y-74518095D01*
X115482143Y-74565714D01*
X115386905Y-74613333D01*
X115101190Y-74613333D01*
X115005952Y-74565714D01*
X114958333Y-74518095D01*
X114910714Y-74422857D01*
X114910714Y-74232380D01*
X114958333Y-74137142D01*
X115529762Y-73279999D02*
X115577381Y-73375237D01*
X115577381Y-73565714D01*
X115529762Y-73660952D01*
X115434524Y-73708571D01*
X115053571Y-73708571D01*
X114958333Y-73660952D01*
X114910714Y-73565714D01*
X114910714Y-73375237D01*
X114958333Y-73279999D01*
X115053571Y-73232380D01*
X115148810Y-73232380D01*
X115244048Y-73708571D01*
X115577381Y-72803809D02*
X114910714Y-72803809D01*
X115101190Y-72803809D02*
X115005952Y-72756190D01*
X114958333Y-72708571D01*
X114910714Y-72613333D01*
X114910714Y-72518094D01*
D12*
X118681500Y-69342000D02*
X118681500Y-69278500D01*
X118681500Y-68516500D02*
X118681500Y-69342000D01*
X105346500Y-68516500D02*
X118681500Y-68516500D01*
X118681500Y-94043500D02*
X118681500Y-69342000D01*
X105346500Y-94043500D02*
X118681500Y-94043500D01*
X118681500Y-110172500D02*
X118681500Y-110617000D01*
X105346500Y-110172500D02*
X118681500Y-110172500D01*
X118681500Y-110617000D02*
X118681500Y-110998000D01*
X118681500Y-135699500D02*
X118681500Y-110617000D01*
X105346500Y-135699500D02*
X118681500Y-135699500D01*
X107950000Y-71120000D02*
X107950000Y-68516500D01*
X105346500Y-71120000D02*
X107950000Y-71120000D01*
X105346500Y-94043500D02*
X110553500Y-94043500D01*
X105346500Y-68516500D02*
X105346500Y-94043500D01*
X110553500Y-68516500D02*
X105346500Y-68516500D01*
X110553500Y-94043500D02*
X110553500Y-68516500D01*
X110553500Y-110172500D02*
X107950000Y-110172500D01*
X110553500Y-135699500D02*
X110553500Y-110172500D01*
X105346500Y-135699500D02*
X110553500Y-135699500D01*
X105346500Y-110172500D02*
X105346500Y-135699500D01*
X107950000Y-110172500D02*
X105346500Y-110172500D01*
X107950000Y-112776000D02*
X107950000Y-110172500D01*
X105346500Y-112776000D02*
X107950000Y-112776000D01*
D13*
X105350000Y-94040000D02*
X110550000Y-94040000D01*
X105350000Y-71120000D02*
X105350000Y-94040000D01*
X110550000Y-68520000D02*
X110550000Y-94040000D01*
X105350000Y-71120000D02*
X107950000Y-71120000D01*
X107950000Y-71120000D02*
X107950000Y-68520000D01*
X107950000Y-68520000D02*
X110550000Y-68520000D01*
X105350000Y-69850000D02*
X105350000Y-68520000D01*
X105350000Y-68520000D02*
X106680000Y-68520000D01*
D14*
G36*
X109875556Y-97025398D02*
X109881600Y-97029582D01*
X109891387Y-97036416D01*
X109904715Y-97045760D01*
X109921381Y-97057470D01*
X109941184Y-97071404D01*
X109963922Y-97087420D01*
X109989394Y-97105376D01*
X110017397Y-97125129D01*
X110047730Y-97146537D01*
X110080191Y-97169458D01*
X110114578Y-97193750D01*
X110150690Y-97219269D01*
X110188324Y-97245875D01*
X110227279Y-97273424D01*
X110267354Y-97301774D01*
X110267750Y-97302054D01*
X110298428Y-97323761D01*
X110333024Y-97348239D01*
X110371310Y-97375327D01*
X110413057Y-97404863D01*
X110458036Y-97436686D01*
X110506017Y-97470632D01*
X110556773Y-97506541D01*
X110610075Y-97544250D01*
X110665692Y-97583598D01*
X110723398Y-97624422D01*
X110782962Y-97666561D01*
X110844156Y-97709853D01*
X110906751Y-97754136D01*
X110970519Y-97799248D01*
X111035229Y-97845026D01*
X111100655Y-97891311D01*
X111166566Y-97937938D01*
X111232734Y-97984747D01*
X111298930Y-98031575D01*
X111364925Y-98078261D01*
X111430490Y-98124643D01*
X111495397Y-98170558D01*
X111539020Y-98201417D01*
X111652812Y-98281913D01*
X111762555Y-98359545D01*
X111868345Y-98434382D01*
X111970282Y-98506491D01*
X112068461Y-98575943D01*
X112162981Y-98642807D01*
X112253940Y-98707151D01*
X112341434Y-98769044D01*
X112425562Y-98828556D01*
X112506421Y-98885756D01*
X112584109Y-98940712D01*
X112658723Y-98993494D01*
X112730360Y-99044171D01*
X112799120Y-99092811D01*
X112865098Y-99139485D01*
X112928393Y-99184260D01*
X112989103Y-99227206D01*
X113047324Y-99268392D01*
X113103154Y-99307886D01*
X113156692Y-99345759D01*
X113208034Y-99382079D01*
X113257279Y-99416915D01*
X113304523Y-99450336D01*
X113349865Y-99482411D01*
X113393402Y-99513209D01*
X113435231Y-99542799D01*
X113475451Y-99571251D01*
X113514158Y-99598633D01*
X113551451Y-99625014D01*
X113587427Y-99650464D01*
X113622183Y-99675051D01*
X113655817Y-99698845D01*
X113688428Y-99721914D01*
X113720111Y-99744327D01*
X113750966Y-99766154D01*
X113781089Y-99787464D01*
X113810578Y-99808325D01*
X113839531Y-99828807D01*
X113868045Y-99848979D01*
X113896218Y-99868909D01*
X113924148Y-99888668D01*
X113951931Y-99908323D01*
X113979667Y-99927944D01*
X114007451Y-99947599D01*
X114035383Y-99967359D01*
X114063559Y-99987292D01*
X114092077Y-100007466D01*
X114117120Y-100025183D01*
X114163603Y-100058067D01*
X114210190Y-100091024D01*
X114256616Y-100123866D01*
X114302616Y-100156407D01*
X114347924Y-100188458D01*
X114392277Y-100219833D01*
X114435408Y-100250344D01*
X114477054Y-100279803D01*
X114516949Y-100308024D01*
X114554828Y-100334818D01*
X114590427Y-100359999D01*
X114623481Y-100383379D01*
X114653724Y-100404771D01*
X114680892Y-100423987D01*
X114704720Y-100440840D01*
X114724942Y-100455143D01*
X114741296Y-100466708D01*
X114741960Y-100467177D01*
X114759123Y-100479315D01*
X114780137Y-100494178D01*
X114804707Y-100511556D01*
X114832538Y-100531242D01*
X114863334Y-100553025D01*
X114896798Y-100576697D01*
X114932636Y-100602048D01*
X114970553Y-100628870D01*
X115010251Y-100656953D01*
X115051437Y-100686089D01*
X115093814Y-100716068D01*
X115137087Y-100746681D01*
X115180960Y-100777719D01*
X115225138Y-100808973D01*
X115269324Y-100840234D01*
X115309650Y-100868764D01*
X115356686Y-100902041D01*
X115405783Y-100936776D01*
X115456503Y-100972658D01*
X115508408Y-101009379D01*
X115561060Y-101046627D01*
X115614021Y-101084093D01*
X115666853Y-101121466D01*
X115719117Y-101158438D01*
X115770375Y-101194699D01*
X115820190Y-101229937D01*
X115868123Y-101263843D01*
X115913736Y-101296108D01*
X115956591Y-101326422D01*
X115996250Y-101354474D01*
X116032275Y-101379955D01*
X116038020Y-101384018D01*
X116073318Y-101409004D01*
X116107441Y-101433200D01*
X116140164Y-101456443D01*
X116171260Y-101478570D01*
X116200501Y-101499418D01*
X116227660Y-101518824D01*
X116252512Y-101536627D01*
X116274830Y-101552663D01*
X116294386Y-101566769D01*
X116310954Y-101578783D01*
X116324308Y-101588543D01*
X116334220Y-101595885D01*
X116340464Y-101600647D01*
X116342813Y-101602666D01*
X116342820Y-101602719D01*
X116340596Y-101604327D01*
X116334408Y-101608738D01*
X116324439Y-101615822D01*
X116310873Y-101625448D01*
X116293894Y-101637486D01*
X116273686Y-101651806D01*
X116250432Y-101668278D01*
X116224316Y-101686772D01*
X116195523Y-101707158D01*
X116164234Y-101729306D01*
X116130635Y-101753086D01*
X116094909Y-101778368D01*
X116057240Y-101805021D01*
X116017812Y-101832915D01*
X115976807Y-101861921D01*
X115934411Y-101891909D01*
X115890807Y-101922747D01*
X115862100Y-101943048D01*
X115831646Y-101964583D01*
X115801723Y-101985744D01*
X115772221Y-102006606D01*
X115743033Y-102027247D01*
X115714048Y-102047745D01*
X115685159Y-102068175D01*
X115656255Y-102088616D01*
X115627229Y-102109143D01*
X115597971Y-102129836D01*
X115568372Y-102150769D01*
X115538323Y-102172021D01*
X115507716Y-102193668D01*
X115476441Y-102215788D01*
X115444390Y-102238457D01*
X115411453Y-102261753D01*
X115377523Y-102285752D01*
X115342488Y-102310532D01*
X115306242Y-102336170D01*
X115268675Y-102362743D01*
X115229677Y-102390327D01*
X115189141Y-102419000D01*
X115146957Y-102448840D01*
X115103016Y-102479922D01*
X115057209Y-102512324D01*
X115009427Y-102546124D01*
X114959562Y-102581397D01*
X114907505Y-102618222D01*
X114853146Y-102656675D01*
X114796376Y-102696833D01*
X114737088Y-102738774D01*
X114675171Y-102782574D01*
X114610516Y-102828310D01*
X114543016Y-102876060D01*
X114472561Y-102925901D01*
X114399042Y-102977909D01*
X114322350Y-103032162D01*
X114242376Y-103088737D01*
X114159011Y-103147710D01*
X114072147Y-103209159D01*
X113981674Y-103273161D01*
X113887483Y-103339793D01*
X113789467Y-103409132D01*
X113687514Y-103481255D01*
X113587530Y-103551986D01*
X113529475Y-103593055D01*
X113468977Y-103635852D01*
X113406411Y-103680112D01*
X113342156Y-103725567D01*
X113276587Y-103771950D01*
X113210084Y-103818996D01*
X113143021Y-103866436D01*
X113075778Y-103914004D01*
X113008730Y-103961433D01*
X112942256Y-104008457D01*
X112876731Y-104054809D01*
X112812534Y-104100222D01*
X112750042Y-104144429D01*
X112689631Y-104187163D01*
X112631679Y-104228158D01*
X112576563Y-104267146D01*
X112524660Y-104303861D01*
X112476347Y-104338037D01*
X112454690Y-104353357D01*
X112403462Y-104389594D01*
X112350020Y-104427398D01*
X112294776Y-104466477D01*
X112238141Y-104506541D01*
X112180529Y-104547296D01*
X112122351Y-104588452D01*
X112064020Y-104629716D01*
X112005947Y-104670798D01*
X111948545Y-104711406D01*
X111892226Y-104751248D01*
X111837402Y-104790032D01*
X111784485Y-104827468D01*
X111733889Y-104863262D01*
X111686023Y-104897125D01*
X111641302Y-104928764D01*
X111600137Y-104957887D01*
X111583470Y-104969679D01*
X111542160Y-104998905D01*
X111500633Y-105028284D01*
X111459202Y-105057595D01*
X111418177Y-105086618D01*
X111377871Y-105115132D01*
X111338595Y-105142916D01*
X111300662Y-105169750D01*
X111264384Y-105195413D01*
X111230071Y-105219684D01*
X111198038Y-105242343D01*
X111168594Y-105263170D01*
X111142053Y-105281942D01*
X111118725Y-105298441D01*
X111098924Y-105312445D01*
X111083090Y-105323642D01*
X111055850Y-105342904D01*
X111025429Y-105364418D01*
X110992792Y-105387501D01*
X110958905Y-105411471D01*
X110924733Y-105435643D01*
X110891241Y-105459336D01*
X110859394Y-105481867D01*
X110830158Y-105502553D01*
X110822740Y-105507803D01*
X110806473Y-105519313D01*
X110786360Y-105533542D01*
X110762703Y-105550277D01*
X110735803Y-105569305D01*
X110705961Y-105590413D01*
X110673481Y-105613387D01*
X110638662Y-105638013D01*
X110601808Y-105664079D01*
X110563219Y-105691371D01*
X110523198Y-105719676D01*
X110482045Y-105748780D01*
X110440063Y-105778470D01*
X110397553Y-105808532D01*
X110354818Y-105838754D01*
X110312158Y-105868921D01*
X110293150Y-105882362D01*
X110252729Y-105910947D01*
X110213315Y-105938821D01*
X110175116Y-105965839D01*
X110138342Y-105991851D01*
X110103202Y-106016710D01*
X110069905Y-106040267D01*
X110038662Y-106062373D01*
X110009681Y-106082881D01*
X109983172Y-106101643D01*
X109959344Y-106118510D01*
X109938407Y-106133334D01*
X109920570Y-106145967D01*
X109906043Y-106156261D01*
X109895035Y-106164067D01*
X109887755Y-106169237D01*
X109884412Y-106171624D01*
X109884408Y-106171627D01*
X109877578Y-106176487D01*
X109874015Y-106178539D01*
X109872902Y-106177995D01*
X109873420Y-106175068D01*
X109873587Y-106174441D01*
X109874376Y-106171364D01*
X109876350Y-106163610D01*
X109879445Y-106151427D01*
X109883599Y-106135063D01*
X109888749Y-106114766D01*
X109894832Y-106090782D01*
X109901785Y-106063361D01*
X109909545Y-106032750D01*
X109918050Y-105999197D01*
X109927237Y-105962949D01*
X109937043Y-105924254D01*
X109947405Y-105883360D01*
X109958260Y-105840515D01*
X109969546Y-105795967D01*
X109981199Y-105749963D01*
X109989784Y-105716070D01*
X110003479Y-105662001D01*
X110017930Y-105604949D01*
X110032986Y-105545509D01*
X110048495Y-105484279D01*
X110064307Y-105421857D01*
X110080269Y-105358839D01*
X110096231Y-105295822D01*
X110112042Y-105233405D01*
X110127550Y-105172184D01*
X110142603Y-105112756D01*
X110157051Y-105055718D01*
X110170743Y-105001669D01*
X110183526Y-104951204D01*
X110195250Y-104904922D01*
X110197921Y-104894380D01*
X110210381Y-104845191D01*
X110223904Y-104791803D01*
X110238308Y-104734938D01*
X110253409Y-104675322D01*
X110269022Y-104613679D01*
X110284965Y-104550733D01*
X110301055Y-104487208D01*
X110317107Y-104423830D01*
X110332938Y-104361322D01*
X110348366Y-104300408D01*
X110363206Y-104241813D01*
X110377274Y-104186261D01*
X110390388Y-104134478D01*
X110390598Y-104133650D01*
X110403374Y-104083199D01*
X110416903Y-104029779D01*
X110431020Y-103974034D01*
X110445563Y-103916608D01*
X110460368Y-103858147D01*
X110475272Y-103799297D01*
X110490111Y-103740701D01*
X110504722Y-103683006D01*
X110518942Y-103626855D01*
X110532608Y-103572895D01*
X110545556Y-103521769D01*
X110557622Y-103474124D01*
X110568644Y-103430604D01*
X110571108Y-103420875D01*
X110581083Y-103381476D01*
X110590708Y-103343438D01*
X110599908Y-103307051D01*
X110608612Y-103272607D01*
X110616746Y-103240394D01*
X110624237Y-103210704D01*
X110631011Y-103183828D01*
X110636995Y-103160054D01*
X110642117Y-103139674D01*
X110646303Y-103122978D01*
X110649480Y-103110256D01*
X110651574Y-103101798D01*
X110652514Y-103097896D01*
X110652560Y-103097660D01*
X110650033Y-103097605D01*
X110642510Y-103097550D01*
X110630072Y-103097496D01*
X110612803Y-103097442D01*
X110590786Y-103097389D01*
X110564102Y-103097336D01*
X110532836Y-103097285D01*
X110497070Y-103097233D01*
X110456886Y-103097183D01*
X110412369Y-103097133D01*
X110363599Y-103097083D01*
X110310662Y-103097035D01*
X110253638Y-103096987D01*
X110192612Y-103096940D01*
X110127665Y-103096894D01*
X110058882Y-103096849D01*
X109986344Y-103096805D01*
X109910134Y-103096762D01*
X109830336Y-103096719D01*
X109747032Y-103096678D01*
X109660306Y-103096638D01*
X109570239Y-103096599D01*
X109476915Y-103096561D01*
X109380417Y-103096524D01*
X109280827Y-103096488D01*
X109178228Y-103096454D01*
X109072704Y-103096420D01*
X108964337Y-103096388D01*
X108853210Y-103096358D01*
X108739405Y-103096328D01*
X108623007Y-103096300D01*
X108504096Y-103096273D01*
X108382757Y-103096248D01*
X108259073Y-103096224D01*
X108133125Y-103096202D01*
X108004997Y-103096181D01*
X107874772Y-103096162D01*
X107742533Y-103096144D01*
X107608362Y-103096128D01*
X107472342Y-103096113D01*
X107334557Y-103096100D01*
X107195089Y-103096089D01*
X107054020Y-103096080D01*
X106911434Y-103096072D01*
X106767414Y-103096066D01*
X106622043Y-103096062D01*
X106475402Y-103096060D01*
X102095300Y-103096060D01*
X102095300Y-100101400D01*
X110652147Y-100101400D01*
X110624611Y-99992815D01*
X110621812Y-99981772D01*
X110617820Y-99966020D01*
X110612690Y-99945774D01*
X110606477Y-99921249D01*
X110599234Y-99892660D01*
X110591017Y-99860223D01*
X110581880Y-99824152D01*
X110571878Y-99784663D01*
X110561064Y-99741971D01*
X110549494Y-99696291D01*
X110537222Y-99647839D01*
X110524302Y-99596829D01*
X110510790Y-99543476D01*
X110496738Y-99487997D01*
X110482203Y-99430605D01*
X110467239Y-99371517D01*
X110451899Y-99310948D01*
X110436239Y-99249112D01*
X110420313Y-99186225D01*
X110404176Y-99122502D01*
X110391242Y-99071430D01*
X110373212Y-99000231D01*
X110354482Y-98926272D01*
X110335161Y-98849975D01*
X110315353Y-98771761D01*
X110295167Y-98692050D01*
X110274708Y-98611264D01*
X110254084Y-98529824D01*
X110233400Y-98448150D01*
X110212764Y-98366665D01*
X110192283Y-98285790D01*
X110172062Y-98205944D01*
X110152209Y-98127550D01*
X110132829Y-98051029D01*
X110114031Y-97976801D01*
X110095920Y-97905289D01*
X110078604Y-97836912D01*
X110062188Y-97772092D01*
X110046779Y-97711251D01*
X110032485Y-97654808D01*
X110029135Y-97641581D01*
X110015265Y-97586804D01*
X110001729Y-97533325D01*
X109988581Y-97481354D01*
X109975872Y-97431099D01*
X109963655Y-97382768D01*
X109951983Y-97336569D01*
X109940908Y-97292712D01*
X109930483Y-97251403D01*
X109920760Y-97212853D01*
X109911792Y-97177269D01*
X109903632Y-97144860D01*
X109896331Y-97115835D01*
X109889943Y-97090401D01*
X109884520Y-97068767D01*
X109880115Y-97051142D01*
X109876779Y-97037734D01*
X109874567Y-97028751D01*
X109873530Y-97024403D01*
X109873455Y-97024008D01*
X109875556Y-97025398D01*
X109875556Y-97025398D01*
G37*
X109875556Y-97025398D02*
X109881600Y-97029582D01*
X109891387Y-97036416D01*
X109904715Y-97045760D01*
X109921381Y-97057470D01*
X109941184Y-97071404D01*
X109963922Y-97087420D01*
X109989394Y-97105376D01*
X110017397Y-97125129D01*
X110047730Y-97146537D01*
X110080191Y-97169458D01*
X110114578Y-97193750D01*
X110150690Y-97219269D01*
X110188324Y-97245875D01*
X110227279Y-97273424D01*
X110267354Y-97301774D01*
X110267750Y-97302054D01*
X110298428Y-97323761D01*
X110333024Y-97348239D01*
X110371310Y-97375327D01*
X110413057Y-97404863D01*
X110458036Y-97436686D01*
X110506017Y-97470632D01*
X110556773Y-97506541D01*
X110610075Y-97544250D01*
X110665692Y-97583598D01*
X110723398Y-97624422D01*
X110782962Y-97666561D01*
X110844156Y-97709853D01*
X110906751Y-97754136D01*
X110970519Y-97799248D01*
X111035229Y-97845026D01*
X111100655Y-97891311D01*
X111166566Y-97937938D01*
X111232734Y-97984747D01*
X111298930Y-98031575D01*
X111364925Y-98078261D01*
X111430490Y-98124643D01*
X111495397Y-98170558D01*
X111539020Y-98201417D01*
X111652812Y-98281913D01*
X111762555Y-98359545D01*
X111868345Y-98434382D01*
X111970282Y-98506491D01*
X112068461Y-98575943D01*
X112162981Y-98642807D01*
X112253940Y-98707151D01*
X112341434Y-98769044D01*
X112425562Y-98828556D01*
X112506421Y-98885756D01*
X112584109Y-98940712D01*
X112658723Y-98993494D01*
X112730360Y-99044171D01*
X112799120Y-99092811D01*
X112865098Y-99139485D01*
X112928393Y-99184260D01*
X112989103Y-99227206D01*
X113047324Y-99268392D01*
X113103154Y-99307886D01*
X113156692Y-99345759D01*
X113208034Y-99382079D01*
X113257279Y-99416915D01*
X113304523Y-99450336D01*
X113349865Y-99482411D01*
X113393402Y-99513209D01*
X113435231Y-99542799D01*
X113475451Y-99571251D01*
X113514158Y-99598633D01*
X113551451Y-99625014D01*
X113587427Y-99650464D01*
X113622183Y-99675051D01*
X113655817Y-99698845D01*
X113688428Y-99721914D01*
X113720111Y-99744327D01*
X113750966Y-99766154D01*
X113781089Y-99787464D01*
X113810578Y-99808325D01*
X113839531Y-99828807D01*
X113868045Y-99848979D01*
X113896218Y-99868909D01*
X113924148Y-99888668D01*
X113951931Y-99908323D01*
X113979667Y-99927944D01*
X114007451Y-99947599D01*
X114035383Y-99967359D01*
X114063559Y-99987292D01*
X114092077Y-100007466D01*
X114117120Y-100025183D01*
X114163603Y-100058067D01*
X114210190Y-100091024D01*
X114256616Y-100123866D01*
X114302616Y-100156407D01*
X114347924Y-100188458D01*
X114392277Y-100219833D01*
X114435408Y-100250344D01*
X114477054Y-100279803D01*
X114516949Y-100308024D01*
X114554828Y-100334818D01*
X114590427Y-100359999D01*
X114623481Y-100383379D01*
X114653724Y-100404771D01*
X114680892Y-100423987D01*
X114704720Y-100440840D01*
X114724942Y-100455143D01*
X114741296Y-100466708D01*
X114741960Y-100467177D01*
X114759123Y-100479315D01*
X114780137Y-100494178D01*
X114804707Y-100511556D01*
X114832538Y-100531242D01*
X114863334Y-100553025D01*
X114896798Y-100576697D01*
X114932636Y-100602048D01*
X114970553Y-100628870D01*
X115010251Y-100656953D01*
X115051437Y-100686089D01*
X115093814Y-100716068D01*
X115137087Y-100746681D01*
X115180960Y-100777719D01*
X115225138Y-100808973D01*
X115269324Y-100840234D01*
X115309650Y-100868764D01*
X115356686Y-100902041D01*
X115405783Y-100936776D01*
X115456503Y-100972658D01*
X115508408Y-101009379D01*
X115561060Y-101046627D01*
X115614021Y-101084093D01*
X115666853Y-101121466D01*
X115719117Y-101158438D01*
X115770375Y-101194699D01*
X115820190Y-101229937D01*
X115868123Y-101263843D01*
X115913736Y-101296108D01*
X115956591Y-101326422D01*
X115996250Y-101354474D01*
X116032275Y-101379955D01*
X116038020Y-101384018D01*
X116073318Y-101409004D01*
X116107441Y-101433200D01*
X116140164Y-101456443D01*
X116171260Y-101478570D01*
X116200501Y-101499418D01*
X116227660Y-101518824D01*
X116252512Y-101536627D01*
X116274830Y-101552663D01*
X116294386Y-101566769D01*
X116310954Y-101578783D01*
X116324308Y-101588543D01*
X116334220Y-101595885D01*
X116340464Y-101600647D01*
X116342813Y-101602666D01*
X116342820Y-101602719D01*
X116340596Y-101604327D01*
X116334408Y-101608738D01*
X116324439Y-101615822D01*
X116310873Y-101625448D01*
X116293894Y-101637486D01*
X116273686Y-101651806D01*
X116250432Y-101668278D01*
X116224316Y-101686772D01*
X116195523Y-101707158D01*
X116164234Y-101729306D01*
X116130635Y-101753086D01*
X116094909Y-101778368D01*
X116057240Y-101805021D01*
X116017812Y-101832915D01*
X115976807Y-101861921D01*
X115934411Y-101891909D01*
X115890807Y-101922747D01*
X115862100Y-101943048D01*
X115831646Y-101964583D01*
X115801723Y-101985744D01*
X115772221Y-102006606D01*
X115743033Y-102027247D01*
X115714048Y-102047745D01*
X115685159Y-102068175D01*
X115656255Y-102088616D01*
X115627229Y-102109143D01*
X115597971Y-102129836D01*
X115568372Y-102150769D01*
X115538323Y-102172021D01*
X115507716Y-102193668D01*
X115476441Y-102215788D01*
X115444390Y-102238457D01*
X115411453Y-102261753D01*
X115377523Y-102285752D01*
X115342488Y-102310532D01*
X115306242Y-102336170D01*
X115268675Y-102362743D01*
X115229677Y-102390327D01*
X115189141Y-102419000D01*
X115146957Y-102448840D01*
X115103016Y-102479922D01*
X115057209Y-102512324D01*
X115009427Y-102546124D01*
X114959562Y-102581397D01*
X114907505Y-102618222D01*
X114853146Y-102656675D01*
X114796376Y-102696833D01*
X114737088Y-102738774D01*
X114675171Y-102782574D01*
X114610516Y-102828310D01*
X114543016Y-102876060D01*
X114472561Y-102925901D01*
X114399042Y-102977909D01*
X114322350Y-103032162D01*
X114242376Y-103088737D01*
X114159011Y-103147710D01*
X114072147Y-103209159D01*
X113981674Y-103273161D01*
X113887483Y-103339793D01*
X113789467Y-103409132D01*
X113687514Y-103481255D01*
X113587530Y-103551986D01*
X113529475Y-103593055D01*
X113468977Y-103635852D01*
X113406411Y-103680112D01*
X113342156Y-103725567D01*
X113276587Y-103771950D01*
X113210084Y-103818996D01*
X113143021Y-103866436D01*
X113075778Y-103914004D01*
X113008730Y-103961433D01*
X112942256Y-104008457D01*
X112876731Y-104054809D01*
X112812534Y-104100222D01*
X112750042Y-104144429D01*
X112689631Y-104187163D01*
X112631679Y-104228158D01*
X112576563Y-104267146D01*
X112524660Y-104303861D01*
X112476347Y-104338037D01*
X112454690Y-104353357D01*
X112403462Y-104389594D01*
X112350020Y-104427398D01*
X112294776Y-104466477D01*
X112238141Y-104506541D01*
X112180529Y-104547296D01*
X112122351Y-104588452D01*
X112064020Y-104629716D01*
X112005947Y-104670798D01*
X111948545Y-104711406D01*
X111892226Y-104751248D01*
X111837402Y-104790032D01*
X111784485Y-104827468D01*
X111733889Y-104863262D01*
X111686023Y-104897125D01*
X111641302Y-104928764D01*
X111600137Y-104957887D01*
X111583470Y-104969679D01*
X111542160Y-104998905D01*
X111500633Y-105028284D01*
X111459202Y-105057595D01*
X111418177Y-105086618D01*
X111377871Y-105115132D01*
X111338595Y-105142916D01*
X111300662Y-105169750D01*
X111264384Y-105195413D01*
X111230071Y-105219684D01*
X111198038Y-105242343D01*
X111168594Y-105263170D01*
X111142053Y-105281942D01*
X111118725Y-105298441D01*
X111098924Y-105312445D01*
X111083090Y-105323642D01*
X111055850Y-105342904D01*
X111025429Y-105364418D01*
X110992792Y-105387501D01*
X110958905Y-105411471D01*
X110924733Y-105435643D01*
X110891241Y-105459336D01*
X110859394Y-105481867D01*
X110830158Y-105502553D01*
X110822740Y-105507803D01*
X110806473Y-105519313D01*
X110786360Y-105533542D01*
X110762703Y-105550277D01*
X110735803Y-105569305D01*
X110705961Y-105590413D01*
X110673481Y-105613387D01*
X110638662Y-105638013D01*
X110601808Y-105664079D01*
X110563219Y-105691371D01*
X110523198Y-105719676D01*
X110482045Y-105748780D01*
X110440063Y-105778470D01*
X110397553Y-105808532D01*
X110354818Y-105838754D01*
X110312158Y-105868921D01*
X110293150Y-105882362D01*
X110252729Y-105910947D01*
X110213315Y-105938821D01*
X110175116Y-105965839D01*
X110138342Y-105991851D01*
X110103202Y-106016710D01*
X110069905Y-106040267D01*
X110038662Y-106062373D01*
X110009681Y-106082881D01*
X109983172Y-106101643D01*
X109959344Y-106118510D01*
X109938407Y-106133334D01*
X109920570Y-106145967D01*
X109906043Y-106156261D01*
X109895035Y-106164067D01*
X109887755Y-106169237D01*
X109884412Y-106171624D01*
X109884408Y-106171627D01*
X109877578Y-106176487D01*
X109874015Y-106178539D01*
X109872902Y-106177995D01*
X109873420Y-106175068D01*
X109873587Y-106174441D01*
X109874376Y-106171364D01*
X109876350Y-106163610D01*
X109879445Y-106151427D01*
X109883599Y-106135063D01*
X109888749Y-106114766D01*
X109894832Y-106090782D01*
X109901785Y-106063361D01*
X109909545Y-106032750D01*
X109918050Y-105999197D01*
X109927237Y-105962949D01*
X109937043Y-105924254D01*
X109947405Y-105883360D01*
X109958260Y-105840515D01*
X109969546Y-105795967D01*
X109981199Y-105749963D01*
X109989784Y-105716070D01*
X110003479Y-105662001D01*
X110017930Y-105604949D01*
X110032986Y-105545509D01*
X110048495Y-105484279D01*
X110064307Y-105421857D01*
X110080269Y-105358839D01*
X110096231Y-105295822D01*
X110112042Y-105233405D01*
X110127550Y-105172184D01*
X110142603Y-105112756D01*
X110157051Y-105055718D01*
X110170743Y-105001669D01*
X110183526Y-104951204D01*
X110195250Y-104904922D01*
X110197921Y-104894380D01*
X110210381Y-104845191D01*
X110223904Y-104791803D01*
X110238308Y-104734938D01*
X110253409Y-104675322D01*
X110269022Y-104613679D01*
X110284965Y-104550733D01*
X110301055Y-104487208D01*
X110317107Y-104423830D01*
X110332938Y-104361322D01*
X110348366Y-104300408D01*
X110363206Y-104241813D01*
X110377274Y-104186261D01*
X110390388Y-104134478D01*
X110390598Y-104133650D01*
X110403374Y-104083199D01*
X110416903Y-104029779D01*
X110431020Y-103974034D01*
X110445563Y-103916608D01*
X110460368Y-103858147D01*
X110475272Y-103799297D01*
X110490111Y-103740701D01*
X110504722Y-103683006D01*
X110518942Y-103626855D01*
X110532608Y-103572895D01*
X110545556Y-103521769D01*
X110557622Y-103474124D01*
X110568644Y-103430604D01*
X110571108Y-103420875D01*
X110581083Y-103381476D01*
X110590708Y-103343438D01*
X110599908Y-103307051D01*
X110608612Y-103272607D01*
X110616746Y-103240394D01*
X110624237Y-103210704D01*
X110631011Y-103183828D01*
X110636995Y-103160054D01*
X110642117Y-103139674D01*
X110646303Y-103122978D01*
X110649480Y-103110256D01*
X110651574Y-103101798D01*
X110652514Y-103097896D01*
X110652560Y-103097660D01*
X110650033Y-103097605D01*
X110642510Y-103097550D01*
X110630072Y-103097496D01*
X110612803Y-103097442D01*
X110590786Y-103097389D01*
X110564102Y-103097336D01*
X110532836Y-103097285D01*
X110497070Y-103097233D01*
X110456886Y-103097183D01*
X110412369Y-103097133D01*
X110363599Y-103097083D01*
X110310662Y-103097035D01*
X110253638Y-103096987D01*
X110192612Y-103096940D01*
X110127665Y-103096894D01*
X110058882Y-103096849D01*
X109986344Y-103096805D01*
X109910134Y-103096762D01*
X109830336Y-103096719D01*
X109747032Y-103096678D01*
X109660306Y-103096638D01*
X109570239Y-103096599D01*
X109476915Y-103096561D01*
X109380417Y-103096524D01*
X109280827Y-103096488D01*
X109178228Y-103096454D01*
X109072704Y-103096420D01*
X108964337Y-103096388D01*
X108853210Y-103096358D01*
X108739405Y-103096328D01*
X108623007Y-103096300D01*
X108504096Y-103096273D01*
X108382757Y-103096248D01*
X108259073Y-103096224D01*
X108133125Y-103096202D01*
X108004997Y-103096181D01*
X107874772Y-103096162D01*
X107742533Y-103096144D01*
X107608362Y-103096128D01*
X107472342Y-103096113D01*
X107334557Y-103096100D01*
X107195089Y-103096089D01*
X107054020Y-103096080D01*
X106911434Y-103096072D01*
X106767414Y-103096066D01*
X106622043Y-103096062D01*
X106475402Y-103096060D01*
X102095300Y-103096060D01*
X102095300Y-100101400D01*
X110652147Y-100101400D01*
X110624611Y-99992815D01*
X110621812Y-99981772D01*
X110617820Y-99966020D01*
X110612690Y-99945774D01*
X110606477Y-99921249D01*
X110599234Y-99892660D01*
X110591017Y-99860223D01*
X110581880Y-99824152D01*
X110571878Y-99784663D01*
X110561064Y-99741971D01*
X110549494Y-99696291D01*
X110537222Y-99647839D01*
X110524302Y-99596829D01*
X110510790Y-99543476D01*
X110496738Y-99487997D01*
X110482203Y-99430605D01*
X110467239Y-99371517D01*
X110451899Y-99310948D01*
X110436239Y-99249112D01*
X110420313Y-99186225D01*
X110404176Y-99122502D01*
X110391242Y-99071430D01*
X110373212Y-99000231D01*
X110354482Y-98926272D01*
X110335161Y-98849975D01*
X110315353Y-98771761D01*
X110295167Y-98692050D01*
X110274708Y-98611264D01*
X110254084Y-98529824D01*
X110233400Y-98448150D01*
X110212764Y-98366665D01*
X110192283Y-98285790D01*
X110172062Y-98205944D01*
X110152209Y-98127550D01*
X110132829Y-98051029D01*
X110114031Y-97976801D01*
X110095920Y-97905289D01*
X110078604Y-97836912D01*
X110062188Y-97772092D01*
X110046779Y-97711251D01*
X110032485Y-97654808D01*
X110029135Y-97641581D01*
X110015265Y-97586804D01*
X110001729Y-97533325D01*
X109988581Y-97481354D01*
X109975872Y-97431099D01*
X109963655Y-97382768D01*
X109951983Y-97336569D01*
X109940908Y-97292712D01*
X109930483Y-97251403D01*
X109920760Y-97212853D01*
X109911792Y-97177269D01*
X109903632Y-97144860D01*
X109896331Y-97115835D01*
X109889943Y-97090401D01*
X109884520Y-97068767D01*
X109880115Y-97051142D01*
X109876779Y-97037734D01*
X109874567Y-97028751D01*
X109873530Y-97024403D01*
X109873455Y-97024008D01*
X109875556Y-97025398D01*
D13*
X105350000Y-135696000D02*
X110550000Y-135696000D01*
X105350000Y-112776000D02*
X105350000Y-135696000D01*
X110550000Y-110176000D02*
X110550000Y-135696000D01*
X105350000Y-112776000D02*
X107950000Y-112776000D01*
X107950000Y-112776000D02*
X107950000Y-110176000D01*
X107950000Y-110176000D02*
X110550000Y-110176000D01*
X105350000Y-111506000D02*
X105350000Y-110176000D01*
X105350000Y-110176000D02*
X106680000Y-110176000D01*
D11*
M02*
