G04 #@! TF.FileFunction,Other,Fab,Top*
%FSLAX46Y46*%
G04 Gerber Fmt 4.6, Leading zero omitted, Abs format (unit mm)*
G04 Created by KiCad (PCBNEW 4.0.7) date 04/11/18 13:12:21*
%MOMM*%
%LPD*%
G01*
G04 APERTURE LIST*
%ADD10C,0.100000*%
%ADD11C,0.150000*%
G04 APERTURE END LIST*
D10*
X106680000Y-68580000D02*
X110490000Y-68580000D01*
X110490000Y-68580000D02*
X110490000Y-93980000D01*
X110490000Y-93980000D02*
X105410000Y-93980000D01*
X105410000Y-93980000D02*
X105410000Y-69850000D01*
X105410000Y-69850000D02*
X106680000Y-68580000D01*
X106680000Y-110236000D02*
X110490000Y-110236000D01*
X110490000Y-110236000D02*
X110490000Y-135636000D01*
X110490000Y-135636000D02*
X105410000Y-135636000D01*
X105410000Y-135636000D02*
X105410000Y-111506000D01*
X105410000Y-111506000D02*
X106680000Y-110236000D01*
D11*
X96926189Y-95397143D02*
X96878570Y-95444762D01*
X96735713Y-95492381D01*
X96640475Y-95492381D01*
X96497617Y-95444762D01*
X96402379Y-95349524D01*
X96354760Y-95254286D01*
X96307141Y-95063810D01*
X96307141Y-94920952D01*
X96354760Y-94730476D01*
X96402379Y-94635238D01*
X96497617Y-94540000D01*
X96640475Y-94492381D01*
X96735713Y-94492381D01*
X96878570Y-94540000D01*
X96926189Y-94587619D01*
X97497617Y-95492381D02*
X97402379Y-95444762D01*
X97354760Y-95397143D01*
X97307141Y-95301905D01*
X97307141Y-95016190D01*
X97354760Y-94920952D01*
X97402379Y-94873333D01*
X97497617Y-94825714D01*
X97640475Y-94825714D01*
X97735713Y-94873333D01*
X97783332Y-94920952D01*
X97830951Y-95016190D01*
X97830951Y-95301905D01*
X97783332Y-95397143D01*
X97735713Y-95444762D01*
X97640475Y-95492381D01*
X97497617Y-95492381D01*
X98259522Y-94825714D02*
X98259522Y-95492381D01*
X98259522Y-94920952D02*
X98307141Y-94873333D01*
X98402379Y-94825714D01*
X98545237Y-94825714D01*
X98640475Y-94873333D01*
X98688094Y-94968571D01*
X98688094Y-95492381D01*
X99164284Y-94825714D02*
X99164284Y-95492381D01*
X99164284Y-94920952D02*
X99211903Y-94873333D01*
X99307141Y-94825714D01*
X99449999Y-94825714D01*
X99545237Y-94873333D01*
X99592856Y-94968571D01*
X99592856Y-95492381D01*
X99830951Y-95587619D02*
X100592856Y-95587619D01*
X101021427Y-94492381D02*
X101116666Y-94492381D01*
X101211904Y-94540000D01*
X101259523Y-94587619D01*
X101307142Y-94682857D01*
X101354761Y-94873333D01*
X101354761Y-95111429D01*
X101307142Y-95301905D01*
X101259523Y-95397143D01*
X101211904Y-95444762D01*
X101116666Y-95492381D01*
X101021427Y-95492381D01*
X100926189Y-95444762D01*
X100878570Y-95397143D01*
X100830951Y-95301905D01*
X100783332Y-95111429D01*
X100783332Y-94873333D01*
X100830951Y-94682857D01*
X100878570Y-94587619D01*
X100926189Y-94540000D01*
X101021427Y-94492381D01*
X101735713Y-94587619D02*
X101783332Y-94540000D01*
X101878570Y-94492381D01*
X102116666Y-94492381D01*
X102211904Y-94540000D01*
X102259523Y-94587619D01*
X102307142Y-94682857D01*
X102307142Y-94778095D01*
X102259523Y-94920952D01*
X101688094Y-95492381D01*
X102307142Y-95492381D01*
X102640475Y-95492381D02*
X103164285Y-94825714D01*
X102640475Y-94825714D02*
X103164285Y-95492381D01*
X104069047Y-95492381D02*
X103497618Y-95492381D01*
X103783332Y-95492381D02*
X103783332Y-94492381D01*
X103688094Y-94635238D01*
X103592856Y-94730476D01*
X103497618Y-94778095D01*
X104688094Y-94492381D02*
X104783333Y-94492381D01*
X104878571Y-94540000D01*
X104926190Y-94587619D01*
X104973809Y-94682857D01*
X105021428Y-94873333D01*
X105021428Y-95111429D01*
X104973809Y-95301905D01*
X104926190Y-95397143D01*
X104878571Y-95444762D01*
X104783333Y-95492381D01*
X104688094Y-95492381D01*
X104592856Y-95444762D01*
X104545237Y-95397143D01*
X104497618Y-95301905D01*
X104449999Y-95111429D01*
X104449999Y-94873333D01*
X104497618Y-94682857D01*
X104545237Y-94587619D01*
X104592856Y-94540000D01*
X104688094Y-94492381D01*
X105211904Y-95587619D02*
X105973809Y-95587619D01*
X106783333Y-95397143D02*
X106735714Y-95444762D01*
X106592857Y-95492381D01*
X106497619Y-95492381D01*
X106354761Y-95444762D01*
X106259523Y-95349524D01*
X106211904Y-95254286D01*
X106164285Y-95063810D01*
X106164285Y-94920952D01*
X106211904Y-94730476D01*
X106259523Y-94635238D01*
X106354761Y-94540000D01*
X106497619Y-94492381D01*
X106592857Y-94492381D01*
X106735714Y-94540000D01*
X106783333Y-94587619D01*
X107354761Y-95492381D02*
X107259523Y-95444762D01*
X107211904Y-95397143D01*
X107164285Y-95301905D01*
X107164285Y-95016190D01*
X107211904Y-94920952D01*
X107259523Y-94873333D01*
X107354761Y-94825714D01*
X107497619Y-94825714D01*
X107592857Y-94873333D01*
X107640476Y-94920952D01*
X107688095Y-95016190D01*
X107688095Y-95301905D01*
X107640476Y-95397143D01*
X107592857Y-95444762D01*
X107497619Y-95492381D01*
X107354761Y-95492381D01*
X108545238Y-94825714D02*
X108545238Y-95492381D01*
X108116666Y-94825714D02*
X108116666Y-95349524D01*
X108164285Y-95444762D01*
X108259523Y-95492381D01*
X108402381Y-95492381D01*
X108497619Y-95444762D01*
X108545238Y-95397143D01*
X109021428Y-94825714D02*
X109021428Y-95492381D01*
X109021428Y-94920952D02*
X109069047Y-94873333D01*
X109164285Y-94825714D01*
X109307143Y-94825714D01*
X109402381Y-94873333D01*
X109450000Y-94968571D01*
X109450000Y-95492381D01*
X109783333Y-94825714D02*
X110164285Y-94825714D01*
X109926190Y-94492381D02*
X109926190Y-95349524D01*
X109973809Y-95444762D01*
X110069047Y-95492381D01*
X110164285Y-95492381D01*
X110878572Y-95444762D02*
X110783334Y-95492381D01*
X110592857Y-95492381D01*
X110497619Y-95444762D01*
X110450000Y-95349524D01*
X110450000Y-94968571D01*
X110497619Y-94873333D01*
X110592857Y-94825714D01*
X110783334Y-94825714D01*
X110878572Y-94873333D01*
X110926191Y-94968571D01*
X110926191Y-95063810D01*
X110450000Y-95159048D01*
X111354762Y-95492381D02*
X111354762Y-94825714D01*
X111354762Y-95016190D02*
X111402381Y-94920952D01*
X111450000Y-94873333D01*
X111545238Y-94825714D01*
X111640477Y-94825714D01*
X111735715Y-95587619D02*
X112497620Y-95587619D01*
X113307144Y-95397143D02*
X113259525Y-95444762D01*
X113116668Y-95492381D01*
X113021430Y-95492381D01*
X112878572Y-95444762D01*
X112783334Y-95349524D01*
X112735715Y-95254286D01*
X112688096Y-95063810D01*
X112688096Y-94920952D01*
X112735715Y-94730476D01*
X112783334Y-94635238D01*
X112878572Y-94540000D01*
X113021430Y-94492381D01*
X113116668Y-94492381D01*
X113259525Y-94540000D01*
X113307144Y-94587619D01*
X113878572Y-95492381D02*
X113783334Y-95444762D01*
X113735715Y-95349524D01*
X113735715Y-94492381D01*
X114402382Y-95492381D02*
X114307144Y-95444762D01*
X114259525Y-95397143D01*
X114211906Y-95301905D01*
X114211906Y-95016190D01*
X114259525Y-94920952D01*
X114307144Y-94873333D01*
X114402382Y-94825714D01*
X114545240Y-94825714D01*
X114640478Y-94873333D01*
X114688097Y-94920952D01*
X114735716Y-95016190D01*
X114735716Y-95301905D01*
X114688097Y-95397143D01*
X114640478Y-95444762D01*
X114545240Y-95492381D01*
X114402382Y-95492381D01*
X115592859Y-95444762D02*
X115497621Y-95492381D01*
X115307144Y-95492381D01*
X115211906Y-95444762D01*
X115164287Y-95397143D01*
X115116668Y-95301905D01*
X115116668Y-95016190D01*
X115164287Y-94920952D01*
X115211906Y-94873333D01*
X115307144Y-94825714D01*
X115497621Y-94825714D01*
X115592859Y-94873333D01*
X116021430Y-95492381D02*
X116021430Y-94492381D01*
X116116668Y-95111429D02*
X116402383Y-95492381D01*
X116402383Y-94825714D02*
X116021430Y-95206667D01*
X116735716Y-94825714D02*
X116926192Y-95492381D01*
X117116669Y-95016190D01*
X117307145Y-95492381D01*
X117497621Y-94825714D01*
X117878573Y-95492381D02*
X117878573Y-94825714D01*
X117878573Y-94492381D02*
X117830954Y-94540000D01*
X117878573Y-94587619D01*
X117926192Y-94540000D01*
X117878573Y-94492381D01*
X117878573Y-94587619D01*
X118307144Y-95444762D02*
X118402382Y-95492381D01*
X118592858Y-95492381D01*
X118688097Y-95444762D01*
X118735716Y-95349524D01*
X118735716Y-95301905D01*
X118688097Y-95206667D01*
X118592858Y-95159048D01*
X118450001Y-95159048D01*
X118354763Y-95111429D01*
X118307144Y-95016190D01*
X118307144Y-94968571D01*
X118354763Y-94873333D01*
X118450001Y-94825714D01*
X118592858Y-94825714D01*
X118688097Y-94873333D01*
X119545240Y-95444762D02*
X119450002Y-95492381D01*
X119259525Y-95492381D01*
X119164287Y-95444762D01*
X119116668Y-95349524D01*
X119116668Y-94968571D01*
X119164287Y-94873333D01*
X119259525Y-94825714D01*
X119450002Y-94825714D01*
X119545240Y-94873333D01*
X119592859Y-94968571D01*
X119592859Y-95063810D01*
X119116668Y-95159048D01*
X96926189Y-137053143D02*
X96878570Y-137100762D01*
X96735713Y-137148381D01*
X96640475Y-137148381D01*
X96497617Y-137100762D01*
X96402379Y-137005524D01*
X96354760Y-136910286D01*
X96307141Y-136719810D01*
X96307141Y-136576952D01*
X96354760Y-136386476D01*
X96402379Y-136291238D01*
X96497617Y-136196000D01*
X96640475Y-136148381D01*
X96735713Y-136148381D01*
X96878570Y-136196000D01*
X96926189Y-136243619D01*
X97497617Y-137148381D02*
X97402379Y-137100762D01*
X97354760Y-137053143D01*
X97307141Y-136957905D01*
X97307141Y-136672190D01*
X97354760Y-136576952D01*
X97402379Y-136529333D01*
X97497617Y-136481714D01*
X97640475Y-136481714D01*
X97735713Y-136529333D01*
X97783332Y-136576952D01*
X97830951Y-136672190D01*
X97830951Y-136957905D01*
X97783332Y-137053143D01*
X97735713Y-137100762D01*
X97640475Y-137148381D01*
X97497617Y-137148381D01*
X98259522Y-136481714D02*
X98259522Y-137148381D01*
X98259522Y-136576952D02*
X98307141Y-136529333D01*
X98402379Y-136481714D01*
X98545237Y-136481714D01*
X98640475Y-136529333D01*
X98688094Y-136624571D01*
X98688094Y-137148381D01*
X99164284Y-136481714D02*
X99164284Y-137148381D01*
X99164284Y-136576952D02*
X99211903Y-136529333D01*
X99307141Y-136481714D01*
X99449999Y-136481714D01*
X99545237Y-136529333D01*
X99592856Y-136624571D01*
X99592856Y-137148381D01*
X99830951Y-137243619D02*
X100592856Y-137243619D01*
X101021427Y-136148381D02*
X101116666Y-136148381D01*
X101211904Y-136196000D01*
X101259523Y-136243619D01*
X101307142Y-136338857D01*
X101354761Y-136529333D01*
X101354761Y-136767429D01*
X101307142Y-136957905D01*
X101259523Y-137053143D01*
X101211904Y-137100762D01*
X101116666Y-137148381D01*
X101021427Y-137148381D01*
X100926189Y-137100762D01*
X100878570Y-137053143D01*
X100830951Y-136957905D01*
X100783332Y-136767429D01*
X100783332Y-136529333D01*
X100830951Y-136338857D01*
X100878570Y-136243619D01*
X100926189Y-136196000D01*
X101021427Y-136148381D01*
X101735713Y-136243619D02*
X101783332Y-136196000D01*
X101878570Y-136148381D01*
X102116666Y-136148381D01*
X102211904Y-136196000D01*
X102259523Y-136243619D01*
X102307142Y-136338857D01*
X102307142Y-136434095D01*
X102259523Y-136576952D01*
X101688094Y-137148381D01*
X102307142Y-137148381D01*
X102640475Y-137148381D02*
X103164285Y-136481714D01*
X102640475Y-136481714D02*
X103164285Y-137148381D01*
X104069047Y-137148381D02*
X103497618Y-137148381D01*
X103783332Y-137148381D02*
X103783332Y-136148381D01*
X103688094Y-136291238D01*
X103592856Y-136386476D01*
X103497618Y-136434095D01*
X104688094Y-136148381D02*
X104783333Y-136148381D01*
X104878571Y-136196000D01*
X104926190Y-136243619D01*
X104973809Y-136338857D01*
X105021428Y-136529333D01*
X105021428Y-136767429D01*
X104973809Y-136957905D01*
X104926190Y-137053143D01*
X104878571Y-137100762D01*
X104783333Y-137148381D01*
X104688094Y-137148381D01*
X104592856Y-137100762D01*
X104545237Y-137053143D01*
X104497618Y-136957905D01*
X104449999Y-136767429D01*
X104449999Y-136529333D01*
X104497618Y-136338857D01*
X104545237Y-136243619D01*
X104592856Y-136196000D01*
X104688094Y-136148381D01*
X105211904Y-137243619D02*
X105973809Y-137243619D01*
X106783333Y-137053143D02*
X106735714Y-137100762D01*
X106592857Y-137148381D01*
X106497619Y-137148381D01*
X106354761Y-137100762D01*
X106259523Y-137005524D01*
X106211904Y-136910286D01*
X106164285Y-136719810D01*
X106164285Y-136576952D01*
X106211904Y-136386476D01*
X106259523Y-136291238D01*
X106354761Y-136196000D01*
X106497619Y-136148381D01*
X106592857Y-136148381D01*
X106735714Y-136196000D01*
X106783333Y-136243619D01*
X107354761Y-137148381D02*
X107259523Y-137100762D01*
X107211904Y-137053143D01*
X107164285Y-136957905D01*
X107164285Y-136672190D01*
X107211904Y-136576952D01*
X107259523Y-136529333D01*
X107354761Y-136481714D01*
X107497619Y-136481714D01*
X107592857Y-136529333D01*
X107640476Y-136576952D01*
X107688095Y-136672190D01*
X107688095Y-136957905D01*
X107640476Y-137053143D01*
X107592857Y-137100762D01*
X107497619Y-137148381D01*
X107354761Y-137148381D01*
X108545238Y-136481714D02*
X108545238Y-137148381D01*
X108116666Y-136481714D02*
X108116666Y-137005524D01*
X108164285Y-137100762D01*
X108259523Y-137148381D01*
X108402381Y-137148381D01*
X108497619Y-137100762D01*
X108545238Y-137053143D01*
X109021428Y-136481714D02*
X109021428Y-137148381D01*
X109021428Y-136576952D02*
X109069047Y-136529333D01*
X109164285Y-136481714D01*
X109307143Y-136481714D01*
X109402381Y-136529333D01*
X109450000Y-136624571D01*
X109450000Y-137148381D01*
X109783333Y-136481714D02*
X110164285Y-136481714D01*
X109926190Y-136148381D02*
X109926190Y-137005524D01*
X109973809Y-137100762D01*
X110069047Y-137148381D01*
X110164285Y-137148381D01*
X110878572Y-137100762D02*
X110783334Y-137148381D01*
X110592857Y-137148381D01*
X110497619Y-137100762D01*
X110450000Y-137005524D01*
X110450000Y-136624571D01*
X110497619Y-136529333D01*
X110592857Y-136481714D01*
X110783334Y-136481714D01*
X110878572Y-136529333D01*
X110926191Y-136624571D01*
X110926191Y-136719810D01*
X110450000Y-136815048D01*
X111354762Y-137148381D02*
X111354762Y-136481714D01*
X111354762Y-136672190D02*
X111402381Y-136576952D01*
X111450000Y-136529333D01*
X111545238Y-136481714D01*
X111640477Y-136481714D01*
X111735715Y-137243619D02*
X112497620Y-137243619D01*
X113307144Y-137053143D02*
X113259525Y-137100762D01*
X113116668Y-137148381D01*
X113021430Y-137148381D01*
X112878572Y-137100762D01*
X112783334Y-137005524D01*
X112735715Y-136910286D01*
X112688096Y-136719810D01*
X112688096Y-136576952D01*
X112735715Y-136386476D01*
X112783334Y-136291238D01*
X112878572Y-136196000D01*
X113021430Y-136148381D01*
X113116668Y-136148381D01*
X113259525Y-136196000D01*
X113307144Y-136243619D01*
X113878572Y-137148381D02*
X113783334Y-137100762D01*
X113735715Y-137005524D01*
X113735715Y-136148381D01*
X114402382Y-137148381D02*
X114307144Y-137100762D01*
X114259525Y-137053143D01*
X114211906Y-136957905D01*
X114211906Y-136672190D01*
X114259525Y-136576952D01*
X114307144Y-136529333D01*
X114402382Y-136481714D01*
X114545240Y-136481714D01*
X114640478Y-136529333D01*
X114688097Y-136576952D01*
X114735716Y-136672190D01*
X114735716Y-136957905D01*
X114688097Y-137053143D01*
X114640478Y-137100762D01*
X114545240Y-137148381D01*
X114402382Y-137148381D01*
X115592859Y-137100762D02*
X115497621Y-137148381D01*
X115307144Y-137148381D01*
X115211906Y-137100762D01*
X115164287Y-137053143D01*
X115116668Y-136957905D01*
X115116668Y-136672190D01*
X115164287Y-136576952D01*
X115211906Y-136529333D01*
X115307144Y-136481714D01*
X115497621Y-136481714D01*
X115592859Y-136529333D01*
X116021430Y-137148381D02*
X116021430Y-136148381D01*
X116116668Y-136767429D02*
X116402383Y-137148381D01*
X116402383Y-136481714D02*
X116021430Y-136862667D01*
X116735716Y-136481714D02*
X116926192Y-137148381D01*
X117116669Y-136672190D01*
X117307145Y-137148381D01*
X117497621Y-136481714D01*
X117878573Y-137148381D02*
X117878573Y-136481714D01*
X117878573Y-136148381D02*
X117830954Y-136196000D01*
X117878573Y-136243619D01*
X117926192Y-136196000D01*
X117878573Y-136148381D01*
X117878573Y-136243619D01*
X118307144Y-137100762D02*
X118402382Y-137148381D01*
X118592858Y-137148381D01*
X118688097Y-137100762D01*
X118735716Y-137005524D01*
X118735716Y-136957905D01*
X118688097Y-136862667D01*
X118592858Y-136815048D01*
X118450001Y-136815048D01*
X118354763Y-136767429D01*
X118307144Y-136672190D01*
X118307144Y-136624571D01*
X118354763Y-136529333D01*
X118450001Y-136481714D01*
X118592858Y-136481714D01*
X118688097Y-136529333D01*
X119545240Y-137100762D02*
X119450002Y-137148381D01*
X119259525Y-137148381D01*
X119164287Y-137100762D01*
X119116668Y-137005524D01*
X119116668Y-136624571D01*
X119164287Y-136529333D01*
X119259525Y-136481714D01*
X119450002Y-136481714D01*
X119545240Y-136529333D01*
X119592859Y-136624571D01*
X119592859Y-136719810D01*
X119116668Y-136815048D01*
M02*
