M48
;DRILL file {KiCad 4.0.7} date 04/11/18 12:51:14
;FORMAT={-:-/ absolute / metric / decimal}
FMAT,2
METRIC,TZ
T1C0.400
T2C1.000
%
G90
G05
M71
T1
X102.34Y-100.114
X103.01Y-88.38
X105.292Y-81.129
X105.5Y-97.848
X110.401Y-88.38
X110.464Y-103.883
X110.827Y-120.41
X113.093Y-112.
T2
X106.68Y-69.85
X106.68Y-72.39
X106.68Y-74.93
X106.68Y-77.47
X106.68Y-80.01
X106.68Y-82.55
X106.68Y-85.09
X106.68Y-87.63
X106.68Y-90.17
X106.68Y-92.71
X106.68Y-111.506
X106.68Y-114.046
X106.68Y-116.586
X106.68Y-119.126
X106.68Y-121.666
X106.68Y-124.206
X106.68Y-126.746
X106.68Y-129.286
X106.68Y-131.826
X106.68Y-134.366
X109.22Y-69.85
X109.22Y-72.39
X109.22Y-74.93
X109.22Y-77.47
X109.22Y-80.01
X109.22Y-82.55
X109.22Y-85.09
X109.22Y-87.63
X109.22Y-90.17
X109.22Y-92.71
X109.22Y-111.506
X109.22Y-114.046
X109.22Y-116.586
X109.22Y-119.126
X109.22Y-121.666
X109.22Y-124.206
X109.22Y-126.746
X109.22Y-129.286
X109.22Y-131.826
X109.22Y-134.366
T0
M30
