G04 #@! TF.FileFunction,Copper,L1,Top,Signal*
%FSLAX46Y46*%
G04 Gerber Fmt 4.6, Leading zero omitted, Abs format (unit mm)*
G04 Created by KiCad (PCBNEW 4.0.7) date 04/11/18 13:12:21*
%MOMM*%
%LPD*%
G01*
G04 APERTURE LIST*
%ADD10C,0.100000*%
%ADD11R,1.700000X1.700000*%
%ADD12O,1.700000X1.700000*%
%ADD13C,0.600000*%
%ADD14C,0.400000*%
%ADD15C,0.254000*%
G04 APERTURE END LIST*
D10*
D11*
X106680000Y-69850000D03*
D12*
X109220000Y-69850000D03*
X106680000Y-72390000D03*
X109220000Y-72390000D03*
X106680000Y-74930000D03*
X109220000Y-74930000D03*
X106680000Y-77470000D03*
X109220000Y-77470000D03*
X106680000Y-80010000D03*
X109220000Y-80010000D03*
X106680000Y-82550000D03*
X109220000Y-82550000D03*
X106680000Y-85090000D03*
X109220000Y-85090000D03*
X106680000Y-87630000D03*
X109220000Y-87630000D03*
X106680000Y-90170000D03*
X109220000Y-90170000D03*
X106680000Y-92710000D03*
X109220000Y-92710000D03*
D11*
X106680000Y-111506000D03*
D12*
X109220000Y-111506000D03*
X106680000Y-114046000D03*
X109220000Y-114046000D03*
X106680000Y-116586000D03*
X109220000Y-116586000D03*
X106680000Y-119126000D03*
X109220000Y-119126000D03*
X106680000Y-121666000D03*
X109220000Y-121666000D03*
X106680000Y-124206000D03*
X109220000Y-124206000D03*
X106680000Y-126746000D03*
X109220000Y-126746000D03*
X106680000Y-129286000D03*
X109220000Y-129286000D03*
X106680000Y-131826000D03*
X109220000Y-131826000D03*
X106680000Y-134366000D03*
X109220000Y-134366000D03*
D13*
X105292200Y-81129000D03*
X110463700Y-103883200D03*
X103009700Y-88380300D03*
X113093000Y-112000500D03*
X110400800Y-88379600D03*
X102340400Y-100113700D03*
X105500100Y-97848200D03*
X110827000Y-120410100D03*
D14*
X106680000Y-69850000D02*
X106680000Y-71100300D01*
X106680000Y-71100300D02*
X107227000Y-71100300D01*
X106680000Y-106634900D02*
X106680000Y-111506000D01*
X111130100Y-102184800D02*
X106680000Y-106634900D01*
X111130100Y-82643400D02*
X111130100Y-102184800D01*
X109766700Y-81280000D02*
X111130100Y-82643400D01*
X108707800Y-81280000D02*
X109766700Y-81280000D01*
X107969700Y-80541900D02*
X108707800Y-81280000D01*
X107969700Y-71843000D02*
X107969700Y-80541900D01*
X107227000Y-71100300D02*
X107969700Y-71843000D01*
X109220000Y-111506000D02*
X109220000Y-110255700D01*
X109220000Y-69850000D02*
X109220000Y-71100300D01*
X112943900Y-106531800D02*
X109220000Y-110255700D01*
X112943900Y-74306100D02*
X112943900Y-106531800D01*
X109738100Y-71100300D02*
X112943900Y-74306100D01*
X109220000Y-71100300D02*
X109738100Y-71100300D01*
X109738100Y-112795700D02*
X109220000Y-112795700D01*
X110509600Y-112024200D02*
X109738100Y-112795700D01*
X110509600Y-110372600D02*
X110509600Y-112024200D01*
X113546000Y-107336200D02*
X110509600Y-110372600D01*
X113546000Y-72401200D02*
X113546000Y-107336200D01*
X109734400Y-68589600D02*
X113546000Y-72401200D01*
X108692700Y-68589600D02*
X109734400Y-68589600D01*
X107930500Y-69351800D02*
X108692700Y-68589600D01*
X107930500Y-70954700D02*
X107930500Y-69351800D01*
X109220000Y-72244200D02*
X107930500Y-70954700D01*
X109220000Y-72390000D02*
X109220000Y-72244200D01*
X109220000Y-114046000D02*
X109220000Y-112795700D01*
X105292200Y-77021100D02*
X105292200Y-81129000D01*
X106133000Y-76180300D02*
X105292200Y-77021100D01*
X106680000Y-76180300D02*
X106133000Y-76180300D01*
X106680000Y-74930000D02*
X106680000Y-76180300D01*
X109220000Y-74930000D02*
X109220000Y-76180300D01*
X109220000Y-116586000D02*
X109220000Y-115335700D01*
X108701900Y-115335700D02*
X109220000Y-115335700D01*
X107930400Y-114564200D02*
X108701900Y-115335700D01*
X107930400Y-108330100D02*
X107930400Y-114564200D01*
X112343500Y-103917000D02*
X107930400Y-108330100D01*
X112343500Y-78756800D02*
X112343500Y-103917000D01*
X109767000Y-76180300D02*
X112343500Y-78756800D01*
X109220000Y-76180300D02*
X109767000Y-76180300D01*
X109220000Y-77470000D02*
X109220000Y-78720300D01*
X111730500Y-102616400D02*
X110463700Y-103883200D01*
X111730500Y-80683800D02*
X111730500Y-102616400D01*
X109767000Y-78720300D02*
X111730500Y-80683800D01*
X109220000Y-78720300D02*
X109767000Y-78720300D01*
X106680000Y-80010000D02*
X106680000Y-81260300D01*
X103009700Y-84401900D02*
X103009700Y-88380300D01*
X106151200Y-81260400D02*
X103009700Y-84401900D01*
X106151200Y-81260300D02*
X106151200Y-81260400D01*
X106680000Y-81260300D02*
X106151200Y-81260300D01*
X109738100Y-120415700D02*
X109220000Y-120415700D01*
X113093000Y-117060800D02*
X109738100Y-120415700D01*
X113093000Y-112000500D02*
X113093000Y-117060800D01*
X109220000Y-121666000D02*
X109220000Y-120415700D01*
X106161900Y-122955700D02*
X106680000Y-122955700D01*
X104809800Y-121603600D02*
X106161900Y-122955700D01*
X104809800Y-101181600D02*
X104809800Y-121603600D01*
X107950000Y-98041400D02*
X104809800Y-101181600D01*
X107950000Y-84523300D02*
X107950000Y-98041400D01*
X107227000Y-83800300D02*
X107950000Y-84523300D01*
X106680000Y-83800300D02*
X107227000Y-83800300D01*
X106680000Y-82550000D02*
X106680000Y-83800300D01*
X106680000Y-124206000D02*
X106680000Y-122955700D01*
X109220000Y-82550000D02*
X109220000Y-83800300D01*
X110470300Y-88310100D02*
X110400800Y-88379600D01*
X110470300Y-84503500D02*
X110470300Y-88310100D01*
X109767100Y-83800300D02*
X110470300Y-84503500D01*
X109220000Y-83800300D02*
X109767100Y-83800300D01*
X102340400Y-90132800D02*
X102340400Y-100113700D01*
X106132900Y-86340300D02*
X102340400Y-90132800D01*
X106680000Y-86340300D02*
X106132900Y-86340300D01*
X106680000Y-85090000D02*
X106680000Y-86340300D01*
X106680000Y-129286000D02*
X106680000Y-128035700D01*
X105500100Y-99642200D02*
X105500100Y-97848200D01*
X104209400Y-100932900D02*
X105500100Y-99642200D01*
X104209400Y-126083200D02*
X104209400Y-100932900D01*
X106161900Y-128035700D02*
X104209400Y-126083200D01*
X106680000Y-128035700D02*
X106161900Y-128035700D01*
X109220000Y-87630000D02*
X109220000Y-88880300D01*
X109220000Y-129286000D02*
X109220000Y-128035700D01*
X109731800Y-88880300D02*
X109220000Y-88880300D01*
X110473300Y-89621800D02*
X109731800Y-88880300D01*
X110473300Y-97567200D02*
X110473300Y-89621800D01*
X105410200Y-102630300D02*
X110473300Y-97567200D01*
X105410200Y-114612200D02*
X105410200Y-102630300D01*
X106114000Y-115316000D02*
X105410200Y-114612200D01*
X107204600Y-115316000D02*
X106114000Y-115316000D01*
X107950000Y-116061400D02*
X107204600Y-115316000D01*
X107950000Y-127283800D02*
X107950000Y-116061400D01*
X108701900Y-128035700D02*
X107950000Y-127283800D01*
X109220000Y-128035700D02*
X108701900Y-128035700D01*
X106680000Y-90170000D02*
X106680000Y-91420300D01*
X106680000Y-131826000D02*
X106680000Y-133076300D01*
X106133000Y-91420300D02*
X106680000Y-91420300D01*
X103040700Y-94512600D02*
X106133000Y-91420300D01*
X103040700Y-100403800D02*
X103040700Y-94512600D01*
X102989300Y-100455200D02*
X103040700Y-100403800D01*
X102989300Y-132470500D02*
X102989300Y-100455200D01*
X106185200Y-135666400D02*
X102989300Y-132470500D01*
X107220500Y-135666400D02*
X106185200Y-135666400D01*
X107950000Y-134936900D02*
X107220500Y-135666400D01*
X107950000Y-133828200D02*
X107950000Y-134936900D01*
X107198100Y-133076300D02*
X107950000Y-133828200D01*
X106680000Y-133076300D02*
X107198100Y-133076300D01*
X109220000Y-131826000D02*
X109220000Y-130575700D01*
X110827000Y-129486800D02*
X110827000Y-120410100D01*
X109738100Y-130575700D02*
X110827000Y-129486800D01*
X109220000Y-130575700D02*
X109738100Y-130575700D01*
X103641000Y-96999300D02*
X106680000Y-93960300D01*
X103641000Y-100652400D02*
X103641000Y-96999300D01*
X103609000Y-100684400D02*
X103641000Y-100652400D01*
X103609000Y-131295000D02*
X103609000Y-100684400D01*
X106680000Y-134366000D02*
X103609000Y-131295000D01*
X106680000Y-92710000D02*
X106680000Y-93960300D01*
D15*
G36*
X118670000Y-137466000D02*
X104209931Y-137466000D01*
X102472997Y-137120502D01*
X101059779Y-136176221D01*
X100115498Y-134763005D01*
X99770000Y-133026069D01*
X99770000Y-100298867D01*
X101405238Y-100298867D01*
X101547283Y-100642643D01*
X101810073Y-100905892D01*
X102153601Y-101048538D01*
X102154300Y-101048539D01*
X102154300Y-132470500D01*
X102217861Y-132790041D01*
X102278638Y-132881000D01*
X102398866Y-133060934D01*
X105594766Y-136256834D01*
X105865659Y-136437839D01*
X106185200Y-136501400D01*
X107220500Y-136501400D01*
X107540041Y-136437839D01*
X107810934Y-136256834D01*
X108447092Y-135620676D01*
X108622622Y-135737961D01*
X109190907Y-135851000D01*
X109249093Y-135851000D01*
X109817378Y-135737961D01*
X110299147Y-135416054D01*
X110621054Y-134934285D01*
X110734093Y-134366000D01*
X110621054Y-133797715D01*
X110299147Y-133315946D01*
X109969974Y-133096000D01*
X110299147Y-132876054D01*
X110621054Y-132394285D01*
X110734093Y-131826000D01*
X110621054Y-131257715D01*
X110467205Y-131027463D01*
X111417434Y-130077234D01*
X111551604Y-129876434D01*
X111598439Y-129806341D01*
X111662000Y-129486800D01*
X111662000Y-120837334D01*
X111761838Y-120596899D01*
X111762162Y-120224933D01*
X111620117Y-119881157D01*
X111536887Y-119797781D01*
X113683434Y-117651234D01*
X113693577Y-117636054D01*
X113864439Y-117380341D01*
X113928000Y-117060800D01*
X113928000Y-112427734D01*
X114027838Y-112187299D01*
X114028162Y-111815333D01*
X113886117Y-111471557D01*
X113623327Y-111208308D01*
X113279799Y-111065662D01*
X112907833Y-111065338D01*
X112564057Y-111207383D01*
X112300808Y-111470173D01*
X112158162Y-111813701D01*
X112157838Y-112185667D01*
X112258000Y-112428078D01*
X112258000Y-116714932D01*
X110538607Y-118434325D01*
X110299147Y-118075946D01*
X109969974Y-117856000D01*
X110299147Y-117636054D01*
X110621054Y-117154285D01*
X110734093Y-116586000D01*
X110621054Y-116017715D01*
X110299147Y-115535946D01*
X110055000Y-115372813D01*
X110055000Y-115335700D01*
X110041566Y-115268164D01*
X110299147Y-115096054D01*
X110621054Y-114614285D01*
X110734093Y-114046000D01*
X110621054Y-113477715D01*
X110467205Y-113247463D01*
X111100034Y-112614634D01*
X111281040Y-112343740D01*
X111344600Y-112024200D01*
X111344600Y-110718468D01*
X114136434Y-107926634D01*
X114261362Y-107739666D01*
X114317439Y-107655741D01*
X114381000Y-107336200D01*
X114381000Y-72401200D01*
X114317439Y-72081659D01*
X114136434Y-71810766D01*
X110324834Y-67999166D01*
X110209875Y-67922353D01*
X110053941Y-67818161D01*
X109734400Y-67754600D01*
X108692700Y-67754600D01*
X108373160Y-67818160D01*
X108102266Y-67999166D01*
X107712013Y-68389419D01*
X107530000Y-68352560D01*
X105830000Y-68352560D01*
X105594683Y-68396838D01*
X105378559Y-68535910D01*
X105233569Y-68748110D01*
X105182560Y-69000000D01*
X105182560Y-70700000D01*
X105226838Y-70935317D01*
X105365910Y-71151441D01*
X105578110Y-71296431D01*
X105645541Y-71310086D01*
X105600853Y-71339946D01*
X105278946Y-71821715D01*
X105165907Y-72390000D01*
X105278946Y-72958285D01*
X105600853Y-73440054D01*
X105930026Y-73660000D01*
X105600853Y-73879946D01*
X105278946Y-74361715D01*
X105165907Y-74930000D01*
X105278946Y-75498285D01*
X105421219Y-75711213D01*
X104701766Y-76430666D01*
X104520761Y-76701559D01*
X104457200Y-77021100D01*
X104457200Y-80701766D01*
X104357362Y-80942201D01*
X104357038Y-81314167D01*
X104499083Y-81657943D01*
X104535904Y-81694828D01*
X102419266Y-83811466D01*
X102238261Y-84082359D01*
X102174700Y-84401900D01*
X102174700Y-87953066D01*
X102074862Y-88193501D01*
X102074538Y-88565467D01*
X102216583Y-88909243D01*
X102299763Y-88992569D01*
X101749966Y-89542366D01*
X101568961Y-89813259D01*
X101505400Y-90132800D01*
X101505400Y-99686466D01*
X101405562Y-99926901D01*
X101405238Y-100298867D01*
X99770000Y-100298867D01*
X99770000Y-71189931D01*
X100115498Y-69452995D01*
X101059779Y-68039779D01*
X102472997Y-67095498D01*
X104209931Y-66750000D01*
X118670000Y-66750000D01*
X118670000Y-137466000D01*
X118670000Y-137466000D01*
G37*
X118670000Y-137466000D02*
X104209931Y-137466000D01*
X102472997Y-137120502D01*
X101059779Y-136176221D01*
X100115498Y-134763005D01*
X99770000Y-133026069D01*
X99770000Y-100298867D01*
X101405238Y-100298867D01*
X101547283Y-100642643D01*
X101810073Y-100905892D01*
X102153601Y-101048538D01*
X102154300Y-101048539D01*
X102154300Y-132470500D01*
X102217861Y-132790041D01*
X102278638Y-132881000D01*
X102398866Y-133060934D01*
X105594766Y-136256834D01*
X105865659Y-136437839D01*
X106185200Y-136501400D01*
X107220500Y-136501400D01*
X107540041Y-136437839D01*
X107810934Y-136256834D01*
X108447092Y-135620676D01*
X108622622Y-135737961D01*
X109190907Y-135851000D01*
X109249093Y-135851000D01*
X109817378Y-135737961D01*
X110299147Y-135416054D01*
X110621054Y-134934285D01*
X110734093Y-134366000D01*
X110621054Y-133797715D01*
X110299147Y-133315946D01*
X109969974Y-133096000D01*
X110299147Y-132876054D01*
X110621054Y-132394285D01*
X110734093Y-131826000D01*
X110621054Y-131257715D01*
X110467205Y-131027463D01*
X111417434Y-130077234D01*
X111551604Y-129876434D01*
X111598439Y-129806341D01*
X111662000Y-129486800D01*
X111662000Y-120837334D01*
X111761838Y-120596899D01*
X111762162Y-120224933D01*
X111620117Y-119881157D01*
X111536887Y-119797781D01*
X113683434Y-117651234D01*
X113693577Y-117636054D01*
X113864439Y-117380341D01*
X113928000Y-117060800D01*
X113928000Y-112427734D01*
X114027838Y-112187299D01*
X114028162Y-111815333D01*
X113886117Y-111471557D01*
X113623327Y-111208308D01*
X113279799Y-111065662D01*
X112907833Y-111065338D01*
X112564057Y-111207383D01*
X112300808Y-111470173D01*
X112158162Y-111813701D01*
X112157838Y-112185667D01*
X112258000Y-112428078D01*
X112258000Y-116714932D01*
X110538607Y-118434325D01*
X110299147Y-118075946D01*
X109969974Y-117856000D01*
X110299147Y-117636054D01*
X110621054Y-117154285D01*
X110734093Y-116586000D01*
X110621054Y-116017715D01*
X110299147Y-115535946D01*
X110055000Y-115372813D01*
X110055000Y-115335700D01*
X110041566Y-115268164D01*
X110299147Y-115096054D01*
X110621054Y-114614285D01*
X110734093Y-114046000D01*
X110621054Y-113477715D01*
X110467205Y-113247463D01*
X111100034Y-112614634D01*
X111281040Y-112343740D01*
X111344600Y-112024200D01*
X111344600Y-110718468D01*
X114136434Y-107926634D01*
X114261362Y-107739666D01*
X114317439Y-107655741D01*
X114381000Y-107336200D01*
X114381000Y-72401200D01*
X114317439Y-72081659D01*
X114136434Y-71810766D01*
X110324834Y-67999166D01*
X110209875Y-67922353D01*
X110053941Y-67818161D01*
X109734400Y-67754600D01*
X108692700Y-67754600D01*
X108373160Y-67818160D01*
X108102266Y-67999166D01*
X107712013Y-68389419D01*
X107530000Y-68352560D01*
X105830000Y-68352560D01*
X105594683Y-68396838D01*
X105378559Y-68535910D01*
X105233569Y-68748110D01*
X105182560Y-69000000D01*
X105182560Y-70700000D01*
X105226838Y-70935317D01*
X105365910Y-71151441D01*
X105578110Y-71296431D01*
X105645541Y-71310086D01*
X105600853Y-71339946D01*
X105278946Y-71821715D01*
X105165907Y-72390000D01*
X105278946Y-72958285D01*
X105600853Y-73440054D01*
X105930026Y-73660000D01*
X105600853Y-73879946D01*
X105278946Y-74361715D01*
X105165907Y-74930000D01*
X105278946Y-75498285D01*
X105421219Y-75711213D01*
X104701766Y-76430666D01*
X104520761Y-76701559D01*
X104457200Y-77021100D01*
X104457200Y-80701766D01*
X104357362Y-80942201D01*
X104357038Y-81314167D01*
X104499083Y-81657943D01*
X104535904Y-81694828D01*
X102419266Y-83811466D01*
X102238261Y-84082359D01*
X102174700Y-84401900D01*
X102174700Y-87953066D01*
X102074862Y-88193501D01*
X102074538Y-88565467D01*
X102216583Y-88909243D01*
X102299763Y-88992569D01*
X101749966Y-89542366D01*
X101568961Y-89813259D01*
X101505400Y-90132800D01*
X101505400Y-99686466D01*
X101405562Y-99926901D01*
X101405238Y-100298867D01*
X99770000Y-100298867D01*
X99770000Y-71189931D01*
X100115498Y-69452995D01*
X101059779Y-68039779D01*
X102472997Y-67095498D01*
X104209931Y-66750000D01*
X118670000Y-66750000D01*
X118670000Y-137466000D01*
G36*
X108470026Y-133096000D02*
X108427250Y-133124582D01*
X108254977Y-132952309D01*
X108470026Y-133096000D01*
X108470026Y-133096000D01*
G37*
X108470026Y-133096000D02*
X108427250Y-133124582D01*
X108254977Y-132952309D01*
X108470026Y-133096000D01*
G36*
X108064598Y-132761930D02*
X107927205Y-132624537D01*
X107950000Y-132590422D01*
X108064598Y-132761930D01*
X108064598Y-132761930D01*
G37*
X108064598Y-132761930D02*
X107927205Y-132624537D01*
X107950000Y-132590422D01*
X108064598Y-132761930D01*
G36*
X105432795Y-128487463D02*
X105278946Y-128717715D01*
X105165907Y-129286000D01*
X105278946Y-129854285D01*
X105600853Y-130336054D01*
X105930026Y-130556000D01*
X105600853Y-130775946D01*
X105278946Y-131257715D01*
X105191617Y-131696749D01*
X104444000Y-130949132D01*
X104444000Y-127498668D01*
X105432795Y-128487463D01*
X105432795Y-128487463D01*
G37*
X105432795Y-128487463D02*
X105278946Y-128717715D01*
X105165907Y-129286000D01*
X105278946Y-129854285D01*
X105600853Y-130336054D01*
X105930026Y-130556000D01*
X105600853Y-130775946D01*
X105278946Y-131257715D01*
X105191617Y-131696749D01*
X104444000Y-130949132D01*
X104444000Y-127498668D01*
X105432795Y-128487463D01*
G36*
X108140853Y-130336054D02*
X108398434Y-130508164D01*
X108385000Y-130575700D01*
X108385000Y-130612813D01*
X108140853Y-130775946D01*
X107950000Y-131061578D01*
X107759147Y-130775946D01*
X107429974Y-130556000D01*
X107759147Y-130336054D01*
X107950000Y-130050422D01*
X108140853Y-130336054D01*
X108140853Y-130336054D01*
G37*
X108140853Y-130336054D02*
X108398434Y-130508164D01*
X108385000Y-130575700D01*
X108385000Y-130612813D01*
X108140853Y-130775946D01*
X107950000Y-131061578D01*
X107759147Y-130775946D01*
X107429974Y-130556000D01*
X107759147Y-130336054D01*
X107950000Y-130050422D01*
X108140853Y-130336054D01*
G36*
X107972795Y-128487463D02*
X107950000Y-128521578D01*
X107835402Y-128350070D01*
X107972795Y-128487463D01*
X107972795Y-128487463D01*
G37*
X107972795Y-128487463D02*
X107950000Y-128521578D01*
X107835402Y-128350070D01*
X107972795Y-128487463D01*
G36*
X107645023Y-128159691D02*
X107515000Y-128072813D01*
X107515000Y-128035700D01*
X107513502Y-128028170D01*
X107645023Y-128159691D01*
X107645023Y-128159691D01*
G37*
X107645023Y-128159691D02*
X107515000Y-128072813D01*
X107515000Y-128035700D01*
X107513502Y-128028170D01*
X107645023Y-128159691D01*
G36*
X105432795Y-123407463D02*
X105278946Y-123637715D01*
X105165907Y-124206000D01*
X105278946Y-124774285D01*
X105600853Y-125256054D01*
X105930026Y-125476000D01*
X105600853Y-125695946D01*
X105361393Y-126054325D01*
X105044400Y-125737332D01*
X105044400Y-123019068D01*
X105432795Y-123407463D01*
X105432795Y-123407463D01*
G37*
X105432795Y-123407463D02*
X105278946Y-123637715D01*
X105165907Y-124206000D01*
X105278946Y-124774285D01*
X105600853Y-125256054D01*
X105930026Y-125476000D01*
X105600853Y-125695946D01*
X105361393Y-126054325D01*
X105044400Y-125737332D01*
X105044400Y-123019068D01*
X105432795Y-123407463D01*
G36*
X109992000Y-125490717D02*
X109969974Y-125476000D01*
X109992000Y-125461283D01*
X109992000Y-125490717D01*
X109992000Y-125490717D01*
G37*
X109992000Y-125490717D02*
X109969974Y-125476000D01*
X109992000Y-125461283D01*
X109992000Y-125490717D01*
G36*
X109992000Y-122950717D02*
X109969974Y-122936000D01*
X109992000Y-122921283D01*
X109992000Y-122950717D01*
X109992000Y-122950717D01*
G37*
X109992000Y-122950717D02*
X109969974Y-122936000D01*
X109992000Y-122921283D01*
X109992000Y-122950717D01*
G36*
X105930026Y-120396000D02*
X105644800Y-120586582D01*
X105644800Y-120205418D01*
X105930026Y-120396000D01*
X105930026Y-120396000D01*
G37*
X105930026Y-120396000D02*
X105644800Y-120586582D01*
X105644800Y-120205418D01*
X105930026Y-120396000D01*
G36*
X105930026Y-117856000D02*
X105644800Y-118046582D01*
X105644800Y-117665418D01*
X105930026Y-117856000D01*
X105930026Y-117856000D01*
G37*
X105930026Y-117856000D02*
X105644800Y-118046582D01*
X105644800Y-117665418D01*
X105930026Y-117856000D01*
G36*
X112108900Y-106185932D02*
X108765400Y-109529432D01*
X108765400Y-108675968D01*
X112108900Y-105332468D01*
X112108900Y-106185932D01*
X112108900Y-106185932D01*
G37*
X112108900Y-106185932D02*
X108765400Y-109529432D01*
X108765400Y-108675968D01*
X112108900Y-105332468D01*
X112108900Y-106185932D01*
G36*
X109933373Y-104675392D02*
X110266085Y-104813547D01*
X107515000Y-107564632D01*
X107515000Y-106980768D01*
X109876924Y-104618844D01*
X109933373Y-104675392D01*
X109933373Y-104675392D01*
G37*
X109933373Y-104675392D02*
X110266085Y-104813547D01*
X107515000Y-107564632D01*
X107515000Y-106980768D01*
X109876924Y-104618844D01*
X109933373Y-104675392D01*
G36*
X110295100Y-101838932D02*
X106245200Y-105888832D01*
X106245200Y-102976168D01*
X110295100Y-98926268D01*
X110295100Y-101838932D01*
X110295100Y-101838932D01*
G37*
X110295100Y-101838932D02*
X106245200Y-105888832D01*
X106245200Y-102976168D01*
X110295100Y-98926268D01*
X110295100Y-101838932D01*
G36*
X107115000Y-97695532D02*
X106335100Y-98475432D01*
X106335100Y-98275434D01*
X106434938Y-98034999D01*
X106435262Y-97663033D01*
X106293217Y-97319257D01*
X106030427Y-97056008D01*
X105686899Y-96913362D01*
X105314933Y-96913038D01*
X104971157Y-97055083D01*
X104707908Y-97317873D01*
X104565262Y-97661401D01*
X104564938Y-98033367D01*
X104665100Y-98275778D01*
X104665100Y-99296332D01*
X104476000Y-99485432D01*
X104476000Y-97345168D01*
X107115000Y-94706168D01*
X107115000Y-97695532D01*
X107115000Y-97695532D01*
G37*
X107115000Y-97695532D02*
X106335100Y-98475432D01*
X106335100Y-98275434D01*
X106434938Y-98034999D01*
X106435262Y-97663033D01*
X106293217Y-97319257D01*
X106030427Y-97056008D01*
X105686899Y-96913362D01*
X105314933Y-96913038D01*
X104971157Y-97055083D01*
X104707908Y-97317873D01*
X104565262Y-97661401D01*
X104564938Y-98033367D01*
X104665100Y-98275778D01*
X104665100Y-99296332D01*
X104476000Y-99485432D01*
X104476000Y-97345168D01*
X107115000Y-94706168D01*
X107115000Y-97695532D01*
G36*
X109190907Y-94195000D02*
X109249093Y-94195000D01*
X109638300Y-94117582D01*
X109638300Y-97221332D01*
X108776748Y-98082884D01*
X108785000Y-98041400D01*
X108785000Y-94114260D01*
X109190907Y-94195000D01*
X109190907Y-94195000D01*
G37*
X109190907Y-94195000D02*
X109249093Y-94195000D01*
X109638300Y-94117582D01*
X109638300Y-97221332D01*
X108776748Y-98082884D01*
X108785000Y-98041400D01*
X108785000Y-94114260D01*
X109190907Y-94195000D01*
G36*
X105600853Y-93760054D02*
X105659914Y-93799518D01*
X103875700Y-95583732D01*
X103875700Y-94858468D01*
X105349817Y-93384351D01*
X105600853Y-93760054D01*
X105600853Y-93760054D01*
G37*
X105600853Y-93760054D02*
X105659914Y-93799518D01*
X103875700Y-95583732D01*
X103875700Y-94858468D01*
X105349817Y-93384351D01*
X105600853Y-93760054D01*
G36*
X105600853Y-88680054D02*
X105930026Y-88900000D01*
X105600853Y-89119946D01*
X105278946Y-89601715D01*
X105165907Y-90170000D01*
X105278946Y-90738285D01*
X105421219Y-90951213D01*
X103175400Y-93197032D01*
X103175400Y-90478668D01*
X105349777Y-88304291D01*
X105600853Y-88680054D01*
X105600853Y-88680054D01*
G37*
X105600853Y-88680054D02*
X105930026Y-88900000D01*
X105600853Y-89119946D01*
X105278946Y-89601715D01*
X105165907Y-90170000D01*
X105278946Y-90738285D01*
X105421219Y-90951213D01*
X103175400Y-93197032D01*
X103175400Y-90478668D01*
X105349777Y-88304291D01*
X105600853Y-88680054D01*
G36*
X105600853Y-83600054D02*
X105845000Y-83763187D01*
X105845000Y-83800300D01*
X105858434Y-83867836D01*
X105600853Y-84039946D01*
X105278946Y-84521715D01*
X105165907Y-85090000D01*
X105278946Y-85658285D01*
X105421179Y-85871153D01*
X103844700Y-87447632D01*
X103844700Y-84747768D01*
X105357147Y-83235321D01*
X105600853Y-83600054D01*
X105600853Y-83600054D01*
G37*
X105600853Y-83600054D02*
X105845000Y-83763187D01*
X105845000Y-83800300D01*
X105858434Y-83867836D01*
X105600853Y-84039946D01*
X105278946Y-84521715D01*
X105165907Y-85090000D01*
X105278946Y-85658285D01*
X105421179Y-85871153D01*
X103844700Y-87447632D01*
X103844700Y-84747768D01*
X105357147Y-83235321D01*
X105600853Y-83600054D01*
G36*
X108385000Y-83763187D02*
X108385000Y-83777432D01*
X108342072Y-83734504D01*
X108385000Y-83763187D01*
X108385000Y-83763187D01*
G37*
X108385000Y-83763187D02*
X108385000Y-83777432D01*
X108342072Y-83734504D01*
X108385000Y-83763187D01*
G36*
X108006403Y-83398835D02*
X107938781Y-83331213D01*
X107950000Y-83314422D01*
X108006403Y-83398835D01*
X108006403Y-83398835D01*
G37*
X108006403Y-83398835D02*
X107938781Y-83331213D01*
X107950000Y-83314422D01*
X108006403Y-83398835D01*
G36*
X107983049Y-81736117D02*
X107950000Y-81785578D01*
X107783853Y-81536921D01*
X107983049Y-81736117D01*
X107983049Y-81736117D01*
G37*
X107983049Y-81736117D02*
X107950000Y-81785578D01*
X107783853Y-81536921D01*
X107983049Y-81736117D01*
G36*
X107722172Y-81475240D02*
X107501566Y-81327836D01*
X107513711Y-81266779D01*
X107722172Y-81475240D01*
X107722172Y-81475240D01*
G37*
X107722172Y-81475240D02*
X107501566Y-81327836D01*
X107513711Y-81266779D01*
X107722172Y-81475240D01*
G36*
X110895500Y-81029668D02*
X110895500Y-81227932D01*
X110470770Y-80803202D01*
X110550183Y-80684351D01*
X110895500Y-81029668D01*
X110895500Y-81029668D01*
G37*
X110895500Y-81029668D02*
X110895500Y-81227932D01*
X110470770Y-80803202D01*
X110550183Y-80684351D01*
X110895500Y-81029668D01*
G36*
X111508500Y-79102668D02*
X111508500Y-79280932D01*
X110478781Y-78251213D01*
X110550183Y-78144351D01*
X111508500Y-79102668D01*
X111508500Y-79102668D01*
G37*
X111508500Y-79102668D02*
X111508500Y-79280932D01*
X110478781Y-78251213D01*
X110550183Y-78144351D01*
X111508500Y-79102668D01*
G36*
X112108900Y-74651968D02*
X112108900Y-77341332D01*
X110478781Y-75711213D01*
X110621054Y-75498285D01*
X110734093Y-74930000D01*
X110621054Y-74361715D01*
X110299147Y-73879946D01*
X109969974Y-73660000D01*
X110299147Y-73440054D01*
X110538607Y-73081675D01*
X112108900Y-74651968D01*
X112108900Y-74651968D01*
G37*
X112108900Y-74651968D02*
X112108900Y-77341332D01*
X110478781Y-75711213D01*
X110621054Y-75498285D01*
X110734093Y-74930000D01*
X110621054Y-74361715D01*
X110299147Y-73879946D01*
X109969974Y-73660000D01*
X110299147Y-73440054D01*
X110538607Y-73081675D01*
X112108900Y-74651968D01*
G36*
X112711000Y-72747068D02*
X112711000Y-72892332D01*
X110467205Y-70648537D01*
X110525389Y-70561457D01*
X112711000Y-72747068D01*
X112711000Y-72747068D01*
G37*
X112711000Y-72747068D02*
X112711000Y-72892332D01*
X110467205Y-70648537D01*
X110525389Y-70561457D01*
X112711000Y-72747068D01*
M02*
