G04 #@! TF.GenerationSoftware,KiCad,Pcbnew,(5.0.0)*
G04 #@! TF.CreationDate,2019-01-20T19:44:52-05:00*
G04 #@! TF.ProjectId,AVR_LCD 2.0,4156525F4C434420322E302E6B696361,rev?*
G04 #@! TF.SameCoordinates,Original*
G04 #@! TF.FileFunction,Paste,Top*
G04 #@! TF.FilePolarity,Positive*
%FSLAX46Y46*%
G04 Gerber Fmt 4.6, Leading zero omitted, Abs format (unit mm)*
G04 Created by KiCad (PCBNEW (5.0.0)) date 01/20/19 19:44:52*
%MOMM*%
%LPD*%
G01*
G04 APERTURE LIST*
%ADD10R,1.000000X1.250000*%
%ADD11R,1.200000X1.200000*%
%ADD12R,1.300000X0.700000*%
%ADD13R,0.700000X1.300000*%
%ADD14R,0.675000X0.250000*%
%ADD15R,0.250000X0.675000*%
%ADD16R,0.450000X1.450000*%
%ADD17R,2.000000X1.900000*%
%ADD18R,1.450000X0.450000*%
G04 APERTURE END LIST*
D10*
G04 #@! TO.C,C1*
X101034000Y-91149500D03*
X99034000Y-91149500D03*
G04 #@! TD*
G04 #@! TO.C,C2*
X65540000Y-88550000D03*
X63540000Y-88550000D03*
G04 #@! TD*
G04 #@! TO.C,C3*
X110924000Y-98207000D03*
X112924000Y-98207000D03*
G04 #@! TD*
D11*
G04 #@! TO.C,D1*
X99125000Y-80464000D03*
X101325000Y-80464000D03*
G04 #@! TD*
D12*
G04 #@! TO.C,R1*
X95970500Y-86323500D03*
X95970500Y-88223500D03*
G04 #@! TD*
D13*
G04 #@! TO.C,R2*
X99293000Y-72590000D03*
X101193000Y-72590000D03*
G04 #@! TD*
G04 #@! TO.C,R3*
X101193000Y-75130000D03*
X99293000Y-75130000D03*
G04 #@! TD*
G04 #@! TO.C,R4*
X99293000Y-77797000D03*
X101193000Y-77797000D03*
G04 #@! TD*
D14*
G04 #@! TO.C,U1*
X101304500Y-86323500D03*
X101304500Y-86823500D03*
X101304500Y-87323500D03*
X101304500Y-87823500D03*
X98779500Y-87823500D03*
X98779500Y-87323500D03*
X98779500Y-86823500D03*
X98779500Y-86323500D03*
D15*
X100542000Y-88086000D03*
X100042000Y-88086000D03*
X99542000Y-88086000D03*
X100542000Y-86061000D03*
X99542000Y-86061000D03*
X100042000Y-86061000D03*
G04 #@! TD*
D16*
G04 #@! TO.C,U4*
X113042000Y-106491000D03*
X112392000Y-106491000D03*
X111742000Y-106491000D03*
X111092000Y-106491000D03*
X111092000Y-100591000D03*
X111742000Y-100591000D03*
X112392000Y-100591000D03*
X113042000Y-100591000D03*
G04 #@! TD*
D17*
G04 #@! TO.C,U5*
X89940000Y-95000000D03*
X89940000Y-91000000D03*
X89940000Y-87000000D03*
X74940000Y-91000000D03*
X74940000Y-95000000D03*
X74940000Y-87000000D03*
G04 #@! TD*
D18*
G04 #@! TO.C,U3*
X66729000Y-84147000D03*
X66729000Y-84797000D03*
X66729000Y-85447000D03*
X66729000Y-86097000D03*
X62329000Y-86097000D03*
X62329000Y-85447000D03*
X62329000Y-84797000D03*
X62329000Y-84147000D03*
G04 #@! TD*
M02*
