G04 #@! TF.FileFunction,Glue,Bot*
%FSLAX46Y46*%
G04 Gerber Fmt 4.6, Leading zero omitted, Abs format (unit mm)*
G04 Created by KiCad (PCBNEW 4.0.7) date 04/06/18 15:52:26*
%MOMM*%
%LPD*%
G01*
G04 APERTURE LIST*
%ADD10C,0.100000*%
%ADD11C,0.300000*%
G04 APERTURE END LIST*
D10*
D11*
X150781430Y-36182571D02*
X150067144Y-36182571D01*
X149995715Y-36896857D01*
X150067144Y-36825429D01*
X150210001Y-36754000D01*
X150567144Y-36754000D01*
X150710001Y-36825429D01*
X150781430Y-36896857D01*
X150852858Y-37039714D01*
X150852858Y-37396857D01*
X150781430Y-37539714D01*
X150710001Y-37611143D01*
X150567144Y-37682571D01*
X150210001Y-37682571D01*
X150067144Y-37611143D01*
X149995715Y-37539714D01*
X151567143Y-37682571D02*
X151852858Y-37682571D01*
X151995715Y-37611143D01*
X152067143Y-37539714D01*
X152210001Y-37325429D01*
X152281429Y-37039714D01*
X152281429Y-36468286D01*
X152210001Y-36325429D01*
X152138572Y-36254000D01*
X151995715Y-36182571D01*
X151710001Y-36182571D01*
X151567143Y-36254000D01*
X151495715Y-36325429D01*
X151424286Y-36468286D01*
X151424286Y-36825429D01*
X151495715Y-36968286D01*
X151567143Y-37039714D01*
X151710001Y-37111143D01*
X151995715Y-37111143D01*
X152138572Y-37039714D01*
X152210001Y-36968286D01*
X152281429Y-36825429D01*
X152924286Y-37539714D02*
X152995714Y-37611143D01*
X152924286Y-37682571D01*
X152852857Y-37611143D01*
X152924286Y-37539714D01*
X152924286Y-37682571D01*
X153710000Y-37682571D02*
X153995715Y-37682571D01*
X154138572Y-37611143D01*
X154210000Y-37539714D01*
X154352858Y-37325429D01*
X154424286Y-37039714D01*
X154424286Y-36468286D01*
X154352858Y-36325429D01*
X154281429Y-36254000D01*
X154138572Y-36182571D01*
X153852858Y-36182571D01*
X153710000Y-36254000D01*
X153638572Y-36325429D01*
X153567143Y-36468286D01*
X153567143Y-36825429D01*
X153638572Y-36968286D01*
X153710000Y-37039714D01*
X153852858Y-37111143D01*
X154138572Y-37111143D01*
X154281429Y-37039714D01*
X154352858Y-36968286D01*
X154424286Y-36825429D01*
X155710000Y-36682571D02*
X155710000Y-37682571D01*
X155352857Y-36111143D02*
X154995714Y-37182571D01*
X155924286Y-37182571D01*
X157138571Y-36682571D02*
X157138571Y-37682571D01*
X156781428Y-36111143D02*
X156424285Y-37182571D01*
X157352857Y-37182571D01*
X159067142Y-37682571D02*
X159067142Y-36682571D01*
X159067142Y-36825429D02*
X159138570Y-36754000D01*
X159281428Y-36682571D01*
X159495713Y-36682571D01*
X159638570Y-36754000D01*
X159709999Y-36896857D01*
X159709999Y-37682571D01*
X159709999Y-36896857D02*
X159781428Y-36754000D01*
X159924285Y-36682571D01*
X160138570Y-36682571D01*
X160281428Y-36754000D01*
X160352856Y-36896857D01*
X160352856Y-37682571D01*
X161067142Y-37682571D02*
X161067142Y-36682571D01*
X161067142Y-36825429D02*
X161138570Y-36754000D01*
X161281428Y-36682571D01*
X161495713Y-36682571D01*
X161638570Y-36754000D01*
X161709999Y-36896857D01*
X161709999Y-37682571D01*
X161709999Y-36896857D02*
X161781428Y-36754000D01*
X161924285Y-36682571D01*
X162138570Y-36682571D01*
X162281428Y-36754000D01*
X162352856Y-36896857D01*
X162352856Y-37682571D01*
X126238000Y-38354000D02*
X186182000Y-38354000D01*
X126238000Y-48006000D02*
X126238000Y-35654000D01*
X186182000Y-48006000D02*
X186182000Y-35654000D01*
X186182000Y-38354000D02*
X185055496Y-38940421D01*
X186182000Y-38354000D02*
X185055496Y-37767579D01*
X126238000Y-38354000D02*
X127364504Y-38940421D01*
X126238000Y-38354000D02*
X127364504Y-37767579D01*
M02*
