G04 #@! TF.FileFunction,Soldermask,Top*
%FSLAX46Y46*%
G04 Gerber Fmt 4.6, Leading zero omitted, Abs format (unit mm)*
G04 Created by KiCad (PCBNEW 4.0.7) date 04/06/18 15:52:29*
%MOMM*%
%LPD*%
G01*
G04 APERTURE LIST*
%ADD10C,0.100000*%
%ADD11R,2.100000X2.100000*%
%ADD12O,2.100000X2.100000*%
%ADD13R,2.000000X2.000000*%
%ADD14O,2.000000X2.000000*%
%ADD15R,1.300000X3.200000*%
%ADD16R,1.100000X1.700000*%
%ADD17R,1.600000X1.600000*%
%ADD18O,3.900000X3.900000*%
%ADD19R,2.200000X2.200000*%
%ADD20O,2.200000X2.200000*%
%ADD21R,2.900000X2.200000*%
%ADD22C,1.840000*%
%ADD23C,0.254000*%
G04 APERTURE END LIST*
D10*
D11*
X179070000Y-58420000D03*
D12*
X181610000Y-58420000D03*
X179070000Y-60960000D03*
X181610000Y-60960000D03*
X179070000Y-63500000D03*
X181610000Y-63500000D03*
X179070000Y-66040000D03*
X181610000Y-66040000D03*
X179070000Y-68580000D03*
X181610000Y-68580000D03*
X179070000Y-71120000D03*
X181610000Y-71120000D03*
X179070000Y-73660000D03*
X181610000Y-73660000D03*
X179070000Y-76200000D03*
X181610000Y-76200000D03*
X179070000Y-78740000D03*
X181610000Y-78740000D03*
X179070000Y-81280000D03*
X181610000Y-81280000D03*
D11*
X133350000Y-81280000D03*
D12*
X130810000Y-81280000D03*
X133350000Y-78740000D03*
X130810000Y-78740000D03*
X133350000Y-76200000D03*
X130810000Y-76200000D03*
X133350000Y-73660000D03*
X130810000Y-73660000D03*
X133350000Y-71120000D03*
X130810000Y-71120000D03*
X133350000Y-68580000D03*
X130810000Y-68580000D03*
X133350000Y-66040000D03*
X130810000Y-66040000D03*
X133350000Y-63500000D03*
X130810000Y-63500000D03*
X133350000Y-60960000D03*
X130810000Y-60960000D03*
X133350000Y-58420000D03*
X130810000Y-58420000D03*
D11*
X142240000Y-71120000D03*
D12*
X142240000Y-68580000D03*
X144780000Y-71120000D03*
X144780000Y-68580000D03*
X147320000Y-71120000D03*
X147320000Y-68580000D03*
X149860000Y-71120000D03*
X149860000Y-68580000D03*
X152400000Y-71120000D03*
X152400000Y-68580000D03*
D11*
X160020000Y-71120000D03*
D12*
X160020000Y-68580000D03*
X162560000Y-71120000D03*
X162560000Y-68580000D03*
X165100000Y-71120000D03*
X165100000Y-68580000D03*
X167640000Y-71120000D03*
X167640000Y-68580000D03*
X170180000Y-71120000D03*
X170180000Y-68580000D03*
D11*
X142240000Y-81280000D03*
D12*
X142240000Y-78740000D03*
X144780000Y-81280000D03*
X144780000Y-78740000D03*
X147320000Y-81280000D03*
X147320000Y-78740000D03*
X149860000Y-81280000D03*
X149860000Y-78740000D03*
X152400000Y-81280000D03*
X152400000Y-78740000D03*
D11*
X160020000Y-81280000D03*
D12*
X160020000Y-78740000D03*
X162560000Y-81280000D03*
X162560000Y-78740000D03*
X165100000Y-81280000D03*
X165100000Y-78740000D03*
X167640000Y-81280000D03*
X167640000Y-78740000D03*
X170180000Y-81280000D03*
X170180000Y-78740000D03*
D11*
X142240000Y-91440000D03*
D12*
X142240000Y-88900000D03*
X144780000Y-91440000D03*
X144780000Y-88900000D03*
X147320000Y-91440000D03*
X147320000Y-88900000D03*
X149860000Y-91440000D03*
X149860000Y-88900000D03*
X152400000Y-91440000D03*
X152400000Y-88900000D03*
D11*
X170180000Y-101600000D03*
D12*
X172720000Y-101600000D03*
X175260000Y-101600000D03*
X177800000Y-101600000D03*
X180340000Y-101600000D03*
X182880000Y-101600000D03*
D11*
X157480000Y-109220000D03*
D12*
X160020000Y-109220000D03*
X162560000Y-109220000D03*
X165100000Y-109220000D03*
D11*
X157480000Y-116840000D03*
D12*
X160020000Y-116840000D03*
X162560000Y-116840000D03*
X165100000Y-116840000D03*
D11*
X181610000Y-142240000D03*
D12*
X179070000Y-142240000D03*
X176530000Y-142240000D03*
X173990000Y-142240000D03*
X171450000Y-142240000D03*
D13*
X182499000Y-127000000D03*
D14*
X164719000Y-134620000D03*
X179959000Y-127000000D03*
X167259000Y-134620000D03*
X177419000Y-127000000D03*
X169799000Y-134620000D03*
X174879000Y-127000000D03*
X172339000Y-134620000D03*
X172339000Y-127000000D03*
X174879000Y-134620000D03*
X169799000Y-127000000D03*
X177419000Y-134620000D03*
X167259000Y-127000000D03*
X179959000Y-134620000D03*
X164719000Y-127000000D03*
X182499000Y-134620000D03*
D11*
X175260000Y-109220000D03*
D12*
X177800000Y-109220000D03*
X180340000Y-109220000D03*
X182880000Y-109220000D03*
D11*
X129540000Y-135001000D03*
D12*
X132080000Y-135001000D03*
D13*
X138430000Y-134620000D03*
D14*
X146050000Y-139700000D03*
X138430000Y-137160000D03*
X146050000Y-137160000D03*
X138430000Y-139700000D03*
X146050000Y-134620000D03*
D11*
X157480000Y-101600000D03*
D12*
X160020000Y-101600000D03*
X162560000Y-101600000D03*
D15*
X144440000Y-109140000D03*
X145880000Y-109140000D03*
X147320000Y-109140000D03*
X148760000Y-109140000D03*
X150200000Y-109140000D03*
X150200000Y-99140000D03*
X148760000Y-99140000D03*
X147320000Y-99140000D03*
X145880000Y-99140000D03*
X144440000Y-99140000D03*
D16*
X137480000Y-99060000D03*
X139380000Y-99060000D03*
X137480000Y-102870000D03*
X139380000Y-102870000D03*
X137480000Y-106680000D03*
X139380000Y-106680000D03*
X137480000Y-110490000D03*
X139380000Y-110490000D03*
X137480000Y-114300000D03*
X139380000Y-114300000D03*
X137480000Y-118110000D03*
X139380000Y-118110000D03*
X137480000Y-121920000D03*
X139380000Y-121920000D03*
X137480000Y-125730000D03*
X139380000Y-125730000D03*
D17*
X133180000Y-99060000D03*
X130980000Y-99060000D03*
X133180000Y-102870000D03*
X130980000Y-102870000D03*
X133180000Y-106680000D03*
X130980000Y-106680000D03*
X133180000Y-110490000D03*
X130980000Y-110490000D03*
X133180000Y-114300000D03*
X130980000Y-114300000D03*
X133180000Y-118110000D03*
X130980000Y-118110000D03*
X133180000Y-121920000D03*
X130980000Y-121920000D03*
X133180000Y-125730000D03*
X130980000Y-125730000D03*
D11*
X129540000Y-140970000D03*
D12*
X132080000Y-140970000D03*
D18*
X153670000Y-128120000D03*
D19*
X151130000Y-144780000D03*
D20*
X153670000Y-144780000D03*
X156210000Y-144780000D03*
D16*
X141290000Y-125730000D03*
X143190000Y-125730000D03*
D21*
X140240000Y-144780000D03*
X144240000Y-144780000D03*
D22*
X147193000Y-115697000D03*
X149733000Y-118237000D03*
X147193000Y-120777000D03*
D13*
X160033000Y-95250000D03*
D14*
X177813000Y-87630000D03*
X162573000Y-95250000D03*
X175273000Y-87630000D03*
X165113000Y-95250000D03*
X172733000Y-87630000D03*
X167653000Y-95250000D03*
X170193000Y-87630000D03*
X170193000Y-95250000D03*
X167653000Y-87630000D03*
X172733000Y-95250000D03*
X165113000Y-87630000D03*
X175273000Y-95250000D03*
X162573000Y-87630000D03*
X177813000Y-95250000D03*
X160033000Y-87630000D03*
D11*
X163830000Y-142240000D03*
D12*
X166370000Y-142240000D03*
D11*
X180340000Y-116840000D03*
D12*
X182880000Y-116840000D03*
D13*
X129540000Y-93980000D03*
D14*
X137160000Y-86360000D03*
X132080000Y-93980000D03*
X134620000Y-86360000D03*
X134620000Y-93980000D03*
X132080000Y-86360000D03*
X137160000Y-93980000D03*
X129540000Y-86360000D03*
D11*
X167640000Y-58420000D03*
D12*
X167640000Y-60960000D03*
X165100000Y-58420000D03*
X165100000Y-60960000D03*
X162560000Y-58420000D03*
X162560000Y-60960000D03*
X160020000Y-58420000D03*
X160020000Y-60960000D03*
X157480000Y-58420000D03*
X157480000Y-60960000D03*
X154940000Y-58420000D03*
X154940000Y-60960000D03*
X152400000Y-58420000D03*
X152400000Y-60960000D03*
X149860000Y-58420000D03*
X149860000Y-60960000D03*
X147320000Y-58420000D03*
X147320000Y-60960000D03*
X144780000Y-58420000D03*
X144780000Y-60960000D03*
D23*
G36*
X158623000Y-132080000D02*
X148717000Y-132080000D01*
X148717000Y-125349000D01*
X158623000Y-125349000D01*
X158623000Y-132080000D01*
X158623000Y-132080000D01*
G37*
X158623000Y-132080000D02*
X148717000Y-132080000D01*
X148717000Y-125349000D01*
X158623000Y-125349000D01*
X158623000Y-132080000D01*
M02*
