G04 #@! TF.FileFunction,Legend,Top*
%FSLAX46Y46*%
G04 Gerber Fmt 4.6, Leading zero omitted, Abs format (unit mm)*
G04 Created by KiCad (PCBNEW 4.0.7) date 04/06/18 15:52:27*
%MOMM*%
%LPD*%
G01*
G04 APERTURE LIST*
%ADD10C,0.100000*%
%ADD11C,0.150000*%
%ADD12C,0.200000*%
%ADD13C,0.300000*%
%ADD14C,0.175000*%
%ADD15C,0.120000*%
G04 APERTURE END LIST*
D10*
D11*
X128008071Y-82088096D02*
X128008071Y-81754762D01*
X128531881Y-81611905D02*
X128531881Y-82088096D01*
X127531881Y-82088096D01*
X127531881Y-81611905D01*
X127531881Y-81278572D02*
X128531881Y-80611905D01*
X127531881Y-80611905D02*
X128531881Y-81278572D01*
X127531881Y-80373810D02*
X127531881Y-79802381D01*
X128531881Y-80088096D02*
X127531881Y-80088096D01*
X127865214Y-79040476D02*
X128531881Y-79040476D01*
X127484262Y-79278572D02*
X128198548Y-79516667D01*
X128198548Y-78897619D01*
X128531881Y-77183333D02*
X128055690Y-77516667D01*
X128531881Y-77754762D02*
X127531881Y-77754762D01*
X127531881Y-77373809D01*
X127579500Y-77278571D01*
X127627119Y-77230952D01*
X127722357Y-77183333D01*
X127865214Y-77183333D01*
X127960452Y-77230952D01*
X128008071Y-77278571D01*
X128055690Y-77373809D01*
X128055690Y-77754762D01*
X128531881Y-76754762D02*
X127531881Y-76754762D01*
X127579500Y-75754762D02*
X127531881Y-75850000D01*
X127531881Y-75992857D01*
X127579500Y-76135715D01*
X127674738Y-76230953D01*
X127769976Y-76278572D01*
X127960452Y-76326191D01*
X128103310Y-76326191D01*
X128293786Y-76278572D01*
X128389024Y-76230953D01*
X128484262Y-76135715D01*
X128531881Y-75992857D01*
X128531881Y-75897619D01*
X128484262Y-75754762D01*
X128436643Y-75707143D01*
X128103310Y-75707143D01*
X128103310Y-75897619D01*
X128531881Y-75278572D02*
X127531881Y-75278572D01*
X128008071Y-75278572D02*
X128008071Y-74707143D01*
X128531881Y-74707143D02*
X127531881Y-74707143D01*
X127531881Y-74373810D02*
X127531881Y-73802381D01*
X128531881Y-74088096D02*
X127531881Y-74088096D01*
X128246167Y-72754762D02*
X128246167Y-72278571D01*
X128531881Y-72850000D02*
X127531881Y-72516667D01*
X128531881Y-72183333D01*
X128531881Y-71850000D02*
X127531881Y-71850000D01*
X128531881Y-71278571D01*
X127531881Y-71278571D01*
X127579500Y-70278571D02*
X127531881Y-70373809D01*
X127531881Y-70516666D01*
X127579500Y-70659524D01*
X127674738Y-70754762D01*
X127769976Y-70802381D01*
X127960452Y-70850000D01*
X128103310Y-70850000D01*
X128293786Y-70802381D01*
X128389024Y-70754762D01*
X128484262Y-70659524D01*
X128531881Y-70516666D01*
X128531881Y-70421428D01*
X128484262Y-70278571D01*
X128436643Y-70230952D01*
X128103310Y-70230952D01*
X128103310Y-70421428D01*
X128531881Y-69326190D02*
X128531881Y-69802381D01*
X127531881Y-69802381D01*
X128008071Y-68992857D02*
X128008071Y-68659523D01*
X128531881Y-68516666D02*
X128531881Y-68992857D01*
X127531881Y-68992857D01*
X127531881Y-68516666D01*
X128531881Y-67326190D02*
X127531881Y-67326190D01*
X128246167Y-66992856D01*
X127531881Y-66659523D01*
X128531881Y-66659523D01*
X128246167Y-66230952D02*
X128246167Y-65754761D01*
X128531881Y-66326190D02*
X127531881Y-65992857D01*
X128531881Y-65659523D01*
X128531881Y-64849999D02*
X128531881Y-65326190D01*
X127531881Y-65326190D01*
X128008071Y-64516666D02*
X128008071Y-64183332D01*
X128531881Y-64040475D02*
X128531881Y-64516666D01*
X127531881Y-64516666D01*
X127531881Y-64040475D01*
X128531881Y-62849999D02*
X127531881Y-62849999D01*
X128008071Y-62849999D02*
X128008071Y-62278570D01*
X128531881Y-62278570D02*
X127531881Y-62278570D01*
X128008071Y-61802380D02*
X128008071Y-61469046D01*
X128531881Y-61326189D02*
X128531881Y-61802380D01*
X127531881Y-61802380D01*
X127531881Y-61326189D01*
X128246167Y-60945237D02*
X128246167Y-60469046D01*
X128531881Y-61040475D02*
X127531881Y-60707142D01*
X128531881Y-60373808D01*
X128531881Y-60040475D02*
X127531881Y-60040475D01*
X127531881Y-59802380D01*
X127579500Y-59659522D01*
X127674738Y-59564284D01*
X127769976Y-59516665D01*
X127960452Y-59469046D01*
X128103310Y-59469046D01*
X128293786Y-59516665D01*
X128389024Y-59564284D01*
X128484262Y-59659522D01*
X128531881Y-59802380D01*
X128531881Y-60040475D01*
X128008071Y-59040475D02*
X128008071Y-58707141D01*
X128531881Y-58564284D02*
X128531881Y-59040475D01*
X127531881Y-59040475D01*
X127531881Y-58564284D01*
X128531881Y-57564284D02*
X128055690Y-57897618D01*
X128531881Y-58135713D02*
X127531881Y-58135713D01*
X127531881Y-57754760D01*
X127579500Y-57659522D01*
X127627119Y-57611903D01*
X127722357Y-57564284D01*
X127865214Y-57564284D01*
X127960452Y-57611903D01*
X128008071Y-57659522D01*
X128055690Y-57754760D01*
X128055690Y-58135713D01*
D12*
X129476500Y-82613500D02*
X129476500Y-57150000D01*
X126428500Y-57150000D02*
X126428500Y-82613500D01*
X129476500Y-57150000D02*
X126428500Y-57150000D01*
X129476500Y-82613500D02*
X126428500Y-82613500D01*
D11*
X184538929Y-57611904D02*
X184538929Y-57945238D01*
X184015119Y-58088095D02*
X184015119Y-57611904D01*
X185015119Y-57611904D01*
X185015119Y-58088095D01*
X185015119Y-58421428D02*
X184015119Y-59088095D01*
X185015119Y-59088095D02*
X184015119Y-58421428D01*
X185015119Y-59326190D02*
X185015119Y-59897619D01*
X184015119Y-59611904D02*
X185015119Y-59611904D01*
X184015119Y-60754762D02*
X184015119Y-60183333D01*
X184015119Y-60469047D02*
X185015119Y-60469047D01*
X184872262Y-60373809D01*
X184777024Y-60278571D01*
X184729405Y-60183333D01*
X184015119Y-62516667D02*
X184491310Y-62183333D01*
X184015119Y-61945238D02*
X185015119Y-61945238D01*
X185015119Y-62326191D01*
X184967500Y-62421429D01*
X184919881Y-62469048D01*
X184824643Y-62516667D01*
X184681786Y-62516667D01*
X184586548Y-62469048D01*
X184538929Y-62421429D01*
X184491310Y-62326191D01*
X184491310Y-61945238D01*
X184015119Y-62945238D02*
X185015119Y-62945238D01*
X184967500Y-63945238D02*
X185015119Y-63850000D01*
X185015119Y-63707143D01*
X184967500Y-63564285D01*
X184872262Y-63469047D01*
X184777024Y-63421428D01*
X184586548Y-63373809D01*
X184443690Y-63373809D01*
X184253214Y-63421428D01*
X184157976Y-63469047D01*
X184062738Y-63564285D01*
X184015119Y-63707143D01*
X184015119Y-63802381D01*
X184062738Y-63945238D01*
X184110357Y-63992857D01*
X184443690Y-63992857D01*
X184443690Y-63802381D01*
X184015119Y-64421428D02*
X185015119Y-64421428D01*
X184538929Y-64421428D02*
X184538929Y-64992857D01*
X184015119Y-64992857D02*
X185015119Y-64992857D01*
X185015119Y-65326190D02*
X185015119Y-65897619D01*
X184015119Y-65611904D02*
X185015119Y-65611904D01*
X184300833Y-66945238D02*
X184300833Y-67421429D01*
X184015119Y-66850000D02*
X185015119Y-67183333D01*
X184015119Y-67516667D01*
X184015119Y-67850000D02*
X185015119Y-67850000D01*
X184015119Y-68421429D01*
X185015119Y-68421429D01*
X184967500Y-69421429D02*
X185015119Y-69326191D01*
X185015119Y-69183334D01*
X184967500Y-69040476D01*
X184872262Y-68945238D01*
X184777024Y-68897619D01*
X184586548Y-68850000D01*
X184443690Y-68850000D01*
X184253214Y-68897619D01*
X184157976Y-68945238D01*
X184062738Y-69040476D01*
X184015119Y-69183334D01*
X184015119Y-69278572D01*
X184062738Y-69421429D01*
X184110357Y-69469048D01*
X184443690Y-69469048D01*
X184443690Y-69278572D01*
X184015119Y-70373810D02*
X184015119Y-69897619D01*
X185015119Y-69897619D01*
X184538929Y-70707143D02*
X184538929Y-71040477D01*
X184015119Y-71183334D02*
X184015119Y-70707143D01*
X185015119Y-70707143D01*
X185015119Y-71183334D01*
X184015119Y-72373810D02*
X185015119Y-72373810D01*
X184300833Y-72707144D01*
X185015119Y-73040477D01*
X184015119Y-73040477D01*
X184300833Y-73469048D02*
X184300833Y-73945239D01*
X184015119Y-73373810D02*
X185015119Y-73707143D01*
X184015119Y-74040477D01*
X184015119Y-74850001D02*
X184015119Y-74373810D01*
X185015119Y-74373810D01*
X184538929Y-75183334D02*
X184538929Y-75516668D01*
X184015119Y-75659525D02*
X184015119Y-75183334D01*
X185015119Y-75183334D01*
X185015119Y-75659525D01*
X184015119Y-76850001D02*
X185015119Y-76850001D01*
X184538929Y-76850001D02*
X184538929Y-77421430D01*
X184015119Y-77421430D02*
X185015119Y-77421430D01*
X184538929Y-77897620D02*
X184538929Y-78230954D01*
X184015119Y-78373811D02*
X184015119Y-77897620D01*
X185015119Y-77897620D01*
X185015119Y-78373811D01*
X184300833Y-78754763D02*
X184300833Y-79230954D01*
X184015119Y-78659525D02*
X185015119Y-78992858D01*
X184015119Y-79326192D01*
X184015119Y-79659525D02*
X185015119Y-79659525D01*
X185015119Y-79897620D01*
X184967500Y-80040478D01*
X184872262Y-80135716D01*
X184777024Y-80183335D01*
X184586548Y-80230954D01*
X184443690Y-80230954D01*
X184253214Y-80183335D01*
X184157976Y-80135716D01*
X184062738Y-80040478D01*
X184015119Y-79897620D01*
X184015119Y-79659525D01*
X184538929Y-80659525D02*
X184538929Y-80992859D01*
X184015119Y-81135716D02*
X184015119Y-80659525D01*
X185015119Y-80659525D01*
X185015119Y-81135716D01*
X184015119Y-82135716D02*
X184491310Y-81802382D01*
X184015119Y-81564287D02*
X185015119Y-81564287D01*
X185015119Y-81945240D01*
X184967500Y-82040478D01*
X184919881Y-82088097D01*
X184824643Y-82135716D01*
X184681786Y-82135716D01*
X184586548Y-82088097D01*
X184538929Y-82040478D01*
X184491310Y-81945240D01*
X184491310Y-81564287D01*
D12*
X182943500Y-82550000D02*
X182943500Y-57086500D01*
X185991500Y-82550000D02*
X185991500Y-57086500D01*
X182880000Y-82550000D02*
X185991500Y-82550000D01*
X182943500Y-57086500D02*
X185991500Y-57086500D01*
D11*
X151321095Y-50983571D02*
X151654429Y-50983571D01*
X151797286Y-51507381D02*
X151321095Y-51507381D01*
X151321095Y-50507381D01*
X151797286Y-50507381D01*
X152130619Y-50507381D02*
X152797286Y-51507381D01*
X152797286Y-50507381D02*
X152130619Y-51507381D01*
X153035381Y-50507381D02*
X153606810Y-50507381D01*
X153321095Y-51507381D02*
X153321095Y-50507381D01*
X153844905Y-50507381D02*
X154463953Y-50507381D01*
X154130619Y-50888333D01*
X154273477Y-50888333D01*
X154368715Y-50935952D01*
X154416334Y-50983571D01*
X154463953Y-51078810D01*
X154463953Y-51316905D01*
X154416334Y-51412143D01*
X154368715Y-51459762D01*
X154273477Y-51507381D01*
X153987762Y-51507381D01*
X153892524Y-51459762D01*
X153844905Y-51412143D01*
X155606810Y-50602619D02*
X155654429Y-50555000D01*
X155749667Y-50507381D01*
X155987763Y-50507381D01*
X156083001Y-50555000D01*
X156130620Y-50602619D01*
X156178239Y-50697857D01*
X156178239Y-50793095D01*
X156130620Y-50935952D01*
X155559191Y-51507381D01*
X156178239Y-51507381D01*
X156797286Y-50507381D02*
X156892525Y-50507381D01*
X156987763Y-50555000D01*
X157035382Y-50602619D01*
X157083001Y-50697857D01*
X157130620Y-50888333D01*
X157130620Y-51126429D01*
X157083001Y-51316905D01*
X157035382Y-51412143D01*
X156987763Y-51459762D01*
X156892525Y-51507381D01*
X156797286Y-51507381D01*
X156702048Y-51459762D01*
X156654429Y-51412143D01*
X156606810Y-51316905D01*
X156559191Y-51126429D01*
X156559191Y-50888333D01*
X156606810Y-50697857D01*
X156654429Y-50602619D01*
X156702048Y-50555000D01*
X156797286Y-50507381D01*
X157559191Y-51507381D02*
X157559191Y-50507381D01*
X157940144Y-50507381D01*
X158035382Y-50555000D01*
X158083001Y-50602619D01*
X158130620Y-50697857D01*
X158130620Y-50840714D01*
X158083001Y-50935952D01*
X158035382Y-50983571D01*
X157940144Y-51031190D01*
X157559191Y-51031190D01*
X158749667Y-50507381D02*
X158940144Y-50507381D01*
X159035382Y-50555000D01*
X159130620Y-50650238D01*
X159178239Y-50840714D01*
X159178239Y-51174048D01*
X159130620Y-51364524D01*
X159035382Y-51459762D01*
X158940144Y-51507381D01*
X158749667Y-51507381D01*
X158654429Y-51459762D01*
X158559191Y-51364524D01*
X158511572Y-51174048D01*
X158511572Y-50840714D01*
X158559191Y-50650238D01*
X158654429Y-50555000D01*
X158749667Y-50507381D01*
X159559191Y-51459762D02*
X159702048Y-51507381D01*
X159940144Y-51507381D01*
X160035382Y-51459762D01*
X160083001Y-51412143D01*
X160130620Y-51316905D01*
X160130620Y-51221667D01*
X160083001Y-51126429D01*
X160035382Y-51078810D01*
X159940144Y-51031190D01*
X159749667Y-50983571D01*
X159654429Y-50935952D01*
X159606810Y-50888333D01*
X159559191Y-50793095D01*
X159559191Y-50697857D01*
X159606810Y-50602619D01*
X159654429Y-50555000D01*
X159749667Y-50507381D01*
X159987763Y-50507381D01*
X160130620Y-50555000D01*
X151678238Y-53157381D02*
X151344904Y-52681190D01*
X151106809Y-53157381D02*
X151106809Y-52157381D01*
X151487762Y-52157381D01*
X151583000Y-52205000D01*
X151630619Y-52252619D01*
X151678238Y-52347857D01*
X151678238Y-52490714D01*
X151630619Y-52585952D01*
X151583000Y-52633571D01*
X151487762Y-52681190D01*
X151106809Y-52681190D01*
X152106809Y-53157381D02*
X152106809Y-52157381D01*
X153106809Y-52205000D02*
X153011571Y-52157381D01*
X152868714Y-52157381D01*
X152725856Y-52205000D01*
X152630618Y-52300238D01*
X152582999Y-52395476D01*
X152535380Y-52585952D01*
X152535380Y-52728810D01*
X152582999Y-52919286D01*
X152630618Y-53014524D01*
X152725856Y-53109762D01*
X152868714Y-53157381D01*
X152963952Y-53157381D01*
X153106809Y-53109762D01*
X153154428Y-53062143D01*
X153154428Y-52728810D01*
X152963952Y-52728810D01*
X153582999Y-53157381D02*
X153582999Y-52157381D01*
X153582999Y-52633571D02*
X154154428Y-52633571D01*
X154154428Y-53157381D02*
X154154428Y-52157381D01*
X154487761Y-52157381D02*
X155059190Y-52157381D01*
X154773475Y-53157381D02*
X154773475Y-52157381D01*
X156106809Y-52871667D02*
X156583000Y-52871667D01*
X156011571Y-53157381D02*
X156344904Y-52157381D01*
X156678238Y-53157381D01*
X157011571Y-53157381D02*
X157011571Y-52157381D01*
X157583000Y-53157381D01*
X157583000Y-52157381D01*
X158583000Y-52205000D02*
X158487762Y-52157381D01*
X158344905Y-52157381D01*
X158202047Y-52205000D01*
X158106809Y-52300238D01*
X158059190Y-52395476D01*
X158011571Y-52585952D01*
X158011571Y-52728810D01*
X158059190Y-52919286D01*
X158106809Y-53014524D01*
X158202047Y-53109762D01*
X158344905Y-53157381D01*
X158440143Y-53157381D01*
X158583000Y-53109762D01*
X158630619Y-53062143D01*
X158630619Y-52728810D01*
X158440143Y-52728810D01*
X159535381Y-53157381D02*
X159059190Y-53157381D01*
X159059190Y-52157381D01*
X159868714Y-52633571D02*
X160202048Y-52633571D01*
X160344905Y-53157381D02*
X159868714Y-53157381D01*
X159868714Y-52157381D01*
X160344905Y-52157381D01*
X150678238Y-54283571D02*
X150344904Y-54283571D01*
X150344904Y-54807381D02*
X150344904Y-53807381D01*
X150821095Y-53807381D01*
X151202047Y-54283571D02*
X151535381Y-54283571D01*
X151678238Y-54807381D02*
X151202047Y-54807381D01*
X151202047Y-53807381D01*
X151678238Y-53807381D01*
X152106809Y-54807381D02*
X152106809Y-53807381D01*
X152440143Y-54521667D01*
X152773476Y-53807381D01*
X152773476Y-54807381D01*
X153202047Y-54521667D02*
X153678238Y-54521667D01*
X153106809Y-54807381D02*
X153440142Y-53807381D01*
X153773476Y-54807381D01*
X154583000Y-54807381D02*
X154106809Y-54807381D01*
X154106809Y-53807381D01*
X154916333Y-54283571D02*
X155249667Y-54283571D01*
X155392524Y-54807381D02*
X154916333Y-54807381D01*
X154916333Y-53807381D01*
X155392524Y-53807381D01*
X156583000Y-54807381D02*
X156583000Y-53807381D01*
X156583000Y-54283571D02*
X157154429Y-54283571D01*
X157154429Y-54807381D02*
X157154429Y-53807381D01*
X157630619Y-54283571D02*
X157963953Y-54283571D01*
X158106810Y-54807381D02*
X157630619Y-54807381D01*
X157630619Y-53807381D01*
X158106810Y-53807381D01*
X158487762Y-54521667D02*
X158963953Y-54521667D01*
X158392524Y-54807381D02*
X158725857Y-53807381D01*
X159059191Y-54807381D01*
X159392524Y-54807381D02*
X159392524Y-53807381D01*
X159630619Y-53807381D01*
X159773477Y-53855000D01*
X159868715Y-53950238D01*
X159916334Y-54045476D01*
X159963953Y-54235952D01*
X159963953Y-54378810D01*
X159916334Y-54569286D01*
X159868715Y-54664524D01*
X159773477Y-54759762D01*
X159630619Y-54807381D01*
X159392524Y-54807381D01*
X160392524Y-54283571D02*
X160725858Y-54283571D01*
X160868715Y-54807381D02*
X160392524Y-54807381D01*
X160392524Y-53807381D01*
X160868715Y-53807381D01*
X161868715Y-54807381D02*
X161535381Y-54331190D01*
X161297286Y-54807381D02*
X161297286Y-53807381D01*
X161678239Y-53807381D01*
X161773477Y-53855000D01*
X161821096Y-53902619D01*
X161868715Y-53997857D01*
X161868715Y-54140714D01*
X161821096Y-54235952D01*
X161773477Y-54283571D01*
X161678239Y-54331190D01*
X161297286Y-54331190D01*
D12*
X143446500Y-62293500D02*
X143446500Y-62230000D01*
X168973500Y-62293500D02*
X143446500Y-62293500D01*
X143446500Y-62293500D02*
X143446500Y-57086500D01*
X168973500Y-48133000D02*
X168910000Y-48133000D01*
X168973500Y-62293500D02*
X168973500Y-48133000D01*
X143446500Y-48133000D02*
X168910000Y-48133000D01*
X143446500Y-57086500D02*
X143446500Y-48133000D01*
D13*
X179665572Y-119233143D02*
X180808429Y-119233143D01*
X180237000Y-119804571D02*
X180237000Y-118661714D01*
X182665572Y-119233143D02*
X183808429Y-119233143D01*
D11*
X129588094Y-95464381D02*
X129683333Y-95464381D01*
X129778571Y-95512000D01*
X129826190Y-95559619D01*
X129873809Y-95654857D01*
X129921428Y-95845333D01*
X129921428Y-96083429D01*
X129873809Y-96273905D01*
X129826190Y-96369143D01*
X129778571Y-96416762D01*
X129683333Y-96464381D01*
X129588094Y-96464381D01*
X129492856Y-96416762D01*
X129445237Y-96369143D01*
X129397618Y-96273905D01*
X129349999Y-96083429D01*
X129349999Y-95845333D01*
X129397618Y-95654857D01*
X129445237Y-95559619D01*
X129492856Y-95512000D01*
X129588094Y-95464381D01*
X132397619Y-96464381D02*
X131826190Y-96464381D01*
X132111904Y-96464381D02*
X132111904Y-95464381D01*
X132016666Y-95607238D01*
X131921428Y-95702476D01*
X131826190Y-95750095D01*
X134302381Y-95559619D02*
X134350000Y-95512000D01*
X134445238Y-95464381D01*
X134683334Y-95464381D01*
X134778572Y-95512000D01*
X134826191Y-95559619D01*
X134873810Y-95654857D01*
X134873810Y-95750095D01*
X134826191Y-95892952D01*
X134254762Y-96464381D01*
X134873810Y-96464381D01*
X136730953Y-95464381D02*
X137350001Y-95464381D01*
X137016667Y-95845333D01*
X137159525Y-95845333D01*
X137254763Y-95892952D01*
X137302382Y-95940571D01*
X137350001Y-96035810D01*
X137350001Y-96273905D01*
X137302382Y-96369143D01*
X137254763Y-96416762D01*
X137159525Y-96464381D01*
X136873810Y-96464381D01*
X136778572Y-96416762D01*
X136730953Y-96369143D01*
D12*
X141986000Y-145288000D02*
X141986000Y-144272000D01*
X141986000Y-144780000D02*
X141986000Y-145288000D01*
X142494000Y-144272000D02*
X141986000Y-144780000D01*
X142494000Y-145288000D02*
X142494000Y-144272000D01*
X141986000Y-144780000D02*
X142494000Y-145288000D01*
X170688000Y-144526000D02*
X170688000Y-144780000D01*
X170688000Y-145034000D02*
X170688000Y-144526000D01*
X182372000Y-144526000D02*
X182372000Y-144780000D01*
X182372000Y-145034000D02*
X182372000Y-144526000D01*
X185420000Y-146304000D02*
X185420000Y-146050000D01*
X185420000Y-146939000D02*
X185420000Y-146304000D01*
X160528000Y-146939000D02*
X185420000Y-146939000D01*
X160528000Y-146304000D02*
X160528000Y-146939000D01*
X126746000Y-146939000D02*
X126746000Y-146812000D01*
X159893000Y-146939000D02*
X126746000Y-146939000D01*
X159893000Y-122936000D02*
X159893000Y-146939000D01*
X153162000Y-122936000D02*
X159893000Y-122936000D01*
X153162000Y-124460000D02*
X153162000Y-122936000D01*
X146050000Y-124460000D02*
X153162000Y-124460000D01*
X146050000Y-129921000D02*
X146050000Y-124460000D01*
X126746000Y-129921000D02*
X146050000Y-129921000D01*
X126746000Y-146812000D02*
X126746000Y-129921000D01*
D11*
X160195712Y-97115381D02*
X160290951Y-97115381D01*
X160386189Y-97163000D01*
X160433808Y-97210619D01*
X160481427Y-97305857D01*
X160529046Y-97496333D01*
X160529046Y-97734429D01*
X160481427Y-97924905D01*
X160433808Y-98020143D01*
X160386189Y-98067762D01*
X160290951Y-98115381D01*
X160195712Y-98115381D01*
X160100474Y-98067762D01*
X160052855Y-98020143D01*
X160005236Y-97924905D01*
X159957617Y-97734429D01*
X159957617Y-97496333D01*
X160005236Y-97305857D01*
X160052855Y-97210619D01*
X160100474Y-97163000D01*
X160195712Y-97115381D01*
X163005237Y-98115381D02*
X162433808Y-98115381D01*
X162719522Y-98115381D02*
X162719522Y-97115381D01*
X162624284Y-97258238D01*
X162529046Y-97353476D01*
X162433808Y-97401095D01*
X164909999Y-97210619D02*
X164957618Y-97163000D01*
X165052856Y-97115381D01*
X165290952Y-97115381D01*
X165386190Y-97163000D01*
X165433809Y-97210619D01*
X165481428Y-97305857D01*
X165481428Y-97401095D01*
X165433809Y-97543952D01*
X164862380Y-98115381D01*
X165481428Y-98115381D01*
X167338571Y-97115381D02*
X167957619Y-97115381D01*
X167624285Y-97496333D01*
X167767143Y-97496333D01*
X167862381Y-97543952D01*
X167910000Y-97591571D01*
X167957619Y-97686810D01*
X167957619Y-97924905D01*
X167910000Y-98020143D01*
X167862381Y-98067762D01*
X167767143Y-98115381D01*
X167481428Y-98115381D01*
X167386190Y-98067762D01*
X167338571Y-98020143D01*
X170338572Y-97448714D02*
X170338572Y-98115381D01*
X170100476Y-97067762D02*
X169862381Y-97782048D01*
X170481429Y-97782048D01*
X172862382Y-97115381D02*
X172386191Y-97115381D01*
X172338572Y-97591571D01*
X172386191Y-97543952D01*
X172481429Y-97496333D01*
X172719525Y-97496333D01*
X172814763Y-97543952D01*
X172862382Y-97591571D01*
X172910001Y-97686810D01*
X172910001Y-97924905D01*
X172862382Y-98020143D01*
X172814763Y-98067762D01*
X172719525Y-98115381D01*
X172481429Y-98115381D01*
X172386191Y-98067762D01*
X172338572Y-98020143D01*
X175290954Y-97115381D02*
X175100477Y-97115381D01*
X175005239Y-97163000D01*
X174957620Y-97210619D01*
X174862382Y-97353476D01*
X174814763Y-97543952D01*
X174814763Y-97924905D01*
X174862382Y-98020143D01*
X174910001Y-98067762D01*
X175005239Y-98115381D01*
X175195716Y-98115381D01*
X175290954Y-98067762D01*
X175338573Y-98020143D01*
X175386192Y-97924905D01*
X175386192Y-97686810D01*
X175338573Y-97591571D01*
X175290954Y-97543952D01*
X175195716Y-97496333D01*
X175005239Y-97496333D01*
X174910001Y-97543952D01*
X174862382Y-97591571D01*
X174814763Y-97686810D01*
X177243335Y-97115381D02*
X177910002Y-97115381D01*
X177481430Y-98115381D01*
D12*
X180340000Y-140906500D02*
X180340000Y-144780000D01*
X180340000Y-138684000D02*
X180403500Y-138684000D01*
X180340000Y-140906500D02*
X180340000Y-138684000D01*
X168910000Y-144780000D02*
X184150000Y-144780000D01*
X168910000Y-144272000D02*
X168910000Y-144780000D01*
X168910000Y-138684000D02*
X168910000Y-144272000D01*
X184150000Y-138684000D02*
X168910000Y-138684000D01*
X184150000Y-144780000D02*
X184150000Y-138684000D01*
D13*
X162774572Y-144887143D02*
X163917429Y-144887143D01*
X163346000Y-145458571D02*
X163346000Y-144315714D01*
X165774572Y-144887143D02*
X166917429Y-144887143D01*
D12*
X160528000Y-146304000D02*
X160528000Y-145796000D01*
X185420000Y-122936000D02*
X185420000Y-146304000D01*
X160528000Y-122936000D02*
X185420000Y-122936000D01*
X160528000Y-145796000D02*
X160528000Y-122936000D01*
D11*
X163528286Y-139215381D02*
X163052095Y-139215381D01*
X163004476Y-139691571D01*
X163052095Y-139643952D01*
X163147333Y-139596333D01*
X163385429Y-139596333D01*
X163480667Y-139643952D01*
X163528286Y-139691571D01*
X163575905Y-139786810D01*
X163575905Y-140024905D01*
X163528286Y-140120143D01*
X163480667Y-140167762D01*
X163385429Y-140215381D01*
X163147333Y-140215381D01*
X163052095Y-140167762D01*
X163004476Y-140120143D01*
X164004476Y-139834429D02*
X164766381Y-139834429D01*
X165766381Y-140215381D02*
X165194952Y-140215381D01*
X165480666Y-140215381D02*
X165480666Y-139215381D01*
X165385428Y-139358238D01*
X165290190Y-139453476D01*
X165194952Y-139501095D01*
X166147333Y-139310619D02*
X166194952Y-139263000D01*
X166290190Y-139215381D01*
X166528286Y-139215381D01*
X166623524Y-139263000D01*
X166671143Y-139310619D01*
X166718762Y-139405857D01*
X166718762Y-139501095D01*
X166671143Y-139643952D01*
X166099714Y-140215381D01*
X166718762Y-140215381D01*
X167004476Y-139215381D02*
X167337809Y-140215381D01*
X167671143Y-139215381D01*
D12*
X168935400Y-59690000D02*
X168935400Y-59766200D01*
X166344600Y-59690000D02*
X168935400Y-59690000D01*
X166344600Y-62280800D02*
X166344600Y-59690000D01*
X168960800Y-57099200D02*
X143459200Y-57099200D01*
D14*
X174407500Y-113283904D02*
X174331310Y-113379142D01*
X174331310Y-113521999D01*
X174407500Y-113664857D01*
X174559881Y-113760095D01*
X174712262Y-113807714D01*
X175017024Y-113855333D01*
X175245595Y-113855333D01*
X175550357Y-113807714D01*
X175702738Y-113760095D01*
X175855119Y-113664857D01*
X175931310Y-113521999D01*
X175931310Y-113426761D01*
X175855119Y-113283904D01*
X175778929Y-113236285D01*
X175245595Y-113236285D01*
X175245595Y-113426761D01*
X175931310Y-112807714D02*
X174331310Y-112807714D01*
X175931310Y-112236285D01*
X174331310Y-112236285D01*
X175931310Y-111760095D02*
X174331310Y-111760095D01*
X174331310Y-111522000D01*
X174407500Y-111379142D01*
X174559881Y-111283904D01*
X174712262Y-111236285D01*
X175017024Y-111188666D01*
X175245595Y-111188666D01*
X175550357Y-111236285D01*
X175702738Y-111283904D01*
X175855119Y-111379142D01*
X175931310Y-111522000D01*
X175931310Y-111760095D01*
X176906310Y-113855333D02*
X178506310Y-113522000D01*
X176906310Y-113188666D01*
X178353929Y-112283904D02*
X178430119Y-112331523D01*
X178506310Y-112474380D01*
X178506310Y-112569618D01*
X178430119Y-112712476D01*
X178277738Y-112807714D01*
X178125357Y-112855333D01*
X177820595Y-112902952D01*
X177592024Y-112902952D01*
X177287262Y-112855333D01*
X177134881Y-112807714D01*
X176982500Y-112712476D01*
X176906310Y-112569618D01*
X176906310Y-112474380D01*
X176982500Y-112331523D01*
X177058690Y-112283904D01*
X178353929Y-111283904D02*
X178430119Y-111331523D01*
X178506310Y-111474380D01*
X178506310Y-111569618D01*
X178430119Y-111712476D01*
X178277738Y-111807714D01*
X178125357Y-111855333D01*
X177820595Y-111902952D01*
X177592024Y-111902952D01*
X177287262Y-111855333D01*
X177134881Y-111807714D01*
X176982500Y-111712476D01*
X176906310Y-111569618D01*
X176906310Y-111474380D01*
X176982500Y-111331523D01*
X177058690Y-111283904D01*
X181005119Y-113736286D02*
X181081310Y-113593429D01*
X181081310Y-113355333D01*
X181005119Y-113260095D01*
X180928929Y-113212476D01*
X180776548Y-113164857D01*
X180624167Y-113164857D01*
X180471786Y-113212476D01*
X180395595Y-113260095D01*
X180319405Y-113355333D01*
X180243214Y-113545810D01*
X180167024Y-113641048D01*
X180090833Y-113688667D01*
X179938452Y-113736286D01*
X179786071Y-113736286D01*
X179633690Y-113688667D01*
X179557500Y-113641048D01*
X179481310Y-113545810D01*
X179481310Y-113307714D01*
X179557500Y-113164857D01*
X181081310Y-112736286D02*
X179481310Y-112736286D01*
X179481310Y-112498191D01*
X179557500Y-112355333D01*
X179709881Y-112260095D01*
X179862262Y-112212476D01*
X180167024Y-112164857D01*
X180395595Y-112164857D01*
X180700357Y-112212476D01*
X180852738Y-112260095D01*
X181005119Y-112355333D01*
X181081310Y-112498191D01*
X181081310Y-112736286D01*
X180624167Y-111783905D02*
X180624167Y-111307714D01*
X181081310Y-111879143D02*
X179481310Y-111545810D01*
X181081310Y-111212476D01*
X183580119Y-113712476D02*
X183656310Y-113569619D01*
X183656310Y-113331523D01*
X183580119Y-113236285D01*
X183503929Y-113188666D01*
X183351548Y-113141047D01*
X183199167Y-113141047D01*
X183046786Y-113188666D01*
X182970595Y-113236285D01*
X182894405Y-113331523D01*
X182818214Y-113522000D01*
X182742024Y-113617238D01*
X182665833Y-113664857D01*
X182513452Y-113712476D01*
X182361071Y-113712476D01*
X182208690Y-113664857D01*
X182132500Y-113617238D01*
X182056310Y-113522000D01*
X182056310Y-113283904D01*
X182132500Y-113141047D01*
X183503929Y-112141047D02*
X183580119Y-112188666D01*
X183656310Y-112331523D01*
X183656310Y-112426761D01*
X183580119Y-112569619D01*
X183427738Y-112664857D01*
X183275357Y-112712476D01*
X182970595Y-112760095D01*
X182742024Y-112760095D01*
X182437262Y-112712476D01*
X182284881Y-112664857D01*
X182132500Y-112569619D01*
X182056310Y-112426761D01*
X182056310Y-112331523D01*
X182132500Y-112188666D01*
X182208690Y-112141047D01*
X183656310Y-111236285D02*
X183656310Y-111712476D01*
X182056310Y-111712476D01*
X158168810Y-106013095D02*
X156568810Y-106013095D01*
X156568810Y-105632142D01*
X156645000Y-105536904D01*
X156721190Y-105489285D01*
X156873571Y-105441666D01*
X157102143Y-105441666D01*
X157254524Y-105489285D01*
X157330714Y-105536904D01*
X157406905Y-105632142D01*
X157406905Y-106013095D01*
X158168810Y-105013095D02*
X156568810Y-105013095D01*
X156568810Y-104775000D01*
X156645000Y-104632142D01*
X156797381Y-104536904D01*
X156949762Y-104489285D01*
X157254524Y-104441666D01*
X157483095Y-104441666D01*
X157787857Y-104489285D01*
X157940238Y-104536904D01*
X158092619Y-104632142D01*
X158168810Y-104775000D01*
X158168810Y-105013095D01*
X156721190Y-104060714D02*
X156645000Y-104013095D01*
X156568810Y-103917857D01*
X156568810Y-103679761D01*
X156645000Y-103584523D01*
X156721190Y-103536904D01*
X156873571Y-103489285D01*
X157025952Y-103489285D01*
X157254524Y-103536904D01*
X158168810Y-104108333D01*
X158168810Y-103489285D01*
X159143810Y-106108333D02*
X160743810Y-105775000D01*
X159143810Y-105441666D01*
X160591429Y-104536904D02*
X160667619Y-104584523D01*
X160743810Y-104727380D01*
X160743810Y-104822618D01*
X160667619Y-104965476D01*
X160515238Y-105060714D01*
X160362857Y-105108333D01*
X160058095Y-105155952D01*
X159829524Y-105155952D01*
X159524762Y-105108333D01*
X159372381Y-105060714D01*
X159220000Y-104965476D01*
X159143810Y-104822618D01*
X159143810Y-104727380D01*
X159220000Y-104584523D01*
X159296190Y-104536904D01*
X160591429Y-103536904D02*
X160667619Y-103584523D01*
X160743810Y-103727380D01*
X160743810Y-103822618D01*
X160667619Y-103965476D01*
X160515238Y-104060714D01*
X160362857Y-104108333D01*
X160058095Y-104155952D01*
X159829524Y-104155952D01*
X159524762Y-104108333D01*
X159372381Y-104060714D01*
X159220000Y-103965476D01*
X159143810Y-103822618D01*
X159143810Y-103727380D01*
X159220000Y-103584523D01*
X159296190Y-103536904D01*
X161795000Y-105536904D02*
X161718810Y-105632142D01*
X161718810Y-105774999D01*
X161795000Y-105917857D01*
X161947381Y-106013095D01*
X162099762Y-106060714D01*
X162404524Y-106108333D01*
X162633095Y-106108333D01*
X162937857Y-106060714D01*
X163090238Y-106013095D01*
X163242619Y-105917857D01*
X163318810Y-105774999D01*
X163318810Y-105679761D01*
X163242619Y-105536904D01*
X163166429Y-105489285D01*
X162633095Y-105489285D01*
X162633095Y-105679761D01*
X163318810Y-105060714D02*
X161718810Y-105060714D01*
X163318810Y-104489285D01*
X161718810Y-104489285D01*
X163318810Y-104013095D02*
X161718810Y-104013095D01*
X161718810Y-103775000D01*
X161795000Y-103632142D01*
X161947381Y-103536904D01*
X162099762Y-103489285D01*
X162404524Y-103441666D01*
X162633095Y-103441666D01*
X162937857Y-103489285D01*
X163090238Y-103536904D01*
X163242619Y-103632142D01*
X163318810Y-103775000D01*
X163318810Y-104013095D01*
X143148571Y-94517333D02*
X141648571Y-94517333D01*
X143148571Y-94117333D01*
X141648571Y-94117333D01*
X143005714Y-93384000D02*
X143077143Y-93417334D01*
X143148571Y-93517334D01*
X143148571Y-93584000D01*
X143077143Y-93684000D01*
X142934286Y-93750667D01*
X142791429Y-93784000D01*
X142505714Y-93817334D01*
X142291429Y-93817334D01*
X142005714Y-93784000D01*
X141862857Y-93750667D01*
X141720000Y-93684000D01*
X141648571Y-93584000D01*
X141648571Y-93517334D01*
X141720000Y-93417334D01*
X141791429Y-93384000D01*
X145573571Y-95067333D02*
X144073571Y-95067333D01*
X144073571Y-94800667D01*
X144145000Y-94734000D01*
X144216429Y-94700667D01*
X144359286Y-94667333D01*
X144573571Y-94667333D01*
X144716429Y-94700667D01*
X144787857Y-94734000D01*
X144859286Y-94800667D01*
X144859286Y-95067333D01*
X144787857Y-94367333D02*
X144787857Y-94134000D01*
X145573571Y-94034000D02*
X145573571Y-94367333D01*
X144073571Y-94367333D01*
X144073571Y-94034000D01*
X144216429Y-93767334D02*
X144145000Y-93734000D01*
X144073571Y-93667334D01*
X144073571Y-93500667D01*
X144145000Y-93434000D01*
X144216429Y-93400667D01*
X144359286Y-93367334D01*
X144502143Y-93367334D01*
X144716429Y-93400667D01*
X145573571Y-93800667D01*
X145573571Y-93367334D01*
X147998571Y-95067333D02*
X146498571Y-95067333D01*
X146498571Y-94800667D01*
X146570000Y-94734000D01*
X146641429Y-94700667D01*
X146784286Y-94667333D01*
X146998571Y-94667333D01*
X147141429Y-94700667D01*
X147212857Y-94734000D01*
X147284286Y-94800667D01*
X147284286Y-95067333D01*
X147212857Y-94367333D02*
X147212857Y-94134000D01*
X147998571Y-94034000D02*
X147998571Y-94367333D01*
X146498571Y-94367333D01*
X146498571Y-94034000D01*
X146998571Y-93434000D02*
X147998571Y-93434000D01*
X146427143Y-93600667D02*
X147498571Y-93767334D01*
X147498571Y-93334000D01*
X150423571Y-95067333D02*
X148923571Y-95067333D01*
X148923571Y-94800667D01*
X148995000Y-94734000D01*
X149066429Y-94700667D01*
X149209286Y-94667333D01*
X149423571Y-94667333D01*
X149566429Y-94700667D01*
X149637857Y-94734000D01*
X149709286Y-94800667D01*
X149709286Y-95067333D01*
X149637857Y-94367333D02*
X149637857Y-94134000D01*
X150423571Y-94034000D02*
X150423571Y-94367333D01*
X148923571Y-94367333D01*
X148923571Y-94034000D01*
X148923571Y-93434000D02*
X148923571Y-93567334D01*
X148995000Y-93634000D01*
X149066429Y-93667334D01*
X149280714Y-93734000D01*
X149566429Y-93767334D01*
X150137857Y-93767334D01*
X150280714Y-93734000D01*
X150352143Y-93700667D01*
X150423571Y-93634000D01*
X150423571Y-93500667D01*
X150352143Y-93434000D01*
X150280714Y-93400667D01*
X150137857Y-93367334D01*
X149780714Y-93367334D01*
X149637857Y-93400667D01*
X149566429Y-93434000D01*
X149495000Y-93500667D01*
X149495000Y-93634000D01*
X149566429Y-93700667D01*
X149637857Y-93734000D01*
X149780714Y-93767334D01*
X151420000Y-94767333D02*
X151348571Y-94833999D01*
X151348571Y-94933999D01*
X151420000Y-95033999D01*
X151562857Y-95100666D01*
X151705714Y-95133999D01*
X151991429Y-95167333D01*
X152205714Y-95167333D01*
X152491429Y-95133999D01*
X152634286Y-95100666D01*
X152777143Y-95033999D01*
X152848571Y-94933999D01*
X152848571Y-94867333D01*
X152777143Y-94767333D01*
X152705714Y-94733999D01*
X152205714Y-94733999D01*
X152205714Y-94867333D01*
X152848571Y-94433999D02*
X151348571Y-94433999D01*
X152848571Y-94033999D01*
X151348571Y-94033999D01*
X152848571Y-93700666D02*
X151348571Y-93700666D01*
X151348571Y-93534000D01*
X151420000Y-93434000D01*
X151562857Y-93367333D01*
X151705714Y-93334000D01*
X151991429Y-93300666D01*
X152205714Y-93300666D01*
X152491429Y-93334000D01*
X152634286Y-93367333D01*
X152777143Y-93434000D01*
X152848571Y-93534000D01*
X152848571Y-93700666D01*
X143148571Y-86922666D02*
X141648571Y-86922666D01*
X143148571Y-86522666D01*
X141648571Y-86522666D01*
X143005714Y-85789333D02*
X143077143Y-85822667D01*
X143148571Y-85922667D01*
X143148571Y-85989333D01*
X143077143Y-86089333D01*
X142934286Y-86156000D01*
X142791429Y-86189333D01*
X142505714Y-86222667D01*
X142291429Y-86222667D01*
X142005714Y-86189333D01*
X141862857Y-86156000D01*
X141720000Y-86089333D01*
X141648571Y-85989333D01*
X141648571Y-85922667D01*
X141720000Y-85822667D01*
X141791429Y-85789333D01*
X145573571Y-86939333D02*
X144073571Y-86939333D01*
X144073571Y-86672667D01*
X144145000Y-86606000D01*
X144216429Y-86572667D01*
X144359286Y-86539333D01*
X144573571Y-86539333D01*
X144716429Y-86572667D01*
X144787857Y-86606000D01*
X144859286Y-86672667D01*
X144859286Y-86939333D01*
X144787857Y-86239333D02*
X144787857Y-86006000D01*
X145573571Y-85906000D02*
X145573571Y-86239333D01*
X144073571Y-86239333D01*
X144073571Y-85906000D01*
X144073571Y-85672667D02*
X144073571Y-85239334D01*
X144645000Y-85472667D01*
X144645000Y-85372667D01*
X144716429Y-85306000D01*
X144787857Y-85272667D01*
X144930714Y-85239334D01*
X145287857Y-85239334D01*
X145430714Y-85272667D01*
X145502143Y-85306000D01*
X145573571Y-85372667D01*
X145573571Y-85572667D01*
X145502143Y-85639334D01*
X145430714Y-85672667D01*
X147998571Y-86939333D02*
X146498571Y-86939333D01*
X146498571Y-86672667D01*
X146570000Y-86606000D01*
X146641429Y-86572667D01*
X146784286Y-86539333D01*
X146998571Y-86539333D01*
X147141429Y-86572667D01*
X147212857Y-86606000D01*
X147284286Y-86672667D01*
X147284286Y-86939333D01*
X147212857Y-86239333D02*
X147212857Y-86006000D01*
X147998571Y-85906000D02*
X147998571Y-86239333D01*
X146498571Y-86239333D01*
X146498571Y-85906000D01*
X146498571Y-85272667D02*
X146498571Y-85606000D01*
X147212857Y-85639334D01*
X147141429Y-85606000D01*
X147070000Y-85539334D01*
X147070000Y-85372667D01*
X147141429Y-85306000D01*
X147212857Y-85272667D01*
X147355714Y-85239334D01*
X147712857Y-85239334D01*
X147855714Y-85272667D01*
X147927143Y-85306000D01*
X147998571Y-85372667D01*
X147998571Y-85539334D01*
X147927143Y-85606000D01*
X147855714Y-85639334D01*
X150423571Y-86922666D02*
X148923571Y-86922666D01*
X150423571Y-86522666D01*
X148923571Y-86522666D01*
X150280714Y-85789333D02*
X150352143Y-85822667D01*
X150423571Y-85922667D01*
X150423571Y-85989333D01*
X150352143Y-86089333D01*
X150209286Y-86156000D01*
X150066429Y-86189333D01*
X149780714Y-86222667D01*
X149566429Y-86222667D01*
X149280714Y-86189333D01*
X149137857Y-86156000D01*
X148995000Y-86089333D01*
X148923571Y-85989333D01*
X148923571Y-85922667D01*
X148995000Y-85822667D01*
X149066429Y-85789333D01*
X151348571Y-87039333D02*
X152848571Y-86806000D01*
X151348571Y-86572667D01*
X152705714Y-85939333D02*
X152777143Y-85972667D01*
X152848571Y-86072667D01*
X152848571Y-86139333D01*
X152777143Y-86239333D01*
X152634286Y-86306000D01*
X152491429Y-86339333D01*
X152205714Y-86372667D01*
X151991429Y-86372667D01*
X151705714Y-86339333D01*
X151562857Y-86306000D01*
X151420000Y-86239333D01*
X151348571Y-86139333D01*
X151348571Y-86072667D01*
X151420000Y-85972667D01*
X151491429Y-85939333D01*
X152705714Y-85239333D02*
X152777143Y-85272667D01*
X152848571Y-85372667D01*
X152848571Y-85439333D01*
X152777143Y-85539333D01*
X152634286Y-85606000D01*
X152491429Y-85639333D01*
X152205714Y-85672667D01*
X151991429Y-85672667D01*
X151705714Y-85639333D01*
X151562857Y-85606000D01*
X151420000Y-85539333D01*
X151348571Y-85439333D01*
X151348571Y-85372667D01*
X151420000Y-85272667D01*
X151491429Y-85239333D01*
X143148571Y-84940666D02*
X141648571Y-84940666D01*
X141648571Y-84674000D01*
X141720000Y-84607333D01*
X141791429Y-84574000D01*
X141934286Y-84540666D01*
X142148571Y-84540666D01*
X142291429Y-84574000D01*
X142362857Y-84607333D01*
X142434286Y-84674000D01*
X142434286Y-84940666D01*
X143005714Y-83840666D02*
X143077143Y-83874000D01*
X143148571Y-83974000D01*
X143148571Y-84040666D01*
X143077143Y-84140666D01*
X142934286Y-84207333D01*
X142791429Y-84240666D01*
X142505714Y-84274000D01*
X142291429Y-84274000D01*
X142005714Y-84240666D01*
X141862857Y-84207333D01*
X141720000Y-84140666D01*
X141648571Y-84040666D01*
X141648571Y-83974000D01*
X141720000Y-83874000D01*
X141791429Y-83840666D01*
X141648571Y-83407333D02*
X141648571Y-83340666D01*
X141720000Y-83274000D01*
X141791429Y-83240666D01*
X141934286Y-83207333D01*
X142220000Y-83174000D01*
X142577143Y-83174000D01*
X142862857Y-83207333D01*
X143005714Y-83240666D01*
X143077143Y-83274000D01*
X143148571Y-83340666D01*
X143148571Y-83407333D01*
X143077143Y-83474000D01*
X143005714Y-83507333D01*
X142862857Y-83540666D01*
X142577143Y-83574000D01*
X142220000Y-83574000D01*
X141934286Y-83540666D01*
X141791429Y-83507333D01*
X141720000Y-83474000D01*
X141648571Y-83407333D01*
X145573571Y-84940666D02*
X144073571Y-84940666D01*
X144073571Y-84674000D01*
X144145000Y-84607333D01*
X144216429Y-84574000D01*
X144359286Y-84540666D01*
X144573571Y-84540666D01*
X144716429Y-84574000D01*
X144787857Y-84607333D01*
X144859286Y-84674000D01*
X144859286Y-84940666D01*
X145430714Y-83840666D02*
X145502143Y-83874000D01*
X145573571Y-83974000D01*
X145573571Y-84040666D01*
X145502143Y-84140666D01*
X145359286Y-84207333D01*
X145216429Y-84240666D01*
X144930714Y-84274000D01*
X144716429Y-84274000D01*
X144430714Y-84240666D01*
X144287857Y-84207333D01*
X144145000Y-84140666D01*
X144073571Y-84040666D01*
X144073571Y-83974000D01*
X144145000Y-83874000D01*
X144216429Y-83840666D01*
X144216429Y-83574000D02*
X144145000Y-83540666D01*
X144073571Y-83474000D01*
X144073571Y-83307333D01*
X144145000Y-83240666D01*
X144216429Y-83207333D01*
X144359286Y-83174000D01*
X144502143Y-83174000D01*
X144716429Y-83207333D01*
X145573571Y-83607333D01*
X145573571Y-83174000D01*
X147998571Y-84940666D02*
X146498571Y-84940666D01*
X146498571Y-84674000D01*
X146570000Y-84607333D01*
X146641429Y-84574000D01*
X146784286Y-84540666D01*
X146998571Y-84540666D01*
X147141429Y-84574000D01*
X147212857Y-84607333D01*
X147284286Y-84674000D01*
X147284286Y-84940666D01*
X147855714Y-83840666D02*
X147927143Y-83874000D01*
X147998571Y-83974000D01*
X147998571Y-84040666D01*
X147927143Y-84140666D01*
X147784286Y-84207333D01*
X147641429Y-84240666D01*
X147355714Y-84274000D01*
X147141429Y-84274000D01*
X146855714Y-84240666D01*
X146712857Y-84207333D01*
X146570000Y-84140666D01*
X146498571Y-84040666D01*
X146498571Y-83974000D01*
X146570000Y-83874000D01*
X146641429Y-83840666D01*
X146998571Y-83240666D02*
X147998571Y-83240666D01*
X146427143Y-83407333D02*
X147498571Y-83574000D01*
X147498571Y-83140666D01*
X150423571Y-84940666D02*
X148923571Y-84940666D01*
X148923571Y-84674000D01*
X148995000Y-84607333D01*
X149066429Y-84574000D01*
X149209286Y-84540666D01*
X149423571Y-84540666D01*
X149566429Y-84574000D01*
X149637857Y-84607333D01*
X149709286Y-84674000D01*
X149709286Y-84940666D01*
X150280714Y-83840666D02*
X150352143Y-83874000D01*
X150423571Y-83974000D01*
X150423571Y-84040666D01*
X150352143Y-84140666D01*
X150209286Y-84207333D01*
X150066429Y-84240666D01*
X149780714Y-84274000D01*
X149566429Y-84274000D01*
X149280714Y-84240666D01*
X149137857Y-84207333D01*
X148995000Y-84140666D01*
X148923571Y-84040666D01*
X148923571Y-83974000D01*
X148995000Y-83874000D01*
X149066429Y-83840666D01*
X148923571Y-83240666D02*
X148923571Y-83374000D01*
X148995000Y-83440666D01*
X149066429Y-83474000D01*
X149280714Y-83540666D01*
X149566429Y-83574000D01*
X150137857Y-83574000D01*
X150280714Y-83540666D01*
X150352143Y-83507333D01*
X150423571Y-83440666D01*
X150423571Y-83307333D01*
X150352143Y-83240666D01*
X150280714Y-83207333D01*
X150137857Y-83174000D01*
X149780714Y-83174000D01*
X149637857Y-83207333D01*
X149566429Y-83240666D01*
X149495000Y-83307333D01*
X149495000Y-83440666D01*
X149566429Y-83507333D01*
X149637857Y-83540666D01*
X149780714Y-83574000D01*
X151420000Y-84607333D02*
X151348571Y-84673999D01*
X151348571Y-84773999D01*
X151420000Y-84873999D01*
X151562857Y-84940666D01*
X151705714Y-84973999D01*
X151991429Y-85007333D01*
X152205714Y-85007333D01*
X152491429Y-84973999D01*
X152634286Y-84940666D01*
X152777143Y-84873999D01*
X152848571Y-84773999D01*
X152848571Y-84707333D01*
X152777143Y-84607333D01*
X152705714Y-84573999D01*
X152205714Y-84573999D01*
X152205714Y-84707333D01*
X152848571Y-84273999D02*
X151348571Y-84273999D01*
X152848571Y-83873999D01*
X151348571Y-83873999D01*
X152848571Y-83540666D02*
X151348571Y-83540666D01*
X151348571Y-83374000D01*
X151420000Y-83274000D01*
X151562857Y-83207333D01*
X151705714Y-83174000D01*
X151991429Y-83140666D01*
X152205714Y-83140666D01*
X152491429Y-83174000D01*
X152634286Y-83207333D01*
X152777143Y-83274000D01*
X152848571Y-83374000D01*
X152848571Y-83540666D01*
X160928571Y-84940666D02*
X159428571Y-84940666D01*
X159428571Y-84674000D01*
X159500000Y-84607333D01*
X159571429Y-84574000D01*
X159714286Y-84540666D01*
X159928571Y-84540666D01*
X160071429Y-84574000D01*
X160142857Y-84607333D01*
X160214286Y-84674000D01*
X160214286Y-84940666D01*
X160928571Y-84240666D02*
X159428571Y-84240666D01*
X159428571Y-84074000D01*
X159500000Y-83974000D01*
X159642857Y-83907333D01*
X159785714Y-83874000D01*
X160071429Y-83840666D01*
X160285714Y-83840666D01*
X160571429Y-83874000D01*
X160714286Y-83907333D01*
X160857143Y-83974000D01*
X160928571Y-84074000D01*
X160928571Y-84240666D01*
X159428571Y-83407333D02*
X159428571Y-83340666D01*
X159500000Y-83274000D01*
X159571429Y-83240666D01*
X159714286Y-83207333D01*
X160000000Y-83174000D01*
X160357143Y-83174000D01*
X160642857Y-83207333D01*
X160785714Y-83240666D01*
X160857143Y-83274000D01*
X160928571Y-83340666D01*
X160928571Y-83407333D01*
X160857143Y-83474000D01*
X160785714Y-83507333D01*
X160642857Y-83540666D01*
X160357143Y-83574000D01*
X160000000Y-83574000D01*
X159714286Y-83540666D01*
X159571429Y-83507333D01*
X159500000Y-83474000D01*
X159428571Y-83407333D01*
X163353571Y-84940666D02*
X161853571Y-84940666D01*
X161853571Y-84674000D01*
X161925000Y-84607333D01*
X161996429Y-84574000D01*
X162139286Y-84540666D01*
X162353571Y-84540666D01*
X162496429Y-84574000D01*
X162567857Y-84607333D01*
X162639286Y-84674000D01*
X162639286Y-84940666D01*
X163353571Y-84240666D02*
X161853571Y-84240666D01*
X161853571Y-84074000D01*
X161925000Y-83974000D01*
X162067857Y-83907333D01*
X162210714Y-83874000D01*
X162496429Y-83840666D01*
X162710714Y-83840666D01*
X162996429Y-83874000D01*
X163139286Y-83907333D01*
X163282143Y-83974000D01*
X163353571Y-84074000D01*
X163353571Y-84240666D01*
X161996429Y-83574000D02*
X161925000Y-83540666D01*
X161853571Y-83474000D01*
X161853571Y-83307333D01*
X161925000Y-83240666D01*
X161996429Y-83207333D01*
X162139286Y-83174000D01*
X162282143Y-83174000D01*
X162496429Y-83207333D01*
X163353571Y-83607333D01*
X163353571Y-83174000D01*
X165778571Y-84940666D02*
X164278571Y-84940666D01*
X164278571Y-84674000D01*
X164350000Y-84607333D01*
X164421429Y-84574000D01*
X164564286Y-84540666D01*
X164778571Y-84540666D01*
X164921429Y-84574000D01*
X164992857Y-84607333D01*
X165064286Y-84674000D01*
X165064286Y-84940666D01*
X165778571Y-84240666D02*
X164278571Y-84240666D01*
X164278571Y-84074000D01*
X164350000Y-83974000D01*
X164492857Y-83907333D01*
X164635714Y-83874000D01*
X164921429Y-83840666D01*
X165135714Y-83840666D01*
X165421429Y-83874000D01*
X165564286Y-83907333D01*
X165707143Y-83974000D01*
X165778571Y-84074000D01*
X165778571Y-84240666D01*
X164778571Y-83240666D02*
X165778571Y-83240666D01*
X164207143Y-83407333D02*
X165278571Y-83574000D01*
X165278571Y-83140666D01*
X168203571Y-84940666D02*
X166703571Y-84940666D01*
X166703571Y-84674000D01*
X166775000Y-84607333D01*
X166846429Y-84574000D01*
X166989286Y-84540666D01*
X167203571Y-84540666D01*
X167346429Y-84574000D01*
X167417857Y-84607333D01*
X167489286Y-84674000D01*
X167489286Y-84940666D01*
X168203571Y-84240666D02*
X166703571Y-84240666D01*
X166703571Y-84074000D01*
X166775000Y-83974000D01*
X166917857Y-83907333D01*
X167060714Y-83874000D01*
X167346429Y-83840666D01*
X167560714Y-83840666D01*
X167846429Y-83874000D01*
X167989286Y-83907333D01*
X168132143Y-83974000D01*
X168203571Y-84074000D01*
X168203571Y-84240666D01*
X166703571Y-83240666D02*
X166703571Y-83374000D01*
X166775000Y-83440666D01*
X166846429Y-83474000D01*
X167060714Y-83540666D01*
X167346429Y-83574000D01*
X167917857Y-83574000D01*
X168060714Y-83540666D01*
X168132143Y-83507333D01*
X168203571Y-83440666D01*
X168203571Y-83307333D01*
X168132143Y-83240666D01*
X168060714Y-83207333D01*
X167917857Y-83174000D01*
X167560714Y-83174000D01*
X167417857Y-83207333D01*
X167346429Y-83240666D01*
X167275000Y-83307333D01*
X167275000Y-83440666D01*
X167346429Y-83507333D01*
X167417857Y-83540666D01*
X167560714Y-83574000D01*
X169200000Y-84607333D02*
X169128571Y-84673999D01*
X169128571Y-84773999D01*
X169200000Y-84873999D01*
X169342857Y-84940666D01*
X169485714Y-84973999D01*
X169771429Y-85007333D01*
X169985714Y-85007333D01*
X170271429Y-84973999D01*
X170414286Y-84940666D01*
X170557143Y-84873999D01*
X170628571Y-84773999D01*
X170628571Y-84707333D01*
X170557143Y-84607333D01*
X170485714Y-84573999D01*
X169985714Y-84573999D01*
X169985714Y-84707333D01*
X170628571Y-84273999D02*
X169128571Y-84273999D01*
X170628571Y-83873999D01*
X169128571Y-83873999D01*
X170628571Y-83540666D02*
X169128571Y-83540666D01*
X169128571Y-83374000D01*
X169200000Y-83274000D01*
X169342857Y-83207333D01*
X169485714Y-83174000D01*
X169771429Y-83140666D01*
X169985714Y-83140666D01*
X170271429Y-83174000D01*
X170414286Y-83207333D01*
X170557143Y-83274000D01*
X170628571Y-83374000D01*
X170628571Y-83540666D01*
X161182571Y-76812666D02*
X159682571Y-76812666D01*
X159682571Y-76546000D01*
X159754000Y-76479333D01*
X159825429Y-76446000D01*
X159968286Y-76412666D01*
X160182571Y-76412666D01*
X160325429Y-76446000D01*
X160396857Y-76479333D01*
X160468286Y-76546000D01*
X160468286Y-76812666D01*
X161182571Y-76112666D02*
X159682571Y-76112666D01*
X159682571Y-75946000D01*
X159754000Y-75846000D01*
X159896857Y-75779333D01*
X160039714Y-75746000D01*
X160325429Y-75712666D01*
X160539714Y-75712666D01*
X160825429Y-75746000D01*
X160968286Y-75779333D01*
X161111143Y-75846000D01*
X161182571Y-75946000D01*
X161182571Y-76112666D01*
X161182571Y-75046000D02*
X161182571Y-75446000D01*
X161182571Y-75246000D02*
X159682571Y-75246000D01*
X159896857Y-75312666D01*
X160039714Y-75379333D01*
X160111143Y-75446000D01*
X163607571Y-76812666D02*
X162107571Y-76812666D01*
X162107571Y-76546000D01*
X162179000Y-76479333D01*
X162250429Y-76446000D01*
X162393286Y-76412666D01*
X162607571Y-76412666D01*
X162750429Y-76446000D01*
X162821857Y-76479333D01*
X162893286Y-76546000D01*
X162893286Y-76812666D01*
X163607571Y-76112666D02*
X162107571Y-76112666D01*
X162107571Y-75946000D01*
X162179000Y-75846000D01*
X162321857Y-75779333D01*
X162464714Y-75746000D01*
X162750429Y-75712666D01*
X162964714Y-75712666D01*
X163250429Y-75746000D01*
X163393286Y-75779333D01*
X163536143Y-75846000D01*
X163607571Y-75946000D01*
X163607571Y-76112666D01*
X162107571Y-75479333D02*
X162107571Y-75046000D01*
X162679000Y-75279333D01*
X162679000Y-75179333D01*
X162750429Y-75112666D01*
X162821857Y-75079333D01*
X162964714Y-75046000D01*
X163321857Y-75046000D01*
X163464714Y-75079333D01*
X163536143Y-75112666D01*
X163607571Y-75179333D01*
X163607571Y-75379333D01*
X163536143Y-75446000D01*
X163464714Y-75479333D01*
X166032571Y-76812666D02*
X164532571Y-76812666D01*
X164532571Y-76546000D01*
X164604000Y-76479333D01*
X164675429Y-76446000D01*
X164818286Y-76412666D01*
X165032571Y-76412666D01*
X165175429Y-76446000D01*
X165246857Y-76479333D01*
X165318286Y-76546000D01*
X165318286Y-76812666D01*
X166032571Y-76112666D02*
X164532571Y-76112666D01*
X164532571Y-75946000D01*
X164604000Y-75846000D01*
X164746857Y-75779333D01*
X164889714Y-75746000D01*
X165175429Y-75712666D01*
X165389714Y-75712666D01*
X165675429Y-75746000D01*
X165818286Y-75779333D01*
X165961143Y-75846000D01*
X166032571Y-75946000D01*
X166032571Y-76112666D01*
X164532571Y-75079333D02*
X164532571Y-75412666D01*
X165246857Y-75446000D01*
X165175429Y-75412666D01*
X165104000Y-75346000D01*
X165104000Y-75179333D01*
X165175429Y-75112666D01*
X165246857Y-75079333D01*
X165389714Y-75046000D01*
X165746857Y-75046000D01*
X165889714Y-75079333D01*
X165961143Y-75112666D01*
X166032571Y-75179333D01*
X166032571Y-75346000D01*
X165961143Y-75412666D01*
X165889714Y-75446000D01*
X168457571Y-76812666D02*
X166957571Y-76812666D01*
X166957571Y-76546000D01*
X167029000Y-76479333D01*
X167100429Y-76446000D01*
X167243286Y-76412666D01*
X167457571Y-76412666D01*
X167600429Y-76446000D01*
X167671857Y-76479333D01*
X167743286Y-76546000D01*
X167743286Y-76812666D01*
X168457571Y-76112666D02*
X166957571Y-76112666D01*
X166957571Y-75946000D01*
X167029000Y-75846000D01*
X167171857Y-75779333D01*
X167314714Y-75746000D01*
X167600429Y-75712666D01*
X167814714Y-75712666D01*
X168100429Y-75746000D01*
X168243286Y-75779333D01*
X168386143Y-75846000D01*
X168457571Y-75946000D01*
X168457571Y-76112666D01*
X166957571Y-75479333D02*
X166957571Y-75012666D01*
X168457571Y-75312666D01*
X169382571Y-76879333D02*
X170882571Y-76646000D01*
X169382571Y-76412667D01*
X170739714Y-75779333D02*
X170811143Y-75812667D01*
X170882571Y-75912667D01*
X170882571Y-75979333D01*
X170811143Y-76079333D01*
X170668286Y-76146000D01*
X170525429Y-76179333D01*
X170239714Y-76212667D01*
X170025429Y-76212667D01*
X169739714Y-76179333D01*
X169596857Y-76146000D01*
X169454000Y-76079333D01*
X169382571Y-75979333D01*
X169382571Y-75912667D01*
X169454000Y-75812667D01*
X169525429Y-75779333D01*
X170739714Y-75079333D02*
X170811143Y-75112667D01*
X170882571Y-75212667D01*
X170882571Y-75279333D01*
X170811143Y-75379333D01*
X170668286Y-75446000D01*
X170525429Y-75479333D01*
X170239714Y-75512667D01*
X170025429Y-75512667D01*
X169739714Y-75479333D01*
X169596857Y-75446000D01*
X169454000Y-75379333D01*
X169382571Y-75279333D01*
X169382571Y-75212667D01*
X169454000Y-75112667D01*
X169525429Y-75079333D01*
X161182571Y-74780666D02*
X159682571Y-74780666D01*
X159682571Y-74514000D01*
X159754000Y-74447333D01*
X159825429Y-74414000D01*
X159968286Y-74380666D01*
X160182571Y-74380666D01*
X160325429Y-74414000D01*
X160396857Y-74447333D01*
X160468286Y-74514000D01*
X160468286Y-74780666D01*
X160396857Y-73847333D02*
X160468286Y-73747333D01*
X160539714Y-73714000D01*
X160682571Y-73680666D01*
X160896857Y-73680666D01*
X161039714Y-73714000D01*
X161111143Y-73747333D01*
X161182571Y-73814000D01*
X161182571Y-74080666D01*
X159682571Y-74080666D01*
X159682571Y-73847333D01*
X159754000Y-73780666D01*
X159825429Y-73747333D01*
X159968286Y-73714000D01*
X160111143Y-73714000D01*
X160254000Y-73747333D01*
X160325429Y-73780666D01*
X160396857Y-73847333D01*
X160396857Y-74080666D01*
X159682571Y-73247333D02*
X159682571Y-73180666D01*
X159754000Y-73114000D01*
X159825429Y-73080666D01*
X159968286Y-73047333D01*
X160254000Y-73014000D01*
X160611143Y-73014000D01*
X160896857Y-73047333D01*
X161039714Y-73080666D01*
X161111143Y-73114000D01*
X161182571Y-73180666D01*
X161182571Y-73247333D01*
X161111143Y-73314000D01*
X161039714Y-73347333D01*
X160896857Y-73380666D01*
X160611143Y-73414000D01*
X160254000Y-73414000D01*
X159968286Y-73380666D01*
X159825429Y-73347333D01*
X159754000Y-73314000D01*
X159682571Y-73247333D01*
X163607571Y-74780666D02*
X162107571Y-74780666D01*
X162107571Y-74514000D01*
X162179000Y-74447333D01*
X162250429Y-74414000D01*
X162393286Y-74380666D01*
X162607571Y-74380666D01*
X162750429Y-74414000D01*
X162821857Y-74447333D01*
X162893286Y-74514000D01*
X162893286Y-74780666D01*
X162821857Y-73847333D02*
X162893286Y-73747333D01*
X162964714Y-73714000D01*
X163107571Y-73680666D01*
X163321857Y-73680666D01*
X163464714Y-73714000D01*
X163536143Y-73747333D01*
X163607571Y-73814000D01*
X163607571Y-74080666D01*
X162107571Y-74080666D01*
X162107571Y-73847333D01*
X162179000Y-73780666D01*
X162250429Y-73747333D01*
X162393286Y-73714000D01*
X162536143Y-73714000D01*
X162679000Y-73747333D01*
X162750429Y-73780666D01*
X162821857Y-73847333D01*
X162821857Y-74080666D01*
X162250429Y-73414000D02*
X162179000Y-73380666D01*
X162107571Y-73314000D01*
X162107571Y-73147333D01*
X162179000Y-73080666D01*
X162250429Y-73047333D01*
X162393286Y-73014000D01*
X162536143Y-73014000D01*
X162750429Y-73047333D01*
X163607571Y-73447333D01*
X163607571Y-73014000D01*
X166032571Y-74780666D02*
X164532571Y-74780666D01*
X164532571Y-74514000D01*
X164604000Y-74447333D01*
X164675429Y-74414000D01*
X164818286Y-74380666D01*
X165032571Y-74380666D01*
X165175429Y-74414000D01*
X165246857Y-74447333D01*
X165318286Y-74514000D01*
X165318286Y-74780666D01*
X165246857Y-73847333D02*
X165318286Y-73747333D01*
X165389714Y-73714000D01*
X165532571Y-73680666D01*
X165746857Y-73680666D01*
X165889714Y-73714000D01*
X165961143Y-73747333D01*
X166032571Y-73814000D01*
X166032571Y-74080666D01*
X164532571Y-74080666D01*
X164532571Y-73847333D01*
X164604000Y-73780666D01*
X164675429Y-73747333D01*
X164818286Y-73714000D01*
X164961143Y-73714000D01*
X165104000Y-73747333D01*
X165175429Y-73780666D01*
X165246857Y-73847333D01*
X165246857Y-74080666D01*
X165032571Y-73080666D02*
X166032571Y-73080666D01*
X164461143Y-73247333D02*
X165532571Y-73414000D01*
X165532571Y-72980666D01*
X168457571Y-74780666D02*
X166957571Y-74780666D01*
X166957571Y-74514000D01*
X167029000Y-74447333D01*
X167100429Y-74414000D01*
X167243286Y-74380666D01*
X167457571Y-74380666D01*
X167600429Y-74414000D01*
X167671857Y-74447333D01*
X167743286Y-74514000D01*
X167743286Y-74780666D01*
X167671857Y-73847333D02*
X167743286Y-73747333D01*
X167814714Y-73714000D01*
X167957571Y-73680666D01*
X168171857Y-73680666D01*
X168314714Y-73714000D01*
X168386143Y-73747333D01*
X168457571Y-73814000D01*
X168457571Y-74080666D01*
X166957571Y-74080666D01*
X166957571Y-73847333D01*
X167029000Y-73780666D01*
X167100429Y-73747333D01*
X167243286Y-73714000D01*
X167386143Y-73714000D01*
X167529000Y-73747333D01*
X167600429Y-73780666D01*
X167671857Y-73847333D01*
X167671857Y-74080666D01*
X166957571Y-73080666D02*
X166957571Y-73214000D01*
X167029000Y-73280666D01*
X167100429Y-73314000D01*
X167314714Y-73380666D01*
X167600429Y-73414000D01*
X168171857Y-73414000D01*
X168314714Y-73380666D01*
X168386143Y-73347333D01*
X168457571Y-73280666D01*
X168457571Y-73147333D01*
X168386143Y-73080666D01*
X168314714Y-73047333D01*
X168171857Y-73014000D01*
X167814714Y-73014000D01*
X167671857Y-73047333D01*
X167600429Y-73080666D01*
X167529000Y-73147333D01*
X167529000Y-73280666D01*
X167600429Y-73347333D01*
X167671857Y-73380666D01*
X167814714Y-73414000D01*
X169454000Y-74447333D02*
X169382571Y-74513999D01*
X169382571Y-74613999D01*
X169454000Y-74713999D01*
X169596857Y-74780666D01*
X169739714Y-74813999D01*
X170025429Y-74847333D01*
X170239714Y-74847333D01*
X170525429Y-74813999D01*
X170668286Y-74780666D01*
X170811143Y-74713999D01*
X170882571Y-74613999D01*
X170882571Y-74547333D01*
X170811143Y-74447333D01*
X170739714Y-74413999D01*
X170239714Y-74413999D01*
X170239714Y-74547333D01*
X170882571Y-74113999D02*
X169382571Y-74113999D01*
X170882571Y-73713999D01*
X169382571Y-73713999D01*
X170882571Y-73380666D02*
X169382571Y-73380666D01*
X169382571Y-73214000D01*
X169454000Y-73114000D01*
X169596857Y-73047333D01*
X169739714Y-73014000D01*
X170025429Y-72980666D01*
X170239714Y-72980666D01*
X170525429Y-73014000D01*
X170668286Y-73047333D01*
X170811143Y-73114000D01*
X170882571Y-73214000D01*
X170882571Y-73380666D01*
X160674571Y-66652666D02*
X159174571Y-66652666D01*
X159174571Y-66386000D01*
X159246000Y-66319333D01*
X159317429Y-66286000D01*
X159460286Y-66252666D01*
X159674571Y-66252666D01*
X159817429Y-66286000D01*
X159888857Y-66319333D01*
X159960286Y-66386000D01*
X159960286Y-66652666D01*
X159888857Y-65719333D02*
X159960286Y-65619333D01*
X160031714Y-65586000D01*
X160174571Y-65552666D01*
X160388857Y-65552666D01*
X160531714Y-65586000D01*
X160603143Y-65619333D01*
X160674571Y-65686000D01*
X160674571Y-65952666D01*
X159174571Y-65952666D01*
X159174571Y-65719333D01*
X159246000Y-65652666D01*
X159317429Y-65619333D01*
X159460286Y-65586000D01*
X159603143Y-65586000D01*
X159746000Y-65619333D01*
X159817429Y-65652666D01*
X159888857Y-65719333D01*
X159888857Y-65952666D01*
X160674571Y-64886000D02*
X160674571Y-65286000D01*
X160674571Y-65086000D02*
X159174571Y-65086000D01*
X159388857Y-65152666D01*
X159531714Y-65219333D01*
X159603143Y-65286000D01*
X163099571Y-66652666D02*
X161599571Y-66652666D01*
X161599571Y-66386000D01*
X161671000Y-66319333D01*
X161742429Y-66286000D01*
X161885286Y-66252666D01*
X162099571Y-66252666D01*
X162242429Y-66286000D01*
X162313857Y-66319333D01*
X162385286Y-66386000D01*
X162385286Y-66652666D01*
X162313857Y-65719333D02*
X162385286Y-65619333D01*
X162456714Y-65586000D01*
X162599571Y-65552666D01*
X162813857Y-65552666D01*
X162956714Y-65586000D01*
X163028143Y-65619333D01*
X163099571Y-65686000D01*
X163099571Y-65952666D01*
X161599571Y-65952666D01*
X161599571Y-65719333D01*
X161671000Y-65652666D01*
X161742429Y-65619333D01*
X161885286Y-65586000D01*
X162028143Y-65586000D01*
X162171000Y-65619333D01*
X162242429Y-65652666D01*
X162313857Y-65719333D01*
X162313857Y-65952666D01*
X161599571Y-65319333D02*
X161599571Y-64886000D01*
X162171000Y-65119333D01*
X162171000Y-65019333D01*
X162242429Y-64952666D01*
X162313857Y-64919333D01*
X162456714Y-64886000D01*
X162813857Y-64886000D01*
X162956714Y-64919333D01*
X163028143Y-64952666D01*
X163099571Y-65019333D01*
X163099571Y-65219333D01*
X163028143Y-65286000D01*
X162956714Y-65319333D01*
X165524571Y-66652666D02*
X164024571Y-66652666D01*
X164024571Y-66386000D01*
X164096000Y-66319333D01*
X164167429Y-66286000D01*
X164310286Y-66252666D01*
X164524571Y-66252666D01*
X164667429Y-66286000D01*
X164738857Y-66319333D01*
X164810286Y-66386000D01*
X164810286Y-66652666D01*
X164738857Y-65719333D02*
X164810286Y-65619333D01*
X164881714Y-65586000D01*
X165024571Y-65552666D01*
X165238857Y-65552666D01*
X165381714Y-65586000D01*
X165453143Y-65619333D01*
X165524571Y-65686000D01*
X165524571Y-65952666D01*
X164024571Y-65952666D01*
X164024571Y-65719333D01*
X164096000Y-65652666D01*
X164167429Y-65619333D01*
X164310286Y-65586000D01*
X164453143Y-65586000D01*
X164596000Y-65619333D01*
X164667429Y-65652666D01*
X164738857Y-65719333D01*
X164738857Y-65952666D01*
X164024571Y-64919333D02*
X164024571Y-65252666D01*
X164738857Y-65286000D01*
X164667429Y-65252666D01*
X164596000Y-65186000D01*
X164596000Y-65019333D01*
X164667429Y-64952666D01*
X164738857Y-64919333D01*
X164881714Y-64886000D01*
X165238857Y-64886000D01*
X165381714Y-64919333D01*
X165453143Y-64952666D01*
X165524571Y-65019333D01*
X165524571Y-65186000D01*
X165453143Y-65252666D01*
X165381714Y-65286000D01*
X167949571Y-66652666D02*
X166449571Y-66652666D01*
X166449571Y-66386000D01*
X166521000Y-66319333D01*
X166592429Y-66286000D01*
X166735286Y-66252666D01*
X166949571Y-66252666D01*
X167092429Y-66286000D01*
X167163857Y-66319333D01*
X167235286Y-66386000D01*
X167235286Y-66652666D01*
X167163857Y-65719333D02*
X167235286Y-65619333D01*
X167306714Y-65586000D01*
X167449571Y-65552666D01*
X167663857Y-65552666D01*
X167806714Y-65586000D01*
X167878143Y-65619333D01*
X167949571Y-65686000D01*
X167949571Y-65952666D01*
X166449571Y-65952666D01*
X166449571Y-65719333D01*
X166521000Y-65652666D01*
X166592429Y-65619333D01*
X166735286Y-65586000D01*
X166878143Y-65586000D01*
X167021000Y-65619333D01*
X167092429Y-65652666D01*
X167163857Y-65719333D01*
X167163857Y-65952666D01*
X166449571Y-65319333D02*
X166449571Y-64852666D01*
X167949571Y-65152666D01*
X168874571Y-66719333D02*
X170374571Y-66486000D01*
X168874571Y-66252667D01*
X170231714Y-65619333D02*
X170303143Y-65652667D01*
X170374571Y-65752667D01*
X170374571Y-65819333D01*
X170303143Y-65919333D01*
X170160286Y-65986000D01*
X170017429Y-66019333D01*
X169731714Y-66052667D01*
X169517429Y-66052667D01*
X169231714Y-66019333D01*
X169088857Y-65986000D01*
X168946000Y-65919333D01*
X168874571Y-65819333D01*
X168874571Y-65752667D01*
X168946000Y-65652667D01*
X169017429Y-65619333D01*
X170231714Y-64919333D02*
X170303143Y-64952667D01*
X170374571Y-65052667D01*
X170374571Y-65119333D01*
X170303143Y-65219333D01*
X170160286Y-65286000D01*
X170017429Y-65319333D01*
X169731714Y-65352667D01*
X169517429Y-65352667D01*
X169231714Y-65319333D01*
X169088857Y-65286000D01*
X168946000Y-65219333D01*
X168874571Y-65119333D01*
X168874571Y-65052667D01*
X168946000Y-64952667D01*
X169017429Y-64919333D01*
X142894571Y-66602666D02*
X141394571Y-66602666D01*
X141394571Y-66336000D01*
X141466000Y-66269333D01*
X141537429Y-66236000D01*
X141680286Y-66202666D01*
X141894571Y-66202666D01*
X142037429Y-66236000D01*
X142108857Y-66269333D01*
X142180286Y-66336000D01*
X142180286Y-66602666D01*
X142466000Y-65936000D02*
X142466000Y-65602666D01*
X142894571Y-66002666D02*
X141394571Y-65769333D01*
X142894571Y-65536000D01*
X142894571Y-64936000D02*
X142894571Y-65336000D01*
X142894571Y-65136000D02*
X141394571Y-65136000D01*
X141608857Y-65202666D01*
X141751714Y-65269333D01*
X141823143Y-65336000D01*
X145319571Y-66602666D02*
X143819571Y-66602666D01*
X143819571Y-66336000D01*
X143891000Y-66269333D01*
X143962429Y-66236000D01*
X144105286Y-66202666D01*
X144319571Y-66202666D01*
X144462429Y-66236000D01*
X144533857Y-66269333D01*
X144605286Y-66336000D01*
X144605286Y-66602666D01*
X144891000Y-65936000D02*
X144891000Y-65602666D01*
X145319571Y-66002666D02*
X143819571Y-65769333D01*
X145319571Y-65536000D01*
X143819571Y-65369333D02*
X143819571Y-64936000D01*
X144391000Y-65169333D01*
X144391000Y-65069333D01*
X144462429Y-65002666D01*
X144533857Y-64969333D01*
X144676714Y-64936000D01*
X145033857Y-64936000D01*
X145176714Y-64969333D01*
X145248143Y-65002666D01*
X145319571Y-65069333D01*
X145319571Y-65269333D01*
X145248143Y-65336000D01*
X145176714Y-65369333D01*
X147744571Y-66602666D02*
X146244571Y-66602666D01*
X146244571Y-66336000D01*
X146316000Y-66269333D01*
X146387429Y-66236000D01*
X146530286Y-66202666D01*
X146744571Y-66202666D01*
X146887429Y-66236000D01*
X146958857Y-66269333D01*
X147030286Y-66336000D01*
X147030286Y-66602666D01*
X147316000Y-65936000D02*
X147316000Y-65602666D01*
X147744571Y-66002666D02*
X146244571Y-65769333D01*
X147744571Y-65536000D01*
X146244571Y-64969333D02*
X146244571Y-65302666D01*
X146958857Y-65336000D01*
X146887429Y-65302666D01*
X146816000Y-65236000D01*
X146816000Y-65069333D01*
X146887429Y-65002666D01*
X146958857Y-64969333D01*
X147101714Y-64936000D01*
X147458857Y-64936000D01*
X147601714Y-64969333D01*
X147673143Y-65002666D01*
X147744571Y-65069333D01*
X147744571Y-65236000D01*
X147673143Y-65302666D01*
X147601714Y-65336000D01*
X150169571Y-66602666D02*
X148669571Y-66602666D01*
X148669571Y-66336000D01*
X148741000Y-66269333D01*
X148812429Y-66236000D01*
X148955286Y-66202666D01*
X149169571Y-66202666D01*
X149312429Y-66236000D01*
X149383857Y-66269333D01*
X149455286Y-66336000D01*
X149455286Y-66602666D01*
X149741000Y-65936000D02*
X149741000Y-65602666D01*
X150169571Y-66002666D02*
X148669571Y-65769333D01*
X150169571Y-65536000D01*
X148669571Y-65369333D02*
X148669571Y-64902666D01*
X150169571Y-65202666D01*
X151094571Y-66719333D02*
X152594571Y-66486000D01*
X151094571Y-66252667D01*
X152451714Y-65619333D02*
X152523143Y-65652667D01*
X152594571Y-65752667D01*
X152594571Y-65819333D01*
X152523143Y-65919333D01*
X152380286Y-65986000D01*
X152237429Y-66019333D01*
X151951714Y-66052667D01*
X151737429Y-66052667D01*
X151451714Y-66019333D01*
X151308857Y-65986000D01*
X151166000Y-65919333D01*
X151094571Y-65819333D01*
X151094571Y-65752667D01*
X151166000Y-65652667D01*
X151237429Y-65619333D01*
X152451714Y-64919333D02*
X152523143Y-64952667D01*
X152594571Y-65052667D01*
X152594571Y-65119333D01*
X152523143Y-65219333D01*
X152380286Y-65286000D01*
X152237429Y-65319333D01*
X151951714Y-65352667D01*
X151737429Y-65352667D01*
X151451714Y-65319333D01*
X151308857Y-65286000D01*
X151166000Y-65219333D01*
X151094571Y-65119333D01*
X151094571Y-65052667D01*
X151166000Y-64952667D01*
X151237429Y-64919333D01*
D13*
X170581716Y-50288000D02*
X171296002Y-50288000D01*
X170438859Y-50716571D02*
X170938859Y-49216571D01*
X171438859Y-50716571D01*
X171938859Y-49716571D02*
X171938859Y-51216571D01*
X171938859Y-49788000D02*
X172081716Y-49716571D01*
X172367430Y-49716571D01*
X172510287Y-49788000D01*
X172581716Y-49859429D01*
X172653145Y-50002286D01*
X172653145Y-50430857D01*
X172581716Y-50573714D01*
X172510287Y-50645143D01*
X172367430Y-50716571D01*
X172081716Y-50716571D01*
X171938859Y-50645143D01*
X173296002Y-50716571D02*
X173296002Y-49716571D01*
X173296002Y-50002286D02*
X173367430Y-49859429D01*
X173438859Y-49788000D01*
X173581716Y-49716571D01*
X173724573Y-49716571D01*
X174224573Y-50716571D02*
X174224573Y-49716571D01*
X174224573Y-49216571D02*
X174153144Y-49288000D01*
X174224573Y-49359429D01*
X174296001Y-49288000D01*
X174224573Y-49216571D01*
X174224573Y-49359429D01*
X175153145Y-50716571D02*
X175010287Y-50645143D01*
X174938859Y-50502286D01*
X174938859Y-49216571D01*
X177581716Y-49216571D02*
X176867430Y-49216571D01*
X176796001Y-49930857D01*
X176867430Y-49859429D01*
X177010287Y-49788000D01*
X177367430Y-49788000D01*
X177510287Y-49859429D01*
X177581716Y-49930857D01*
X177653144Y-50073714D01*
X177653144Y-50430857D01*
X177581716Y-50573714D01*
X177510287Y-50645143D01*
X177367430Y-50716571D01*
X177010287Y-50716571D01*
X176867430Y-50645143D01*
X176796001Y-50573714D01*
X179367429Y-49359429D02*
X179438858Y-49288000D01*
X179581715Y-49216571D01*
X179938858Y-49216571D01*
X180081715Y-49288000D01*
X180153144Y-49359429D01*
X180224572Y-49502286D01*
X180224572Y-49645143D01*
X180153144Y-49859429D01*
X179296001Y-50716571D01*
X180224572Y-50716571D01*
X181153143Y-49216571D02*
X181296000Y-49216571D01*
X181438857Y-49288000D01*
X181510286Y-49359429D01*
X181581715Y-49502286D01*
X181653143Y-49788000D01*
X181653143Y-50145143D01*
X181581715Y-50430857D01*
X181510286Y-50573714D01*
X181438857Y-50645143D01*
X181296000Y-50716571D01*
X181153143Y-50716571D01*
X181010286Y-50645143D01*
X180938857Y-50573714D01*
X180867429Y-50430857D01*
X180796000Y-50145143D01*
X180796000Y-49788000D01*
X180867429Y-49502286D01*
X180938857Y-49359429D01*
X181010286Y-49288000D01*
X181153143Y-49216571D01*
X183081714Y-50716571D02*
X182224571Y-50716571D01*
X182653143Y-50716571D02*
X182653143Y-49216571D01*
X182510286Y-49430857D01*
X182367428Y-49573714D01*
X182224571Y-49645143D01*
X183938857Y-49859429D02*
X183795999Y-49788000D01*
X183724571Y-49716571D01*
X183653142Y-49573714D01*
X183653142Y-49502286D01*
X183724571Y-49359429D01*
X183795999Y-49288000D01*
X183938857Y-49216571D01*
X184224571Y-49216571D01*
X184367428Y-49288000D01*
X184438857Y-49359429D01*
X184510285Y-49502286D01*
X184510285Y-49573714D01*
X184438857Y-49716571D01*
X184367428Y-49788000D01*
X184224571Y-49859429D01*
X183938857Y-49859429D01*
X183795999Y-49930857D01*
X183724571Y-50002286D01*
X183653142Y-50145143D01*
X183653142Y-50430857D01*
X183724571Y-50573714D01*
X183795999Y-50645143D01*
X183938857Y-50716571D01*
X184224571Y-50716571D01*
X184367428Y-50645143D01*
X184438857Y-50573714D01*
X184510285Y-50430857D01*
X184510285Y-50145143D01*
X184438857Y-50002286D01*
X184367428Y-49930857D01*
X184224571Y-49859429D01*
X129230286Y-50711571D02*
X128730286Y-49997286D01*
X128373143Y-50711571D02*
X128373143Y-49211571D01*
X128944571Y-49211571D01*
X129087429Y-49283000D01*
X129158857Y-49354429D01*
X129230286Y-49497286D01*
X129230286Y-49711571D01*
X129158857Y-49854429D01*
X129087429Y-49925857D01*
X128944571Y-49997286D01*
X128373143Y-49997286D01*
X130444571Y-50640143D02*
X130301714Y-50711571D01*
X130016000Y-50711571D01*
X129873143Y-50640143D01*
X129801714Y-50497286D01*
X129801714Y-49925857D01*
X129873143Y-49783000D01*
X130016000Y-49711571D01*
X130301714Y-49711571D01*
X130444571Y-49783000D01*
X130516000Y-49925857D01*
X130516000Y-50068714D01*
X129801714Y-50211571D01*
X131016000Y-49711571D02*
X131373143Y-50711571D01*
X131730285Y-49711571D01*
X132301714Y-50711571D02*
X132301714Y-49711571D01*
X132301714Y-49211571D02*
X132230285Y-49283000D01*
X132301714Y-49354429D01*
X132373142Y-49283000D01*
X132301714Y-49211571D01*
X132301714Y-49354429D01*
X132944571Y-50640143D02*
X133087428Y-50711571D01*
X133373143Y-50711571D01*
X133516000Y-50640143D01*
X133587428Y-50497286D01*
X133587428Y-50425857D01*
X133516000Y-50283000D01*
X133373143Y-50211571D01*
X133158857Y-50211571D01*
X133016000Y-50140143D01*
X132944571Y-49997286D01*
X132944571Y-49925857D01*
X133016000Y-49783000D01*
X133158857Y-49711571D01*
X133373143Y-49711571D01*
X133516000Y-49783000D01*
X134230286Y-50711571D02*
X134230286Y-49711571D01*
X134230286Y-49211571D02*
X134158857Y-49283000D01*
X134230286Y-49354429D01*
X134301714Y-49283000D01*
X134230286Y-49211571D01*
X134230286Y-49354429D01*
X135158858Y-50711571D02*
X135016000Y-50640143D01*
X134944572Y-50568714D01*
X134873143Y-50425857D01*
X134873143Y-49997286D01*
X134944572Y-49854429D01*
X135016000Y-49783000D01*
X135158858Y-49711571D01*
X135373143Y-49711571D01*
X135516000Y-49783000D01*
X135587429Y-49854429D01*
X135658858Y-49997286D01*
X135658858Y-50425857D01*
X135587429Y-50568714D01*
X135516000Y-50640143D01*
X135373143Y-50711571D01*
X135158858Y-50711571D01*
X136301715Y-49711571D02*
X136301715Y-50711571D01*
X136301715Y-49854429D02*
X136373143Y-49783000D01*
X136516001Y-49711571D01*
X136730286Y-49711571D01*
X136873143Y-49783000D01*
X136944572Y-49925857D01*
X136944572Y-50711571D01*
X139587429Y-50711571D02*
X138730286Y-50711571D01*
X139158858Y-50711571D02*
X139158858Y-49211571D01*
X139016001Y-49425857D01*
X138873143Y-49568714D01*
X138730286Y-49640143D01*
X140230286Y-50568714D02*
X140301714Y-50640143D01*
X140230286Y-50711571D01*
X140158857Y-50640143D01*
X140230286Y-50568714D01*
X140230286Y-50711571D01*
X141587429Y-49711571D02*
X141587429Y-50711571D01*
X141230286Y-49140143D02*
X140873143Y-50211571D01*
X141801715Y-50211571D01*
X128373143Y-52475857D02*
X128873143Y-52475857D01*
X129087429Y-53261571D02*
X128373143Y-53261571D01*
X128373143Y-51761571D01*
X129087429Y-51761571D01*
X130587429Y-53118714D02*
X130516000Y-53190143D01*
X130301714Y-53261571D01*
X130158857Y-53261571D01*
X129944572Y-53190143D01*
X129801714Y-53047286D01*
X129730286Y-52904429D01*
X129658857Y-52618714D01*
X129658857Y-52404429D01*
X129730286Y-52118714D01*
X129801714Y-51975857D01*
X129944572Y-51833000D01*
X130158857Y-51761571D01*
X130301714Y-51761571D01*
X130516000Y-51833000D01*
X130587429Y-51904429D01*
X131230286Y-52475857D02*
X131730286Y-52475857D01*
X131944572Y-53261571D02*
X131230286Y-53261571D01*
X131230286Y-51761571D01*
X131944572Y-51761571D01*
X133587429Y-51761571D02*
X134516000Y-51761571D01*
X134016000Y-52333000D01*
X134230286Y-52333000D01*
X134373143Y-52404429D01*
X134444572Y-52475857D01*
X134516000Y-52618714D01*
X134516000Y-52975857D01*
X134444572Y-53118714D01*
X134373143Y-53190143D01*
X134230286Y-53261571D01*
X133801714Y-53261571D01*
X133658857Y-53190143D01*
X133587429Y-53118714D01*
X135801714Y-51761571D02*
X135516000Y-51761571D01*
X135373143Y-51833000D01*
X135301714Y-51904429D01*
X135158857Y-52118714D01*
X135087428Y-52404429D01*
X135087428Y-52975857D01*
X135158857Y-53118714D01*
X135230285Y-53190143D01*
X135373143Y-53261571D01*
X135658857Y-53261571D01*
X135801714Y-53190143D01*
X135873143Y-53118714D01*
X135944571Y-52975857D01*
X135944571Y-52618714D01*
X135873143Y-52475857D01*
X135801714Y-52404429D01*
X135658857Y-52333000D01*
X135373143Y-52333000D01*
X135230285Y-52404429D01*
X135158857Y-52475857D01*
X135087428Y-52618714D01*
X137373142Y-53261571D02*
X136515999Y-53261571D01*
X136944571Y-53261571D02*
X136944571Y-51761571D01*
X136801714Y-51975857D01*
X136658856Y-52118714D01*
X136515999Y-52190143D01*
X137944570Y-51904429D02*
X138015999Y-51833000D01*
X138158856Y-51761571D01*
X138515999Y-51761571D01*
X138658856Y-51833000D01*
X138730285Y-51904429D01*
X138801713Y-52047286D01*
X138801713Y-52190143D01*
X138730285Y-52404429D01*
X137873142Y-53261571D01*
X138801713Y-53261571D01*
X129056072Y-137965643D02*
X130198929Y-137965643D01*
X129627500Y-138537071D02*
X129627500Y-137394214D01*
X132056072Y-137965643D02*
X133198929Y-137965643D01*
D14*
X143148571Y-74730666D02*
X141648571Y-74730666D01*
X141648571Y-74464000D01*
X141720000Y-74397333D01*
X141791429Y-74364000D01*
X141934286Y-74330666D01*
X142148571Y-74330666D01*
X142291429Y-74364000D01*
X142362857Y-74397333D01*
X142434286Y-74464000D01*
X142434286Y-74730666D01*
X142720000Y-74064000D02*
X142720000Y-73730666D01*
X143148571Y-74130666D02*
X141648571Y-73897333D01*
X143148571Y-73664000D01*
X141648571Y-73297333D02*
X141648571Y-73230666D01*
X141720000Y-73164000D01*
X141791429Y-73130666D01*
X141934286Y-73097333D01*
X142220000Y-73064000D01*
X142577143Y-73064000D01*
X142862857Y-73097333D01*
X143005714Y-73130666D01*
X143077143Y-73164000D01*
X143148571Y-73230666D01*
X143148571Y-73297333D01*
X143077143Y-73364000D01*
X143005714Y-73397333D01*
X142862857Y-73430666D01*
X142577143Y-73464000D01*
X142220000Y-73464000D01*
X141934286Y-73430666D01*
X141791429Y-73397333D01*
X141720000Y-73364000D01*
X141648571Y-73297333D01*
X145573571Y-74730666D02*
X144073571Y-74730666D01*
X144073571Y-74464000D01*
X144145000Y-74397333D01*
X144216429Y-74364000D01*
X144359286Y-74330666D01*
X144573571Y-74330666D01*
X144716429Y-74364000D01*
X144787857Y-74397333D01*
X144859286Y-74464000D01*
X144859286Y-74730666D01*
X145145000Y-74064000D02*
X145145000Y-73730666D01*
X145573571Y-74130666D02*
X144073571Y-73897333D01*
X145573571Y-73664000D01*
X144216429Y-73464000D02*
X144145000Y-73430666D01*
X144073571Y-73364000D01*
X144073571Y-73197333D01*
X144145000Y-73130666D01*
X144216429Y-73097333D01*
X144359286Y-73064000D01*
X144502143Y-73064000D01*
X144716429Y-73097333D01*
X145573571Y-73497333D01*
X145573571Y-73064000D01*
X147998571Y-74730666D02*
X146498571Y-74730666D01*
X146498571Y-74464000D01*
X146570000Y-74397333D01*
X146641429Y-74364000D01*
X146784286Y-74330666D01*
X146998571Y-74330666D01*
X147141429Y-74364000D01*
X147212857Y-74397333D01*
X147284286Y-74464000D01*
X147284286Y-74730666D01*
X147570000Y-74064000D02*
X147570000Y-73730666D01*
X147998571Y-74130666D02*
X146498571Y-73897333D01*
X147998571Y-73664000D01*
X146998571Y-73130666D02*
X147998571Y-73130666D01*
X146427143Y-73297333D02*
X147498571Y-73464000D01*
X147498571Y-73030666D01*
X150423571Y-74730666D02*
X148923571Y-74730666D01*
X148923571Y-74464000D01*
X148995000Y-74397333D01*
X149066429Y-74364000D01*
X149209286Y-74330666D01*
X149423571Y-74330666D01*
X149566429Y-74364000D01*
X149637857Y-74397333D01*
X149709286Y-74464000D01*
X149709286Y-74730666D01*
X149995000Y-74064000D02*
X149995000Y-73730666D01*
X150423571Y-74130666D02*
X148923571Y-73897333D01*
X150423571Y-73664000D01*
X148923571Y-73130666D02*
X148923571Y-73264000D01*
X148995000Y-73330666D01*
X149066429Y-73364000D01*
X149280714Y-73430666D01*
X149566429Y-73464000D01*
X150137857Y-73464000D01*
X150280714Y-73430666D01*
X150352143Y-73397333D01*
X150423571Y-73330666D01*
X150423571Y-73197333D01*
X150352143Y-73130666D01*
X150280714Y-73097333D01*
X150137857Y-73064000D01*
X149780714Y-73064000D01*
X149637857Y-73097333D01*
X149566429Y-73130666D01*
X149495000Y-73197333D01*
X149495000Y-73330666D01*
X149566429Y-73397333D01*
X149637857Y-73430666D01*
X149780714Y-73464000D01*
X151420000Y-74447333D02*
X151348571Y-74513999D01*
X151348571Y-74613999D01*
X151420000Y-74713999D01*
X151562857Y-74780666D01*
X151705714Y-74813999D01*
X151991429Y-74847333D01*
X152205714Y-74847333D01*
X152491429Y-74813999D01*
X152634286Y-74780666D01*
X152777143Y-74713999D01*
X152848571Y-74613999D01*
X152848571Y-74547333D01*
X152777143Y-74447333D01*
X152705714Y-74413999D01*
X152205714Y-74413999D01*
X152205714Y-74547333D01*
X152848571Y-74113999D02*
X151348571Y-74113999D01*
X152848571Y-73713999D01*
X151348571Y-73713999D01*
X152848571Y-73380666D02*
X151348571Y-73380666D01*
X151348571Y-73214000D01*
X151420000Y-73114000D01*
X151562857Y-73047333D01*
X151705714Y-73014000D01*
X151991429Y-72980666D01*
X152205714Y-72980666D01*
X152491429Y-73014000D01*
X152634286Y-73047333D01*
X152777143Y-73114000D01*
X152848571Y-73214000D01*
X152848571Y-73380666D01*
X143148571Y-76812666D02*
X141648571Y-76812666D01*
X141648571Y-76546000D01*
X141720000Y-76479333D01*
X141791429Y-76446000D01*
X141934286Y-76412666D01*
X142148571Y-76412666D01*
X142291429Y-76446000D01*
X142362857Y-76479333D01*
X142434286Y-76546000D01*
X142434286Y-76812666D01*
X143005714Y-75712666D02*
X143077143Y-75746000D01*
X143148571Y-75846000D01*
X143148571Y-75912666D01*
X143077143Y-76012666D01*
X142934286Y-76079333D01*
X142791429Y-76112666D01*
X142505714Y-76146000D01*
X142291429Y-76146000D01*
X142005714Y-76112666D01*
X141862857Y-76079333D01*
X141720000Y-76012666D01*
X141648571Y-75912666D01*
X141648571Y-75846000D01*
X141720000Y-75746000D01*
X141791429Y-75712666D01*
X143148571Y-75046000D02*
X143148571Y-75446000D01*
X143148571Y-75246000D02*
X141648571Y-75246000D01*
X141862857Y-75312666D01*
X142005714Y-75379333D01*
X142077143Y-75446000D01*
X145573571Y-76812666D02*
X144073571Y-76812666D01*
X144073571Y-76546000D01*
X144145000Y-76479333D01*
X144216429Y-76446000D01*
X144359286Y-76412666D01*
X144573571Y-76412666D01*
X144716429Y-76446000D01*
X144787857Y-76479333D01*
X144859286Y-76546000D01*
X144859286Y-76812666D01*
X145430714Y-75712666D02*
X145502143Y-75746000D01*
X145573571Y-75846000D01*
X145573571Y-75912666D01*
X145502143Y-76012666D01*
X145359286Y-76079333D01*
X145216429Y-76112666D01*
X144930714Y-76146000D01*
X144716429Y-76146000D01*
X144430714Y-76112666D01*
X144287857Y-76079333D01*
X144145000Y-76012666D01*
X144073571Y-75912666D01*
X144073571Y-75846000D01*
X144145000Y-75746000D01*
X144216429Y-75712666D01*
X144073571Y-75479333D02*
X144073571Y-75046000D01*
X144645000Y-75279333D01*
X144645000Y-75179333D01*
X144716429Y-75112666D01*
X144787857Y-75079333D01*
X144930714Y-75046000D01*
X145287857Y-75046000D01*
X145430714Y-75079333D01*
X145502143Y-75112666D01*
X145573571Y-75179333D01*
X145573571Y-75379333D01*
X145502143Y-75446000D01*
X145430714Y-75479333D01*
X147998571Y-76812666D02*
X146498571Y-76812666D01*
X146498571Y-76546000D01*
X146570000Y-76479333D01*
X146641429Y-76446000D01*
X146784286Y-76412666D01*
X146998571Y-76412666D01*
X147141429Y-76446000D01*
X147212857Y-76479333D01*
X147284286Y-76546000D01*
X147284286Y-76812666D01*
X147855714Y-75712666D02*
X147927143Y-75746000D01*
X147998571Y-75846000D01*
X147998571Y-75912666D01*
X147927143Y-76012666D01*
X147784286Y-76079333D01*
X147641429Y-76112666D01*
X147355714Y-76146000D01*
X147141429Y-76146000D01*
X146855714Y-76112666D01*
X146712857Y-76079333D01*
X146570000Y-76012666D01*
X146498571Y-75912666D01*
X146498571Y-75846000D01*
X146570000Y-75746000D01*
X146641429Y-75712666D01*
X146498571Y-75079333D02*
X146498571Y-75412666D01*
X147212857Y-75446000D01*
X147141429Y-75412666D01*
X147070000Y-75346000D01*
X147070000Y-75179333D01*
X147141429Y-75112666D01*
X147212857Y-75079333D01*
X147355714Y-75046000D01*
X147712857Y-75046000D01*
X147855714Y-75079333D01*
X147927143Y-75112666D01*
X147998571Y-75179333D01*
X147998571Y-75346000D01*
X147927143Y-75412666D01*
X147855714Y-75446000D01*
X150423571Y-76812666D02*
X148923571Y-76812666D01*
X148923571Y-76546000D01*
X148995000Y-76479333D01*
X149066429Y-76446000D01*
X149209286Y-76412666D01*
X149423571Y-76412666D01*
X149566429Y-76446000D01*
X149637857Y-76479333D01*
X149709286Y-76546000D01*
X149709286Y-76812666D01*
X150280714Y-75712666D02*
X150352143Y-75746000D01*
X150423571Y-75846000D01*
X150423571Y-75912666D01*
X150352143Y-76012666D01*
X150209286Y-76079333D01*
X150066429Y-76112666D01*
X149780714Y-76146000D01*
X149566429Y-76146000D01*
X149280714Y-76112666D01*
X149137857Y-76079333D01*
X148995000Y-76012666D01*
X148923571Y-75912666D01*
X148923571Y-75846000D01*
X148995000Y-75746000D01*
X149066429Y-75712666D01*
X148923571Y-75479333D02*
X148923571Y-75012666D01*
X150423571Y-75312666D01*
X151348571Y-76879333D02*
X152848571Y-76646000D01*
X151348571Y-76412667D01*
X152705714Y-75779333D02*
X152777143Y-75812667D01*
X152848571Y-75912667D01*
X152848571Y-75979333D01*
X152777143Y-76079333D01*
X152634286Y-76146000D01*
X152491429Y-76179333D01*
X152205714Y-76212667D01*
X151991429Y-76212667D01*
X151705714Y-76179333D01*
X151562857Y-76146000D01*
X151420000Y-76079333D01*
X151348571Y-75979333D01*
X151348571Y-75912667D01*
X151420000Y-75812667D01*
X151491429Y-75779333D01*
X152705714Y-75079333D02*
X152777143Y-75112667D01*
X152848571Y-75212667D01*
X152848571Y-75279333D01*
X152777143Y-75379333D01*
X152634286Y-75446000D01*
X152491429Y-75479333D01*
X152205714Y-75512667D01*
X151991429Y-75512667D01*
X151705714Y-75479333D01*
X151562857Y-75446000D01*
X151420000Y-75379333D01*
X151348571Y-75279333D01*
X151348571Y-75212667D01*
X151420000Y-75112667D01*
X151491429Y-75079333D01*
X156551310Y-121506905D02*
X158151310Y-121173572D01*
X156551310Y-120840238D01*
X157998929Y-119935476D02*
X158075119Y-119983095D01*
X158151310Y-120125952D01*
X158151310Y-120221190D01*
X158075119Y-120364048D01*
X157922738Y-120459286D01*
X157770357Y-120506905D01*
X157465595Y-120554524D01*
X157237024Y-120554524D01*
X156932262Y-120506905D01*
X156779881Y-120459286D01*
X156627500Y-120364048D01*
X156551310Y-120221190D01*
X156551310Y-120125952D01*
X156627500Y-119983095D01*
X156703690Y-119935476D01*
X157998929Y-118935476D02*
X158075119Y-118983095D01*
X158151310Y-119125952D01*
X158151310Y-119221190D01*
X158075119Y-119364048D01*
X157922738Y-119459286D01*
X157770357Y-119506905D01*
X157465595Y-119554524D01*
X157237024Y-119554524D01*
X156932262Y-119506905D01*
X156779881Y-119459286D01*
X156627500Y-119364048D01*
X156551310Y-119221190D01*
X156551310Y-119125952D01*
X156627500Y-118983095D01*
X156703690Y-118935476D01*
X160726310Y-121459286D02*
X159126310Y-121459286D01*
X159126310Y-121078333D01*
X159202500Y-120983095D01*
X159278690Y-120935476D01*
X159431071Y-120887857D01*
X159659643Y-120887857D01*
X159812024Y-120935476D01*
X159888214Y-120983095D01*
X159964405Y-121078333D01*
X159964405Y-121459286D01*
X160726310Y-120459286D02*
X159126310Y-120459286D01*
X159126310Y-120221191D01*
X159202500Y-120078333D01*
X159354881Y-119983095D01*
X159507262Y-119935476D01*
X159812024Y-119887857D01*
X160040595Y-119887857D01*
X160345357Y-119935476D01*
X160497738Y-119983095D01*
X160650119Y-120078333D01*
X160726310Y-120221191D01*
X160726310Y-120459286D01*
X159126310Y-119268810D02*
X159126310Y-119173571D01*
X159202500Y-119078333D01*
X159278690Y-119030714D01*
X159431071Y-118983095D01*
X159735833Y-118935476D01*
X160116786Y-118935476D01*
X160421548Y-118983095D01*
X160573929Y-119030714D01*
X160650119Y-119078333D01*
X160726310Y-119173571D01*
X160726310Y-119268810D01*
X160650119Y-119364048D01*
X160573929Y-119411667D01*
X160421548Y-119459286D01*
X160116786Y-119506905D01*
X159735833Y-119506905D01*
X159431071Y-119459286D01*
X159278690Y-119411667D01*
X159202500Y-119364048D01*
X159126310Y-119268810D01*
X163301310Y-121459286D02*
X161701310Y-121459286D01*
X161701310Y-121078333D01*
X161777500Y-120983095D01*
X161853690Y-120935476D01*
X162006071Y-120887857D01*
X162234643Y-120887857D01*
X162387024Y-120935476D01*
X162463214Y-120983095D01*
X162539405Y-121078333D01*
X162539405Y-121459286D01*
X163301310Y-120459286D02*
X161701310Y-120459286D01*
X161701310Y-120221191D01*
X161777500Y-120078333D01*
X161929881Y-119983095D01*
X162082262Y-119935476D01*
X162387024Y-119887857D01*
X162615595Y-119887857D01*
X162920357Y-119935476D01*
X163072738Y-119983095D01*
X163225119Y-120078333D01*
X163301310Y-120221191D01*
X163301310Y-120459286D01*
X163301310Y-118935476D02*
X163301310Y-119506905D01*
X163301310Y-119221191D02*
X161701310Y-119221191D01*
X161929881Y-119316429D01*
X162082262Y-119411667D01*
X162158452Y-119506905D01*
X164352500Y-121030714D02*
X164276310Y-121125952D01*
X164276310Y-121268809D01*
X164352500Y-121411667D01*
X164504881Y-121506905D01*
X164657262Y-121554524D01*
X164962024Y-121602143D01*
X165190595Y-121602143D01*
X165495357Y-121554524D01*
X165647738Y-121506905D01*
X165800119Y-121411667D01*
X165876310Y-121268809D01*
X165876310Y-121173571D01*
X165800119Y-121030714D01*
X165723929Y-120983095D01*
X165190595Y-120983095D01*
X165190595Y-121173571D01*
X165876310Y-120554524D02*
X164276310Y-120554524D01*
X165876310Y-119983095D01*
X164276310Y-119983095D01*
X165876310Y-119506905D02*
X164276310Y-119506905D01*
X164276310Y-119268810D01*
X164352500Y-119125952D01*
X164504881Y-119030714D01*
X164657262Y-118983095D01*
X164962024Y-118935476D01*
X165190595Y-118935476D01*
X165495357Y-118983095D01*
X165647738Y-119030714D01*
X165800119Y-119125952D01*
X165876310Y-119268810D01*
X165876310Y-119506905D01*
X158151310Y-112267857D02*
X157389405Y-112601191D01*
X158151310Y-112839286D02*
X156551310Y-112839286D01*
X156551310Y-112458333D01*
X156627500Y-112363095D01*
X156703690Y-112315476D01*
X156856071Y-112267857D01*
X157084643Y-112267857D01*
X157237024Y-112315476D01*
X157313214Y-112363095D01*
X157389405Y-112458333D01*
X157389405Y-112839286D01*
X156551310Y-111934524D02*
X158151310Y-111267857D01*
X156551310Y-111267857D02*
X158151310Y-111934524D01*
X159126310Y-112744048D02*
X159126310Y-112172619D01*
X160726310Y-112458334D02*
X159126310Y-112458334D01*
X159126310Y-111934524D02*
X160726310Y-111267857D01*
X159126310Y-111267857D02*
X160726310Y-111934524D01*
X161777500Y-113410714D02*
X161701310Y-113505952D01*
X161701310Y-113648809D01*
X161777500Y-113791667D01*
X161929881Y-113886905D01*
X162082262Y-113934524D01*
X162387024Y-113982143D01*
X162615595Y-113982143D01*
X162920357Y-113934524D01*
X163072738Y-113886905D01*
X163225119Y-113791667D01*
X163301310Y-113648809D01*
X163301310Y-113553571D01*
X163225119Y-113410714D01*
X163148929Y-113363095D01*
X162615595Y-113363095D01*
X162615595Y-113553571D01*
X163301310Y-112934524D02*
X161701310Y-112934524D01*
X163301310Y-112363095D01*
X161701310Y-112363095D01*
X163301310Y-111886905D02*
X161701310Y-111886905D01*
X161701310Y-111648810D01*
X161777500Y-111505952D01*
X161929881Y-111410714D01*
X162082262Y-111363095D01*
X162387024Y-111315476D01*
X162615595Y-111315476D01*
X162920357Y-111363095D01*
X163072738Y-111410714D01*
X163225119Y-111505952D01*
X163301310Y-111648810D01*
X163301310Y-111886905D01*
X164276310Y-113886905D02*
X165876310Y-113553572D01*
X164276310Y-113220238D01*
X165723929Y-112315476D02*
X165800119Y-112363095D01*
X165876310Y-112505952D01*
X165876310Y-112601190D01*
X165800119Y-112744048D01*
X165647738Y-112839286D01*
X165495357Y-112886905D01*
X165190595Y-112934524D01*
X164962024Y-112934524D01*
X164657262Y-112886905D01*
X164504881Y-112839286D01*
X164352500Y-112744048D01*
X164276310Y-112601190D01*
X164276310Y-112505952D01*
X164352500Y-112363095D01*
X164428690Y-112315476D01*
X165723929Y-111315476D02*
X165800119Y-111363095D01*
X165876310Y-111505952D01*
X165876310Y-111601190D01*
X165800119Y-111744048D01*
X165647738Y-111839286D01*
X165495357Y-111886905D01*
X165190595Y-111934524D01*
X164962024Y-111934524D01*
X164657262Y-111886905D01*
X164504881Y-111839286D01*
X164352500Y-111744048D01*
X164276310Y-111601190D01*
X164276310Y-111505952D01*
X164352500Y-111363095D01*
X164428690Y-111315476D01*
X170740119Y-105219286D02*
X170816310Y-105076429D01*
X170816310Y-104838333D01*
X170740119Y-104743095D01*
X170663929Y-104695476D01*
X170511548Y-104647857D01*
X170359167Y-104647857D01*
X170206786Y-104695476D01*
X170130595Y-104743095D01*
X170054405Y-104838333D01*
X169978214Y-105028810D01*
X169902024Y-105124048D01*
X169825833Y-105171667D01*
X169673452Y-105219286D01*
X169521071Y-105219286D01*
X169368690Y-105171667D01*
X169292500Y-105124048D01*
X169216310Y-105028810D01*
X169216310Y-104790714D01*
X169292500Y-104647857D01*
X170740119Y-104266905D02*
X170816310Y-104124048D01*
X170816310Y-103885952D01*
X170740119Y-103790714D01*
X170663929Y-103743095D01*
X170511548Y-103695476D01*
X170359167Y-103695476D01*
X170206786Y-103743095D01*
X170130595Y-103790714D01*
X170054405Y-103885952D01*
X169978214Y-104076429D01*
X169902024Y-104171667D01*
X169825833Y-104219286D01*
X169673452Y-104266905D01*
X169521071Y-104266905D01*
X169368690Y-104219286D01*
X169292500Y-104171667D01*
X169216310Y-104076429D01*
X169216310Y-103838333D01*
X169292500Y-103695476D01*
X173391310Y-106885952D02*
X171791310Y-106885952D01*
X172934167Y-106552618D01*
X171791310Y-106219285D01*
X173391310Y-106219285D01*
X171791310Y-105552619D02*
X171791310Y-105362142D01*
X171867500Y-105266904D01*
X172019881Y-105171666D01*
X172324643Y-105124047D01*
X172857976Y-105124047D01*
X173162738Y-105171666D01*
X173315119Y-105266904D01*
X173391310Y-105362142D01*
X173391310Y-105552619D01*
X173315119Y-105647857D01*
X173162738Y-105743095D01*
X172857976Y-105790714D01*
X172324643Y-105790714D01*
X172019881Y-105743095D01*
X171867500Y-105647857D01*
X171791310Y-105552619D01*
X173315119Y-104743095D02*
X173391310Y-104600238D01*
X173391310Y-104362142D01*
X173315119Y-104266904D01*
X173238929Y-104219285D01*
X173086548Y-104171666D01*
X172934167Y-104171666D01*
X172781786Y-104219285D01*
X172705595Y-104266904D01*
X172629405Y-104362142D01*
X172553214Y-104552619D01*
X172477024Y-104647857D01*
X172400833Y-104695476D01*
X172248452Y-104743095D01*
X172096071Y-104743095D01*
X171943690Y-104695476D01*
X171867500Y-104647857D01*
X171791310Y-104552619D01*
X171791310Y-104314523D01*
X171867500Y-104171666D01*
X173391310Y-103743095D02*
X171791310Y-103743095D01*
X175966310Y-106885952D02*
X174366310Y-106885952D01*
X175509167Y-106552618D01*
X174366310Y-106219285D01*
X175966310Y-106219285D01*
X175966310Y-105743095D02*
X174366310Y-105743095D01*
X175890119Y-105314524D02*
X175966310Y-105171667D01*
X175966310Y-104933571D01*
X175890119Y-104838333D01*
X175813929Y-104790714D01*
X175661548Y-104743095D01*
X175509167Y-104743095D01*
X175356786Y-104790714D01*
X175280595Y-104838333D01*
X175204405Y-104933571D01*
X175128214Y-105124048D01*
X175052024Y-105219286D01*
X174975833Y-105266905D01*
X174823452Y-105314524D01*
X174671071Y-105314524D01*
X174518690Y-105266905D01*
X174442500Y-105219286D01*
X174366310Y-105124048D01*
X174366310Y-104885952D01*
X174442500Y-104743095D01*
X174366310Y-104124048D02*
X174366310Y-103933571D01*
X174442500Y-103838333D01*
X174594881Y-103743095D01*
X174899643Y-103695476D01*
X175432976Y-103695476D01*
X175737738Y-103743095D01*
X175890119Y-103838333D01*
X175966310Y-103933571D01*
X175966310Y-104124048D01*
X175890119Y-104219286D01*
X175737738Y-104314524D01*
X175432976Y-104362143D01*
X174899643Y-104362143D01*
X174594881Y-104314524D01*
X174442500Y-104219286D01*
X174366310Y-104124048D01*
X178465119Y-106266905D02*
X178541310Y-106124048D01*
X178541310Y-105885952D01*
X178465119Y-105790714D01*
X178388929Y-105743095D01*
X178236548Y-105695476D01*
X178084167Y-105695476D01*
X177931786Y-105743095D01*
X177855595Y-105790714D01*
X177779405Y-105885952D01*
X177703214Y-106076429D01*
X177627024Y-106171667D01*
X177550833Y-106219286D01*
X177398452Y-106266905D01*
X177246071Y-106266905D01*
X177093690Y-106219286D01*
X177017500Y-106171667D01*
X176941310Y-106076429D01*
X176941310Y-105838333D01*
X177017500Y-105695476D01*
X178388929Y-104695476D02*
X178465119Y-104743095D01*
X178541310Y-104885952D01*
X178541310Y-104981190D01*
X178465119Y-105124048D01*
X178312738Y-105219286D01*
X178160357Y-105266905D01*
X177855595Y-105314524D01*
X177627024Y-105314524D01*
X177322262Y-105266905D01*
X177169881Y-105219286D01*
X177017500Y-105124048D01*
X176941310Y-104981190D01*
X176941310Y-104885952D01*
X177017500Y-104743095D01*
X177093690Y-104695476D01*
X178541310Y-104266905D02*
X176941310Y-104266905D01*
X178541310Y-103695476D02*
X177627024Y-104124048D01*
X176941310Y-103695476D02*
X177855595Y-104266905D01*
X179592500Y-105790714D02*
X179516310Y-105885952D01*
X179516310Y-106028809D01*
X179592500Y-106171667D01*
X179744881Y-106266905D01*
X179897262Y-106314524D01*
X180202024Y-106362143D01*
X180430595Y-106362143D01*
X180735357Y-106314524D01*
X180887738Y-106266905D01*
X181040119Y-106171667D01*
X181116310Y-106028809D01*
X181116310Y-105933571D01*
X181040119Y-105790714D01*
X180963929Y-105743095D01*
X180430595Y-105743095D01*
X180430595Y-105933571D01*
X181116310Y-105314524D02*
X179516310Y-105314524D01*
X181116310Y-104743095D01*
X179516310Y-104743095D01*
X181116310Y-104266905D02*
X179516310Y-104266905D01*
X179516310Y-104028810D01*
X179592500Y-103885952D01*
X179744881Y-103790714D01*
X179897262Y-103743095D01*
X180202024Y-103695476D01*
X180430595Y-103695476D01*
X180735357Y-103743095D01*
X180887738Y-103790714D01*
X181040119Y-103885952D01*
X181116310Y-104028810D01*
X181116310Y-104266905D01*
X182091310Y-106266905D02*
X183691310Y-105933572D01*
X182091310Y-105600238D01*
X183538929Y-104695476D02*
X183615119Y-104743095D01*
X183691310Y-104885952D01*
X183691310Y-104981190D01*
X183615119Y-105124048D01*
X183462738Y-105219286D01*
X183310357Y-105266905D01*
X183005595Y-105314524D01*
X182777024Y-105314524D01*
X182472262Y-105266905D01*
X182319881Y-105219286D01*
X182167500Y-105124048D01*
X182091310Y-104981190D01*
X182091310Y-104885952D01*
X182167500Y-104743095D01*
X182243690Y-104695476D01*
X183538929Y-103695476D02*
X183615119Y-103743095D01*
X183691310Y-103885952D01*
X183691310Y-103981190D01*
X183615119Y-104124048D01*
X183462738Y-104219286D01*
X183310357Y-104266905D01*
X183005595Y-104314524D01*
X182777024Y-104314524D01*
X182472262Y-104266905D01*
X182319881Y-104219286D01*
X182167500Y-104124048D01*
X182091310Y-103981190D01*
X182091310Y-103885952D01*
X182167500Y-103743095D01*
X182243690Y-103695476D01*
D15*
X177740000Y-82610000D02*
X182940000Y-82610000D01*
X177740000Y-59690000D02*
X177740000Y-82610000D01*
X182940000Y-57090000D02*
X182940000Y-82610000D01*
X177740000Y-59690000D02*
X180340000Y-59690000D01*
X180340000Y-59690000D02*
X180340000Y-57090000D01*
X180340000Y-57090000D02*
X182940000Y-57090000D01*
X177740000Y-58420000D02*
X177740000Y-57090000D01*
X177740000Y-57090000D02*
X179070000Y-57090000D01*
X134680000Y-57090000D02*
X129480000Y-57090000D01*
X134680000Y-80010000D02*
X134680000Y-57090000D01*
X129480000Y-82610000D02*
X129480000Y-57090000D01*
X134680000Y-80010000D02*
X132080000Y-80010000D01*
X132080000Y-80010000D02*
X132080000Y-82610000D01*
X132080000Y-82610000D02*
X129480000Y-82610000D01*
X134680000Y-81280000D02*
X134680000Y-82610000D01*
X134680000Y-82610000D02*
X133350000Y-82610000D01*
X153730000Y-72450000D02*
X153730000Y-67250000D01*
X143510000Y-72450000D02*
X153730000Y-72450000D01*
X140910000Y-67250000D02*
X153730000Y-67250000D01*
X143510000Y-72450000D02*
X143510000Y-69850000D01*
X143510000Y-69850000D02*
X140910000Y-69850000D01*
X140910000Y-69850000D02*
X140910000Y-67250000D01*
X142240000Y-72450000D02*
X140910000Y-72450000D01*
X140910000Y-72450000D02*
X140910000Y-71120000D01*
X171510000Y-72450000D02*
X171510000Y-67250000D01*
X161290000Y-72450000D02*
X171510000Y-72450000D01*
X158690000Y-67250000D02*
X171510000Y-67250000D01*
X161290000Y-72450000D02*
X161290000Y-69850000D01*
X161290000Y-69850000D02*
X158690000Y-69850000D01*
X158690000Y-69850000D02*
X158690000Y-67250000D01*
X160020000Y-72450000D02*
X158690000Y-72450000D01*
X158690000Y-72450000D02*
X158690000Y-71120000D01*
X153730000Y-82610000D02*
X153730000Y-77410000D01*
X143510000Y-82610000D02*
X153730000Y-82610000D01*
X140910000Y-77410000D02*
X153730000Y-77410000D01*
X143510000Y-82610000D02*
X143510000Y-80010000D01*
X143510000Y-80010000D02*
X140910000Y-80010000D01*
X140910000Y-80010000D02*
X140910000Y-77410000D01*
X142240000Y-82610000D02*
X140910000Y-82610000D01*
X140910000Y-82610000D02*
X140910000Y-81280000D01*
X171510000Y-82610000D02*
X171510000Y-77410000D01*
X161290000Y-82610000D02*
X171510000Y-82610000D01*
X158690000Y-77410000D02*
X171510000Y-77410000D01*
X161290000Y-82610000D02*
X161290000Y-80010000D01*
X161290000Y-80010000D02*
X158690000Y-80010000D01*
X158690000Y-80010000D02*
X158690000Y-77410000D01*
X160020000Y-82610000D02*
X158690000Y-82610000D01*
X158690000Y-82610000D02*
X158690000Y-81280000D01*
X153730000Y-92770000D02*
X153730000Y-87570000D01*
X143510000Y-92770000D02*
X153730000Y-92770000D01*
X140910000Y-87570000D02*
X153730000Y-87570000D01*
X143510000Y-92770000D02*
X143510000Y-90170000D01*
X143510000Y-90170000D02*
X140910000Y-90170000D01*
X140910000Y-90170000D02*
X140910000Y-87570000D01*
X142240000Y-92770000D02*
X140910000Y-92770000D01*
X140910000Y-92770000D02*
X140910000Y-91440000D01*
X184210000Y-102930000D02*
X184210000Y-100270000D01*
X171450000Y-102930000D02*
X184210000Y-102930000D01*
X171450000Y-100270000D02*
X184210000Y-100270000D01*
X171450000Y-102930000D02*
X171450000Y-100270000D01*
X170180000Y-102930000D02*
X168850000Y-102930000D01*
X168850000Y-102930000D02*
X168850000Y-101600000D01*
X166430000Y-110550000D02*
X166430000Y-107890000D01*
X158750000Y-110550000D02*
X166430000Y-110550000D01*
X158750000Y-107890000D02*
X166430000Y-107890000D01*
X158750000Y-110550000D02*
X158750000Y-107890000D01*
X157480000Y-110550000D02*
X156150000Y-110550000D01*
X156150000Y-110550000D02*
X156150000Y-109220000D01*
X166430000Y-118170000D02*
X166430000Y-115510000D01*
X158750000Y-118170000D02*
X166430000Y-118170000D01*
X158750000Y-115510000D02*
X166430000Y-115510000D01*
X158750000Y-118170000D02*
X158750000Y-115510000D01*
X157480000Y-118170000D02*
X156150000Y-118170000D01*
X156150000Y-118170000D02*
X156150000Y-116840000D01*
X170120000Y-140910000D02*
X170120000Y-143570000D01*
X180340000Y-140910000D02*
X170120000Y-140910000D01*
X180340000Y-143570000D02*
X170120000Y-143570000D01*
X180340000Y-140910000D02*
X180340000Y-143570000D01*
X181610000Y-140910000D02*
X182940000Y-140910000D01*
X182940000Y-140910000D02*
X182940000Y-142240000D01*
X183829000Y-131810000D02*
G75*
G02X183829000Y-129810000I0J1000000D01*
G01*
X183829000Y-129810000D02*
X183829000Y-128160000D01*
X183829000Y-128160000D02*
X163389000Y-128160000D01*
X163389000Y-128160000D02*
X163389000Y-133460000D01*
X163389000Y-133460000D02*
X183829000Y-133460000D01*
X183829000Y-133460000D02*
X183829000Y-131810000D01*
X183889000Y-125670000D02*
X163329000Y-125670000D01*
X163329000Y-125670000D02*
X163329000Y-135950000D01*
X163329000Y-135950000D02*
X183889000Y-135950000D01*
X183889000Y-135950000D02*
X183889000Y-125670000D01*
X184210000Y-110550000D02*
X184210000Y-107890000D01*
X176530000Y-110550000D02*
X184210000Y-110550000D01*
X176530000Y-107890000D02*
X184210000Y-107890000D01*
X176530000Y-110550000D02*
X176530000Y-107890000D01*
X175260000Y-110550000D02*
X173930000Y-110550000D01*
X173930000Y-110550000D02*
X173930000Y-109220000D01*
X133410000Y-136331000D02*
X133410000Y-133671000D01*
X130810000Y-136331000D02*
X133410000Y-136331000D01*
X130810000Y-133671000D02*
X133410000Y-133671000D01*
X130810000Y-136331000D02*
X130810000Y-133671000D01*
X129540000Y-136331000D02*
X128210000Y-136331000D01*
X128210000Y-136331000D02*
X128210000Y-135001000D01*
X143240000Y-133290000D02*
G75*
G02X141240000Y-133290000I-1000000J0D01*
G01*
X141240000Y-133290000D02*
X139590000Y-133290000D01*
X139590000Y-133290000D02*
X139590000Y-141030000D01*
X139590000Y-141030000D02*
X144890000Y-141030000D01*
X144890000Y-141030000D02*
X144890000Y-133290000D01*
X144890000Y-133290000D02*
X143240000Y-133290000D01*
X163890000Y-102930000D02*
X163890000Y-100270000D01*
X158750000Y-102930000D02*
X163890000Y-102930000D01*
X158750000Y-100270000D02*
X163890000Y-100270000D01*
X158750000Y-102930000D02*
X158750000Y-100270000D01*
X157480000Y-102930000D02*
X156150000Y-102930000D01*
X156150000Y-102930000D02*
X156150000Y-101600000D01*
X150890000Y-99080000D02*
X150890000Y-109200000D01*
X143750000Y-109200000D02*
X143750000Y-104140000D01*
X139030000Y-99940000D02*
X137830000Y-99940000D01*
X137830000Y-98180000D02*
X139030000Y-98180000D01*
X139030000Y-103750000D02*
X137830000Y-103750000D01*
X137830000Y-101990000D02*
X139030000Y-101990000D01*
X139030000Y-107560000D02*
X137830000Y-107560000D01*
X137830000Y-105800000D02*
X139030000Y-105800000D01*
X139030000Y-111370000D02*
X137830000Y-111370000D01*
X137830000Y-109610000D02*
X139030000Y-109610000D01*
X139030000Y-115180000D02*
X137830000Y-115180000D01*
X137830000Y-113420000D02*
X139030000Y-113420000D01*
X139030000Y-118990000D02*
X137830000Y-118990000D01*
X137830000Y-117230000D02*
X139030000Y-117230000D01*
X139030000Y-122800000D02*
X137830000Y-122800000D01*
X137830000Y-121040000D02*
X139030000Y-121040000D01*
X139030000Y-126610000D02*
X137830000Y-126610000D01*
X137830000Y-124850000D02*
X139030000Y-124850000D01*
X130280000Y-98360000D02*
X130280000Y-99760000D01*
X130280000Y-99760000D02*
X133080000Y-99760000D01*
X130280000Y-98360000D02*
X133080000Y-98360000D01*
X130280000Y-102170000D02*
X130280000Y-103570000D01*
X130280000Y-103570000D02*
X133080000Y-103570000D01*
X130280000Y-102170000D02*
X133080000Y-102170000D01*
X130280000Y-105980000D02*
X130280000Y-107380000D01*
X130280000Y-107380000D02*
X133080000Y-107380000D01*
X130280000Y-105980000D02*
X133080000Y-105980000D01*
X130280000Y-109790000D02*
X130280000Y-111190000D01*
X130280000Y-111190000D02*
X133080000Y-111190000D01*
X130280000Y-109790000D02*
X133080000Y-109790000D01*
X130280000Y-113600000D02*
X130280000Y-115000000D01*
X130280000Y-115000000D02*
X133080000Y-115000000D01*
X130280000Y-113600000D02*
X133080000Y-113600000D01*
X130280000Y-117410000D02*
X130280000Y-118810000D01*
X130280000Y-118810000D02*
X133080000Y-118810000D01*
X130280000Y-117410000D02*
X133080000Y-117410000D01*
X130280000Y-121220000D02*
X130280000Y-122620000D01*
X130280000Y-122620000D02*
X133080000Y-122620000D01*
X130280000Y-121220000D02*
X133080000Y-121220000D01*
X130280000Y-125030000D02*
X130280000Y-126430000D01*
X130280000Y-126430000D02*
X133080000Y-126430000D01*
X130280000Y-125030000D02*
X133080000Y-125030000D01*
X133410000Y-142300000D02*
X133410000Y-139640000D01*
X130810000Y-142300000D02*
X133410000Y-142300000D01*
X130810000Y-139640000D02*
X133410000Y-139640000D01*
X130810000Y-142300000D02*
X130810000Y-139640000D01*
X129540000Y-142300000D02*
X128210000Y-142300000D01*
X128210000Y-142300000D02*
X128210000Y-140970000D01*
X148550000Y-141090000D02*
X158790000Y-141090000D01*
X148550000Y-125200000D02*
X158790000Y-125200000D01*
X148550000Y-125200000D02*
X148550000Y-141090000D01*
X158790000Y-125200000D02*
X158790000Y-141090000D01*
X151130000Y-141090000D02*
X151130000Y-143730000D01*
X153670000Y-141090000D02*
X153670000Y-143714000D01*
X156210000Y-141090000D02*
X156210000Y-143714000D01*
X142840000Y-126610000D02*
X141640000Y-126610000D01*
X141640000Y-124850000D02*
X142840000Y-124850000D01*
X138840000Y-143130000D02*
X138840000Y-146430000D01*
X138840000Y-146430000D02*
X144240000Y-146430000D01*
X138840000Y-143130000D02*
X144240000Y-143130000D01*
X142353000Y-113262000D02*
X152003000Y-113262000D01*
X142353000Y-123212000D02*
X152003000Y-123212000D01*
X142353000Y-113262000D02*
X142353000Y-123212000D01*
X152003000Y-113262000D02*
X152003000Y-123212000D01*
X157353000Y-96650000D02*
X158623000Y-96650000D01*
X157353000Y-96650000D02*
X157353000Y-94110000D01*
X157553000Y-96450000D02*
X157553000Y-86430000D01*
X157553000Y-86430000D02*
X180293000Y-86430000D01*
X180293000Y-86430000D02*
X180293000Y-96450000D01*
X180293000Y-96450000D02*
X157553000Y-96450000D01*
X159398000Y-93470000D02*
X160668000Y-93470000D01*
X160668000Y-93470000D02*
X160668000Y-89410000D01*
X160668000Y-89410000D02*
X159398000Y-89410000D01*
X159398000Y-89410000D02*
X159398000Y-93470000D01*
X159398000Y-91440000D02*
X160668000Y-91440000D01*
X161938000Y-93470000D02*
X163208000Y-93470000D01*
X163208000Y-93470000D02*
X163208000Y-89410000D01*
X163208000Y-89410000D02*
X161938000Y-89410000D01*
X161938000Y-89410000D02*
X161938000Y-93470000D01*
X161938000Y-91440000D02*
X163208000Y-91440000D01*
X164478000Y-93470000D02*
X165748000Y-93470000D01*
X165748000Y-93470000D02*
X165748000Y-89410000D01*
X165748000Y-89410000D02*
X164478000Y-89410000D01*
X164478000Y-89410000D02*
X164478000Y-93470000D01*
X164478000Y-91440000D02*
X165748000Y-91440000D01*
X167018000Y-93470000D02*
X168288000Y-93470000D01*
X168288000Y-93470000D02*
X168288000Y-89410000D01*
X168288000Y-89410000D02*
X167018000Y-89410000D01*
X167018000Y-89410000D02*
X167018000Y-93470000D01*
X167018000Y-91440000D02*
X168288000Y-91440000D01*
X169558000Y-93470000D02*
X170828000Y-93470000D01*
X170828000Y-93470000D02*
X170828000Y-89410000D01*
X170828000Y-89410000D02*
X169558000Y-89410000D01*
X169558000Y-89410000D02*
X169558000Y-93470000D01*
X169558000Y-91440000D02*
X170828000Y-91440000D01*
X172098000Y-93470000D02*
X173368000Y-93470000D01*
X173368000Y-93470000D02*
X173368000Y-89410000D01*
X173368000Y-89410000D02*
X172098000Y-89410000D01*
X172098000Y-89410000D02*
X172098000Y-93470000D01*
X172098000Y-91440000D02*
X173368000Y-91440000D01*
X174638000Y-93470000D02*
X175908000Y-93470000D01*
X175908000Y-93470000D02*
X175908000Y-89410000D01*
X175908000Y-89410000D02*
X174638000Y-89410000D01*
X174638000Y-89410000D02*
X174638000Y-93470000D01*
X174638000Y-91440000D02*
X175908000Y-91440000D01*
X177178000Y-93470000D02*
X178448000Y-93470000D01*
X178448000Y-93470000D02*
X178448000Y-89410000D01*
X178448000Y-89410000D02*
X177178000Y-89410000D01*
X177178000Y-89410000D02*
X177178000Y-93470000D01*
X177178000Y-91440000D02*
X178448000Y-91440000D01*
X167700000Y-143570000D02*
X167700000Y-140910000D01*
X165100000Y-143570000D02*
X167700000Y-143570000D01*
X165100000Y-140910000D02*
X167700000Y-140910000D01*
X165100000Y-143570000D02*
X165100000Y-140910000D01*
X163830000Y-143570000D02*
X162500000Y-143570000D01*
X162500000Y-143570000D02*
X162500000Y-142240000D01*
X184210000Y-118170000D02*
X184210000Y-115510000D01*
X181610000Y-118170000D02*
X184210000Y-118170000D01*
X181610000Y-115510000D02*
X184210000Y-115510000D01*
X181610000Y-118170000D02*
X181610000Y-115510000D01*
X180340000Y-118170000D02*
X179010000Y-118170000D01*
X179010000Y-118170000D02*
X179010000Y-116840000D01*
X126860000Y-95380000D02*
X128130000Y-95380000D01*
X126860000Y-95380000D02*
X126860000Y-92840000D01*
X127060000Y-95180000D02*
X127060000Y-85160000D01*
X127060000Y-85160000D02*
X139640000Y-85160000D01*
X139640000Y-85160000D02*
X139640000Y-95180000D01*
X139640000Y-95180000D02*
X127060000Y-95180000D01*
X128905000Y-92200000D02*
X130175000Y-92200000D01*
X130175000Y-92200000D02*
X130175000Y-88140000D01*
X130175000Y-88140000D02*
X128905000Y-88140000D01*
X128905000Y-88140000D02*
X128905000Y-92200000D01*
X128905000Y-90170000D02*
X130175000Y-90170000D01*
X131445000Y-92200000D02*
X132715000Y-92200000D01*
X132715000Y-92200000D02*
X132715000Y-88140000D01*
X132715000Y-88140000D02*
X131445000Y-88140000D01*
X131445000Y-88140000D02*
X131445000Y-92200000D01*
X131445000Y-90170000D02*
X132715000Y-90170000D01*
X133985000Y-92200000D02*
X135255000Y-92200000D01*
X135255000Y-92200000D02*
X135255000Y-88140000D01*
X135255000Y-88140000D02*
X133985000Y-88140000D01*
X133985000Y-88140000D02*
X133985000Y-92200000D01*
X133985000Y-90170000D02*
X135255000Y-90170000D01*
X136525000Y-92200000D02*
X137795000Y-92200000D01*
X137795000Y-92200000D02*
X137795000Y-88140000D01*
X137795000Y-88140000D02*
X136525000Y-88140000D01*
X136525000Y-88140000D02*
X136525000Y-92200000D01*
X136525000Y-90170000D02*
X137795000Y-90170000D01*
D11*
X180062381Y-55808571D02*
X180395715Y-55808571D01*
X180538572Y-56332381D02*
X180062381Y-56332381D01*
X180062381Y-55332381D01*
X180538572Y-55332381D01*
X180871905Y-55332381D02*
X181538572Y-56332381D01*
X181538572Y-55332381D02*
X180871905Y-56332381D01*
X181776667Y-55332381D02*
X182348096Y-55332381D01*
X182062381Y-56332381D02*
X182062381Y-55332381D01*
X183205239Y-56332381D02*
X182633810Y-56332381D01*
X182919524Y-56332381D02*
X182919524Y-55332381D01*
X182824286Y-55475238D01*
X182729048Y-55570476D01*
X182633810Y-55618095D01*
X129262381Y-55808571D02*
X129595715Y-55808571D01*
X129738572Y-56332381D02*
X129262381Y-56332381D01*
X129262381Y-55332381D01*
X129738572Y-55332381D01*
X130071905Y-55332381D02*
X130738572Y-56332381D01*
X130738572Y-55332381D02*
X130071905Y-56332381D01*
X130976667Y-55332381D02*
X131548096Y-55332381D01*
X131262381Y-56332381D02*
X131262381Y-55332381D01*
X132310001Y-55665714D02*
X132310001Y-56332381D01*
X132071905Y-55284762D02*
X131833810Y-55999048D01*
X132452858Y-55999048D01*
X140362381Y-72802381D02*
X139362381Y-72802381D01*
X139362381Y-72421428D01*
X139410000Y-72326190D01*
X139457619Y-72278571D01*
X139552857Y-72230952D01*
X139695714Y-72230952D01*
X139790952Y-72278571D01*
X139838571Y-72326190D01*
X139886190Y-72421428D01*
X139886190Y-72802381D01*
X139362381Y-71611905D02*
X139362381Y-71421428D01*
X139410000Y-71326190D01*
X139505238Y-71230952D01*
X139695714Y-71183333D01*
X140029048Y-71183333D01*
X140219524Y-71230952D01*
X140314762Y-71326190D01*
X140362381Y-71421428D01*
X140362381Y-71611905D01*
X140314762Y-71707143D01*
X140219524Y-71802381D01*
X140029048Y-71850000D01*
X139695714Y-71850000D01*
X139505238Y-71802381D01*
X139410000Y-71707143D01*
X139362381Y-71611905D01*
X140362381Y-70183333D02*
X139886190Y-70516667D01*
X140362381Y-70754762D02*
X139362381Y-70754762D01*
X139362381Y-70373809D01*
X139410000Y-70278571D01*
X139457619Y-70230952D01*
X139552857Y-70183333D01*
X139695714Y-70183333D01*
X139790952Y-70230952D01*
X139838571Y-70278571D01*
X139886190Y-70373809D01*
X139886190Y-70754762D01*
X139362381Y-69897619D02*
X139362381Y-69326190D01*
X140362381Y-69611905D02*
X139362381Y-69611905D01*
X140457619Y-69230952D02*
X140457619Y-68469047D01*
X140076667Y-68278571D02*
X140076667Y-67802380D01*
X140362381Y-68373809D02*
X139362381Y-68040476D01*
X140362381Y-67707142D01*
X140362381Y-66849999D02*
X140362381Y-67421428D01*
X140362381Y-67135714D02*
X139362381Y-67135714D01*
X139505238Y-67230952D01*
X139600476Y-67326190D01*
X139648095Y-67421428D01*
X158142381Y-72873810D02*
X157142381Y-72873810D01*
X157142381Y-72492857D01*
X157190000Y-72397619D01*
X157237619Y-72350000D01*
X157332857Y-72302381D01*
X157475714Y-72302381D01*
X157570952Y-72350000D01*
X157618571Y-72397619D01*
X157666190Y-72492857D01*
X157666190Y-72873810D01*
X157142381Y-71683334D02*
X157142381Y-71492857D01*
X157190000Y-71397619D01*
X157285238Y-71302381D01*
X157475714Y-71254762D01*
X157809048Y-71254762D01*
X157999524Y-71302381D01*
X158094762Y-71397619D01*
X158142381Y-71492857D01*
X158142381Y-71683334D01*
X158094762Y-71778572D01*
X157999524Y-71873810D01*
X157809048Y-71921429D01*
X157475714Y-71921429D01*
X157285238Y-71873810D01*
X157190000Y-71778572D01*
X157142381Y-71683334D01*
X158142381Y-70254762D02*
X157666190Y-70588096D01*
X158142381Y-70826191D02*
X157142381Y-70826191D01*
X157142381Y-70445238D01*
X157190000Y-70350000D01*
X157237619Y-70302381D01*
X157332857Y-70254762D01*
X157475714Y-70254762D01*
X157570952Y-70302381D01*
X157618571Y-70350000D01*
X157666190Y-70445238D01*
X157666190Y-70826191D01*
X157142381Y-69969048D02*
X157142381Y-69397619D01*
X158142381Y-69683334D02*
X157142381Y-69683334D01*
X158237619Y-69302381D02*
X158237619Y-68540476D01*
X157618571Y-67969047D02*
X157666190Y-67826190D01*
X157713810Y-67778571D01*
X157809048Y-67730952D01*
X157951905Y-67730952D01*
X158047143Y-67778571D01*
X158094762Y-67826190D01*
X158142381Y-67921428D01*
X158142381Y-68302381D01*
X157142381Y-68302381D01*
X157142381Y-67969047D01*
X157190000Y-67873809D01*
X157237619Y-67826190D01*
X157332857Y-67778571D01*
X157428095Y-67778571D01*
X157523333Y-67826190D01*
X157570952Y-67873809D01*
X157618571Y-67969047D01*
X157618571Y-68302381D01*
X158142381Y-66778571D02*
X158142381Y-67350000D01*
X158142381Y-67064286D02*
X157142381Y-67064286D01*
X157285238Y-67159524D01*
X157380476Y-67254762D01*
X157428095Y-67350000D01*
X140362381Y-83033810D02*
X139362381Y-83033810D01*
X139362381Y-82652857D01*
X139410000Y-82557619D01*
X139457619Y-82510000D01*
X139552857Y-82462381D01*
X139695714Y-82462381D01*
X139790952Y-82510000D01*
X139838571Y-82557619D01*
X139886190Y-82652857D01*
X139886190Y-83033810D01*
X139362381Y-81843334D02*
X139362381Y-81652857D01*
X139410000Y-81557619D01*
X139505238Y-81462381D01*
X139695714Y-81414762D01*
X140029048Y-81414762D01*
X140219524Y-81462381D01*
X140314762Y-81557619D01*
X140362381Y-81652857D01*
X140362381Y-81843334D01*
X140314762Y-81938572D01*
X140219524Y-82033810D01*
X140029048Y-82081429D01*
X139695714Y-82081429D01*
X139505238Y-82033810D01*
X139410000Y-81938572D01*
X139362381Y-81843334D01*
X140362381Y-80414762D02*
X139886190Y-80748096D01*
X140362381Y-80986191D02*
X139362381Y-80986191D01*
X139362381Y-80605238D01*
X139410000Y-80510000D01*
X139457619Y-80462381D01*
X139552857Y-80414762D01*
X139695714Y-80414762D01*
X139790952Y-80462381D01*
X139838571Y-80510000D01*
X139886190Y-80605238D01*
X139886190Y-80986191D01*
X139362381Y-80129048D02*
X139362381Y-79557619D01*
X140362381Y-79843334D02*
X139362381Y-79843334D01*
X140457619Y-79462381D02*
X140457619Y-78700476D01*
X140267143Y-77890952D02*
X140314762Y-77938571D01*
X140362381Y-78081428D01*
X140362381Y-78176666D01*
X140314762Y-78319524D01*
X140219524Y-78414762D01*
X140124286Y-78462381D01*
X139933810Y-78510000D01*
X139790952Y-78510000D01*
X139600476Y-78462381D01*
X139505238Y-78414762D01*
X139410000Y-78319524D01*
X139362381Y-78176666D01*
X139362381Y-78081428D01*
X139410000Y-77938571D01*
X139457619Y-77890952D01*
X140362381Y-76938571D02*
X140362381Y-77510000D01*
X140362381Y-77224286D02*
X139362381Y-77224286D01*
X139505238Y-77319524D01*
X139600476Y-77414762D01*
X139648095Y-77510000D01*
X158142381Y-83033810D02*
X157142381Y-83033810D01*
X157142381Y-82652857D01*
X157190000Y-82557619D01*
X157237619Y-82510000D01*
X157332857Y-82462381D01*
X157475714Y-82462381D01*
X157570952Y-82510000D01*
X157618571Y-82557619D01*
X157666190Y-82652857D01*
X157666190Y-83033810D01*
X157142381Y-81843334D02*
X157142381Y-81652857D01*
X157190000Y-81557619D01*
X157285238Y-81462381D01*
X157475714Y-81414762D01*
X157809048Y-81414762D01*
X157999524Y-81462381D01*
X158094762Y-81557619D01*
X158142381Y-81652857D01*
X158142381Y-81843334D01*
X158094762Y-81938572D01*
X157999524Y-82033810D01*
X157809048Y-82081429D01*
X157475714Y-82081429D01*
X157285238Y-82033810D01*
X157190000Y-81938572D01*
X157142381Y-81843334D01*
X158142381Y-80414762D02*
X157666190Y-80748096D01*
X158142381Y-80986191D02*
X157142381Y-80986191D01*
X157142381Y-80605238D01*
X157190000Y-80510000D01*
X157237619Y-80462381D01*
X157332857Y-80414762D01*
X157475714Y-80414762D01*
X157570952Y-80462381D01*
X157618571Y-80510000D01*
X157666190Y-80605238D01*
X157666190Y-80986191D01*
X157142381Y-80129048D02*
X157142381Y-79557619D01*
X158142381Y-79843334D02*
X157142381Y-79843334D01*
X158237619Y-79462381D02*
X158237619Y-78700476D01*
X158142381Y-78462381D02*
X157142381Y-78462381D01*
X157142381Y-78224286D01*
X157190000Y-78081428D01*
X157285238Y-77986190D01*
X157380476Y-77938571D01*
X157570952Y-77890952D01*
X157713810Y-77890952D01*
X157904286Y-77938571D01*
X157999524Y-77986190D01*
X158094762Y-78081428D01*
X158142381Y-78224286D01*
X158142381Y-78462381D01*
X158142381Y-76938571D02*
X158142381Y-77510000D01*
X158142381Y-77224286D02*
X157142381Y-77224286D01*
X157285238Y-77319524D01*
X157380476Y-77414762D01*
X157428095Y-77510000D01*
X155392381Y-93146191D02*
X154392381Y-93146191D01*
X154392381Y-92765238D01*
X154440000Y-92670000D01*
X154487619Y-92622381D01*
X154582857Y-92574762D01*
X154725714Y-92574762D01*
X154820952Y-92622381D01*
X154868571Y-92670000D01*
X154916190Y-92765238D01*
X154916190Y-93146191D01*
X154392381Y-91955715D02*
X154392381Y-91765238D01*
X154440000Y-91670000D01*
X154535238Y-91574762D01*
X154725714Y-91527143D01*
X155059048Y-91527143D01*
X155249524Y-91574762D01*
X155344762Y-91670000D01*
X155392381Y-91765238D01*
X155392381Y-91955715D01*
X155344762Y-92050953D01*
X155249524Y-92146191D01*
X155059048Y-92193810D01*
X154725714Y-92193810D01*
X154535238Y-92146191D01*
X154440000Y-92050953D01*
X154392381Y-91955715D01*
X155392381Y-90527143D02*
X154916190Y-90860477D01*
X155392381Y-91098572D02*
X154392381Y-91098572D01*
X154392381Y-90717619D01*
X154440000Y-90622381D01*
X154487619Y-90574762D01*
X154582857Y-90527143D01*
X154725714Y-90527143D01*
X154820952Y-90574762D01*
X154868571Y-90622381D01*
X154916190Y-90717619D01*
X154916190Y-91098572D01*
X154392381Y-90241429D02*
X154392381Y-89670000D01*
X155392381Y-89955715D02*
X154392381Y-89955715D01*
X155487619Y-89574762D02*
X155487619Y-88812857D01*
X154868571Y-88574762D02*
X154868571Y-88241428D01*
X155392381Y-88098571D02*
X155392381Y-88574762D01*
X154392381Y-88574762D01*
X154392381Y-88098571D01*
X155392381Y-87146190D02*
X155392381Y-87717619D01*
X155392381Y-87431905D02*
X154392381Y-87431905D01*
X154535238Y-87527143D01*
X154630476Y-87622381D01*
X154678095Y-87717619D01*
X164639857Y-102179381D02*
X164639857Y-101179381D01*
X165020810Y-101179381D01*
X165116048Y-101227000D01*
X165163667Y-101274619D01*
X165211286Y-101369857D01*
X165211286Y-101512714D01*
X165163667Y-101607952D01*
X165116048Y-101655571D01*
X165020810Y-101703190D01*
X164639857Y-101703190D01*
X165639857Y-102179381D02*
X165639857Y-101179381D01*
X165973191Y-101893667D01*
X166306524Y-101179381D01*
X166306524Y-102179381D01*
X166973190Y-101179381D02*
X167163667Y-101179381D01*
X167258905Y-101227000D01*
X167354143Y-101322238D01*
X167401762Y-101512714D01*
X167401762Y-101846048D01*
X167354143Y-102036524D01*
X167258905Y-102131762D01*
X167163667Y-102179381D01*
X166973190Y-102179381D01*
X166877952Y-102131762D01*
X166782714Y-102036524D01*
X166735095Y-101846048D01*
X166735095Y-101512714D01*
X166782714Y-101322238D01*
X166877952Y-101227000D01*
X166973190Y-101179381D01*
X167830333Y-102179381D02*
X167830333Y-101179381D01*
X168068428Y-101179381D01*
X168211286Y-101227000D01*
X168306524Y-101322238D01*
X168354143Y-101417476D01*
X168401762Y-101607952D01*
X168401762Y-101750810D01*
X168354143Y-101941286D01*
X168306524Y-102036524D01*
X168211286Y-102131762D01*
X168068428Y-102179381D01*
X167830333Y-102179381D01*
X152455762Y-108672381D02*
X152455762Y-109481905D01*
X152503381Y-109577143D01*
X152551000Y-109624762D01*
X152646238Y-109672381D01*
X152836715Y-109672381D01*
X152931953Y-109624762D01*
X152979572Y-109577143D01*
X153027191Y-109481905D01*
X153027191Y-108672381D01*
X153455762Y-109386667D02*
X153931953Y-109386667D01*
X153360524Y-109672381D02*
X153693857Y-108672381D01*
X154027191Y-109672381D01*
X154931953Y-109672381D02*
X154598619Y-109196190D01*
X154360524Y-109672381D02*
X154360524Y-108672381D01*
X154741477Y-108672381D01*
X154836715Y-108720000D01*
X154884334Y-108767619D01*
X154931953Y-108862857D01*
X154931953Y-109005714D01*
X154884334Y-109100952D01*
X154836715Y-109148571D01*
X154741477Y-109196190D01*
X154360524Y-109196190D01*
X155217667Y-108672381D02*
X155789096Y-108672381D01*
X155503381Y-109672381D02*
X155503381Y-108672381D01*
X152527191Y-117292381D02*
X152527191Y-116292381D01*
X152908144Y-116292381D01*
X153003382Y-116340000D01*
X153051001Y-116387619D01*
X153098620Y-116482857D01*
X153098620Y-116625714D01*
X153051001Y-116720952D01*
X153003382Y-116768571D01*
X152908144Y-116816190D01*
X152527191Y-116816190D01*
X153527191Y-117292381D02*
X153527191Y-116292381D01*
X154003381Y-117292381D02*
X154003381Y-116292381D01*
X154574810Y-117292381D01*
X154574810Y-116292381D01*
X155574810Y-116340000D02*
X155479572Y-116292381D01*
X155336715Y-116292381D01*
X155193857Y-116340000D01*
X155098619Y-116435238D01*
X155051000Y-116530476D01*
X155003381Y-116720952D01*
X155003381Y-116863810D01*
X155051000Y-117054286D01*
X155098619Y-117149524D01*
X155193857Y-117244762D01*
X155336715Y-117292381D01*
X155431953Y-117292381D01*
X155574810Y-117244762D01*
X155622429Y-117197143D01*
X155622429Y-116863810D01*
X155431953Y-116863810D01*
X176125571Y-138072762D02*
X176268428Y-138120381D01*
X176506524Y-138120381D01*
X176601762Y-138072762D01*
X176649381Y-138025143D01*
X176697000Y-137929905D01*
X176697000Y-137834667D01*
X176649381Y-137739429D01*
X176601762Y-137691810D01*
X176506524Y-137644190D01*
X176316047Y-137596571D01*
X176220809Y-137548952D01*
X176173190Y-137501333D01*
X176125571Y-137406095D01*
X176125571Y-137310857D01*
X176173190Y-137215619D01*
X176220809Y-137168000D01*
X176316047Y-137120381D01*
X176554143Y-137120381D01*
X176697000Y-137168000D01*
X176982714Y-137120381D02*
X177554143Y-137120381D01*
X177268428Y-138120381D02*
X177268428Y-137120381D01*
X177887476Y-137596571D02*
X178220810Y-137596571D01*
X178363667Y-138120381D02*
X177887476Y-138120381D01*
X177887476Y-137120381D01*
X178363667Y-137120381D01*
X178792238Y-138120381D02*
X178792238Y-137120381D01*
X179173191Y-137120381D01*
X179268429Y-137168000D01*
X179316048Y-137215619D01*
X179363667Y-137310857D01*
X179363667Y-137453714D01*
X179316048Y-137548952D01*
X179268429Y-137596571D01*
X179173191Y-137644190D01*
X178792238Y-137644190D01*
X179792238Y-138120381D02*
X179792238Y-137120381D01*
X180173191Y-137120381D01*
X180268429Y-137168000D01*
X180316048Y-137215619D01*
X180363667Y-137310857D01*
X180363667Y-137453714D01*
X180316048Y-137548952D01*
X180268429Y-137596571D01*
X180173191Y-137644190D01*
X179792238Y-137644190D01*
X180792238Y-137596571D02*
X181125572Y-137596571D01*
X181268429Y-138120381D02*
X180792238Y-138120381D01*
X180792238Y-137120381D01*
X181268429Y-137120381D01*
X182268429Y-138120381D02*
X181935095Y-137644190D01*
X181697000Y-138120381D02*
X181697000Y-137120381D01*
X182077953Y-137120381D01*
X182173191Y-137168000D01*
X182220810Y-137215619D01*
X182268429Y-137310857D01*
X182268429Y-137453714D01*
X182220810Y-137548952D01*
X182173191Y-137596571D01*
X182077953Y-137644190D01*
X181697000Y-137644190D01*
X175776381Y-124166381D02*
X175776381Y-124975905D01*
X175824000Y-125071143D01*
X175871619Y-125118762D01*
X175966857Y-125166381D01*
X176157334Y-125166381D01*
X176252572Y-125118762D01*
X176300191Y-125071143D01*
X176347810Y-124975905D01*
X176347810Y-124166381D01*
X177300191Y-125166381D02*
X176824000Y-125166381D01*
X176824000Y-124166381D01*
X177633524Y-125166381D02*
X177633524Y-124166381D01*
X178204953Y-125166381D01*
X178204953Y-124166381D01*
X178633524Y-124261619D02*
X178681143Y-124214000D01*
X178776381Y-124166381D01*
X179014477Y-124166381D01*
X179109715Y-124214000D01*
X179157334Y-124261619D01*
X179204953Y-124356857D01*
X179204953Y-124452095D01*
X179157334Y-124594952D01*
X178585905Y-125166381D01*
X179204953Y-125166381D01*
X179824000Y-124166381D02*
X179919239Y-124166381D01*
X180014477Y-124214000D01*
X180062096Y-124261619D01*
X180109715Y-124356857D01*
X180157334Y-124547333D01*
X180157334Y-124785429D01*
X180109715Y-124975905D01*
X180062096Y-125071143D01*
X180014477Y-125118762D01*
X179919239Y-125166381D01*
X179824000Y-125166381D01*
X179728762Y-125118762D01*
X179681143Y-125071143D01*
X179633524Y-124975905D01*
X179585905Y-124785429D01*
X179585905Y-124547333D01*
X179633524Y-124356857D01*
X179681143Y-124261619D01*
X179728762Y-124214000D01*
X179824000Y-124166381D01*
X180776381Y-124166381D02*
X180871620Y-124166381D01*
X180966858Y-124214000D01*
X181014477Y-124261619D01*
X181062096Y-124356857D01*
X181109715Y-124547333D01*
X181109715Y-124785429D01*
X181062096Y-124975905D01*
X181014477Y-125071143D01*
X180966858Y-125118762D01*
X180871620Y-125166381D01*
X180776381Y-125166381D01*
X180681143Y-125118762D01*
X180633524Y-125071143D01*
X180585905Y-124975905D01*
X180538286Y-124785429D01*
X180538286Y-124547333D01*
X180585905Y-124356857D01*
X180633524Y-124261619D01*
X180681143Y-124214000D01*
X180776381Y-124166381D01*
X181443048Y-124166381D02*
X182062096Y-124166381D01*
X181728762Y-124547333D01*
X181871620Y-124547333D01*
X181966858Y-124594952D01*
X182014477Y-124642571D01*
X182062096Y-124737810D01*
X182062096Y-124975905D01*
X182014477Y-125071143D01*
X181966858Y-125118762D01*
X181871620Y-125166381D01*
X181585905Y-125166381D01*
X181490667Y-125118762D01*
X181443048Y-125071143D01*
X182443048Y-124880667D02*
X182919239Y-124880667D01*
X182347810Y-125166381D02*
X182681143Y-124166381D01*
X183014477Y-125166381D01*
X171235810Y-109672381D02*
X171235810Y-108672381D01*
X171664381Y-108767619D02*
X171712000Y-108720000D01*
X171807238Y-108672381D01*
X172045334Y-108672381D01*
X172140572Y-108720000D01*
X172188191Y-108767619D01*
X172235810Y-108862857D01*
X172235810Y-108958095D01*
X172188191Y-109100952D01*
X171616762Y-109672381D01*
X172235810Y-109672381D01*
X173235810Y-109577143D02*
X173188191Y-109624762D01*
X173045334Y-109672381D01*
X172950096Y-109672381D01*
X172807238Y-109624762D01*
X172712000Y-109529524D01*
X172664381Y-109434286D01*
X172616762Y-109243810D01*
X172616762Y-109100952D01*
X172664381Y-108910476D01*
X172712000Y-108815238D01*
X172807238Y-108720000D01*
X172950096Y-108672381D01*
X173045334Y-108672381D01*
X173188191Y-108720000D01*
X173235810Y-108767619D01*
X127484643Y-132595881D02*
X127484643Y-131595881D01*
X127722738Y-131595881D01*
X127865596Y-131643500D01*
X127960834Y-131738738D01*
X128008453Y-131833976D01*
X128056072Y-132024452D01*
X128056072Y-132167310D01*
X128008453Y-132357786D01*
X127960834Y-132453024D01*
X127865596Y-132548262D01*
X127722738Y-132595881D01*
X127484643Y-132595881D01*
X129056072Y-132500643D02*
X129008453Y-132548262D01*
X128865596Y-132595881D01*
X128770358Y-132595881D01*
X128627500Y-132548262D01*
X128532262Y-132453024D01*
X128484643Y-132357786D01*
X128437024Y-132167310D01*
X128437024Y-132024452D01*
X128484643Y-131833976D01*
X128532262Y-131738738D01*
X128627500Y-131643500D01*
X128770358Y-131595881D01*
X128865596Y-131595881D01*
X129008453Y-131643500D01*
X129056072Y-131691119D01*
X129246548Y-132691119D02*
X130008453Y-132691119D01*
X130246548Y-132595881D02*
X130246548Y-131595881D01*
X130579882Y-132310167D01*
X130913215Y-131595881D01*
X130913215Y-132595881D01*
X131579881Y-131595881D02*
X131770358Y-131595881D01*
X131865596Y-131643500D01*
X131960834Y-131738738D01*
X132008453Y-131929214D01*
X132008453Y-132262548D01*
X131960834Y-132453024D01*
X131865596Y-132548262D01*
X131770358Y-132595881D01*
X131579881Y-132595881D01*
X131484643Y-132548262D01*
X131389405Y-132453024D01*
X131341786Y-132262548D01*
X131341786Y-131929214D01*
X131389405Y-131738738D01*
X131484643Y-131643500D01*
X131579881Y-131595881D01*
X132294167Y-131595881D02*
X132865596Y-131595881D01*
X132579881Y-132595881D02*
X132579881Y-131595881D01*
X133389405Y-131595881D02*
X133579882Y-131595881D01*
X133675120Y-131643500D01*
X133770358Y-131738738D01*
X133817977Y-131929214D01*
X133817977Y-132262548D01*
X133770358Y-132453024D01*
X133675120Y-132548262D01*
X133579882Y-132595881D01*
X133389405Y-132595881D01*
X133294167Y-132548262D01*
X133198929Y-132453024D01*
X133151310Y-132262548D01*
X133151310Y-131929214D01*
X133198929Y-131738738D01*
X133294167Y-131643500D01*
X133389405Y-131595881D01*
X134817977Y-132595881D02*
X134484643Y-132119690D01*
X134246548Y-132595881D02*
X134246548Y-131595881D01*
X134627501Y-131595881D01*
X134722739Y-131643500D01*
X134770358Y-131691119D01*
X134817977Y-131786357D01*
X134817977Y-131929214D01*
X134770358Y-132024452D01*
X134722739Y-132072071D01*
X134627501Y-132119690D01*
X134246548Y-132119690D01*
X140954286Y-131992714D02*
X140954286Y-132659381D01*
X140716190Y-131611762D02*
X140478095Y-132326048D01*
X141097143Y-132326048D01*
X141478095Y-132659381D02*
X141478095Y-131659381D01*
X142049524Y-132659381D01*
X142049524Y-131659381D01*
X142478095Y-131754619D02*
X142525714Y-131707000D01*
X142620952Y-131659381D01*
X142859048Y-131659381D01*
X142954286Y-131707000D01*
X143001905Y-131754619D01*
X143049524Y-131849857D01*
X143049524Y-131945095D01*
X143001905Y-132087952D01*
X142430476Y-132659381D01*
X143049524Y-132659381D01*
X143620952Y-132087952D02*
X143525714Y-132040333D01*
X143478095Y-131992714D01*
X143430476Y-131897476D01*
X143430476Y-131849857D01*
X143478095Y-131754619D01*
X143525714Y-131707000D01*
X143620952Y-131659381D01*
X143811429Y-131659381D01*
X143906667Y-131707000D01*
X143954286Y-131754619D01*
X144001905Y-131849857D01*
X144001905Y-131897476D01*
X143954286Y-131992714D01*
X143906667Y-132040333D01*
X143811429Y-132087952D01*
X143620952Y-132087952D01*
X143525714Y-132135571D01*
X143478095Y-132183190D01*
X143430476Y-132278429D01*
X143430476Y-132468905D01*
X143478095Y-132564143D01*
X143525714Y-132611762D01*
X143620952Y-132659381D01*
X143811429Y-132659381D01*
X143906667Y-132611762D01*
X143954286Y-132564143D01*
X144001905Y-132468905D01*
X144001905Y-132278429D01*
X143954286Y-132183190D01*
X143906667Y-132135571D01*
X143811429Y-132087952D01*
X151352524Y-102131762D02*
X151495381Y-102179381D01*
X151733477Y-102179381D01*
X151828715Y-102131762D01*
X151876334Y-102084143D01*
X151923953Y-101988905D01*
X151923953Y-101893667D01*
X151876334Y-101798429D01*
X151828715Y-101750810D01*
X151733477Y-101703190D01*
X151543000Y-101655571D01*
X151447762Y-101607952D01*
X151400143Y-101560333D01*
X151352524Y-101465095D01*
X151352524Y-101369857D01*
X151400143Y-101274619D01*
X151447762Y-101227000D01*
X151543000Y-101179381D01*
X151781096Y-101179381D01*
X151923953Y-101227000D01*
X152352524Y-101655571D02*
X152685858Y-101655571D01*
X152828715Y-102179381D02*
X152352524Y-102179381D01*
X152352524Y-101179381D01*
X152828715Y-101179381D01*
X153828715Y-102179381D02*
X153495381Y-101703190D01*
X153257286Y-102179381D02*
X153257286Y-101179381D01*
X153638239Y-101179381D01*
X153733477Y-101227000D01*
X153781096Y-101274619D01*
X153828715Y-101369857D01*
X153828715Y-101512714D01*
X153781096Y-101607952D01*
X153733477Y-101655571D01*
X153638239Y-101703190D01*
X153257286Y-101703190D01*
X154114429Y-101179381D02*
X154447762Y-102179381D01*
X154781096Y-101179381D01*
X155304905Y-101179381D02*
X155495382Y-101179381D01*
X155590620Y-101227000D01*
X155685858Y-101322238D01*
X155733477Y-101512714D01*
X155733477Y-101846048D01*
X155685858Y-102036524D01*
X155590620Y-102131762D01*
X155495382Y-102179381D01*
X155304905Y-102179381D01*
X155209667Y-102131762D01*
X155114429Y-102036524D01*
X155066810Y-101846048D01*
X155066810Y-101512714D01*
X155114429Y-101322238D01*
X155209667Y-101227000D01*
X155304905Y-101179381D01*
X142212381Y-110291905D02*
X142212381Y-109625238D01*
X143212381Y-110053810D01*
X143164762Y-109291905D02*
X143212381Y-109149048D01*
X143212381Y-108910952D01*
X143164762Y-108815714D01*
X143117143Y-108768095D01*
X143021905Y-108720476D01*
X142926667Y-108720476D01*
X142831429Y-108768095D01*
X142783810Y-108815714D01*
X142736190Y-108910952D01*
X142688571Y-109101429D01*
X142640952Y-109196667D01*
X142593333Y-109244286D01*
X142498095Y-109291905D01*
X142402857Y-109291905D01*
X142307619Y-109244286D01*
X142260000Y-109196667D01*
X142212381Y-109101429D01*
X142212381Y-108863333D01*
X142260000Y-108720476D01*
X142688571Y-108291905D02*
X142688571Y-107958571D01*
X143212381Y-107815714D02*
X143212381Y-108291905D01*
X142212381Y-108291905D01*
X142212381Y-107815714D01*
X142260000Y-106863333D02*
X142212381Y-106958571D01*
X142212381Y-107101428D01*
X142260000Y-107244286D01*
X142355238Y-107339524D01*
X142450476Y-107387143D01*
X142640952Y-107434762D01*
X142783810Y-107434762D01*
X142974286Y-107387143D01*
X143069524Y-107339524D01*
X143164762Y-107244286D01*
X143212381Y-107101428D01*
X143212381Y-107006190D01*
X143164762Y-106863333D01*
X143117143Y-106815714D01*
X142783810Y-106815714D01*
X142783810Y-107006190D01*
X137453810Y-97862381D02*
X136882381Y-97862381D01*
X137168095Y-97862381D02*
X137168095Y-96862381D01*
X137072857Y-97005238D01*
X136977619Y-97100476D01*
X136882381Y-97148095D01*
X137882381Y-97862381D02*
X137882381Y-96862381D01*
X137977619Y-97481429D02*
X138263334Y-97862381D01*
X138263334Y-97195714D02*
X137882381Y-97576667D01*
X138453810Y-97957619D02*
X139215715Y-97957619D01*
X139644286Y-96862381D02*
X139739525Y-96862381D01*
X139834763Y-96910000D01*
X139882382Y-96957619D01*
X139930001Y-97052857D01*
X139977620Y-97243333D01*
X139977620Y-97481429D01*
X139930001Y-97671905D01*
X139882382Y-97767143D01*
X139834763Y-97814762D01*
X139739525Y-97862381D01*
X139644286Y-97862381D01*
X139549048Y-97814762D01*
X139501429Y-97767143D01*
X139453810Y-97671905D01*
X139406191Y-97481429D01*
X139406191Y-97243333D01*
X139453810Y-97052857D01*
X139501429Y-96957619D01*
X139549048Y-96910000D01*
X139644286Y-96862381D01*
X137453810Y-101672381D02*
X136882381Y-101672381D01*
X137168095Y-101672381D02*
X137168095Y-100672381D01*
X137072857Y-100815238D01*
X136977619Y-100910476D01*
X136882381Y-100958095D01*
X137882381Y-101672381D02*
X137882381Y-100672381D01*
X137977619Y-101291429D02*
X138263334Y-101672381D01*
X138263334Y-101005714D02*
X137882381Y-101386667D01*
X138453810Y-101767619D02*
X139215715Y-101767619D01*
X139977620Y-101672381D02*
X139406191Y-101672381D01*
X139691905Y-101672381D02*
X139691905Y-100672381D01*
X139596667Y-100815238D01*
X139501429Y-100910476D01*
X139406191Y-100958095D01*
X137453810Y-105482381D02*
X136882381Y-105482381D01*
X137168095Y-105482381D02*
X137168095Y-104482381D01*
X137072857Y-104625238D01*
X136977619Y-104720476D01*
X136882381Y-104768095D01*
X137882381Y-105482381D02*
X137882381Y-104482381D01*
X137977619Y-105101429D02*
X138263334Y-105482381D01*
X138263334Y-104815714D02*
X137882381Y-105196667D01*
X138453810Y-105577619D02*
X139215715Y-105577619D01*
X139406191Y-104577619D02*
X139453810Y-104530000D01*
X139549048Y-104482381D01*
X139787144Y-104482381D01*
X139882382Y-104530000D01*
X139930001Y-104577619D01*
X139977620Y-104672857D01*
X139977620Y-104768095D01*
X139930001Y-104910952D01*
X139358572Y-105482381D01*
X139977620Y-105482381D01*
X137453810Y-109292381D02*
X136882381Y-109292381D01*
X137168095Y-109292381D02*
X137168095Y-108292381D01*
X137072857Y-108435238D01*
X136977619Y-108530476D01*
X136882381Y-108578095D01*
X137882381Y-109292381D02*
X137882381Y-108292381D01*
X137977619Y-108911429D02*
X138263334Y-109292381D01*
X138263334Y-108625714D02*
X137882381Y-109006667D01*
X138453810Y-109387619D02*
X139215715Y-109387619D01*
X139358572Y-108292381D02*
X139977620Y-108292381D01*
X139644286Y-108673333D01*
X139787144Y-108673333D01*
X139882382Y-108720952D01*
X139930001Y-108768571D01*
X139977620Y-108863810D01*
X139977620Y-109101905D01*
X139930001Y-109197143D01*
X139882382Y-109244762D01*
X139787144Y-109292381D01*
X139501429Y-109292381D01*
X139406191Y-109244762D01*
X139358572Y-109197143D01*
X137453810Y-113102381D02*
X136882381Y-113102381D01*
X137168095Y-113102381D02*
X137168095Y-112102381D01*
X137072857Y-112245238D01*
X136977619Y-112340476D01*
X136882381Y-112388095D01*
X137882381Y-113102381D02*
X137882381Y-112102381D01*
X137977619Y-112721429D02*
X138263334Y-113102381D01*
X138263334Y-112435714D02*
X137882381Y-112816667D01*
X138453810Y-113197619D02*
X139215715Y-113197619D01*
X139882382Y-112435714D02*
X139882382Y-113102381D01*
X139644286Y-112054762D02*
X139406191Y-112769048D01*
X140025239Y-112769048D01*
X137453810Y-116912381D02*
X136882381Y-116912381D01*
X137168095Y-116912381D02*
X137168095Y-115912381D01*
X137072857Y-116055238D01*
X136977619Y-116150476D01*
X136882381Y-116198095D01*
X137882381Y-116912381D02*
X137882381Y-115912381D01*
X137977619Y-116531429D02*
X138263334Y-116912381D01*
X138263334Y-116245714D02*
X137882381Y-116626667D01*
X138453810Y-117007619D02*
X139215715Y-117007619D01*
X139930001Y-115912381D02*
X139453810Y-115912381D01*
X139406191Y-116388571D01*
X139453810Y-116340952D01*
X139549048Y-116293333D01*
X139787144Y-116293333D01*
X139882382Y-116340952D01*
X139930001Y-116388571D01*
X139977620Y-116483810D01*
X139977620Y-116721905D01*
X139930001Y-116817143D01*
X139882382Y-116864762D01*
X139787144Y-116912381D01*
X139549048Y-116912381D01*
X139453810Y-116864762D01*
X139406191Y-116817143D01*
X137453810Y-120722381D02*
X136882381Y-120722381D01*
X137168095Y-120722381D02*
X137168095Y-119722381D01*
X137072857Y-119865238D01*
X136977619Y-119960476D01*
X136882381Y-120008095D01*
X137882381Y-120722381D02*
X137882381Y-119722381D01*
X137977619Y-120341429D02*
X138263334Y-120722381D01*
X138263334Y-120055714D02*
X137882381Y-120436667D01*
X138453810Y-120817619D02*
X139215715Y-120817619D01*
X139882382Y-119722381D02*
X139691905Y-119722381D01*
X139596667Y-119770000D01*
X139549048Y-119817619D01*
X139453810Y-119960476D01*
X139406191Y-120150952D01*
X139406191Y-120531905D01*
X139453810Y-120627143D01*
X139501429Y-120674762D01*
X139596667Y-120722381D01*
X139787144Y-120722381D01*
X139882382Y-120674762D01*
X139930001Y-120627143D01*
X139977620Y-120531905D01*
X139977620Y-120293810D01*
X139930001Y-120198571D01*
X139882382Y-120150952D01*
X139787144Y-120103333D01*
X139596667Y-120103333D01*
X139501429Y-120150952D01*
X139453810Y-120198571D01*
X139406191Y-120293810D01*
X137453810Y-124532381D02*
X136882381Y-124532381D01*
X137168095Y-124532381D02*
X137168095Y-123532381D01*
X137072857Y-123675238D01*
X136977619Y-123770476D01*
X136882381Y-123818095D01*
X137882381Y-124532381D02*
X137882381Y-123532381D01*
X137977619Y-124151429D02*
X138263334Y-124532381D01*
X138263334Y-123865714D02*
X137882381Y-124246667D01*
X138453810Y-124627619D02*
X139215715Y-124627619D01*
X139358572Y-123532381D02*
X140025239Y-123532381D01*
X139596667Y-124532381D01*
X130960953Y-98062381D02*
X130484762Y-98062381D01*
X130484762Y-97062381D01*
X131294286Y-97538571D02*
X131627620Y-97538571D01*
X131770477Y-98062381D02*
X131294286Y-98062381D01*
X131294286Y-97062381D01*
X131770477Y-97062381D01*
X132199048Y-98062381D02*
X132199048Y-97062381D01*
X132437143Y-97062381D01*
X132580001Y-97110000D01*
X132675239Y-97205238D01*
X132722858Y-97300476D01*
X132770477Y-97490952D01*
X132770477Y-97633810D01*
X132722858Y-97824286D01*
X132675239Y-97919524D01*
X132580001Y-98014762D01*
X132437143Y-98062381D01*
X132199048Y-98062381D01*
X133389524Y-97062381D02*
X133484763Y-97062381D01*
X133580001Y-97110000D01*
X133627620Y-97157619D01*
X133675239Y-97252857D01*
X133722858Y-97443333D01*
X133722858Y-97681429D01*
X133675239Y-97871905D01*
X133627620Y-97967143D01*
X133580001Y-98014762D01*
X133484763Y-98062381D01*
X133389524Y-98062381D01*
X133294286Y-98014762D01*
X133246667Y-97967143D01*
X133199048Y-97871905D01*
X133151429Y-97681429D01*
X133151429Y-97443333D01*
X133199048Y-97252857D01*
X133246667Y-97157619D01*
X133294286Y-97110000D01*
X133389524Y-97062381D01*
X130960953Y-101872381D02*
X130484762Y-101872381D01*
X130484762Y-100872381D01*
X131294286Y-101348571D02*
X131627620Y-101348571D01*
X131770477Y-101872381D02*
X131294286Y-101872381D01*
X131294286Y-100872381D01*
X131770477Y-100872381D01*
X132199048Y-101872381D02*
X132199048Y-100872381D01*
X132437143Y-100872381D01*
X132580001Y-100920000D01*
X132675239Y-101015238D01*
X132722858Y-101110476D01*
X132770477Y-101300952D01*
X132770477Y-101443810D01*
X132722858Y-101634286D01*
X132675239Y-101729524D01*
X132580001Y-101824762D01*
X132437143Y-101872381D01*
X132199048Y-101872381D01*
X133722858Y-101872381D02*
X133151429Y-101872381D01*
X133437143Y-101872381D02*
X133437143Y-100872381D01*
X133341905Y-101015238D01*
X133246667Y-101110476D01*
X133151429Y-101158095D01*
X130960953Y-105682381D02*
X130484762Y-105682381D01*
X130484762Y-104682381D01*
X131294286Y-105158571D02*
X131627620Y-105158571D01*
X131770477Y-105682381D02*
X131294286Y-105682381D01*
X131294286Y-104682381D01*
X131770477Y-104682381D01*
X132199048Y-105682381D02*
X132199048Y-104682381D01*
X132437143Y-104682381D01*
X132580001Y-104730000D01*
X132675239Y-104825238D01*
X132722858Y-104920476D01*
X132770477Y-105110952D01*
X132770477Y-105253810D01*
X132722858Y-105444286D01*
X132675239Y-105539524D01*
X132580001Y-105634762D01*
X132437143Y-105682381D01*
X132199048Y-105682381D01*
X133151429Y-104777619D02*
X133199048Y-104730000D01*
X133294286Y-104682381D01*
X133532382Y-104682381D01*
X133627620Y-104730000D01*
X133675239Y-104777619D01*
X133722858Y-104872857D01*
X133722858Y-104968095D01*
X133675239Y-105110952D01*
X133103810Y-105682381D01*
X133722858Y-105682381D01*
X130960953Y-109492381D02*
X130484762Y-109492381D01*
X130484762Y-108492381D01*
X131294286Y-108968571D02*
X131627620Y-108968571D01*
X131770477Y-109492381D02*
X131294286Y-109492381D01*
X131294286Y-108492381D01*
X131770477Y-108492381D01*
X132199048Y-109492381D02*
X132199048Y-108492381D01*
X132437143Y-108492381D01*
X132580001Y-108540000D01*
X132675239Y-108635238D01*
X132722858Y-108730476D01*
X132770477Y-108920952D01*
X132770477Y-109063810D01*
X132722858Y-109254286D01*
X132675239Y-109349524D01*
X132580001Y-109444762D01*
X132437143Y-109492381D01*
X132199048Y-109492381D01*
X133103810Y-108492381D02*
X133722858Y-108492381D01*
X133389524Y-108873333D01*
X133532382Y-108873333D01*
X133627620Y-108920952D01*
X133675239Y-108968571D01*
X133722858Y-109063810D01*
X133722858Y-109301905D01*
X133675239Y-109397143D01*
X133627620Y-109444762D01*
X133532382Y-109492381D01*
X133246667Y-109492381D01*
X133151429Y-109444762D01*
X133103810Y-109397143D01*
X130960953Y-113302381D02*
X130484762Y-113302381D01*
X130484762Y-112302381D01*
X131294286Y-112778571D02*
X131627620Y-112778571D01*
X131770477Y-113302381D02*
X131294286Y-113302381D01*
X131294286Y-112302381D01*
X131770477Y-112302381D01*
X132199048Y-113302381D02*
X132199048Y-112302381D01*
X132437143Y-112302381D01*
X132580001Y-112350000D01*
X132675239Y-112445238D01*
X132722858Y-112540476D01*
X132770477Y-112730952D01*
X132770477Y-112873810D01*
X132722858Y-113064286D01*
X132675239Y-113159524D01*
X132580001Y-113254762D01*
X132437143Y-113302381D01*
X132199048Y-113302381D01*
X133627620Y-112635714D02*
X133627620Y-113302381D01*
X133389524Y-112254762D02*
X133151429Y-112969048D01*
X133770477Y-112969048D01*
X130960953Y-117112381D02*
X130484762Y-117112381D01*
X130484762Y-116112381D01*
X131294286Y-116588571D02*
X131627620Y-116588571D01*
X131770477Y-117112381D02*
X131294286Y-117112381D01*
X131294286Y-116112381D01*
X131770477Y-116112381D01*
X132199048Y-117112381D02*
X132199048Y-116112381D01*
X132437143Y-116112381D01*
X132580001Y-116160000D01*
X132675239Y-116255238D01*
X132722858Y-116350476D01*
X132770477Y-116540952D01*
X132770477Y-116683810D01*
X132722858Y-116874286D01*
X132675239Y-116969524D01*
X132580001Y-117064762D01*
X132437143Y-117112381D01*
X132199048Y-117112381D01*
X133675239Y-116112381D02*
X133199048Y-116112381D01*
X133151429Y-116588571D01*
X133199048Y-116540952D01*
X133294286Y-116493333D01*
X133532382Y-116493333D01*
X133627620Y-116540952D01*
X133675239Y-116588571D01*
X133722858Y-116683810D01*
X133722858Y-116921905D01*
X133675239Y-117017143D01*
X133627620Y-117064762D01*
X133532382Y-117112381D01*
X133294286Y-117112381D01*
X133199048Y-117064762D01*
X133151429Y-117017143D01*
X130960953Y-120922381D02*
X130484762Y-120922381D01*
X130484762Y-119922381D01*
X131294286Y-120398571D02*
X131627620Y-120398571D01*
X131770477Y-120922381D02*
X131294286Y-120922381D01*
X131294286Y-119922381D01*
X131770477Y-119922381D01*
X132199048Y-120922381D02*
X132199048Y-119922381D01*
X132437143Y-119922381D01*
X132580001Y-119970000D01*
X132675239Y-120065238D01*
X132722858Y-120160476D01*
X132770477Y-120350952D01*
X132770477Y-120493810D01*
X132722858Y-120684286D01*
X132675239Y-120779524D01*
X132580001Y-120874762D01*
X132437143Y-120922381D01*
X132199048Y-120922381D01*
X133627620Y-119922381D02*
X133437143Y-119922381D01*
X133341905Y-119970000D01*
X133294286Y-120017619D01*
X133199048Y-120160476D01*
X133151429Y-120350952D01*
X133151429Y-120731905D01*
X133199048Y-120827143D01*
X133246667Y-120874762D01*
X133341905Y-120922381D01*
X133532382Y-120922381D01*
X133627620Y-120874762D01*
X133675239Y-120827143D01*
X133722858Y-120731905D01*
X133722858Y-120493810D01*
X133675239Y-120398571D01*
X133627620Y-120350952D01*
X133532382Y-120303333D01*
X133341905Y-120303333D01*
X133246667Y-120350952D01*
X133199048Y-120398571D01*
X133151429Y-120493810D01*
X130960953Y-124732381D02*
X130484762Y-124732381D01*
X130484762Y-123732381D01*
X131294286Y-124208571D02*
X131627620Y-124208571D01*
X131770477Y-124732381D02*
X131294286Y-124732381D01*
X131294286Y-123732381D01*
X131770477Y-123732381D01*
X132199048Y-124732381D02*
X132199048Y-123732381D01*
X132437143Y-123732381D01*
X132580001Y-123780000D01*
X132675239Y-123875238D01*
X132722858Y-123970476D01*
X132770477Y-124160952D01*
X132770477Y-124303810D01*
X132722858Y-124494286D01*
X132675239Y-124589524D01*
X132580001Y-124684762D01*
X132437143Y-124732381D01*
X132199048Y-124732381D01*
X133103810Y-123732381D02*
X133770477Y-123732381D01*
X133341905Y-124732381D01*
X127548095Y-143962381D02*
X127548095Y-142962381D01*
X127881429Y-143676667D01*
X128214762Y-142962381D01*
X128214762Y-143962381D01*
X128452857Y-144057619D02*
X129214762Y-144057619D01*
X129452857Y-143962381D02*
X129452857Y-142962381D01*
X129833810Y-142962381D01*
X129929048Y-143010000D01*
X129976667Y-143057619D01*
X130024286Y-143152857D01*
X130024286Y-143295714D01*
X129976667Y-143390952D01*
X129929048Y-143438571D01*
X129833810Y-143486190D01*
X129452857Y-143486190D01*
X130643333Y-142962381D02*
X130833810Y-142962381D01*
X130929048Y-143010000D01*
X131024286Y-143105238D01*
X131071905Y-143295714D01*
X131071905Y-143629048D01*
X131024286Y-143819524D01*
X130929048Y-143914762D01*
X130833810Y-143962381D01*
X130643333Y-143962381D01*
X130548095Y-143914762D01*
X130452857Y-143819524D01*
X130405238Y-143629048D01*
X130405238Y-143295714D01*
X130452857Y-143105238D01*
X130548095Y-143010000D01*
X130643333Y-142962381D01*
X131405238Y-142962381D02*
X131643333Y-143962381D01*
X131833810Y-143248095D01*
X132024286Y-143962381D01*
X132262381Y-142962381D01*
X132643333Y-143438571D02*
X132976667Y-143438571D01*
X133119524Y-143962381D02*
X132643333Y-143962381D01*
X132643333Y-142962381D01*
X133119524Y-142962381D01*
X134119524Y-143962381D02*
X133786190Y-143486190D01*
X133548095Y-143962381D02*
X133548095Y-142962381D01*
X133929048Y-142962381D01*
X134024286Y-143010000D01*
X134071905Y-143057619D01*
X134119524Y-143152857D01*
X134119524Y-143295714D01*
X134071905Y-143390952D01*
X134024286Y-143438571D01*
X133929048Y-143486190D01*
X133548095Y-143486190D01*
X154011619Y-123785381D02*
X154583048Y-123785381D01*
X154297333Y-124785381D02*
X154297333Y-123785381D01*
X154916381Y-124785381D02*
X154916381Y-123785381D01*
X155392571Y-124785381D02*
X155392571Y-123785381D01*
X155773524Y-123785381D01*
X155868762Y-123833000D01*
X155916381Y-123880619D01*
X155964000Y-123975857D01*
X155964000Y-124118714D01*
X155916381Y-124213952D01*
X155868762Y-124261571D01*
X155773524Y-124309190D01*
X155392571Y-124309190D01*
X156916381Y-124785381D02*
X156344952Y-124785381D01*
X156630666Y-124785381D02*
X156630666Y-123785381D01*
X156535428Y-123928238D01*
X156440190Y-124023476D01*
X156344952Y-124071095D01*
X157868762Y-124785381D02*
X157297333Y-124785381D01*
X157583047Y-124785381D02*
X157583047Y-123785381D01*
X157487809Y-123928238D01*
X157392571Y-124023476D01*
X157297333Y-124071095D01*
X158773524Y-123785381D02*
X158297333Y-123785381D01*
X158249714Y-124261571D01*
X158297333Y-124213952D01*
X158392571Y-124166333D01*
X158630667Y-124166333D01*
X158725905Y-124213952D01*
X158773524Y-124261571D01*
X158821143Y-124356810D01*
X158821143Y-124594905D01*
X158773524Y-124690143D01*
X158725905Y-124737762D01*
X158630667Y-124785381D01*
X158392571Y-124785381D01*
X158297333Y-124737762D01*
X158249714Y-124690143D01*
X141263810Y-124532381D02*
X140692381Y-124532381D01*
X140978095Y-124532381D02*
X140978095Y-123532381D01*
X140882857Y-123675238D01*
X140787619Y-123770476D01*
X140692381Y-123818095D01*
X141692381Y-124532381D02*
X141692381Y-123532381D01*
X141787619Y-124151429D02*
X142073334Y-124532381D01*
X142073334Y-123865714D02*
X141692381Y-124246667D01*
X142263810Y-124627619D02*
X143025715Y-124627619D01*
X143406667Y-123960952D02*
X143311429Y-123913333D01*
X143263810Y-123865714D01*
X143216191Y-123770476D01*
X143216191Y-123722857D01*
X143263810Y-123627619D01*
X143311429Y-123580000D01*
X143406667Y-123532381D01*
X143597144Y-123532381D01*
X143692382Y-123580000D01*
X143740001Y-123627619D01*
X143787620Y-123722857D01*
X143787620Y-123770476D01*
X143740001Y-123865714D01*
X143692382Y-123913333D01*
X143597144Y-123960952D01*
X143406667Y-123960952D01*
X143311429Y-124008571D01*
X143263810Y-124056190D01*
X143216191Y-124151429D01*
X143216191Y-124341905D01*
X143263810Y-124437143D01*
X143311429Y-124484762D01*
X143406667Y-124532381D01*
X143597144Y-124532381D01*
X143692382Y-124484762D01*
X143740001Y-124437143D01*
X143787620Y-124341905D01*
X143787620Y-124151429D01*
X143740001Y-124056190D01*
X143692382Y-124008571D01*
X143597144Y-123960952D01*
X141501905Y-142732381D02*
X141501905Y-141732381D01*
X141740000Y-141732381D01*
X141882858Y-141780000D01*
X141978096Y-141875238D01*
X142025715Y-141970476D01*
X142073334Y-142160952D01*
X142073334Y-142303810D01*
X142025715Y-142494286D01*
X141978096Y-142589524D01*
X141882858Y-142684762D01*
X141740000Y-142732381D01*
X141501905Y-142732381D01*
X143025715Y-142732381D02*
X142454286Y-142732381D01*
X142740000Y-142732381D02*
X142740000Y-141732381D01*
X142644762Y-141875238D01*
X142549524Y-141970476D01*
X142454286Y-142018095D01*
X144240619Y-112974381D02*
X144240619Y-111974381D01*
X144621572Y-111974381D01*
X144716810Y-112022000D01*
X144764429Y-112069619D01*
X144812048Y-112164857D01*
X144812048Y-112307714D01*
X144764429Y-112402952D01*
X144716810Y-112450571D01*
X144621572Y-112498190D01*
X144240619Y-112498190D01*
X145193000Y-112688667D02*
X145669191Y-112688667D01*
X145097762Y-112974381D02*
X145431095Y-111974381D01*
X145764429Y-112974381D01*
X146288238Y-111974381D02*
X146383477Y-111974381D01*
X146478715Y-112022000D01*
X146526334Y-112069619D01*
X146573953Y-112164857D01*
X146621572Y-112355333D01*
X146621572Y-112593429D01*
X146573953Y-112783905D01*
X146526334Y-112879143D01*
X146478715Y-112926762D01*
X146383477Y-112974381D01*
X146288238Y-112974381D01*
X146193000Y-112926762D01*
X146145381Y-112879143D01*
X146097762Y-112783905D01*
X146050143Y-112593429D01*
X146050143Y-112355333D01*
X146097762Y-112164857D01*
X146145381Y-112069619D01*
X146193000Y-112022000D01*
X146288238Y-111974381D01*
X146812048Y-113069619D02*
X147573953Y-113069619D01*
X147812048Y-112974381D02*
X147812048Y-111974381D01*
X148193001Y-111974381D01*
X148288239Y-112022000D01*
X148335858Y-112069619D01*
X148383477Y-112164857D01*
X148383477Y-112307714D01*
X148335858Y-112402952D01*
X148288239Y-112450571D01*
X148193001Y-112498190D01*
X147812048Y-112498190D01*
X149002524Y-111974381D02*
X149193001Y-111974381D01*
X149288239Y-112022000D01*
X149383477Y-112117238D01*
X149431096Y-112307714D01*
X149431096Y-112641048D01*
X149383477Y-112831524D01*
X149288239Y-112926762D01*
X149193001Y-112974381D01*
X149002524Y-112974381D01*
X148907286Y-112926762D01*
X148812048Y-112831524D01*
X148764429Y-112641048D01*
X148764429Y-112307714D01*
X148812048Y-112117238D01*
X148907286Y-112022000D01*
X149002524Y-111974381D01*
X149716810Y-111974381D02*
X150288239Y-111974381D01*
X150002524Y-112974381D02*
X150002524Y-111974381D01*
X157005381Y-95511429D02*
X156005381Y-95511429D01*
X156005381Y-95130476D01*
X156053000Y-95035238D01*
X156100619Y-94987619D01*
X156195857Y-94940000D01*
X156338714Y-94940000D01*
X156433952Y-94987619D01*
X156481571Y-95035238D01*
X156529190Y-95130476D01*
X156529190Y-95511429D01*
X156005381Y-94320953D02*
X156005381Y-94130476D01*
X156053000Y-94035238D01*
X156148238Y-93940000D01*
X156338714Y-93892381D01*
X156672048Y-93892381D01*
X156862524Y-93940000D01*
X156957762Y-94035238D01*
X157005381Y-94130476D01*
X157005381Y-94320953D01*
X156957762Y-94416191D01*
X156862524Y-94511429D01*
X156672048Y-94559048D01*
X156338714Y-94559048D01*
X156148238Y-94511429D01*
X156053000Y-94416191D01*
X156005381Y-94320953D01*
X157005381Y-92892381D02*
X156529190Y-93225715D01*
X157005381Y-93463810D02*
X156005381Y-93463810D01*
X156005381Y-93082857D01*
X156053000Y-92987619D01*
X156100619Y-92940000D01*
X156195857Y-92892381D01*
X156338714Y-92892381D01*
X156433952Y-92940000D01*
X156481571Y-92987619D01*
X156529190Y-93082857D01*
X156529190Y-93463810D01*
X156005381Y-92606667D02*
X156005381Y-92035238D01*
X157005381Y-92320953D02*
X156005381Y-92320953D01*
X156481571Y-91368571D02*
X156529190Y-91225714D01*
X156576810Y-91178095D01*
X156672048Y-91130476D01*
X156814905Y-91130476D01*
X156910143Y-91178095D01*
X156957762Y-91225714D01*
X157005381Y-91320952D01*
X157005381Y-91701905D01*
X156005381Y-91701905D01*
X156005381Y-91368571D01*
X156053000Y-91273333D01*
X156100619Y-91225714D01*
X156195857Y-91178095D01*
X156291095Y-91178095D01*
X156386333Y-91225714D01*
X156433952Y-91273333D01*
X156481571Y-91368571D01*
X156481571Y-91701905D01*
X157100619Y-90940000D02*
X157100619Y-90178095D01*
X156957762Y-89987619D02*
X157005381Y-89844762D01*
X157005381Y-89606666D01*
X156957762Y-89511428D01*
X156910143Y-89463809D01*
X156814905Y-89416190D01*
X156719667Y-89416190D01*
X156624429Y-89463809D01*
X156576810Y-89511428D01*
X156529190Y-89606666D01*
X156481571Y-89797143D01*
X156433952Y-89892381D01*
X156386333Y-89940000D01*
X156291095Y-89987619D01*
X156195857Y-89987619D01*
X156100619Y-89940000D01*
X156053000Y-89892381D01*
X156005381Y-89797143D01*
X156005381Y-89559047D01*
X156053000Y-89416190D01*
X156005381Y-89082857D02*
X157005381Y-88844762D01*
X156291095Y-88654285D01*
X157005381Y-88463809D01*
X156005381Y-88225714D01*
X156005381Y-87654286D02*
X156005381Y-87559047D01*
X156053000Y-87463809D01*
X156100619Y-87416190D01*
X156195857Y-87368571D01*
X156386333Y-87320952D01*
X156624429Y-87320952D01*
X156814905Y-87368571D01*
X156910143Y-87416190D01*
X156957762Y-87463809D01*
X157005381Y-87559047D01*
X157005381Y-87654286D01*
X156957762Y-87749524D01*
X156910143Y-87797143D01*
X156814905Y-87844762D01*
X156624429Y-87892381D01*
X156386333Y-87892381D01*
X156195857Y-87844762D01*
X156100619Y-87797143D01*
X156053000Y-87749524D01*
X156005381Y-87654286D01*
X160814404Y-138072762D02*
X160957261Y-138120381D01*
X161195357Y-138120381D01*
X161290595Y-138072762D01*
X161338214Y-138025143D01*
X161385833Y-137929905D01*
X161385833Y-137834667D01*
X161338214Y-137739429D01*
X161290595Y-137691810D01*
X161195357Y-137644190D01*
X161004880Y-137596571D01*
X160909642Y-137548952D01*
X160862023Y-137501333D01*
X160814404Y-137406095D01*
X160814404Y-137310857D01*
X160862023Y-137215619D01*
X160909642Y-137168000D01*
X161004880Y-137120381D01*
X161242976Y-137120381D01*
X161385833Y-137168000D01*
X161671547Y-137453714D02*
X162052499Y-137453714D01*
X161814404Y-137120381D02*
X161814404Y-137977524D01*
X161862023Y-138072762D01*
X161957261Y-138120381D01*
X162052499Y-138120381D01*
X162766786Y-138072762D02*
X162671548Y-138120381D01*
X162481071Y-138120381D01*
X162385833Y-138072762D01*
X162338214Y-137977524D01*
X162338214Y-137596571D01*
X162385833Y-137501333D01*
X162481071Y-137453714D01*
X162671548Y-137453714D01*
X162766786Y-137501333D01*
X162814405Y-137596571D01*
X162814405Y-137691810D01*
X162338214Y-137787048D01*
X163242976Y-137453714D02*
X163242976Y-138453714D01*
X163242976Y-137501333D02*
X163338214Y-137453714D01*
X163528691Y-137453714D01*
X163623929Y-137501333D01*
X163671548Y-137548952D01*
X163719167Y-137644190D01*
X163719167Y-137929905D01*
X163671548Y-138025143D01*
X163623929Y-138072762D01*
X163528691Y-138120381D01*
X163338214Y-138120381D01*
X163242976Y-138072762D01*
X164147738Y-137453714D02*
X164147738Y-138453714D01*
X164147738Y-137501333D02*
X164242976Y-137453714D01*
X164433453Y-137453714D01*
X164528691Y-137501333D01*
X164576310Y-137548952D01*
X164623929Y-137644190D01*
X164623929Y-137929905D01*
X164576310Y-138025143D01*
X164528691Y-138072762D01*
X164433453Y-138120381D01*
X164242976Y-138120381D01*
X164147738Y-138072762D01*
X165433453Y-138072762D02*
X165338215Y-138120381D01*
X165147738Y-138120381D01*
X165052500Y-138072762D01*
X165004881Y-137977524D01*
X165004881Y-137596571D01*
X165052500Y-137501333D01*
X165147738Y-137453714D01*
X165338215Y-137453714D01*
X165433453Y-137501333D01*
X165481072Y-137596571D01*
X165481072Y-137691810D01*
X165004881Y-137787048D01*
X165909643Y-138120381D02*
X165909643Y-137453714D01*
X165909643Y-137644190D02*
X165957262Y-137548952D01*
X166004881Y-137501333D01*
X166100119Y-137453714D01*
X166195358Y-137453714D01*
X166290596Y-138215619D02*
X167052501Y-138215619D01*
X167290596Y-138120381D02*
X167290596Y-137120381D01*
X167671549Y-137120381D01*
X167766787Y-137168000D01*
X167814406Y-137215619D01*
X167862025Y-137310857D01*
X167862025Y-137453714D01*
X167814406Y-137548952D01*
X167766787Y-137596571D01*
X167671549Y-137644190D01*
X167290596Y-137644190D01*
X168433453Y-138120381D02*
X168338215Y-138072762D01*
X168290596Y-138025143D01*
X168242977Y-137929905D01*
X168242977Y-137644190D01*
X168290596Y-137548952D01*
X168338215Y-137501333D01*
X168433453Y-137453714D01*
X168576311Y-137453714D01*
X168671549Y-137501333D01*
X168719168Y-137548952D01*
X168766787Y-137644190D01*
X168766787Y-137929905D01*
X168719168Y-138025143D01*
X168671549Y-138072762D01*
X168576311Y-138120381D01*
X168433453Y-138120381D01*
X169100120Y-137453714D02*
X169290596Y-138120381D01*
X169481073Y-137644190D01*
X169671549Y-138120381D01*
X169862025Y-137453714D01*
X170623930Y-138072762D02*
X170528692Y-138120381D01*
X170338215Y-138120381D01*
X170242977Y-138072762D01*
X170195358Y-137977524D01*
X170195358Y-137596571D01*
X170242977Y-137501333D01*
X170338215Y-137453714D01*
X170528692Y-137453714D01*
X170623930Y-137501333D01*
X170671549Y-137596571D01*
X170671549Y-137691810D01*
X170195358Y-137787048D01*
X171100120Y-138120381D02*
X171100120Y-137453714D01*
X171100120Y-137644190D02*
X171147739Y-137548952D01*
X171195358Y-137501333D01*
X171290596Y-137453714D01*
X171385835Y-137453714D01*
X172577476Y-117292381D02*
X172577476Y-116292381D01*
X172958429Y-116292381D01*
X173053667Y-116340000D01*
X173101286Y-116387619D01*
X173148905Y-116482857D01*
X173148905Y-116625714D01*
X173101286Y-116720952D01*
X173053667Y-116768571D01*
X172958429Y-116816190D01*
X172577476Y-116816190D01*
X173577476Y-117292381D02*
X173577476Y-116292381D01*
X174053666Y-117292381D02*
X174053666Y-116292381D01*
X174625095Y-117292381D01*
X174625095Y-116292381D01*
X175625095Y-116340000D02*
X175529857Y-116292381D01*
X175387000Y-116292381D01*
X175244142Y-116340000D01*
X175148904Y-116435238D01*
X175101285Y-116530476D01*
X175053666Y-116720952D01*
X175053666Y-116863810D01*
X175101285Y-117054286D01*
X175148904Y-117149524D01*
X175244142Y-117244762D01*
X175387000Y-117292381D01*
X175482238Y-117292381D01*
X175625095Y-117244762D01*
X175672714Y-117197143D01*
X175672714Y-116863810D01*
X175482238Y-116863810D01*
X175863190Y-117387619D02*
X176625095Y-117387619D01*
X177339381Y-116292381D02*
X176863190Y-116292381D01*
X176815571Y-116768571D01*
X176863190Y-116720952D01*
X176958428Y-116673333D01*
X177196524Y-116673333D01*
X177291762Y-116720952D01*
X177339381Y-116768571D01*
X177387000Y-116863810D01*
X177387000Y-117101905D01*
X177339381Y-117197143D01*
X177291762Y-117244762D01*
X177196524Y-117292381D01*
X176958428Y-117292381D01*
X176863190Y-117244762D01*
X176815571Y-117197143D01*
X177672714Y-116292381D02*
X178006047Y-117292381D01*
X178339381Y-116292381D01*
X130366000Y-84780381D02*
X130366000Y-83780381D01*
X130746953Y-83780381D01*
X130842191Y-83828000D01*
X130889810Y-83875619D01*
X130937429Y-83970857D01*
X130937429Y-84113714D01*
X130889810Y-84208952D01*
X130842191Y-84256571D01*
X130746953Y-84304190D01*
X130366000Y-84304190D01*
X131556476Y-83780381D02*
X131746953Y-83780381D01*
X131842191Y-83828000D01*
X131937429Y-83923238D01*
X131985048Y-84113714D01*
X131985048Y-84447048D01*
X131937429Y-84637524D01*
X131842191Y-84732762D01*
X131746953Y-84780381D01*
X131556476Y-84780381D01*
X131461238Y-84732762D01*
X131366000Y-84637524D01*
X131318381Y-84447048D01*
X131318381Y-84113714D01*
X131366000Y-83923238D01*
X131461238Y-83828000D01*
X131556476Y-83780381D01*
X132985048Y-84780381D02*
X132651714Y-84304190D01*
X132413619Y-84780381D02*
X132413619Y-83780381D01*
X132794572Y-83780381D01*
X132889810Y-83828000D01*
X132937429Y-83875619D01*
X132985048Y-83970857D01*
X132985048Y-84113714D01*
X132937429Y-84208952D01*
X132889810Y-84256571D01*
X132794572Y-84304190D01*
X132413619Y-84304190D01*
X133270762Y-83780381D02*
X133842191Y-83780381D01*
X133556476Y-84780381D02*
X133556476Y-83780381D01*
X134127905Y-84494667D02*
X134604096Y-84494667D01*
X134032667Y-84780381D02*
X134366000Y-83780381D01*
X134699334Y-84780381D01*
X134794572Y-84875619D02*
X135556477Y-84875619D01*
X135746953Y-84732762D02*
X135889810Y-84780381D01*
X136127906Y-84780381D01*
X136223144Y-84732762D01*
X136270763Y-84685143D01*
X136318382Y-84589905D01*
X136318382Y-84494667D01*
X136270763Y-84399429D01*
X136223144Y-84351810D01*
X136127906Y-84304190D01*
X135937429Y-84256571D01*
X135842191Y-84208952D01*
X135794572Y-84161333D01*
X135746953Y-84066095D01*
X135746953Y-83970857D01*
X135794572Y-83875619D01*
X135842191Y-83828000D01*
X135937429Y-83780381D01*
X136175525Y-83780381D01*
X136318382Y-83828000D01*
X136651715Y-83780381D02*
X136889810Y-84780381D01*
X137080287Y-84066095D01*
X137270763Y-84780381D01*
X137508858Y-83780381D01*
X138413620Y-84780381D02*
X137842191Y-84780381D01*
X138127905Y-84780381D02*
X138127905Y-83780381D01*
X138032667Y-83923238D01*
X137937429Y-84018476D01*
X137842191Y-84066095D01*
M02*
