G04 #@! TF.FileFunction,Other,User*
%FSLAX46Y46*%
G04 Gerber Fmt 4.6, Leading zero omitted, Abs format (unit mm)*
G04 Created by KiCad (PCBNEW 4.0.7) date 04/06/18 15:52:29*
%MOMM*%
%LPD*%
G01*
G04 APERTURE LIST*
%ADD10C,0.100000*%
%ADD11C,0.050000*%
G04 APERTURE END LIST*
D10*
D11*
X177270000Y-56620000D02*
X177270000Y-83070000D01*
X177270000Y-83070000D02*
X183420000Y-83070000D01*
X183420000Y-83070000D02*
X183420000Y-56620000D01*
X183420000Y-56620000D02*
X177270000Y-56620000D01*
X135150000Y-83080000D02*
X135150000Y-56630000D01*
X135150000Y-56630000D02*
X129000000Y-56630000D01*
X129000000Y-56630000D02*
X129000000Y-83080000D01*
X129000000Y-83080000D02*
X135150000Y-83080000D01*
X140440000Y-72920000D02*
X154190000Y-72920000D01*
X154190000Y-72920000D02*
X154190000Y-66770000D01*
X154190000Y-66770000D02*
X140440000Y-66770000D01*
X140440000Y-66770000D02*
X140440000Y-72920000D01*
X158220000Y-72920000D02*
X171970000Y-72920000D01*
X171970000Y-72920000D02*
X171970000Y-66770000D01*
X171970000Y-66770000D02*
X158220000Y-66770000D01*
X158220000Y-66770000D02*
X158220000Y-72920000D01*
X140440000Y-83080000D02*
X154190000Y-83080000D01*
X154190000Y-83080000D02*
X154190000Y-76930000D01*
X154190000Y-76930000D02*
X140440000Y-76930000D01*
X140440000Y-76930000D02*
X140440000Y-83080000D01*
X158220000Y-83080000D02*
X171970000Y-83080000D01*
X171970000Y-83080000D02*
X171970000Y-76930000D01*
X171970000Y-76930000D02*
X158220000Y-76930000D01*
X158220000Y-76930000D02*
X158220000Y-83080000D01*
X140440000Y-93240000D02*
X154190000Y-93240000D01*
X154190000Y-93240000D02*
X154190000Y-87090000D01*
X154190000Y-87090000D02*
X140440000Y-87090000D01*
X140440000Y-87090000D02*
X140440000Y-93240000D01*
X168380000Y-103400000D02*
X184680000Y-103400000D01*
X184680000Y-103400000D02*
X184680000Y-99800000D01*
X184680000Y-99800000D02*
X168380000Y-99800000D01*
X168380000Y-99800000D02*
X168380000Y-103400000D01*
X155680000Y-111020000D02*
X166880000Y-111020000D01*
X166880000Y-111020000D02*
X166880000Y-107420000D01*
X166880000Y-107420000D02*
X155680000Y-107420000D01*
X155680000Y-107420000D02*
X155680000Y-111020000D01*
X155680000Y-118640000D02*
X166880000Y-118640000D01*
X166880000Y-118640000D02*
X166880000Y-115040000D01*
X166880000Y-115040000D02*
X155680000Y-115040000D01*
X155680000Y-115040000D02*
X155680000Y-118640000D01*
X183410000Y-140440000D02*
X169660000Y-140440000D01*
X169660000Y-140440000D02*
X169660000Y-144040000D01*
X169660000Y-144040000D02*
X183410000Y-144040000D01*
X183410000Y-144040000D02*
X183410000Y-140440000D01*
X184099000Y-125450000D02*
X163099000Y-125450000D01*
X163099000Y-125450000D02*
X163099000Y-136150000D01*
X163099000Y-136150000D02*
X184099000Y-136150000D01*
X184099000Y-136150000D02*
X184099000Y-125450000D01*
X173460000Y-111020000D02*
X184660000Y-111020000D01*
X184660000Y-111020000D02*
X184660000Y-107420000D01*
X184660000Y-107420000D02*
X173460000Y-107420000D01*
X173460000Y-107420000D02*
X173460000Y-111020000D01*
X127740000Y-136801000D02*
X133890000Y-136801000D01*
X133890000Y-136801000D02*
X133890000Y-133201000D01*
X133890000Y-133201000D02*
X127740000Y-133201000D01*
X127740000Y-133201000D02*
X127740000Y-136801000D01*
X137330000Y-133070000D02*
X137330000Y-141220000D01*
X137330000Y-141220000D02*
X147130000Y-141220000D01*
X147130000Y-141220000D02*
X147130000Y-133070000D01*
X147130000Y-133070000D02*
X137330000Y-133070000D01*
X155680000Y-103400000D02*
X164330000Y-103400000D01*
X164330000Y-103400000D02*
X164330000Y-99800000D01*
X164330000Y-99800000D02*
X155680000Y-99800000D01*
X155680000Y-99800000D02*
X155680000Y-103400000D01*
X143620000Y-110790000D02*
X143620000Y-97490000D01*
X143620000Y-97490000D02*
X151020000Y-97490000D01*
X151020000Y-97490000D02*
X151020000Y-110790000D01*
X143620000Y-110790000D02*
X151020000Y-110790000D01*
X136880000Y-98160000D02*
X139980000Y-98160000D01*
X136880000Y-98160000D02*
X136880000Y-99960000D01*
X139980000Y-99960000D02*
X139980000Y-98160000D01*
X139980000Y-99960000D02*
X136880000Y-99960000D01*
X136880000Y-101970000D02*
X139980000Y-101970000D01*
X136880000Y-101970000D02*
X136880000Y-103770000D01*
X139980000Y-103770000D02*
X139980000Y-101970000D01*
X139980000Y-103770000D02*
X136880000Y-103770000D01*
X136880000Y-105780000D02*
X139980000Y-105780000D01*
X136880000Y-105780000D02*
X136880000Y-107580000D01*
X139980000Y-107580000D02*
X139980000Y-105780000D01*
X139980000Y-107580000D02*
X136880000Y-107580000D01*
X136880000Y-109590000D02*
X139980000Y-109590000D01*
X136880000Y-109590000D02*
X136880000Y-111390000D01*
X139980000Y-111390000D02*
X139980000Y-109590000D01*
X139980000Y-111390000D02*
X136880000Y-111390000D01*
X136880000Y-113400000D02*
X139980000Y-113400000D01*
X136880000Y-113400000D02*
X136880000Y-115200000D01*
X139980000Y-115200000D02*
X139980000Y-113400000D01*
X139980000Y-115200000D02*
X136880000Y-115200000D01*
X136880000Y-117210000D02*
X139980000Y-117210000D01*
X136880000Y-117210000D02*
X136880000Y-119010000D01*
X139980000Y-119010000D02*
X139980000Y-117210000D01*
X139980000Y-119010000D02*
X136880000Y-119010000D01*
X136880000Y-121020000D02*
X139980000Y-121020000D01*
X136880000Y-121020000D02*
X136880000Y-122820000D01*
X139980000Y-122820000D02*
X139980000Y-121020000D01*
X139980000Y-122820000D02*
X136880000Y-122820000D01*
X136880000Y-124830000D02*
X139980000Y-124830000D01*
X136880000Y-124830000D02*
X136880000Y-126630000D01*
X139980000Y-126630000D02*
X139980000Y-124830000D01*
X139980000Y-126630000D02*
X136880000Y-126630000D01*
X134030000Y-98210000D02*
X134030000Y-99910000D01*
X134030000Y-99910000D02*
X130130000Y-99910000D01*
X130130000Y-99910000D02*
X130130000Y-98210000D01*
X130130000Y-98210000D02*
X134030000Y-98210000D01*
X134030000Y-102020000D02*
X134030000Y-103720000D01*
X134030000Y-103720000D02*
X130130000Y-103720000D01*
X130130000Y-103720000D02*
X130130000Y-102020000D01*
X130130000Y-102020000D02*
X134030000Y-102020000D01*
X134030000Y-105830000D02*
X134030000Y-107530000D01*
X134030000Y-107530000D02*
X130130000Y-107530000D01*
X130130000Y-107530000D02*
X130130000Y-105830000D01*
X130130000Y-105830000D02*
X134030000Y-105830000D01*
X134030000Y-109640000D02*
X134030000Y-111340000D01*
X134030000Y-111340000D02*
X130130000Y-111340000D01*
X130130000Y-111340000D02*
X130130000Y-109640000D01*
X130130000Y-109640000D02*
X134030000Y-109640000D01*
X134030000Y-113450000D02*
X134030000Y-115150000D01*
X134030000Y-115150000D02*
X130130000Y-115150000D01*
X130130000Y-115150000D02*
X130130000Y-113450000D01*
X130130000Y-113450000D02*
X134030000Y-113450000D01*
X134030000Y-117260000D02*
X134030000Y-118960000D01*
X134030000Y-118960000D02*
X130130000Y-118960000D01*
X130130000Y-118960000D02*
X130130000Y-117260000D01*
X130130000Y-117260000D02*
X134030000Y-117260000D01*
X134030000Y-121070000D02*
X134030000Y-122770000D01*
X134030000Y-122770000D02*
X130130000Y-122770000D01*
X130130000Y-122770000D02*
X130130000Y-121070000D01*
X130130000Y-121070000D02*
X134030000Y-121070000D01*
X134030000Y-124880000D02*
X134030000Y-126580000D01*
X134030000Y-126580000D02*
X130130000Y-126580000D01*
X130130000Y-126580000D02*
X130130000Y-124880000D01*
X130130000Y-124880000D02*
X134030000Y-124880000D01*
X127740000Y-142770000D02*
X133890000Y-142770000D01*
X133890000Y-142770000D02*
X133890000Y-139170000D01*
X133890000Y-139170000D02*
X127740000Y-139170000D01*
X127740000Y-139170000D02*
X127740000Y-142770000D01*
X148420000Y-125070000D02*
X148420000Y-145930000D01*
X148420000Y-145930000D02*
X158920000Y-145930000D01*
X158920000Y-145930000D02*
X158920000Y-125070000D01*
X158920000Y-125070000D02*
X148420000Y-125070000D01*
X140690000Y-124830000D02*
X143790000Y-124830000D01*
X140690000Y-124830000D02*
X140690000Y-126630000D01*
X143790000Y-126630000D02*
X143790000Y-124830000D01*
X143790000Y-126630000D02*
X140690000Y-126630000D01*
X138740000Y-143030000D02*
X145740000Y-143030000D01*
X145740000Y-143030000D02*
X145740000Y-146530000D01*
X145740000Y-146530000D02*
X138740000Y-146530000D01*
X138740000Y-146530000D02*
X138740000Y-143030000D01*
X142143000Y-113027000D02*
X142143000Y-123427000D01*
X142143000Y-123427000D02*
X152193000Y-123427000D01*
X152193000Y-123427000D02*
X152193000Y-113027000D01*
X152193000Y-113027000D02*
X142143000Y-113027000D01*
X157333000Y-96650000D02*
X180433000Y-96650000D01*
X180433000Y-96650000D02*
X180433000Y-86250000D01*
X180433000Y-86250000D02*
X157333000Y-86250000D01*
X157333000Y-86250000D02*
X157333000Y-96650000D01*
X162030000Y-144040000D02*
X168180000Y-144040000D01*
X168180000Y-144040000D02*
X168180000Y-140440000D01*
X168180000Y-140440000D02*
X162030000Y-140440000D01*
X162030000Y-140440000D02*
X162030000Y-144040000D01*
X178540000Y-118640000D02*
X184690000Y-118640000D01*
X184690000Y-118640000D02*
X184690000Y-115040000D01*
X184690000Y-115040000D02*
X178540000Y-115040000D01*
X178540000Y-115040000D02*
X178540000Y-118640000D01*
X126840000Y-95380000D02*
X139840000Y-95380000D01*
X139840000Y-95380000D02*
X139840000Y-84980000D01*
X139840000Y-84980000D02*
X126840000Y-84980000D01*
X126840000Y-84980000D02*
X126840000Y-95380000D01*
M02*
