G04 #@! TF.FileFunction,Other,Fab,Bot*
%FSLAX46Y46*%
G04 Gerber Fmt 4.6, Leading zero omitted, Abs format (unit mm)*
G04 Created by KiCad (PCBNEW 4.0.7) date 04/06/18 15:52:29*
%MOMM*%
%LPD*%
G01*
G04 APERTURE LIST*
%ADD10C,0.100000*%
%ADD11C,0.150000*%
G04 APERTURE END LIST*
D10*
X168910000Y-58420000D02*
X168910000Y-62230000D01*
X168910000Y-62230000D02*
X143510000Y-62230000D01*
X143510000Y-62230000D02*
X143510000Y-57150000D01*
X143510000Y-57150000D02*
X167640000Y-57150000D01*
X167640000Y-57150000D02*
X168910000Y-58420000D01*
D11*
X142807143Y-52047142D02*
X142854762Y-51999523D01*
X142902381Y-51856666D01*
X142902381Y-51761428D01*
X142854762Y-51618570D01*
X142759524Y-51523332D01*
X142664286Y-51475713D01*
X142473810Y-51428094D01*
X142330952Y-51428094D01*
X142140476Y-51475713D01*
X142045238Y-51523332D01*
X141950000Y-51618570D01*
X141902381Y-51761428D01*
X141902381Y-51856666D01*
X141950000Y-51999523D01*
X141997619Y-52047142D01*
X142902381Y-52618570D02*
X142854762Y-52523332D01*
X142807143Y-52475713D01*
X142711905Y-52428094D01*
X142426190Y-52428094D01*
X142330952Y-52475713D01*
X142283333Y-52523332D01*
X142235714Y-52618570D01*
X142235714Y-52761428D01*
X142283333Y-52856666D01*
X142330952Y-52904285D01*
X142426190Y-52951904D01*
X142711905Y-52951904D01*
X142807143Y-52904285D01*
X142854762Y-52856666D01*
X142902381Y-52761428D01*
X142902381Y-52618570D01*
X142235714Y-53380475D02*
X142902381Y-53380475D01*
X142330952Y-53380475D02*
X142283333Y-53428094D01*
X142235714Y-53523332D01*
X142235714Y-53666190D01*
X142283333Y-53761428D01*
X142378571Y-53809047D01*
X142902381Y-53809047D01*
X142235714Y-54285237D02*
X142902381Y-54285237D01*
X142330952Y-54285237D02*
X142283333Y-54332856D01*
X142235714Y-54428094D01*
X142235714Y-54570952D01*
X142283333Y-54666190D01*
X142378571Y-54713809D01*
X142902381Y-54713809D01*
X142997619Y-54951904D02*
X142997619Y-55713809D01*
X141902381Y-56142380D02*
X141902381Y-56237619D01*
X141950000Y-56332857D01*
X141997619Y-56380476D01*
X142092857Y-56428095D01*
X142283333Y-56475714D01*
X142521429Y-56475714D01*
X142711905Y-56428095D01*
X142807143Y-56380476D01*
X142854762Y-56332857D01*
X142902381Y-56237619D01*
X142902381Y-56142380D01*
X142854762Y-56047142D01*
X142807143Y-55999523D01*
X142711905Y-55951904D01*
X142521429Y-55904285D01*
X142283333Y-55904285D01*
X142092857Y-55951904D01*
X141997619Y-55999523D01*
X141950000Y-56047142D01*
X141902381Y-56142380D01*
X141997619Y-56856666D02*
X141950000Y-56904285D01*
X141902381Y-56999523D01*
X141902381Y-57237619D01*
X141950000Y-57332857D01*
X141997619Y-57380476D01*
X142092857Y-57428095D01*
X142188095Y-57428095D01*
X142330952Y-57380476D01*
X142902381Y-56809047D01*
X142902381Y-57428095D01*
X142902381Y-57761428D02*
X142235714Y-58285238D01*
X142235714Y-57761428D02*
X142902381Y-58285238D01*
X142902381Y-59190000D02*
X142902381Y-58618571D01*
X142902381Y-58904285D02*
X141902381Y-58904285D01*
X142045238Y-58809047D01*
X142140476Y-58713809D01*
X142188095Y-58618571D01*
X141902381Y-59809047D02*
X141902381Y-59904286D01*
X141950000Y-59999524D01*
X141997619Y-60047143D01*
X142092857Y-60094762D01*
X142283333Y-60142381D01*
X142521429Y-60142381D01*
X142711905Y-60094762D01*
X142807143Y-60047143D01*
X142854762Y-59999524D01*
X142902381Y-59904286D01*
X142902381Y-59809047D01*
X142854762Y-59713809D01*
X142807143Y-59666190D01*
X142711905Y-59618571D01*
X142521429Y-59570952D01*
X142283333Y-59570952D01*
X142092857Y-59618571D01*
X141997619Y-59666190D01*
X141950000Y-59713809D01*
X141902381Y-59809047D01*
X142997619Y-60332857D02*
X142997619Y-61094762D01*
X141902381Y-61523333D02*
X141902381Y-61713810D01*
X141950000Y-61809048D01*
X142045238Y-61904286D01*
X142235714Y-61951905D01*
X142569048Y-61951905D01*
X142759524Y-61904286D01*
X142854762Y-61809048D01*
X142902381Y-61713810D01*
X142902381Y-61523333D01*
X142854762Y-61428095D01*
X142759524Y-61332857D01*
X142569048Y-61285238D01*
X142235714Y-61285238D01*
X142045238Y-61332857D01*
X141950000Y-61428095D01*
X141902381Y-61523333D01*
X142902381Y-62809048D02*
X141902381Y-62809048D01*
X142854762Y-62809048D02*
X142902381Y-62713810D01*
X142902381Y-62523333D01*
X142854762Y-62428095D01*
X142807143Y-62380476D01*
X142711905Y-62332857D01*
X142426190Y-62332857D01*
X142330952Y-62380476D01*
X142283333Y-62428095D01*
X142235714Y-62523333D01*
X142235714Y-62713810D01*
X142283333Y-62809048D01*
X142902381Y-63713810D02*
X141902381Y-63713810D01*
X142854762Y-63713810D02*
X142902381Y-63618572D01*
X142902381Y-63428095D01*
X142854762Y-63332857D01*
X142807143Y-63285238D01*
X142711905Y-63237619D01*
X142426190Y-63237619D01*
X142330952Y-63285238D01*
X142283333Y-63332857D01*
X142235714Y-63428095D01*
X142235714Y-63618572D01*
X142283333Y-63713810D01*
X142997619Y-63951905D02*
X142997619Y-64713810D01*
X142378571Y-64951905D02*
X142378571Y-65285239D01*
X142902381Y-65428096D02*
X142902381Y-64951905D01*
X141902381Y-64951905D01*
X141902381Y-65428096D01*
X142235714Y-65761429D02*
X142902381Y-65999524D01*
X142235714Y-66237620D01*
X142854762Y-66999525D02*
X142902381Y-66904287D01*
X142902381Y-66713810D01*
X142854762Y-66618572D01*
X142759524Y-66570953D01*
X142378571Y-66570953D01*
X142283333Y-66618572D01*
X142235714Y-66713810D01*
X142235714Y-66904287D01*
X142283333Y-66999525D01*
X142378571Y-67047144D01*
X142473810Y-67047144D01*
X142569048Y-66570953D01*
X142235714Y-67475715D02*
X142902381Y-67475715D01*
X142330952Y-67475715D02*
X142283333Y-67523334D01*
X142235714Y-67618572D01*
X142235714Y-67761430D01*
X142283333Y-67856668D01*
X142378571Y-67904287D01*
X142902381Y-67904287D01*
X170108571Y-58142381D02*
X170108571Y-58475715D01*
X170632381Y-58618572D02*
X170632381Y-58142381D01*
X169632381Y-58142381D01*
X169632381Y-58618572D01*
X169632381Y-58951905D02*
X170632381Y-59618572D01*
X169632381Y-59618572D02*
X170632381Y-58951905D01*
X169632381Y-59856667D02*
X169632381Y-60428096D01*
X170632381Y-60142381D02*
X169632381Y-60142381D01*
X169632381Y-60666191D02*
X169632381Y-61285239D01*
X170013333Y-60951905D01*
X170013333Y-61094763D01*
X170060952Y-61190001D01*
X170108571Y-61237620D01*
X170203810Y-61285239D01*
X170441905Y-61285239D01*
X170537143Y-61237620D01*
X170584762Y-61190001D01*
X170632381Y-61094763D01*
X170632381Y-60809048D01*
X170584762Y-60713810D01*
X170537143Y-60666191D01*
M02*
