G04 #@! TF.FileFunction,Other,Fab,Top*
%FSLAX46Y46*%
G04 Gerber Fmt 4.6, Leading zero omitted, Abs format (unit mm)*
G04 Created by KiCad (PCBNEW 4.0.7) date 04/06/18 15:52:29*
%MOMM*%
%LPD*%
G01*
G04 APERTURE LIST*
%ADD10C,0.100000*%
%ADD11C,0.150000*%
%ADD12C,0.075000*%
G04 APERTURE END LIST*
D10*
X179070000Y-57150000D02*
X182880000Y-57150000D01*
X182880000Y-57150000D02*
X182880000Y-82550000D01*
X182880000Y-82550000D02*
X177800000Y-82550000D01*
X177800000Y-82550000D02*
X177800000Y-58420000D01*
X177800000Y-58420000D02*
X179070000Y-57150000D01*
X133350000Y-82550000D02*
X129540000Y-82550000D01*
X129540000Y-82550000D02*
X129540000Y-57150000D01*
X129540000Y-57150000D02*
X134620000Y-57150000D01*
X134620000Y-57150000D02*
X134620000Y-81280000D01*
X134620000Y-81280000D02*
X133350000Y-82550000D01*
X140970000Y-71120000D02*
X140970000Y-67310000D01*
X140970000Y-67310000D02*
X153670000Y-67310000D01*
X153670000Y-67310000D02*
X153670000Y-72390000D01*
X153670000Y-72390000D02*
X142240000Y-72390000D01*
X142240000Y-72390000D02*
X140970000Y-71120000D01*
X158750000Y-71120000D02*
X158750000Y-67310000D01*
X158750000Y-67310000D02*
X171450000Y-67310000D01*
X171450000Y-67310000D02*
X171450000Y-72390000D01*
X171450000Y-72390000D02*
X160020000Y-72390000D01*
X160020000Y-72390000D02*
X158750000Y-71120000D01*
X140970000Y-81280000D02*
X140970000Y-77470000D01*
X140970000Y-77470000D02*
X153670000Y-77470000D01*
X153670000Y-77470000D02*
X153670000Y-82550000D01*
X153670000Y-82550000D02*
X142240000Y-82550000D01*
X142240000Y-82550000D02*
X140970000Y-81280000D01*
X158750000Y-81280000D02*
X158750000Y-77470000D01*
X158750000Y-77470000D02*
X171450000Y-77470000D01*
X171450000Y-77470000D02*
X171450000Y-82550000D01*
X171450000Y-82550000D02*
X160020000Y-82550000D01*
X160020000Y-82550000D02*
X158750000Y-81280000D01*
X140970000Y-91440000D02*
X140970000Y-87630000D01*
X140970000Y-87630000D02*
X153670000Y-87630000D01*
X153670000Y-87630000D02*
X153670000Y-92710000D01*
X153670000Y-92710000D02*
X142240000Y-92710000D01*
X142240000Y-92710000D02*
X140970000Y-91440000D01*
X168910000Y-102235000D02*
X168910000Y-100330000D01*
X168910000Y-100330000D02*
X184150000Y-100330000D01*
X184150000Y-100330000D02*
X184150000Y-102870000D01*
X184150000Y-102870000D02*
X169545000Y-102870000D01*
X169545000Y-102870000D02*
X168910000Y-102235000D01*
X156210000Y-109855000D02*
X156210000Y-107950000D01*
X156210000Y-107950000D02*
X166370000Y-107950000D01*
X166370000Y-107950000D02*
X166370000Y-110490000D01*
X166370000Y-110490000D02*
X156845000Y-110490000D01*
X156845000Y-110490000D02*
X156210000Y-109855000D01*
X156210000Y-117475000D02*
X156210000Y-115570000D01*
X156210000Y-115570000D02*
X166370000Y-115570000D01*
X166370000Y-115570000D02*
X166370000Y-118110000D01*
X166370000Y-118110000D02*
X156845000Y-118110000D01*
X156845000Y-118110000D02*
X156210000Y-117475000D01*
X182880000Y-141605000D02*
X182880000Y-143510000D01*
X182880000Y-143510000D02*
X170180000Y-143510000D01*
X170180000Y-143510000D02*
X170180000Y-140970000D01*
X170180000Y-140970000D02*
X182245000Y-140970000D01*
X182245000Y-140970000D02*
X182880000Y-141605000D01*
X183769000Y-128635000D02*
X183769000Y-133985000D01*
X183769000Y-133985000D02*
X163449000Y-133985000D01*
X163449000Y-133985000D02*
X163449000Y-127635000D01*
X163449000Y-127635000D02*
X182769000Y-127635000D01*
X182769000Y-127635000D02*
X183769000Y-128635000D01*
X183829000Y-125730000D02*
X163389000Y-125730000D01*
X163389000Y-125730000D02*
X163389000Y-135890000D01*
X163389000Y-135890000D02*
X183829000Y-135890000D01*
X183829000Y-135890000D02*
X183829000Y-125730000D01*
X173990000Y-109855000D02*
X173990000Y-107950000D01*
X173990000Y-107950000D02*
X184150000Y-107950000D01*
X184150000Y-107950000D02*
X184150000Y-110490000D01*
X184150000Y-110490000D02*
X174625000Y-110490000D01*
X174625000Y-110490000D02*
X173990000Y-109855000D01*
X128270000Y-135636000D02*
X128270000Y-133731000D01*
X128270000Y-133731000D02*
X133350000Y-133731000D01*
X133350000Y-133731000D02*
X133350000Y-136271000D01*
X133350000Y-136271000D02*
X128905000Y-136271000D01*
X128905000Y-136271000D02*
X128270000Y-135636000D01*
X140065000Y-133350000D02*
X145415000Y-133350000D01*
X145415000Y-133350000D02*
X145415000Y-140970000D01*
X145415000Y-140970000D02*
X139065000Y-140970000D01*
X139065000Y-140970000D02*
X139065000Y-134350000D01*
X139065000Y-134350000D02*
X140065000Y-133350000D01*
X156210000Y-102235000D02*
X156210000Y-100330000D01*
X156210000Y-100330000D02*
X163830000Y-100330000D01*
X163830000Y-100330000D02*
X163830000Y-102870000D01*
X163830000Y-102870000D02*
X156845000Y-102870000D01*
X156845000Y-102870000D02*
X156210000Y-102235000D01*
X150770000Y-99140000D02*
X150770000Y-109140000D01*
X150770000Y-109140000D02*
X145870000Y-109140000D01*
X145870000Y-109140000D02*
X143870000Y-107140000D01*
X143870000Y-107140000D02*
X143870000Y-99140000D01*
X143870000Y-99140000D02*
X150770000Y-99140000D01*
X137430000Y-99680000D02*
X137430000Y-98440000D01*
X139430000Y-99680000D02*
X137430000Y-99680000D01*
X139430000Y-98440000D02*
X139430000Y-99680000D01*
X137430000Y-98440000D02*
X139430000Y-98440000D01*
X137430000Y-103490000D02*
X137430000Y-102250000D01*
X139430000Y-103490000D02*
X137430000Y-103490000D01*
X139430000Y-102250000D02*
X139430000Y-103490000D01*
X137430000Y-102250000D02*
X139430000Y-102250000D01*
X137430000Y-107300000D02*
X137430000Y-106060000D01*
X139430000Y-107300000D02*
X137430000Y-107300000D01*
X139430000Y-106060000D02*
X139430000Y-107300000D01*
X137430000Y-106060000D02*
X139430000Y-106060000D01*
X137430000Y-111110000D02*
X137430000Y-109870000D01*
X139430000Y-111110000D02*
X137430000Y-111110000D01*
X139430000Y-109870000D02*
X139430000Y-111110000D01*
X137430000Y-109870000D02*
X139430000Y-109870000D01*
X137430000Y-114920000D02*
X137430000Y-113680000D01*
X139430000Y-114920000D02*
X137430000Y-114920000D01*
X139430000Y-113680000D02*
X139430000Y-114920000D01*
X137430000Y-113680000D02*
X139430000Y-113680000D01*
X137430000Y-118730000D02*
X137430000Y-117490000D01*
X139430000Y-118730000D02*
X137430000Y-118730000D01*
X139430000Y-117490000D02*
X139430000Y-118730000D01*
X137430000Y-117490000D02*
X139430000Y-117490000D01*
X137430000Y-122540000D02*
X137430000Y-121300000D01*
X139430000Y-122540000D02*
X137430000Y-122540000D01*
X139430000Y-121300000D02*
X139430000Y-122540000D01*
X137430000Y-121300000D02*
X139430000Y-121300000D01*
X137430000Y-126350000D02*
X137430000Y-125110000D01*
X139430000Y-126350000D02*
X137430000Y-126350000D01*
X139430000Y-125110000D02*
X139430000Y-126350000D01*
X137430000Y-125110000D02*
X139430000Y-125110000D01*
X131680000Y-98660000D02*
X131680000Y-99460000D01*
X131680000Y-99060000D02*
X132280000Y-98660000D01*
X132280000Y-99460000D02*
X131680000Y-99060000D01*
X132280000Y-98660000D02*
X132280000Y-99460000D01*
X133080000Y-99660000D02*
X131080000Y-99660000D01*
X133080000Y-98460000D02*
X133080000Y-99660000D01*
X131080000Y-98460000D02*
X133080000Y-98460000D01*
X131080000Y-99660000D02*
X131080000Y-98460000D01*
X131680000Y-102470000D02*
X131680000Y-103270000D01*
X131680000Y-102870000D02*
X132280000Y-102470000D01*
X132280000Y-103270000D02*
X131680000Y-102870000D01*
X132280000Y-102470000D02*
X132280000Y-103270000D01*
X133080000Y-103470000D02*
X131080000Y-103470000D01*
X133080000Y-102270000D02*
X133080000Y-103470000D01*
X131080000Y-102270000D02*
X133080000Y-102270000D01*
X131080000Y-103470000D02*
X131080000Y-102270000D01*
X131680000Y-106280000D02*
X131680000Y-107080000D01*
X131680000Y-106680000D02*
X132280000Y-106280000D01*
X132280000Y-107080000D02*
X131680000Y-106680000D01*
X132280000Y-106280000D02*
X132280000Y-107080000D01*
X133080000Y-107280000D02*
X131080000Y-107280000D01*
X133080000Y-106080000D02*
X133080000Y-107280000D01*
X131080000Y-106080000D02*
X133080000Y-106080000D01*
X131080000Y-107280000D02*
X131080000Y-106080000D01*
X131680000Y-110090000D02*
X131680000Y-110890000D01*
X131680000Y-110490000D02*
X132280000Y-110090000D01*
X132280000Y-110890000D02*
X131680000Y-110490000D01*
X132280000Y-110090000D02*
X132280000Y-110890000D01*
X133080000Y-111090000D02*
X131080000Y-111090000D01*
X133080000Y-109890000D02*
X133080000Y-111090000D01*
X131080000Y-109890000D02*
X133080000Y-109890000D01*
X131080000Y-111090000D02*
X131080000Y-109890000D01*
X131680000Y-113900000D02*
X131680000Y-114700000D01*
X131680000Y-114300000D02*
X132280000Y-113900000D01*
X132280000Y-114700000D02*
X131680000Y-114300000D01*
X132280000Y-113900000D02*
X132280000Y-114700000D01*
X133080000Y-114900000D02*
X131080000Y-114900000D01*
X133080000Y-113700000D02*
X133080000Y-114900000D01*
X131080000Y-113700000D02*
X133080000Y-113700000D01*
X131080000Y-114900000D02*
X131080000Y-113700000D01*
X131680000Y-117710000D02*
X131680000Y-118510000D01*
X131680000Y-118110000D02*
X132280000Y-117710000D01*
X132280000Y-118510000D02*
X131680000Y-118110000D01*
X132280000Y-117710000D02*
X132280000Y-118510000D01*
X133080000Y-118710000D02*
X131080000Y-118710000D01*
X133080000Y-117510000D02*
X133080000Y-118710000D01*
X131080000Y-117510000D02*
X133080000Y-117510000D01*
X131080000Y-118710000D02*
X131080000Y-117510000D01*
X131680000Y-121520000D02*
X131680000Y-122320000D01*
X131680000Y-121920000D02*
X132280000Y-121520000D01*
X132280000Y-122320000D02*
X131680000Y-121920000D01*
X132280000Y-121520000D02*
X132280000Y-122320000D01*
X133080000Y-122520000D02*
X131080000Y-122520000D01*
X133080000Y-121320000D02*
X133080000Y-122520000D01*
X131080000Y-121320000D02*
X133080000Y-121320000D01*
X131080000Y-122520000D02*
X131080000Y-121320000D01*
X131680000Y-125330000D02*
X131680000Y-126130000D01*
X131680000Y-125730000D02*
X132280000Y-125330000D01*
X132280000Y-126130000D02*
X131680000Y-125730000D01*
X132280000Y-125330000D02*
X132280000Y-126130000D01*
X133080000Y-126330000D02*
X131080000Y-126330000D01*
X133080000Y-125130000D02*
X133080000Y-126330000D01*
X131080000Y-125130000D02*
X133080000Y-125130000D01*
X131080000Y-126330000D02*
X131080000Y-125130000D01*
X128270000Y-141605000D02*
X128270000Y-139700000D01*
X128270000Y-139700000D02*
X133350000Y-139700000D01*
X133350000Y-139700000D02*
X133350000Y-142240000D01*
X133350000Y-142240000D02*
X128905000Y-142240000D01*
X128905000Y-142240000D02*
X128270000Y-141605000D01*
X148670000Y-131720000D02*
X148670000Y-125320000D01*
X148670000Y-125320000D02*
X158670000Y-125320000D01*
X158670000Y-125320000D02*
X158670000Y-131720000D01*
X158670000Y-131720000D02*
X148670000Y-131720000D01*
X148670000Y-140970000D02*
X148670000Y-131720000D01*
X148670000Y-131720000D02*
X158670000Y-131720000D01*
X158670000Y-131720000D02*
X158670000Y-140970000D01*
X158670000Y-140970000D02*
X148670000Y-140970000D01*
X151130000Y-140970000D02*
X151130000Y-144780000D01*
X153670000Y-140970000D02*
X153670000Y-144780000D01*
X156210000Y-140970000D02*
X156210000Y-144780000D01*
X155520000Y-128120000D02*
G75*
G03X155520000Y-128120000I-1850000J0D01*
G01*
X141240000Y-126350000D02*
X141240000Y-125110000D01*
X143240000Y-126350000D02*
X141240000Y-126350000D01*
X143240000Y-125110000D02*
X143240000Y-126350000D01*
X141240000Y-125110000D02*
X143240000Y-125110000D01*
X144540000Y-146280000D02*
X139940000Y-146280000D01*
X139940000Y-146280000D02*
X139940000Y-143280000D01*
X144540000Y-143280000D02*
X144540000Y-146280000D01*
X144540000Y-143280000D02*
X139940000Y-143280000D01*
X141590560Y-144781020D02*
X140688860Y-144781020D01*
X142741180Y-144781020D02*
X143739400Y-144781020D01*
X141590560Y-143980920D02*
X141590560Y-145581120D01*
X142741180Y-145530320D02*
X142741180Y-143980920D01*
X141590560Y-144781020D02*
X142741180Y-145530320D01*
X141590560Y-144781020D02*
X142741180Y-143980920D01*
X147878000Y-118237000D02*
G75*
G03X147878000Y-118237000I-1575000J0D01*
G01*
X147877000Y-118237000D02*
G75*
G03X147877000Y-118237000I-1575000J0D01*
G01*
X142413000Y-113322000D02*
X142413000Y-123152000D01*
X142413000Y-123152000D02*
X151943000Y-123152000D01*
X151943000Y-123152000D02*
X151943000Y-113322000D01*
X151943000Y-113322000D02*
X142413000Y-113322000D01*
X147498000Y-117235000D02*
X145300000Y-119432000D01*
X147306000Y-117043000D02*
X145108000Y-119240000D01*
X157673000Y-95330000D02*
X157673000Y-86550000D01*
X157673000Y-86550000D02*
X180173000Y-86550000D01*
X180173000Y-86550000D02*
X180173000Y-96330000D01*
X180173000Y-96330000D02*
X158673000Y-96330000D01*
X158673000Y-96330000D02*
X157673000Y-95330000D01*
X159398000Y-93470000D02*
X160668000Y-93470000D01*
X160668000Y-93470000D02*
X160668000Y-89410000D01*
X160668000Y-89410000D02*
X159398000Y-89410000D01*
X159398000Y-89410000D02*
X159398000Y-93470000D01*
X159398000Y-91440000D02*
X160668000Y-91440000D01*
X161938000Y-93470000D02*
X163208000Y-93470000D01*
X163208000Y-93470000D02*
X163208000Y-89410000D01*
X163208000Y-89410000D02*
X161938000Y-89410000D01*
X161938000Y-89410000D02*
X161938000Y-93470000D01*
X161938000Y-91440000D02*
X163208000Y-91440000D01*
X164478000Y-93470000D02*
X165748000Y-93470000D01*
X165748000Y-93470000D02*
X165748000Y-89410000D01*
X165748000Y-89410000D02*
X164478000Y-89410000D01*
X164478000Y-89410000D02*
X164478000Y-93470000D01*
X164478000Y-91440000D02*
X165748000Y-91440000D01*
X167018000Y-93470000D02*
X168288000Y-93470000D01*
X168288000Y-93470000D02*
X168288000Y-89410000D01*
X168288000Y-89410000D02*
X167018000Y-89410000D01*
X167018000Y-89410000D02*
X167018000Y-93470000D01*
X167018000Y-91440000D02*
X168288000Y-91440000D01*
X169558000Y-93470000D02*
X170828000Y-93470000D01*
X170828000Y-93470000D02*
X170828000Y-89410000D01*
X170828000Y-89410000D02*
X169558000Y-89410000D01*
X169558000Y-89410000D02*
X169558000Y-93470000D01*
X169558000Y-91440000D02*
X170828000Y-91440000D01*
X172098000Y-93470000D02*
X173368000Y-93470000D01*
X173368000Y-93470000D02*
X173368000Y-89410000D01*
X173368000Y-89410000D02*
X172098000Y-89410000D01*
X172098000Y-89410000D02*
X172098000Y-93470000D01*
X172098000Y-91440000D02*
X173368000Y-91440000D01*
X174638000Y-93470000D02*
X175908000Y-93470000D01*
X175908000Y-93470000D02*
X175908000Y-89410000D01*
X175908000Y-89410000D02*
X174638000Y-89410000D01*
X174638000Y-89410000D02*
X174638000Y-93470000D01*
X174638000Y-91440000D02*
X175908000Y-91440000D01*
X177178000Y-93470000D02*
X178448000Y-93470000D01*
X178448000Y-93470000D02*
X178448000Y-89410000D01*
X178448000Y-89410000D02*
X177178000Y-89410000D01*
X177178000Y-89410000D02*
X177178000Y-93470000D01*
X177178000Y-91440000D02*
X178448000Y-91440000D01*
X162560000Y-142875000D02*
X162560000Y-140970000D01*
X162560000Y-140970000D02*
X167640000Y-140970000D01*
X167640000Y-140970000D02*
X167640000Y-143510000D01*
X167640000Y-143510000D02*
X163195000Y-143510000D01*
X163195000Y-143510000D02*
X162560000Y-142875000D01*
X179070000Y-117475000D02*
X179070000Y-115570000D01*
X179070000Y-115570000D02*
X184150000Y-115570000D01*
X184150000Y-115570000D02*
X184150000Y-118110000D01*
X184150000Y-118110000D02*
X179705000Y-118110000D01*
X179705000Y-118110000D02*
X179070000Y-117475000D01*
X127180000Y-94060000D02*
X127180000Y-85280000D01*
X127180000Y-85280000D02*
X139520000Y-85280000D01*
X139520000Y-85280000D02*
X139520000Y-95060000D01*
X139520000Y-95060000D02*
X128180000Y-95060000D01*
X128180000Y-95060000D02*
X127180000Y-94060000D01*
X128905000Y-92200000D02*
X130175000Y-92200000D01*
X130175000Y-92200000D02*
X130175000Y-88140000D01*
X130175000Y-88140000D02*
X128905000Y-88140000D01*
X128905000Y-88140000D02*
X128905000Y-92200000D01*
X128905000Y-90170000D02*
X130175000Y-90170000D01*
X131445000Y-92200000D02*
X132715000Y-92200000D01*
X132715000Y-92200000D02*
X132715000Y-88140000D01*
X132715000Y-88140000D02*
X131445000Y-88140000D01*
X131445000Y-88140000D02*
X131445000Y-92200000D01*
X131445000Y-90170000D02*
X132715000Y-90170000D01*
X133985000Y-92200000D02*
X135255000Y-92200000D01*
X135255000Y-92200000D02*
X135255000Y-88140000D01*
X135255000Y-88140000D02*
X133985000Y-88140000D01*
X133985000Y-88140000D02*
X133985000Y-92200000D01*
X133985000Y-90170000D02*
X135255000Y-90170000D01*
X136525000Y-92200000D02*
X137795000Y-92200000D01*
X137795000Y-92200000D02*
X137795000Y-88140000D01*
X137795000Y-88140000D02*
X136525000Y-88140000D01*
X136525000Y-88140000D02*
X136525000Y-92200000D01*
X136525000Y-90170000D02*
X137795000Y-90170000D01*
D11*
X172697142Y-83967143D02*
X172649523Y-84014762D01*
X172506666Y-84062381D01*
X172411428Y-84062381D01*
X172268570Y-84014762D01*
X172173332Y-83919524D01*
X172125713Y-83824286D01*
X172078094Y-83633810D01*
X172078094Y-83490952D01*
X172125713Y-83300476D01*
X172173332Y-83205238D01*
X172268570Y-83110000D01*
X172411428Y-83062381D01*
X172506666Y-83062381D01*
X172649523Y-83110000D01*
X172697142Y-83157619D01*
X173268570Y-84062381D02*
X173173332Y-84014762D01*
X173125713Y-83967143D01*
X173078094Y-83871905D01*
X173078094Y-83586190D01*
X173125713Y-83490952D01*
X173173332Y-83443333D01*
X173268570Y-83395714D01*
X173411428Y-83395714D01*
X173506666Y-83443333D01*
X173554285Y-83490952D01*
X173601904Y-83586190D01*
X173601904Y-83871905D01*
X173554285Y-83967143D01*
X173506666Y-84014762D01*
X173411428Y-84062381D01*
X173268570Y-84062381D01*
X174030475Y-83395714D02*
X174030475Y-84062381D01*
X174030475Y-83490952D02*
X174078094Y-83443333D01*
X174173332Y-83395714D01*
X174316190Y-83395714D01*
X174411428Y-83443333D01*
X174459047Y-83538571D01*
X174459047Y-84062381D01*
X174935237Y-83395714D02*
X174935237Y-84062381D01*
X174935237Y-83490952D02*
X174982856Y-83443333D01*
X175078094Y-83395714D01*
X175220952Y-83395714D01*
X175316190Y-83443333D01*
X175363809Y-83538571D01*
X175363809Y-84062381D01*
X175601904Y-84157619D02*
X176363809Y-84157619D01*
X176792380Y-83062381D02*
X176887619Y-83062381D01*
X176982857Y-83110000D01*
X177030476Y-83157619D01*
X177078095Y-83252857D01*
X177125714Y-83443333D01*
X177125714Y-83681429D01*
X177078095Y-83871905D01*
X177030476Y-83967143D01*
X176982857Y-84014762D01*
X176887619Y-84062381D01*
X176792380Y-84062381D01*
X176697142Y-84014762D01*
X176649523Y-83967143D01*
X176601904Y-83871905D01*
X176554285Y-83681429D01*
X176554285Y-83443333D01*
X176601904Y-83252857D01*
X176649523Y-83157619D01*
X176697142Y-83110000D01*
X176792380Y-83062381D01*
X177506666Y-83157619D02*
X177554285Y-83110000D01*
X177649523Y-83062381D01*
X177887619Y-83062381D01*
X177982857Y-83110000D01*
X178030476Y-83157619D01*
X178078095Y-83252857D01*
X178078095Y-83348095D01*
X178030476Y-83490952D01*
X177459047Y-84062381D01*
X178078095Y-84062381D01*
X178411428Y-84062381D02*
X178935238Y-83395714D01*
X178411428Y-83395714D02*
X178935238Y-84062381D01*
X179840000Y-84062381D02*
X179268571Y-84062381D01*
X179554285Y-84062381D02*
X179554285Y-83062381D01*
X179459047Y-83205238D01*
X179363809Y-83300476D01*
X179268571Y-83348095D01*
X180459047Y-83062381D02*
X180554286Y-83062381D01*
X180649524Y-83110000D01*
X180697143Y-83157619D01*
X180744762Y-83252857D01*
X180792381Y-83443333D01*
X180792381Y-83681429D01*
X180744762Y-83871905D01*
X180697143Y-83967143D01*
X180649524Y-84014762D01*
X180554286Y-84062381D01*
X180459047Y-84062381D01*
X180363809Y-84014762D01*
X180316190Y-83967143D01*
X180268571Y-83871905D01*
X180220952Y-83681429D01*
X180220952Y-83443333D01*
X180268571Y-83252857D01*
X180316190Y-83157619D01*
X180363809Y-83110000D01*
X180459047Y-83062381D01*
X180982857Y-84157619D02*
X181744762Y-84157619D01*
X182173333Y-83062381D02*
X182363810Y-83062381D01*
X182459048Y-83110000D01*
X182554286Y-83205238D01*
X182601905Y-83395714D01*
X182601905Y-83729048D01*
X182554286Y-83919524D01*
X182459048Y-84014762D01*
X182363810Y-84062381D01*
X182173333Y-84062381D01*
X182078095Y-84014762D01*
X181982857Y-83919524D01*
X181935238Y-83729048D01*
X181935238Y-83395714D01*
X181982857Y-83205238D01*
X182078095Y-83110000D01*
X182173333Y-83062381D01*
X183459048Y-84062381D02*
X183459048Y-83062381D01*
X183459048Y-84014762D02*
X183363810Y-84062381D01*
X183173333Y-84062381D01*
X183078095Y-84014762D01*
X183030476Y-83967143D01*
X182982857Y-83871905D01*
X182982857Y-83586190D01*
X183030476Y-83490952D01*
X183078095Y-83443333D01*
X183173333Y-83395714D01*
X183363810Y-83395714D01*
X183459048Y-83443333D01*
X184363810Y-84062381D02*
X184363810Y-83062381D01*
X184363810Y-84014762D02*
X184268572Y-84062381D01*
X184078095Y-84062381D01*
X183982857Y-84014762D01*
X183935238Y-83967143D01*
X183887619Y-83871905D01*
X183887619Y-83586190D01*
X183935238Y-83490952D01*
X183982857Y-83443333D01*
X184078095Y-83395714D01*
X184268572Y-83395714D01*
X184363810Y-83443333D01*
X184601905Y-84157619D02*
X185363810Y-84157619D01*
X185601905Y-83538571D02*
X185935239Y-83538571D01*
X186078096Y-84062381D02*
X185601905Y-84062381D01*
X185601905Y-83062381D01*
X186078096Y-83062381D01*
X186411429Y-83395714D02*
X186649524Y-84062381D01*
X186887620Y-83395714D01*
X187649525Y-84014762D02*
X187554287Y-84062381D01*
X187363810Y-84062381D01*
X187268572Y-84014762D01*
X187220953Y-83919524D01*
X187220953Y-83538571D01*
X187268572Y-83443333D01*
X187363810Y-83395714D01*
X187554287Y-83395714D01*
X187649525Y-83443333D01*
X187697144Y-83538571D01*
X187697144Y-83633810D01*
X187220953Y-83729048D01*
X188125715Y-83395714D02*
X188125715Y-84062381D01*
X188125715Y-83490952D02*
X188173334Y-83443333D01*
X188268572Y-83395714D01*
X188411430Y-83395714D01*
X188506668Y-83443333D01*
X188554287Y-83538571D01*
X188554287Y-84062381D01*
X180268571Y-71397619D02*
X180268571Y-71064285D01*
X180792381Y-70921428D02*
X180792381Y-71397619D01*
X179792381Y-71397619D01*
X179792381Y-70921428D01*
X179792381Y-70588095D02*
X180792381Y-69921428D01*
X179792381Y-69921428D02*
X180792381Y-70588095D01*
X179792381Y-69683333D02*
X179792381Y-69111904D01*
X180792381Y-69397619D02*
X179792381Y-69397619D01*
X180792381Y-68254761D02*
X180792381Y-68826190D01*
X180792381Y-68540476D02*
X179792381Y-68540476D01*
X179935238Y-68635714D01*
X180030476Y-68730952D01*
X180078095Y-68826190D01*
X124437142Y-56447143D02*
X124389523Y-56494762D01*
X124246666Y-56542381D01*
X124151428Y-56542381D01*
X124008570Y-56494762D01*
X123913332Y-56399524D01*
X123865713Y-56304286D01*
X123818094Y-56113810D01*
X123818094Y-55970952D01*
X123865713Y-55780476D01*
X123913332Y-55685238D01*
X124008570Y-55590000D01*
X124151428Y-55542381D01*
X124246666Y-55542381D01*
X124389523Y-55590000D01*
X124437142Y-55637619D01*
X125008570Y-56542381D02*
X124913332Y-56494762D01*
X124865713Y-56447143D01*
X124818094Y-56351905D01*
X124818094Y-56066190D01*
X124865713Y-55970952D01*
X124913332Y-55923333D01*
X125008570Y-55875714D01*
X125151428Y-55875714D01*
X125246666Y-55923333D01*
X125294285Y-55970952D01*
X125341904Y-56066190D01*
X125341904Y-56351905D01*
X125294285Y-56447143D01*
X125246666Y-56494762D01*
X125151428Y-56542381D01*
X125008570Y-56542381D01*
X125770475Y-55875714D02*
X125770475Y-56542381D01*
X125770475Y-55970952D02*
X125818094Y-55923333D01*
X125913332Y-55875714D01*
X126056190Y-55875714D01*
X126151428Y-55923333D01*
X126199047Y-56018571D01*
X126199047Y-56542381D01*
X126675237Y-55875714D02*
X126675237Y-56542381D01*
X126675237Y-55970952D02*
X126722856Y-55923333D01*
X126818094Y-55875714D01*
X126960952Y-55875714D01*
X127056190Y-55923333D01*
X127103809Y-56018571D01*
X127103809Y-56542381D01*
X127341904Y-56637619D02*
X128103809Y-56637619D01*
X128532380Y-55542381D02*
X128627619Y-55542381D01*
X128722857Y-55590000D01*
X128770476Y-55637619D01*
X128818095Y-55732857D01*
X128865714Y-55923333D01*
X128865714Y-56161429D01*
X128818095Y-56351905D01*
X128770476Y-56447143D01*
X128722857Y-56494762D01*
X128627619Y-56542381D01*
X128532380Y-56542381D01*
X128437142Y-56494762D01*
X128389523Y-56447143D01*
X128341904Y-56351905D01*
X128294285Y-56161429D01*
X128294285Y-55923333D01*
X128341904Y-55732857D01*
X128389523Y-55637619D01*
X128437142Y-55590000D01*
X128532380Y-55542381D01*
X129246666Y-55637619D02*
X129294285Y-55590000D01*
X129389523Y-55542381D01*
X129627619Y-55542381D01*
X129722857Y-55590000D01*
X129770476Y-55637619D01*
X129818095Y-55732857D01*
X129818095Y-55828095D01*
X129770476Y-55970952D01*
X129199047Y-56542381D01*
X129818095Y-56542381D01*
X130151428Y-56542381D02*
X130675238Y-55875714D01*
X130151428Y-55875714D02*
X130675238Y-56542381D01*
X131580000Y-56542381D02*
X131008571Y-56542381D01*
X131294285Y-56542381D02*
X131294285Y-55542381D01*
X131199047Y-55685238D01*
X131103809Y-55780476D01*
X131008571Y-55828095D01*
X132199047Y-55542381D02*
X132294286Y-55542381D01*
X132389524Y-55590000D01*
X132437143Y-55637619D01*
X132484762Y-55732857D01*
X132532381Y-55923333D01*
X132532381Y-56161429D01*
X132484762Y-56351905D01*
X132437143Y-56447143D01*
X132389524Y-56494762D01*
X132294286Y-56542381D01*
X132199047Y-56542381D01*
X132103809Y-56494762D01*
X132056190Y-56447143D01*
X132008571Y-56351905D01*
X131960952Y-56161429D01*
X131960952Y-55923333D01*
X132008571Y-55732857D01*
X132056190Y-55637619D01*
X132103809Y-55590000D01*
X132199047Y-55542381D01*
X132722857Y-56637619D02*
X133484762Y-56637619D01*
X133913333Y-55542381D02*
X134103810Y-55542381D01*
X134199048Y-55590000D01*
X134294286Y-55685238D01*
X134341905Y-55875714D01*
X134341905Y-56209048D01*
X134294286Y-56399524D01*
X134199048Y-56494762D01*
X134103810Y-56542381D01*
X133913333Y-56542381D01*
X133818095Y-56494762D01*
X133722857Y-56399524D01*
X133675238Y-56209048D01*
X133675238Y-55875714D01*
X133722857Y-55685238D01*
X133818095Y-55590000D01*
X133913333Y-55542381D01*
X135199048Y-56542381D02*
X135199048Y-55542381D01*
X135199048Y-56494762D02*
X135103810Y-56542381D01*
X134913333Y-56542381D01*
X134818095Y-56494762D01*
X134770476Y-56447143D01*
X134722857Y-56351905D01*
X134722857Y-56066190D01*
X134770476Y-55970952D01*
X134818095Y-55923333D01*
X134913333Y-55875714D01*
X135103810Y-55875714D01*
X135199048Y-55923333D01*
X136103810Y-56542381D02*
X136103810Y-55542381D01*
X136103810Y-56494762D02*
X136008572Y-56542381D01*
X135818095Y-56542381D01*
X135722857Y-56494762D01*
X135675238Y-56447143D01*
X135627619Y-56351905D01*
X135627619Y-56066190D01*
X135675238Y-55970952D01*
X135722857Y-55923333D01*
X135818095Y-55875714D01*
X136008572Y-55875714D01*
X136103810Y-55923333D01*
X136341905Y-56637619D02*
X137103810Y-56637619D01*
X137341905Y-56018571D02*
X137675239Y-56018571D01*
X137818096Y-56542381D02*
X137341905Y-56542381D01*
X137341905Y-55542381D01*
X137818096Y-55542381D01*
X138151429Y-55875714D02*
X138389524Y-56542381D01*
X138627620Y-55875714D01*
X139389525Y-56494762D02*
X139294287Y-56542381D01*
X139103810Y-56542381D01*
X139008572Y-56494762D01*
X138960953Y-56399524D01*
X138960953Y-56018571D01*
X139008572Y-55923333D01*
X139103810Y-55875714D01*
X139294287Y-55875714D01*
X139389525Y-55923333D01*
X139437144Y-56018571D01*
X139437144Y-56113810D01*
X138960953Y-56209048D01*
X139865715Y-55875714D02*
X139865715Y-56542381D01*
X139865715Y-55970952D02*
X139913334Y-55923333D01*
X140008572Y-55875714D01*
X140151430Y-55875714D01*
X140246668Y-55923333D01*
X140294287Y-56018571D01*
X140294287Y-56542381D01*
X132008571Y-71397619D02*
X132008571Y-71064285D01*
X132532381Y-70921428D02*
X132532381Y-71397619D01*
X131532381Y-71397619D01*
X131532381Y-70921428D01*
X131532381Y-70588095D02*
X132532381Y-69921428D01*
X131532381Y-69921428D02*
X132532381Y-70588095D01*
X131532381Y-69683333D02*
X131532381Y-69111904D01*
X132532381Y-69397619D02*
X131532381Y-69397619D01*
X131865714Y-68349999D02*
X132532381Y-68349999D01*
X131484762Y-68588095D02*
X132199048Y-68826190D01*
X132199048Y-68207142D01*
X155087143Y-77492858D02*
X155134762Y-77540477D01*
X155182381Y-77683334D01*
X155182381Y-77778572D01*
X155134762Y-77921430D01*
X155039524Y-78016668D01*
X154944286Y-78064287D01*
X154753810Y-78111906D01*
X154610952Y-78111906D01*
X154420476Y-78064287D01*
X154325238Y-78016668D01*
X154230000Y-77921430D01*
X154182381Y-77778572D01*
X154182381Y-77683334D01*
X154230000Y-77540477D01*
X154277619Y-77492858D01*
X155182381Y-76921430D02*
X155134762Y-77016668D01*
X155087143Y-77064287D01*
X154991905Y-77111906D01*
X154706190Y-77111906D01*
X154610952Y-77064287D01*
X154563333Y-77016668D01*
X154515714Y-76921430D01*
X154515714Y-76778572D01*
X154563333Y-76683334D01*
X154610952Y-76635715D01*
X154706190Y-76588096D01*
X154991905Y-76588096D01*
X155087143Y-76635715D01*
X155134762Y-76683334D01*
X155182381Y-76778572D01*
X155182381Y-76921430D01*
X154515714Y-76159525D02*
X155182381Y-76159525D01*
X154610952Y-76159525D02*
X154563333Y-76111906D01*
X154515714Y-76016668D01*
X154515714Y-75873810D01*
X154563333Y-75778572D01*
X154658571Y-75730953D01*
X155182381Y-75730953D01*
X154515714Y-75254763D02*
X155182381Y-75254763D01*
X154610952Y-75254763D02*
X154563333Y-75207144D01*
X154515714Y-75111906D01*
X154515714Y-74969048D01*
X154563333Y-74873810D01*
X154658571Y-74826191D01*
X155182381Y-74826191D01*
X155277619Y-74588096D02*
X155277619Y-73826191D01*
X154182381Y-73397620D02*
X154182381Y-73302381D01*
X154230000Y-73207143D01*
X154277619Y-73159524D01*
X154372857Y-73111905D01*
X154563333Y-73064286D01*
X154801429Y-73064286D01*
X154991905Y-73111905D01*
X155087143Y-73159524D01*
X155134762Y-73207143D01*
X155182381Y-73302381D01*
X155182381Y-73397620D01*
X155134762Y-73492858D01*
X155087143Y-73540477D01*
X154991905Y-73588096D01*
X154801429Y-73635715D01*
X154563333Y-73635715D01*
X154372857Y-73588096D01*
X154277619Y-73540477D01*
X154230000Y-73492858D01*
X154182381Y-73397620D01*
X154277619Y-72683334D02*
X154230000Y-72635715D01*
X154182381Y-72540477D01*
X154182381Y-72302381D01*
X154230000Y-72207143D01*
X154277619Y-72159524D01*
X154372857Y-72111905D01*
X154468095Y-72111905D01*
X154610952Y-72159524D01*
X155182381Y-72730953D01*
X155182381Y-72111905D01*
X155182381Y-71778572D02*
X154515714Y-71254762D01*
X154515714Y-71778572D02*
X155182381Y-71254762D01*
X154182381Y-70683334D02*
X154182381Y-70588095D01*
X154230000Y-70492857D01*
X154277619Y-70445238D01*
X154372857Y-70397619D01*
X154563333Y-70350000D01*
X154801429Y-70350000D01*
X154991905Y-70397619D01*
X155087143Y-70445238D01*
X155134762Y-70492857D01*
X155182381Y-70588095D01*
X155182381Y-70683334D01*
X155134762Y-70778572D01*
X155087143Y-70826191D01*
X154991905Y-70873810D01*
X154801429Y-70921429D01*
X154563333Y-70921429D01*
X154372857Y-70873810D01*
X154277619Y-70826191D01*
X154230000Y-70778572D01*
X154182381Y-70683334D01*
X154182381Y-69445238D02*
X154182381Y-69921429D01*
X154658571Y-69969048D01*
X154610952Y-69921429D01*
X154563333Y-69826191D01*
X154563333Y-69588095D01*
X154610952Y-69492857D01*
X154658571Y-69445238D01*
X154753810Y-69397619D01*
X154991905Y-69397619D01*
X155087143Y-69445238D01*
X155134762Y-69492857D01*
X155182381Y-69588095D01*
X155182381Y-69826191D01*
X155134762Y-69921429D01*
X155087143Y-69969048D01*
X155277619Y-69207143D02*
X155277619Y-68445238D01*
X154182381Y-68016667D02*
X154182381Y-67826190D01*
X154230000Y-67730952D01*
X154325238Y-67635714D01*
X154515714Y-67588095D01*
X154849048Y-67588095D01*
X155039524Y-67635714D01*
X155134762Y-67730952D01*
X155182381Y-67826190D01*
X155182381Y-68016667D01*
X155134762Y-68111905D01*
X155039524Y-68207143D01*
X154849048Y-68254762D01*
X154515714Y-68254762D01*
X154325238Y-68207143D01*
X154230000Y-68111905D01*
X154182381Y-68016667D01*
X155182381Y-66730952D02*
X154182381Y-66730952D01*
X155134762Y-66730952D02*
X155182381Y-66826190D01*
X155182381Y-67016667D01*
X155134762Y-67111905D01*
X155087143Y-67159524D01*
X154991905Y-67207143D01*
X154706190Y-67207143D01*
X154610952Y-67159524D01*
X154563333Y-67111905D01*
X154515714Y-67016667D01*
X154515714Y-66826190D01*
X154563333Y-66730952D01*
X155182381Y-65826190D02*
X154182381Y-65826190D01*
X155134762Y-65826190D02*
X155182381Y-65921428D01*
X155182381Y-66111905D01*
X155134762Y-66207143D01*
X155087143Y-66254762D01*
X154991905Y-66302381D01*
X154706190Y-66302381D01*
X154610952Y-66254762D01*
X154563333Y-66207143D01*
X154515714Y-66111905D01*
X154515714Y-65921428D01*
X154563333Y-65826190D01*
X155277619Y-65588095D02*
X155277619Y-64826190D01*
X154658571Y-64588095D02*
X154658571Y-64254761D01*
X155182381Y-64111904D02*
X155182381Y-64588095D01*
X154182381Y-64588095D01*
X154182381Y-64111904D01*
X154515714Y-63778571D02*
X155182381Y-63540476D01*
X154515714Y-63302380D01*
X155134762Y-62540475D02*
X155182381Y-62635713D01*
X155182381Y-62826190D01*
X155134762Y-62921428D01*
X155039524Y-62969047D01*
X154658571Y-62969047D01*
X154563333Y-62921428D01*
X154515714Y-62826190D01*
X154515714Y-62635713D01*
X154563333Y-62540475D01*
X154658571Y-62492856D01*
X154753810Y-62492856D01*
X154849048Y-62969047D01*
X154515714Y-62064285D02*
X155182381Y-62064285D01*
X154610952Y-62064285D02*
X154563333Y-62016666D01*
X154515714Y-61921428D01*
X154515714Y-61778570D01*
X154563333Y-61683332D01*
X154658571Y-61635713D01*
X155182381Y-61635713D01*
X144367619Y-70302381D02*
X144367619Y-69302381D01*
X144748572Y-69302381D01*
X144843810Y-69350000D01*
X144891429Y-69397619D01*
X144939048Y-69492857D01*
X144939048Y-69635714D01*
X144891429Y-69730952D01*
X144843810Y-69778571D01*
X144748572Y-69826190D01*
X144367619Y-69826190D01*
X145558095Y-69302381D02*
X145748572Y-69302381D01*
X145843810Y-69350000D01*
X145939048Y-69445238D01*
X145986667Y-69635714D01*
X145986667Y-69969048D01*
X145939048Y-70159524D01*
X145843810Y-70254762D01*
X145748572Y-70302381D01*
X145558095Y-70302381D01*
X145462857Y-70254762D01*
X145367619Y-70159524D01*
X145320000Y-69969048D01*
X145320000Y-69635714D01*
X145367619Y-69445238D01*
X145462857Y-69350000D01*
X145558095Y-69302381D01*
X146986667Y-70302381D02*
X146653333Y-69826190D01*
X146415238Y-70302381D02*
X146415238Y-69302381D01*
X146796191Y-69302381D01*
X146891429Y-69350000D01*
X146939048Y-69397619D01*
X146986667Y-69492857D01*
X146986667Y-69635714D01*
X146939048Y-69730952D01*
X146891429Y-69778571D01*
X146796191Y-69826190D01*
X146415238Y-69826190D01*
X147272381Y-69302381D02*
X147843810Y-69302381D01*
X147558095Y-70302381D02*
X147558095Y-69302381D01*
X147939048Y-70397619D02*
X148700953Y-70397619D01*
X148891429Y-70016667D02*
X149367620Y-70016667D01*
X148796191Y-70302381D02*
X149129524Y-69302381D01*
X149462858Y-70302381D01*
X150320001Y-70302381D02*
X149748572Y-70302381D01*
X150034286Y-70302381D02*
X150034286Y-69302381D01*
X149939048Y-69445238D01*
X149843810Y-69540476D01*
X149748572Y-69588095D01*
X172867143Y-77492858D02*
X172914762Y-77540477D01*
X172962381Y-77683334D01*
X172962381Y-77778572D01*
X172914762Y-77921430D01*
X172819524Y-78016668D01*
X172724286Y-78064287D01*
X172533810Y-78111906D01*
X172390952Y-78111906D01*
X172200476Y-78064287D01*
X172105238Y-78016668D01*
X172010000Y-77921430D01*
X171962381Y-77778572D01*
X171962381Y-77683334D01*
X172010000Y-77540477D01*
X172057619Y-77492858D01*
X172962381Y-76921430D02*
X172914762Y-77016668D01*
X172867143Y-77064287D01*
X172771905Y-77111906D01*
X172486190Y-77111906D01*
X172390952Y-77064287D01*
X172343333Y-77016668D01*
X172295714Y-76921430D01*
X172295714Y-76778572D01*
X172343333Y-76683334D01*
X172390952Y-76635715D01*
X172486190Y-76588096D01*
X172771905Y-76588096D01*
X172867143Y-76635715D01*
X172914762Y-76683334D01*
X172962381Y-76778572D01*
X172962381Y-76921430D01*
X172295714Y-76159525D02*
X172962381Y-76159525D01*
X172390952Y-76159525D02*
X172343333Y-76111906D01*
X172295714Y-76016668D01*
X172295714Y-75873810D01*
X172343333Y-75778572D01*
X172438571Y-75730953D01*
X172962381Y-75730953D01*
X172295714Y-75254763D02*
X172962381Y-75254763D01*
X172390952Y-75254763D02*
X172343333Y-75207144D01*
X172295714Y-75111906D01*
X172295714Y-74969048D01*
X172343333Y-74873810D01*
X172438571Y-74826191D01*
X172962381Y-74826191D01*
X173057619Y-74588096D02*
X173057619Y-73826191D01*
X171962381Y-73397620D02*
X171962381Y-73302381D01*
X172010000Y-73207143D01*
X172057619Y-73159524D01*
X172152857Y-73111905D01*
X172343333Y-73064286D01*
X172581429Y-73064286D01*
X172771905Y-73111905D01*
X172867143Y-73159524D01*
X172914762Y-73207143D01*
X172962381Y-73302381D01*
X172962381Y-73397620D01*
X172914762Y-73492858D01*
X172867143Y-73540477D01*
X172771905Y-73588096D01*
X172581429Y-73635715D01*
X172343333Y-73635715D01*
X172152857Y-73588096D01*
X172057619Y-73540477D01*
X172010000Y-73492858D01*
X171962381Y-73397620D01*
X172057619Y-72683334D02*
X172010000Y-72635715D01*
X171962381Y-72540477D01*
X171962381Y-72302381D01*
X172010000Y-72207143D01*
X172057619Y-72159524D01*
X172152857Y-72111905D01*
X172248095Y-72111905D01*
X172390952Y-72159524D01*
X172962381Y-72730953D01*
X172962381Y-72111905D01*
X172962381Y-71778572D02*
X172295714Y-71254762D01*
X172295714Y-71778572D02*
X172962381Y-71254762D01*
X171962381Y-70683334D02*
X171962381Y-70588095D01*
X172010000Y-70492857D01*
X172057619Y-70445238D01*
X172152857Y-70397619D01*
X172343333Y-70350000D01*
X172581429Y-70350000D01*
X172771905Y-70397619D01*
X172867143Y-70445238D01*
X172914762Y-70492857D01*
X172962381Y-70588095D01*
X172962381Y-70683334D01*
X172914762Y-70778572D01*
X172867143Y-70826191D01*
X172771905Y-70873810D01*
X172581429Y-70921429D01*
X172343333Y-70921429D01*
X172152857Y-70873810D01*
X172057619Y-70826191D01*
X172010000Y-70778572D01*
X171962381Y-70683334D01*
X171962381Y-69445238D02*
X171962381Y-69921429D01*
X172438571Y-69969048D01*
X172390952Y-69921429D01*
X172343333Y-69826191D01*
X172343333Y-69588095D01*
X172390952Y-69492857D01*
X172438571Y-69445238D01*
X172533810Y-69397619D01*
X172771905Y-69397619D01*
X172867143Y-69445238D01*
X172914762Y-69492857D01*
X172962381Y-69588095D01*
X172962381Y-69826191D01*
X172914762Y-69921429D01*
X172867143Y-69969048D01*
X173057619Y-69207143D02*
X173057619Y-68445238D01*
X171962381Y-68016667D02*
X171962381Y-67826190D01*
X172010000Y-67730952D01*
X172105238Y-67635714D01*
X172295714Y-67588095D01*
X172629048Y-67588095D01*
X172819524Y-67635714D01*
X172914762Y-67730952D01*
X172962381Y-67826190D01*
X172962381Y-68016667D01*
X172914762Y-68111905D01*
X172819524Y-68207143D01*
X172629048Y-68254762D01*
X172295714Y-68254762D01*
X172105238Y-68207143D01*
X172010000Y-68111905D01*
X171962381Y-68016667D01*
X172962381Y-66730952D02*
X171962381Y-66730952D01*
X172914762Y-66730952D02*
X172962381Y-66826190D01*
X172962381Y-67016667D01*
X172914762Y-67111905D01*
X172867143Y-67159524D01*
X172771905Y-67207143D01*
X172486190Y-67207143D01*
X172390952Y-67159524D01*
X172343333Y-67111905D01*
X172295714Y-67016667D01*
X172295714Y-66826190D01*
X172343333Y-66730952D01*
X172962381Y-65826190D02*
X171962381Y-65826190D01*
X172914762Y-65826190D02*
X172962381Y-65921428D01*
X172962381Y-66111905D01*
X172914762Y-66207143D01*
X172867143Y-66254762D01*
X172771905Y-66302381D01*
X172486190Y-66302381D01*
X172390952Y-66254762D01*
X172343333Y-66207143D01*
X172295714Y-66111905D01*
X172295714Y-65921428D01*
X172343333Y-65826190D01*
X173057619Y-65588095D02*
X173057619Y-64826190D01*
X172438571Y-64588095D02*
X172438571Y-64254761D01*
X172962381Y-64111904D02*
X172962381Y-64588095D01*
X171962381Y-64588095D01*
X171962381Y-64111904D01*
X172295714Y-63778571D02*
X172962381Y-63540476D01*
X172295714Y-63302380D01*
X172914762Y-62540475D02*
X172962381Y-62635713D01*
X172962381Y-62826190D01*
X172914762Y-62921428D01*
X172819524Y-62969047D01*
X172438571Y-62969047D01*
X172343333Y-62921428D01*
X172295714Y-62826190D01*
X172295714Y-62635713D01*
X172343333Y-62540475D01*
X172438571Y-62492856D01*
X172533810Y-62492856D01*
X172629048Y-62969047D01*
X172295714Y-62064285D02*
X172962381Y-62064285D01*
X172390952Y-62064285D02*
X172343333Y-62016666D01*
X172295714Y-61921428D01*
X172295714Y-61778570D01*
X172343333Y-61683332D01*
X172438571Y-61635713D01*
X172962381Y-61635713D01*
X162076190Y-70302381D02*
X162076190Y-69302381D01*
X162457143Y-69302381D01*
X162552381Y-69350000D01*
X162600000Y-69397619D01*
X162647619Y-69492857D01*
X162647619Y-69635714D01*
X162600000Y-69730952D01*
X162552381Y-69778571D01*
X162457143Y-69826190D01*
X162076190Y-69826190D01*
X163266666Y-69302381D02*
X163457143Y-69302381D01*
X163552381Y-69350000D01*
X163647619Y-69445238D01*
X163695238Y-69635714D01*
X163695238Y-69969048D01*
X163647619Y-70159524D01*
X163552381Y-70254762D01*
X163457143Y-70302381D01*
X163266666Y-70302381D01*
X163171428Y-70254762D01*
X163076190Y-70159524D01*
X163028571Y-69969048D01*
X163028571Y-69635714D01*
X163076190Y-69445238D01*
X163171428Y-69350000D01*
X163266666Y-69302381D01*
X164695238Y-70302381D02*
X164361904Y-69826190D01*
X164123809Y-70302381D02*
X164123809Y-69302381D01*
X164504762Y-69302381D01*
X164600000Y-69350000D01*
X164647619Y-69397619D01*
X164695238Y-69492857D01*
X164695238Y-69635714D01*
X164647619Y-69730952D01*
X164600000Y-69778571D01*
X164504762Y-69826190D01*
X164123809Y-69826190D01*
X164980952Y-69302381D02*
X165552381Y-69302381D01*
X165266666Y-70302381D02*
X165266666Y-69302381D01*
X165647619Y-70397619D02*
X166409524Y-70397619D01*
X166980953Y-69778571D02*
X167123810Y-69826190D01*
X167171429Y-69873810D01*
X167219048Y-69969048D01*
X167219048Y-70111905D01*
X167171429Y-70207143D01*
X167123810Y-70254762D01*
X167028572Y-70302381D01*
X166647619Y-70302381D01*
X166647619Y-69302381D01*
X166980953Y-69302381D01*
X167076191Y-69350000D01*
X167123810Y-69397619D01*
X167171429Y-69492857D01*
X167171429Y-69588095D01*
X167123810Y-69683333D01*
X167076191Y-69730952D01*
X166980953Y-69778571D01*
X166647619Y-69778571D01*
X168171429Y-70302381D02*
X167600000Y-70302381D01*
X167885714Y-70302381D02*
X167885714Y-69302381D01*
X167790476Y-69445238D01*
X167695238Y-69540476D01*
X167600000Y-69588095D01*
X155087143Y-87652858D02*
X155134762Y-87700477D01*
X155182381Y-87843334D01*
X155182381Y-87938572D01*
X155134762Y-88081430D01*
X155039524Y-88176668D01*
X154944286Y-88224287D01*
X154753810Y-88271906D01*
X154610952Y-88271906D01*
X154420476Y-88224287D01*
X154325238Y-88176668D01*
X154230000Y-88081430D01*
X154182381Y-87938572D01*
X154182381Y-87843334D01*
X154230000Y-87700477D01*
X154277619Y-87652858D01*
X155182381Y-87081430D02*
X155134762Y-87176668D01*
X155087143Y-87224287D01*
X154991905Y-87271906D01*
X154706190Y-87271906D01*
X154610952Y-87224287D01*
X154563333Y-87176668D01*
X154515714Y-87081430D01*
X154515714Y-86938572D01*
X154563333Y-86843334D01*
X154610952Y-86795715D01*
X154706190Y-86748096D01*
X154991905Y-86748096D01*
X155087143Y-86795715D01*
X155134762Y-86843334D01*
X155182381Y-86938572D01*
X155182381Y-87081430D01*
X154515714Y-86319525D02*
X155182381Y-86319525D01*
X154610952Y-86319525D02*
X154563333Y-86271906D01*
X154515714Y-86176668D01*
X154515714Y-86033810D01*
X154563333Y-85938572D01*
X154658571Y-85890953D01*
X155182381Y-85890953D01*
X154515714Y-85414763D02*
X155182381Y-85414763D01*
X154610952Y-85414763D02*
X154563333Y-85367144D01*
X154515714Y-85271906D01*
X154515714Y-85129048D01*
X154563333Y-85033810D01*
X154658571Y-84986191D01*
X155182381Y-84986191D01*
X155277619Y-84748096D02*
X155277619Y-83986191D01*
X154182381Y-83557620D02*
X154182381Y-83462381D01*
X154230000Y-83367143D01*
X154277619Y-83319524D01*
X154372857Y-83271905D01*
X154563333Y-83224286D01*
X154801429Y-83224286D01*
X154991905Y-83271905D01*
X155087143Y-83319524D01*
X155134762Y-83367143D01*
X155182381Y-83462381D01*
X155182381Y-83557620D01*
X155134762Y-83652858D01*
X155087143Y-83700477D01*
X154991905Y-83748096D01*
X154801429Y-83795715D01*
X154563333Y-83795715D01*
X154372857Y-83748096D01*
X154277619Y-83700477D01*
X154230000Y-83652858D01*
X154182381Y-83557620D01*
X154277619Y-82843334D02*
X154230000Y-82795715D01*
X154182381Y-82700477D01*
X154182381Y-82462381D01*
X154230000Y-82367143D01*
X154277619Y-82319524D01*
X154372857Y-82271905D01*
X154468095Y-82271905D01*
X154610952Y-82319524D01*
X155182381Y-82890953D01*
X155182381Y-82271905D01*
X155182381Y-81938572D02*
X154515714Y-81414762D01*
X154515714Y-81938572D02*
X155182381Y-81414762D01*
X154182381Y-80843334D02*
X154182381Y-80748095D01*
X154230000Y-80652857D01*
X154277619Y-80605238D01*
X154372857Y-80557619D01*
X154563333Y-80510000D01*
X154801429Y-80510000D01*
X154991905Y-80557619D01*
X155087143Y-80605238D01*
X155134762Y-80652857D01*
X155182381Y-80748095D01*
X155182381Y-80843334D01*
X155134762Y-80938572D01*
X155087143Y-80986191D01*
X154991905Y-81033810D01*
X154801429Y-81081429D01*
X154563333Y-81081429D01*
X154372857Y-81033810D01*
X154277619Y-80986191D01*
X154230000Y-80938572D01*
X154182381Y-80843334D01*
X154182381Y-79605238D02*
X154182381Y-80081429D01*
X154658571Y-80129048D01*
X154610952Y-80081429D01*
X154563333Y-79986191D01*
X154563333Y-79748095D01*
X154610952Y-79652857D01*
X154658571Y-79605238D01*
X154753810Y-79557619D01*
X154991905Y-79557619D01*
X155087143Y-79605238D01*
X155134762Y-79652857D01*
X155182381Y-79748095D01*
X155182381Y-79986191D01*
X155134762Y-80081429D01*
X155087143Y-80129048D01*
X155277619Y-79367143D02*
X155277619Y-78605238D01*
X154182381Y-78176667D02*
X154182381Y-77986190D01*
X154230000Y-77890952D01*
X154325238Y-77795714D01*
X154515714Y-77748095D01*
X154849048Y-77748095D01*
X155039524Y-77795714D01*
X155134762Y-77890952D01*
X155182381Y-77986190D01*
X155182381Y-78176667D01*
X155134762Y-78271905D01*
X155039524Y-78367143D01*
X154849048Y-78414762D01*
X154515714Y-78414762D01*
X154325238Y-78367143D01*
X154230000Y-78271905D01*
X154182381Y-78176667D01*
X155182381Y-76890952D02*
X154182381Y-76890952D01*
X155134762Y-76890952D02*
X155182381Y-76986190D01*
X155182381Y-77176667D01*
X155134762Y-77271905D01*
X155087143Y-77319524D01*
X154991905Y-77367143D01*
X154706190Y-77367143D01*
X154610952Y-77319524D01*
X154563333Y-77271905D01*
X154515714Y-77176667D01*
X154515714Y-76986190D01*
X154563333Y-76890952D01*
X155182381Y-75986190D02*
X154182381Y-75986190D01*
X155134762Y-75986190D02*
X155182381Y-76081428D01*
X155182381Y-76271905D01*
X155134762Y-76367143D01*
X155087143Y-76414762D01*
X154991905Y-76462381D01*
X154706190Y-76462381D01*
X154610952Y-76414762D01*
X154563333Y-76367143D01*
X154515714Y-76271905D01*
X154515714Y-76081428D01*
X154563333Y-75986190D01*
X155277619Y-75748095D02*
X155277619Y-74986190D01*
X154658571Y-74748095D02*
X154658571Y-74414761D01*
X155182381Y-74271904D02*
X155182381Y-74748095D01*
X154182381Y-74748095D01*
X154182381Y-74271904D01*
X154515714Y-73938571D02*
X155182381Y-73700476D01*
X154515714Y-73462380D01*
X155134762Y-72700475D02*
X155182381Y-72795713D01*
X155182381Y-72986190D01*
X155134762Y-73081428D01*
X155039524Y-73129047D01*
X154658571Y-73129047D01*
X154563333Y-73081428D01*
X154515714Y-72986190D01*
X154515714Y-72795713D01*
X154563333Y-72700475D01*
X154658571Y-72652856D01*
X154753810Y-72652856D01*
X154849048Y-73129047D01*
X154515714Y-72224285D02*
X155182381Y-72224285D01*
X154610952Y-72224285D02*
X154563333Y-72176666D01*
X154515714Y-72081428D01*
X154515714Y-71938570D01*
X154563333Y-71843332D01*
X154658571Y-71795713D01*
X155182381Y-71795713D01*
X144296190Y-80462381D02*
X144296190Y-79462381D01*
X144677143Y-79462381D01*
X144772381Y-79510000D01*
X144820000Y-79557619D01*
X144867619Y-79652857D01*
X144867619Y-79795714D01*
X144820000Y-79890952D01*
X144772381Y-79938571D01*
X144677143Y-79986190D01*
X144296190Y-79986190D01*
X145486666Y-79462381D02*
X145677143Y-79462381D01*
X145772381Y-79510000D01*
X145867619Y-79605238D01*
X145915238Y-79795714D01*
X145915238Y-80129048D01*
X145867619Y-80319524D01*
X145772381Y-80414762D01*
X145677143Y-80462381D01*
X145486666Y-80462381D01*
X145391428Y-80414762D01*
X145296190Y-80319524D01*
X145248571Y-80129048D01*
X145248571Y-79795714D01*
X145296190Y-79605238D01*
X145391428Y-79510000D01*
X145486666Y-79462381D01*
X146915238Y-80462381D02*
X146581904Y-79986190D01*
X146343809Y-80462381D02*
X146343809Y-79462381D01*
X146724762Y-79462381D01*
X146820000Y-79510000D01*
X146867619Y-79557619D01*
X146915238Y-79652857D01*
X146915238Y-79795714D01*
X146867619Y-79890952D01*
X146820000Y-79938571D01*
X146724762Y-79986190D01*
X146343809Y-79986190D01*
X147200952Y-79462381D02*
X147772381Y-79462381D01*
X147486666Y-80462381D02*
X147486666Y-79462381D01*
X147867619Y-80557619D02*
X148629524Y-80557619D01*
X149439048Y-80367143D02*
X149391429Y-80414762D01*
X149248572Y-80462381D01*
X149153334Y-80462381D01*
X149010476Y-80414762D01*
X148915238Y-80319524D01*
X148867619Y-80224286D01*
X148820000Y-80033810D01*
X148820000Y-79890952D01*
X148867619Y-79700476D01*
X148915238Y-79605238D01*
X149010476Y-79510000D01*
X149153334Y-79462381D01*
X149248572Y-79462381D01*
X149391429Y-79510000D01*
X149439048Y-79557619D01*
X150391429Y-80462381D02*
X149820000Y-80462381D01*
X150105714Y-80462381D02*
X150105714Y-79462381D01*
X150010476Y-79605238D01*
X149915238Y-79700476D01*
X149820000Y-79748095D01*
X172867143Y-87652858D02*
X172914762Y-87700477D01*
X172962381Y-87843334D01*
X172962381Y-87938572D01*
X172914762Y-88081430D01*
X172819524Y-88176668D01*
X172724286Y-88224287D01*
X172533810Y-88271906D01*
X172390952Y-88271906D01*
X172200476Y-88224287D01*
X172105238Y-88176668D01*
X172010000Y-88081430D01*
X171962381Y-87938572D01*
X171962381Y-87843334D01*
X172010000Y-87700477D01*
X172057619Y-87652858D01*
X172962381Y-87081430D02*
X172914762Y-87176668D01*
X172867143Y-87224287D01*
X172771905Y-87271906D01*
X172486190Y-87271906D01*
X172390952Y-87224287D01*
X172343333Y-87176668D01*
X172295714Y-87081430D01*
X172295714Y-86938572D01*
X172343333Y-86843334D01*
X172390952Y-86795715D01*
X172486190Y-86748096D01*
X172771905Y-86748096D01*
X172867143Y-86795715D01*
X172914762Y-86843334D01*
X172962381Y-86938572D01*
X172962381Y-87081430D01*
X172295714Y-86319525D02*
X172962381Y-86319525D01*
X172390952Y-86319525D02*
X172343333Y-86271906D01*
X172295714Y-86176668D01*
X172295714Y-86033810D01*
X172343333Y-85938572D01*
X172438571Y-85890953D01*
X172962381Y-85890953D01*
X172295714Y-85414763D02*
X172962381Y-85414763D01*
X172390952Y-85414763D02*
X172343333Y-85367144D01*
X172295714Y-85271906D01*
X172295714Y-85129048D01*
X172343333Y-85033810D01*
X172438571Y-84986191D01*
X172962381Y-84986191D01*
X173057619Y-84748096D02*
X173057619Y-83986191D01*
X171962381Y-83557620D02*
X171962381Y-83462381D01*
X172010000Y-83367143D01*
X172057619Y-83319524D01*
X172152857Y-83271905D01*
X172343333Y-83224286D01*
X172581429Y-83224286D01*
X172771905Y-83271905D01*
X172867143Y-83319524D01*
X172914762Y-83367143D01*
X172962381Y-83462381D01*
X172962381Y-83557620D01*
X172914762Y-83652858D01*
X172867143Y-83700477D01*
X172771905Y-83748096D01*
X172581429Y-83795715D01*
X172343333Y-83795715D01*
X172152857Y-83748096D01*
X172057619Y-83700477D01*
X172010000Y-83652858D01*
X171962381Y-83557620D01*
X172057619Y-82843334D02*
X172010000Y-82795715D01*
X171962381Y-82700477D01*
X171962381Y-82462381D01*
X172010000Y-82367143D01*
X172057619Y-82319524D01*
X172152857Y-82271905D01*
X172248095Y-82271905D01*
X172390952Y-82319524D01*
X172962381Y-82890953D01*
X172962381Y-82271905D01*
X172962381Y-81938572D02*
X172295714Y-81414762D01*
X172295714Y-81938572D02*
X172962381Y-81414762D01*
X171962381Y-80843334D02*
X171962381Y-80748095D01*
X172010000Y-80652857D01*
X172057619Y-80605238D01*
X172152857Y-80557619D01*
X172343333Y-80510000D01*
X172581429Y-80510000D01*
X172771905Y-80557619D01*
X172867143Y-80605238D01*
X172914762Y-80652857D01*
X172962381Y-80748095D01*
X172962381Y-80843334D01*
X172914762Y-80938572D01*
X172867143Y-80986191D01*
X172771905Y-81033810D01*
X172581429Y-81081429D01*
X172343333Y-81081429D01*
X172152857Y-81033810D01*
X172057619Y-80986191D01*
X172010000Y-80938572D01*
X171962381Y-80843334D01*
X171962381Y-79605238D02*
X171962381Y-80081429D01*
X172438571Y-80129048D01*
X172390952Y-80081429D01*
X172343333Y-79986191D01*
X172343333Y-79748095D01*
X172390952Y-79652857D01*
X172438571Y-79605238D01*
X172533810Y-79557619D01*
X172771905Y-79557619D01*
X172867143Y-79605238D01*
X172914762Y-79652857D01*
X172962381Y-79748095D01*
X172962381Y-79986191D01*
X172914762Y-80081429D01*
X172867143Y-80129048D01*
X173057619Y-79367143D02*
X173057619Y-78605238D01*
X171962381Y-78176667D02*
X171962381Y-77986190D01*
X172010000Y-77890952D01*
X172105238Y-77795714D01*
X172295714Y-77748095D01*
X172629048Y-77748095D01*
X172819524Y-77795714D01*
X172914762Y-77890952D01*
X172962381Y-77986190D01*
X172962381Y-78176667D01*
X172914762Y-78271905D01*
X172819524Y-78367143D01*
X172629048Y-78414762D01*
X172295714Y-78414762D01*
X172105238Y-78367143D01*
X172010000Y-78271905D01*
X171962381Y-78176667D01*
X172962381Y-76890952D02*
X171962381Y-76890952D01*
X172914762Y-76890952D02*
X172962381Y-76986190D01*
X172962381Y-77176667D01*
X172914762Y-77271905D01*
X172867143Y-77319524D01*
X172771905Y-77367143D01*
X172486190Y-77367143D01*
X172390952Y-77319524D01*
X172343333Y-77271905D01*
X172295714Y-77176667D01*
X172295714Y-76986190D01*
X172343333Y-76890952D01*
X172962381Y-75986190D02*
X171962381Y-75986190D01*
X172914762Y-75986190D02*
X172962381Y-76081428D01*
X172962381Y-76271905D01*
X172914762Y-76367143D01*
X172867143Y-76414762D01*
X172771905Y-76462381D01*
X172486190Y-76462381D01*
X172390952Y-76414762D01*
X172343333Y-76367143D01*
X172295714Y-76271905D01*
X172295714Y-76081428D01*
X172343333Y-75986190D01*
X173057619Y-75748095D02*
X173057619Y-74986190D01*
X172438571Y-74748095D02*
X172438571Y-74414761D01*
X172962381Y-74271904D02*
X172962381Y-74748095D01*
X171962381Y-74748095D01*
X171962381Y-74271904D01*
X172295714Y-73938571D02*
X172962381Y-73700476D01*
X172295714Y-73462380D01*
X172914762Y-72700475D02*
X172962381Y-72795713D01*
X172962381Y-72986190D01*
X172914762Y-73081428D01*
X172819524Y-73129047D01*
X172438571Y-73129047D01*
X172343333Y-73081428D01*
X172295714Y-72986190D01*
X172295714Y-72795713D01*
X172343333Y-72700475D01*
X172438571Y-72652856D01*
X172533810Y-72652856D01*
X172629048Y-73129047D01*
X172295714Y-72224285D02*
X172962381Y-72224285D01*
X172390952Y-72224285D02*
X172343333Y-72176666D01*
X172295714Y-72081428D01*
X172295714Y-71938570D01*
X172343333Y-71843332D01*
X172438571Y-71795713D01*
X172962381Y-71795713D01*
X162076190Y-80462381D02*
X162076190Y-79462381D01*
X162457143Y-79462381D01*
X162552381Y-79510000D01*
X162600000Y-79557619D01*
X162647619Y-79652857D01*
X162647619Y-79795714D01*
X162600000Y-79890952D01*
X162552381Y-79938571D01*
X162457143Y-79986190D01*
X162076190Y-79986190D01*
X163266666Y-79462381D02*
X163457143Y-79462381D01*
X163552381Y-79510000D01*
X163647619Y-79605238D01*
X163695238Y-79795714D01*
X163695238Y-80129048D01*
X163647619Y-80319524D01*
X163552381Y-80414762D01*
X163457143Y-80462381D01*
X163266666Y-80462381D01*
X163171428Y-80414762D01*
X163076190Y-80319524D01*
X163028571Y-80129048D01*
X163028571Y-79795714D01*
X163076190Y-79605238D01*
X163171428Y-79510000D01*
X163266666Y-79462381D01*
X164695238Y-80462381D02*
X164361904Y-79986190D01*
X164123809Y-80462381D02*
X164123809Y-79462381D01*
X164504762Y-79462381D01*
X164600000Y-79510000D01*
X164647619Y-79557619D01*
X164695238Y-79652857D01*
X164695238Y-79795714D01*
X164647619Y-79890952D01*
X164600000Y-79938571D01*
X164504762Y-79986190D01*
X164123809Y-79986190D01*
X164980952Y-79462381D02*
X165552381Y-79462381D01*
X165266666Y-80462381D02*
X165266666Y-79462381D01*
X165647619Y-80557619D02*
X166409524Y-80557619D01*
X166647619Y-80462381D02*
X166647619Y-79462381D01*
X166885714Y-79462381D01*
X167028572Y-79510000D01*
X167123810Y-79605238D01*
X167171429Y-79700476D01*
X167219048Y-79890952D01*
X167219048Y-80033810D01*
X167171429Y-80224286D01*
X167123810Y-80319524D01*
X167028572Y-80414762D01*
X166885714Y-80462381D01*
X166647619Y-80462381D01*
X168171429Y-80462381D02*
X167600000Y-80462381D01*
X167885714Y-80462381D02*
X167885714Y-79462381D01*
X167790476Y-79605238D01*
X167695238Y-79700476D01*
X167600000Y-79748095D01*
X155087143Y-97812858D02*
X155134762Y-97860477D01*
X155182381Y-98003334D01*
X155182381Y-98098572D01*
X155134762Y-98241430D01*
X155039524Y-98336668D01*
X154944286Y-98384287D01*
X154753810Y-98431906D01*
X154610952Y-98431906D01*
X154420476Y-98384287D01*
X154325238Y-98336668D01*
X154230000Y-98241430D01*
X154182381Y-98098572D01*
X154182381Y-98003334D01*
X154230000Y-97860477D01*
X154277619Y-97812858D01*
X155182381Y-97241430D02*
X155134762Y-97336668D01*
X155087143Y-97384287D01*
X154991905Y-97431906D01*
X154706190Y-97431906D01*
X154610952Y-97384287D01*
X154563333Y-97336668D01*
X154515714Y-97241430D01*
X154515714Y-97098572D01*
X154563333Y-97003334D01*
X154610952Y-96955715D01*
X154706190Y-96908096D01*
X154991905Y-96908096D01*
X155087143Y-96955715D01*
X155134762Y-97003334D01*
X155182381Y-97098572D01*
X155182381Y-97241430D01*
X154515714Y-96479525D02*
X155182381Y-96479525D01*
X154610952Y-96479525D02*
X154563333Y-96431906D01*
X154515714Y-96336668D01*
X154515714Y-96193810D01*
X154563333Y-96098572D01*
X154658571Y-96050953D01*
X155182381Y-96050953D01*
X154515714Y-95574763D02*
X155182381Y-95574763D01*
X154610952Y-95574763D02*
X154563333Y-95527144D01*
X154515714Y-95431906D01*
X154515714Y-95289048D01*
X154563333Y-95193810D01*
X154658571Y-95146191D01*
X155182381Y-95146191D01*
X155277619Y-94908096D02*
X155277619Y-94146191D01*
X154182381Y-93717620D02*
X154182381Y-93622381D01*
X154230000Y-93527143D01*
X154277619Y-93479524D01*
X154372857Y-93431905D01*
X154563333Y-93384286D01*
X154801429Y-93384286D01*
X154991905Y-93431905D01*
X155087143Y-93479524D01*
X155134762Y-93527143D01*
X155182381Y-93622381D01*
X155182381Y-93717620D01*
X155134762Y-93812858D01*
X155087143Y-93860477D01*
X154991905Y-93908096D01*
X154801429Y-93955715D01*
X154563333Y-93955715D01*
X154372857Y-93908096D01*
X154277619Y-93860477D01*
X154230000Y-93812858D01*
X154182381Y-93717620D01*
X154277619Y-93003334D02*
X154230000Y-92955715D01*
X154182381Y-92860477D01*
X154182381Y-92622381D01*
X154230000Y-92527143D01*
X154277619Y-92479524D01*
X154372857Y-92431905D01*
X154468095Y-92431905D01*
X154610952Y-92479524D01*
X155182381Y-93050953D01*
X155182381Y-92431905D01*
X155182381Y-92098572D02*
X154515714Y-91574762D01*
X154515714Y-92098572D02*
X155182381Y-91574762D01*
X154182381Y-91003334D02*
X154182381Y-90908095D01*
X154230000Y-90812857D01*
X154277619Y-90765238D01*
X154372857Y-90717619D01*
X154563333Y-90670000D01*
X154801429Y-90670000D01*
X154991905Y-90717619D01*
X155087143Y-90765238D01*
X155134762Y-90812857D01*
X155182381Y-90908095D01*
X155182381Y-91003334D01*
X155134762Y-91098572D01*
X155087143Y-91146191D01*
X154991905Y-91193810D01*
X154801429Y-91241429D01*
X154563333Y-91241429D01*
X154372857Y-91193810D01*
X154277619Y-91146191D01*
X154230000Y-91098572D01*
X154182381Y-91003334D01*
X154182381Y-89765238D02*
X154182381Y-90241429D01*
X154658571Y-90289048D01*
X154610952Y-90241429D01*
X154563333Y-90146191D01*
X154563333Y-89908095D01*
X154610952Y-89812857D01*
X154658571Y-89765238D01*
X154753810Y-89717619D01*
X154991905Y-89717619D01*
X155087143Y-89765238D01*
X155134762Y-89812857D01*
X155182381Y-89908095D01*
X155182381Y-90146191D01*
X155134762Y-90241429D01*
X155087143Y-90289048D01*
X155277619Y-89527143D02*
X155277619Y-88765238D01*
X154182381Y-88336667D02*
X154182381Y-88146190D01*
X154230000Y-88050952D01*
X154325238Y-87955714D01*
X154515714Y-87908095D01*
X154849048Y-87908095D01*
X155039524Y-87955714D01*
X155134762Y-88050952D01*
X155182381Y-88146190D01*
X155182381Y-88336667D01*
X155134762Y-88431905D01*
X155039524Y-88527143D01*
X154849048Y-88574762D01*
X154515714Y-88574762D01*
X154325238Y-88527143D01*
X154230000Y-88431905D01*
X154182381Y-88336667D01*
X155182381Y-87050952D02*
X154182381Y-87050952D01*
X155134762Y-87050952D02*
X155182381Y-87146190D01*
X155182381Y-87336667D01*
X155134762Y-87431905D01*
X155087143Y-87479524D01*
X154991905Y-87527143D01*
X154706190Y-87527143D01*
X154610952Y-87479524D01*
X154563333Y-87431905D01*
X154515714Y-87336667D01*
X154515714Y-87146190D01*
X154563333Y-87050952D01*
X155182381Y-86146190D02*
X154182381Y-86146190D01*
X155134762Y-86146190D02*
X155182381Y-86241428D01*
X155182381Y-86431905D01*
X155134762Y-86527143D01*
X155087143Y-86574762D01*
X154991905Y-86622381D01*
X154706190Y-86622381D01*
X154610952Y-86574762D01*
X154563333Y-86527143D01*
X154515714Y-86431905D01*
X154515714Y-86241428D01*
X154563333Y-86146190D01*
X155277619Y-85908095D02*
X155277619Y-85146190D01*
X154658571Y-84908095D02*
X154658571Y-84574761D01*
X155182381Y-84431904D02*
X155182381Y-84908095D01*
X154182381Y-84908095D01*
X154182381Y-84431904D01*
X154515714Y-84098571D02*
X155182381Y-83860476D01*
X154515714Y-83622380D01*
X155134762Y-82860475D02*
X155182381Y-82955713D01*
X155182381Y-83146190D01*
X155134762Y-83241428D01*
X155039524Y-83289047D01*
X154658571Y-83289047D01*
X154563333Y-83241428D01*
X154515714Y-83146190D01*
X154515714Y-82955713D01*
X154563333Y-82860475D01*
X154658571Y-82812856D01*
X154753810Y-82812856D01*
X154849048Y-83289047D01*
X154515714Y-82384285D02*
X155182381Y-82384285D01*
X154610952Y-82384285D02*
X154563333Y-82336666D01*
X154515714Y-82241428D01*
X154515714Y-82098570D01*
X154563333Y-82003332D01*
X154658571Y-81955713D01*
X155182381Y-81955713D01*
X144343809Y-90622381D02*
X144343809Y-89622381D01*
X144724762Y-89622381D01*
X144820000Y-89670000D01*
X144867619Y-89717619D01*
X144915238Y-89812857D01*
X144915238Y-89955714D01*
X144867619Y-90050952D01*
X144820000Y-90098571D01*
X144724762Y-90146190D01*
X144343809Y-90146190D01*
X145534285Y-89622381D02*
X145724762Y-89622381D01*
X145820000Y-89670000D01*
X145915238Y-89765238D01*
X145962857Y-89955714D01*
X145962857Y-90289048D01*
X145915238Y-90479524D01*
X145820000Y-90574762D01*
X145724762Y-90622381D01*
X145534285Y-90622381D01*
X145439047Y-90574762D01*
X145343809Y-90479524D01*
X145296190Y-90289048D01*
X145296190Y-89955714D01*
X145343809Y-89765238D01*
X145439047Y-89670000D01*
X145534285Y-89622381D01*
X146962857Y-90622381D02*
X146629523Y-90146190D01*
X146391428Y-90622381D02*
X146391428Y-89622381D01*
X146772381Y-89622381D01*
X146867619Y-89670000D01*
X146915238Y-89717619D01*
X146962857Y-89812857D01*
X146962857Y-89955714D01*
X146915238Y-90050952D01*
X146867619Y-90098571D01*
X146772381Y-90146190D01*
X146391428Y-90146190D01*
X147248571Y-89622381D02*
X147820000Y-89622381D01*
X147534285Y-90622381D02*
X147534285Y-89622381D01*
X147915238Y-90717619D02*
X148677143Y-90717619D01*
X148915238Y-90098571D02*
X149248572Y-90098571D01*
X149391429Y-90622381D02*
X148915238Y-90622381D01*
X148915238Y-89622381D01*
X149391429Y-89622381D01*
X150343810Y-90622381D02*
X149772381Y-90622381D01*
X150058095Y-90622381D02*
X150058095Y-89622381D01*
X149962857Y-89765238D01*
X149867619Y-89860476D01*
X149772381Y-89908095D01*
X185567143Y-105338095D02*
X185614762Y-105385714D01*
X185662381Y-105528571D01*
X185662381Y-105623809D01*
X185614762Y-105766667D01*
X185519524Y-105861905D01*
X185424286Y-105909524D01*
X185233810Y-105957143D01*
X185090952Y-105957143D01*
X184900476Y-105909524D01*
X184805238Y-105861905D01*
X184710000Y-105766667D01*
X184662381Y-105623809D01*
X184662381Y-105528571D01*
X184710000Y-105385714D01*
X184757619Y-105338095D01*
X185662381Y-104766667D02*
X185614762Y-104861905D01*
X185567143Y-104909524D01*
X185471905Y-104957143D01*
X185186190Y-104957143D01*
X185090952Y-104909524D01*
X185043333Y-104861905D01*
X184995714Y-104766667D01*
X184995714Y-104623809D01*
X185043333Y-104528571D01*
X185090952Y-104480952D01*
X185186190Y-104433333D01*
X185471905Y-104433333D01*
X185567143Y-104480952D01*
X185614762Y-104528571D01*
X185662381Y-104623809D01*
X185662381Y-104766667D01*
X184995714Y-104004762D02*
X185662381Y-104004762D01*
X185090952Y-104004762D02*
X185043333Y-103957143D01*
X184995714Y-103861905D01*
X184995714Y-103719047D01*
X185043333Y-103623809D01*
X185138571Y-103576190D01*
X185662381Y-103576190D01*
X184995714Y-103100000D02*
X185662381Y-103100000D01*
X185090952Y-103100000D02*
X185043333Y-103052381D01*
X184995714Y-102957143D01*
X184995714Y-102814285D01*
X185043333Y-102719047D01*
X185138571Y-102671428D01*
X185662381Y-102671428D01*
X185757619Y-102433333D02*
X185757619Y-101671428D01*
X184662381Y-101242857D02*
X184662381Y-101147618D01*
X184710000Y-101052380D01*
X184757619Y-101004761D01*
X184852857Y-100957142D01*
X185043333Y-100909523D01*
X185281429Y-100909523D01*
X185471905Y-100957142D01*
X185567143Y-101004761D01*
X185614762Y-101052380D01*
X185662381Y-101147618D01*
X185662381Y-101242857D01*
X185614762Y-101338095D01*
X185567143Y-101385714D01*
X185471905Y-101433333D01*
X185281429Y-101480952D01*
X185043333Y-101480952D01*
X184852857Y-101433333D01*
X184757619Y-101385714D01*
X184710000Y-101338095D01*
X184662381Y-101242857D01*
X185662381Y-99957142D02*
X185662381Y-100528571D01*
X185662381Y-100242857D02*
X184662381Y-100242857D01*
X184805238Y-100338095D01*
X184900476Y-100433333D01*
X184948095Y-100528571D01*
X185662381Y-99623809D02*
X184995714Y-99099999D01*
X184995714Y-99623809D02*
X185662381Y-99099999D01*
X184662381Y-98528571D02*
X184662381Y-98433332D01*
X184710000Y-98338094D01*
X184757619Y-98290475D01*
X184852857Y-98242856D01*
X185043333Y-98195237D01*
X185281429Y-98195237D01*
X185471905Y-98242856D01*
X185567143Y-98290475D01*
X185614762Y-98338094D01*
X185662381Y-98433332D01*
X185662381Y-98528571D01*
X185614762Y-98623809D01*
X185567143Y-98671428D01*
X185471905Y-98719047D01*
X185281429Y-98766666D01*
X185043333Y-98766666D01*
X184852857Y-98719047D01*
X184757619Y-98671428D01*
X184710000Y-98623809D01*
X184662381Y-98528571D01*
X184662381Y-97338094D02*
X184662381Y-97528571D01*
X184710000Y-97623809D01*
X184757619Y-97671428D01*
X184900476Y-97766666D01*
X185090952Y-97814285D01*
X185471905Y-97814285D01*
X185567143Y-97766666D01*
X185614762Y-97719047D01*
X185662381Y-97623809D01*
X185662381Y-97433332D01*
X185614762Y-97338094D01*
X185567143Y-97290475D01*
X185471905Y-97242856D01*
X185233810Y-97242856D01*
X185138571Y-97290475D01*
X185090952Y-97338094D01*
X185043333Y-97433332D01*
X185043333Y-97623809D01*
X185090952Y-97719047D01*
X185138571Y-97766666D01*
X185233810Y-97814285D01*
X174672857Y-102052381D02*
X174672857Y-101052381D01*
X175053810Y-101052381D01*
X175149048Y-101100000D01*
X175196667Y-101147619D01*
X175244286Y-101242857D01*
X175244286Y-101385714D01*
X175196667Y-101480952D01*
X175149048Y-101528571D01*
X175053810Y-101576190D01*
X174672857Y-101576190D01*
X175672857Y-102052381D02*
X175672857Y-101052381D01*
X176006191Y-101766667D01*
X176339524Y-101052381D01*
X176339524Y-102052381D01*
X177006190Y-101052381D02*
X177196667Y-101052381D01*
X177291905Y-101100000D01*
X177387143Y-101195238D01*
X177434762Y-101385714D01*
X177434762Y-101719048D01*
X177387143Y-101909524D01*
X177291905Y-102004762D01*
X177196667Y-102052381D01*
X177006190Y-102052381D01*
X176910952Y-102004762D01*
X176815714Y-101909524D01*
X176768095Y-101719048D01*
X176768095Y-101385714D01*
X176815714Y-101195238D01*
X176910952Y-101100000D01*
X177006190Y-101052381D01*
X177863333Y-102052381D02*
X177863333Y-101052381D01*
X178101428Y-101052381D01*
X178244286Y-101100000D01*
X178339524Y-101195238D01*
X178387143Y-101290476D01*
X178434762Y-101480952D01*
X178434762Y-101623810D01*
X178387143Y-101814286D01*
X178339524Y-101909524D01*
X178244286Y-102004762D01*
X178101428Y-102052381D01*
X177863333Y-102052381D01*
X167787143Y-112958095D02*
X167834762Y-113005714D01*
X167882381Y-113148571D01*
X167882381Y-113243809D01*
X167834762Y-113386667D01*
X167739524Y-113481905D01*
X167644286Y-113529524D01*
X167453810Y-113577143D01*
X167310952Y-113577143D01*
X167120476Y-113529524D01*
X167025238Y-113481905D01*
X166930000Y-113386667D01*
X166882381Y-113243809D01*
X166882381Y-113148571D01*
X166930000Y-113005714D01*
X166977619Y-112958095D01*
X167882381Y-112386667D02*
X167834762Y-112481905D01*
X167787143Y-112529524D01*
X167691905Y-112577143D01*
X167406190Y-112577143D01*
X167310952Y-112529524D01*
X167263333Y-112481905D01*
X167215714Y-112386667D01*
X167215714Y-112243809D01*
X167263333Y-112148571D01*
X167310952Y-112100952D01*
X167406190Y-112053333D01*
X167691905Y-112053333D01*
X167787143Y-112100952D01*
X167834762Y-112148571D01*
X167882381Y-112243809D01*
X167882381Y-112386667D01*
X167215714Y-111624762D02*
X167882381Y-111624762D01*
X167310952Y-111624762D02*
X167263333Y-111577143D01*
X167215714Y-111481905D01*
X167215714Y-111339047D01*
X167263333Y-111243809D01*
X167358571Y-111196190D01*
X167882381Y-111196190D01*
X167215714Y-110720000D02*
X167882381Y-110720000D01*
X167310952Y-110720000D02*
X167263333Y-110672381D01*
X167215714Y-110577143D01*
X167215714Y-110434285D01*
X167263333Y-110339047D01*
X167358571Y-110291428D01*
X167882381Y-110291428D01*
X167977619Y-110053333D02*
X167977619Y-109291428D01*
X166882381Y-108862857D02*
X166882381Y-108767618D01*
X166930000Y-108672380D01*
X166977619Y-108624761D01*
X167072857Y-108577142D01*
X167263333Y-108529523D01*
X167501429Y-108529523D01*
X167691905Y-108577142D01*
X167787143Y-108624761D01*
X167834762Y-108672380D01*
X167882381Y-108767618D01*
X167882381Y-108862857D01*
X167834762Y-108958095D01*
X167787143Y-109005714D01*
X167691905Y-109053333D01*
X167501429Y-109100952D01*
X167263333Y-109100952D01*
X167072857Y-109053333D01*
X166977619Y-109005714D01*
X166930000Y-108958095D01*
X166882381Y-108862857D01*
X167882381Y-107577142D02*
X167882381Y-108148571D01*
X167882381Y-107862857D02*
X166882381Y-107862857D01*
X167025238Y-107958095D01*
X167120476Y-108053333D01*
X167168095Y-108148571D01*
X167882381Y-107243809D02*
X167215714Y-106719999D01*
X167215714Y-107243809D02*
X167882381Y-106719999D01*
X166882381Y-106148571D02*
X166882381Y-106053332D01*
X166930000Y-105958094D01*
X166977619Y-105910475D01*
X167072857Y-105862856D01*
X167263333Y-105815237D01*
X167501429Y-105815237D01*
X167691905Y-105862856D01*
X167787143Y-105910475D01*
X167834762Y-105958094D01*
X167882381Y-106053332D01*
X167882381Y-106148571D01*
X167834762Y-106243809D01*
X167787143Y-106291428D01*
X167691905Y-106339047D01*
X167501429Y-106386666D01*
X167263333Y-106386666D01*
X167072857Y-106339047D01*
X166977619Y-106291428D01*
X166930000Y-106243809D01*
X166882381Y-106148571D01*
X167215714Y-104958094D02*
X167882381Y-104958094D01*
X166834762Y-105196190D02*
X167549048Y-105434285D01*
X167549048Y-104815237D01*
X159694762Y-108672381D02*
X159694762Y-109481905D01*
X159742381Y-109577143D01*
X159790000Y-109624762D01*
X159885238Y-109672381D01*
X160075715Y-109672381D01*
X160170953Y-109624762D01*
X160218572Y-109577143D01*
X160266191Y-109481905D01*
X160266191Y-108672381D01*
X160694762Y-109386667D02*
X161170953Y-109386667D01*
X160599524Y-109672381D02*
X160932857Y-108672381D01*
X161266191Y-109672381D01*
X162170953Y-109672381D02*
X161837619Y-109196190D01*
X161599524Y-109672381D02*
X161599524Y-108672381D01*
X161980477Y-108672381D01*
X162075715Y-108720000D01*
X162123334Y-108767619D01*
X162170953Y-108862857D01*
X162170953Y-109005714D01*
X162123334Y-109100952D01*
X162075715Y-109148571D01*
X161980477Y-109196190D01*
X161599524Y-109196190D01*
X162456667Y-108672381D02*
X163028096Y-108672381D01*
X162742381Y-109672381D02*
X162742381Y-108672381D01*
X167787143Y-120578095D02*
X167834762Y-120625714D01*
X167882381Y-120768571D01*
X167882381Y-120863809D01*
X167834762Y-121006667D01*
X167739524Y-121101905D01*
X167644286Y-121149524D01*
X167453810Y-121197143D01*
X167310952Y-121197143D01*
X167120476Y-121149524D01*
X167025238Y-121101905D01*
X166930000Y-121006667D01*
X166882381Y-120863809D01*
X166882381Y-120768571D01*
X166930000Y-120625714D01*
X166977619Y-120578095D01*
X167882381Y-120006667D02*
X167834762Y-120101905D01*
X167787143Y-120149524D01*
X167691905Y-120197143D01*
X167406190Y-120197143D01*
X167310952Y-120149524D01*
X167263333Y-120101905D01*
X167215714Y-120006667D01*
X167215714Y-119863809D01*
X167263333Y-119768571D01*
X167310952Y-119720952D01*
X167406190Y-119673333D01*
X167691905Y-119673333D01*
X167787143Y-119720952D01*
X167834762Y-119768571D01*
X167882381Y-119863809D01*
X167882381Y-120006667D01*
X167215714Y-119244762D02*
X167882381Y-119244762D01*
X167310952Y-119244762D02*
X167263333Y-119197143D01*
X167215714Y-119101905D01*
X167215714Y-118959047D01*
X167263333Y-118863809D01*
X167358571Y-118816190D01*
X167882381Y-118816190D01*
X167215714Y-118340000D02*
X167882381Y-118340000D01*
X167310952Y-118340000D02*
X167263333Y-118292381D01*
X167215714Y-118197143D01*
X167215714Y-118054285D01*
X167263333Y-117959047D01*
X167358571Y-117911428D01*
X167882381Y-117911428D01*
X167977619Y-117673333D02*
X167977619Y-116911428D01*
X166882381Y-116482857D02*
X166882381Y-116387618D01*
X166930000Y-116292380D01*
X166977619Y-116244761D01*
X167072857Y-116197142D01*
X167263333Y-116149523D01*
X167501429Y-116149523D01*
X167691905Y-116197142D01*
X167787143Y-116244761D01*
X167834762Y-116292380D01*
X167882381Y-116387618D01*
X167882381Y-116482857D01*
X167834762Y-116578095D01*
X167787143Y-116625714D01*
X167691905Y-116673333D01*
X167501429Y-116720952D01*
X167263333Y-116720952D01*
X167072857Y-116673333D01*
X166977619Y-116625714D01*
X166930000Y-116578095D01*
X166882381Y-116482857D01*
X167882381Y-115197142D02*
X167882381Y-115768571D01*
X167882381Y-115482857D02*
X166882381Y-115482857D01*
X167025238Y-115578095D01*
X167120476Y-115673333D01*
X167168095Y-115768571D01*
X167882381Y-114863809D02*
X167215714Y-114339999D01*
X167215714Y-114863809D02*
X167882381Y-114339999D01*
X166882381Y-113768571D02*
X166882381Y-113673332D01*
X166930000Y-113578094D01*
X166977619Y-113530475D01*
X167072857Y-113482856D01*
X167263333Y-113435237D01*
X167501429Y-113435237D01*
X167691905Y-113482856D01*
X167787143Y-113530475D01*
X167834762Y-113578094D01*
X167882381Y-113673332D01*
X167882381Y-113768571D01*
X167834762Y-113863809D01*
X167787143Y-113911428D01*
X167691905Y-113959047D01*
X167501429Y-114006666D01*
X167263333Y-114006666D01*
X167072857Y-113959047D01*
X166977619Y-113911428D01*
X166930000Y-113863809D01*
X166882381Y-113768571D01*
X167215714Y-112578094D02*
X167882381Y-112578094D01*
X166834762Y-112816190D02*
X167549048Y-113054285D01*
X167549048Y-112435237D01*
X159766191Y-117292381D02*
X159766191Y-116292381D01*
X160147144Y-116292381D01*
X160242382Y-116340000D01*
X160290001Y-116387619D01*
X160337620Y-116482857D01*
X160337620Y-116625714D01*
X160290001Y-116720952D01*
X160242382Y-116768571D01*
X160147144Y-116816190D01*
X159766191Y-116816190D01*
X160766191Y-117292381D02*
X160766191Y-116292381D01*
X161242381Y-117292381D02*
X161242381Y-116292381D01*
X161813810Y-117292381D01*
X161813810Y-116292381D01*
X162813810Y-116340000D02*
X162718572Y-116292381D01*
X162575715Y-116292381D01*
X162432857Y-116340000D01*
X162337619Y-116435238D01*
X162290000Y-116530476D01*
X162242381Y-116720952D01*
X162242381Y-116863810D01*
X162290000Y-117054286D01*
X162337619Y-117149524D01*
X162432857Y-117244762D01*
X162575715Y-117292381D01*
X162670953Y-117292381D01*
X162813810Y-117244762D01*
X162861429Y-117197143D01*
X162861429Y-116863810D01*
X162670953Y-116863810D01*
X169477143Y-145978095D02*
X169524762Y-146025714D01*
X169572381Y-146168571D01*
X169572381Y-146263809D01*
X169524762Y-146406667D01*
X169429524Y-146501905D01*
X169334286Y-146549524D01*
X169143810Y-146597143D01*
X169000952Y-146597143D01*
X168810476Y-146549524D01*
X168715238Y-146501905D01*
X168620000Y-146406667D01*
X168572381Y-146263809D01*
X168572381Y-146168571D01*
X168620000Y-146025714D01*
X168667619Y-145978095D01*
X169572381Y-145406667D02*
X169524762Y-145501905D01*
X169477143Y-145549524D01*
X169381905Y-145597143D01*
X169096190Y-145597143D01*
X169000952Y-145549524D01*
X168953333Y-145501905D01*
X168905714Y-145406667D01*
X168905714Y-145263809D01*
X168953333Y-145168571D01*
X169000952Y-145120952D01*
X169096190Y-145073333D01*
X169381905Y-145073333D01*
X169477143Y-145120952D01*
X169524762Y-145168571D01*
X169572381Y-145263809D01*
X169572381Y-145406667D01*
X168905714Y-144644762D02*
X169572381Y-144644762D01*
X169000952Y-144644762D02*
X168953333Y-144597143D01*
X168905714Y-144501905D01*
X168905714Y-144359047D01*
X168953333Y-144263809D01*
X169048571Y-144216190D01*
X169572381Y-144216190D01*
X168905714Y-143740000D02*
X169572381Y-143740000D01*
X169000952Y-143740000D02*
X168953333Y-143692381D01*
X168905714Y-143597143D01*
X168905714Y-143454285D01*
X168953333Y-143359047D01*
X169048571Y-143311428D01*
X169572381Y-143311428D01*
X169667619Y-143073333D02*
X169667619Y-142311428D01*
X168572381Y-141882857D02*
X168572381Y-141787618D01*
X168620000Y-141692380D01*
X168667619Y-141644761D01*
X168762857Y-141597142D01*
X168953333Y-141549523D01*
X169191429Y-141549523D01*
X169381905Y-141597142D01*
X169477143Y-141644761D01*
X169524762Y-141692380D01*
X169572381Y-141787618D01*
X169572381Y-141882857D01*
X169524762Y-141978095D01*
X169477143Y-142025714D01*
X169381905Y-142073333D01*
X169191429Y-142120952D01*
X168953333Y-142120952D01*
X168762857Y-142073333D01*
X168667619Y-142025714D01*
X168620000Y-141978095D01*
X168572381Y-141882857D01*
X169572381Y-140597142D02*
X169572381Y-141168571D01*
X169572381Y-140882857D02*
X168572381Y-140882857D01*
X168715238Y-140978095D01*
X168810476Y-141073333D01*
X168858095Y-141168571D01*
X169572381Y-140263809D02*
X168905714Y-139739999D01*
X168905714Y-140263809D02*
X169572381Y-139739999D01*
X168572381Y-139168571D02*
X168572381Y-139073332D01*
X168620000Y-138978094D01*
X168667619Y-138930475D01*
X168762857Y-138882856D01*
X168953333Y-138835237D01*
X169191429Y-138835237D01*
X169381905Y-138882856D01*
X169477143Y-138930475D01*
X169524762Y-138978094D01*
X169572381Y-139073332D01*
X169572381Y-139168571D01*
X169524762Y-139263809D01*
X169477143Y-139311428D01*
X169381905Y-139359047D01*
X169191429Y-139406666D01*
X168953333Y-139406666D01*
X168762857Y-139359047D01*
X168667619Y-139311428D01*
X168620000Y-139263809D01*
X168572381Y-139168571D01*
X168572381Y-137930475D02*
X168572381Y-138406666D01*
X169048571Y-138454285D01*
X169000952Y-138406666D01*
X168953333Y-138311428D01*
X168953333Y-138073332D01*
X169000952Y-137978094D01*
X169048571Y-137930475D01*
X169143810Y-137882856D01*
X169381905Y-137882856D01*
X169477143Y-137930475D01*
X169524762Y-137978094D01*
X169572381Y-138073332D01*
X169572381Y-138311428D01*
X169524762Y-138406666D01*
X169477143Y-138454285D01*
X173458571Y-142644762D02*
X173601428Y-142692381D01*
X173839524Y-142692381D01*
X173934762Y-142644762D01*
X173982381Y-142597143D01*
X174030000Y-142501905D01*
X174030000Y-142406667D01*
X173982381Y-142311429D01*
X173934762Y-142263810D01*
X173839524Y-142216190D01*
X173649047Y-142168571D01*
X173553809Y-142120952D01*
X173506190Y-142073333D01*
X173458571Y-141978095D01*
X173458571Y-141882857D01*
X173506190Y-141787619D01*
X173553809Y-141740000D01*
X173649047Y-141692381D01*
X173887143Y-141692381D01*
X174030000Y-141740000D01*
X174315714Y-141692381D02*
X174887143Y-141692381D01*
X174601428Y-142692381D02*
X174601428Y-141692381D01*
X175220476Y-142168571D02*
X175553810Y-142168571D01*
X175696667Y-142692381D02*
X175220476Y-142692381D01*
X175220476Y-141692381D01*
X175696667Y-141692381D01*
X176125238Y-142692381D02*
X176125238Y-141692381D01*
X176506191Y-141692381D01*
X176601429Y-141740000D01*
X176649048Y-141787619D01*
X176696667Y-141882857D01*
X176696667Y-142025714D01*
X176649048Y-142120952D01*
X176601429Y-142168571D01*
X176506191Y-142216190D01*
X176125238Y-142216190D01*
X177125238Y-142692381D02*
X177125238Y-141692381D01*
X177506191Y-141692381D01*
X177601429Y-141740000D01*
X177649048Y-141787619D01*
X177696667Y-141882857D01*
X177696667Y-142025714D01*
X177649048Y-142120952D01*
X177601429Y-142168571D01*
X177506191Y-142216190D01*
X177125238Y-142216190D01*
X178125238Y-142168571D02*
X178458572Y-142168571D01*
X178601429Y-142692381D02*
X178125238Y-142692381D01*
X178125238Y-141692381D01*
X178601429Y-141692381D01*
X179601429Y-142692381D02*
X179268095Y-142216190D01*
X179030000Y-142692381D02*
X179030000Y-141692381D01*
X179410953Y-141692381D01*
X179506191Y-141740000D01*
X179553810Y-141787619D01*
X179601429Y-141882857D01*
X179601429Y-142025714D01*
X179553810Y-142120952D01*
X179506191Y-142168571D01*
X179410953Y-142216190D01*
X179030000Y-142216190D01*
X161841381Y-134357619D02*
X162650905Y-134357619D01*
X162746143Y-134310000D01*
X162793762Y-134262381D01*
X162841381Y-134167143D01*
X162841381Y-133976666D01*
X162793762Y-133881428D01*
X162746143Y-133833809D01*
X162650905Y-133786190D01*
X161841381Y-133786190D01*
X162841381Y-132833809D02*
X162841381Y-133310000D01*
X161841381Y-133310000D01*
X162841381Y-132500476D02*
X161841381Y-132500476D01*
X162841381Y-131929047D01*
X161841381Y-131929047D01*
X161936619Y-131500476D02*
X161889000Y-131452857D01*
X161841381Y-131357619D01*
X161841381Y-131119523D01*
X161889000Y-131024285D01*
X161936619Y-130976666D01*
X162031857Y-130929047D01*
X162127095Y-130929047D01*
X162269952Y-130976666D01*
X162841381Y-131548095D01*
X162841381Y-130929047D01*
X161841381Y-130310000D02*
X161841381Y-130214761D01*
X161889000Y-130119523D01*
X161936619Y-130071904D01*
X162031857Y-130024285D01*
X162222333Y-129976666D01*
X162460429Y-129976666D01*
X162650905Y-130024285D01*
X162746143Y-130071904D01*
X162793762Y-130119523D01*
X162841381Y-130214761D01*
X162841381Y-130310000D01*
X162793762Y-130405238D01*
X162746143Y-130452857D01*
X162650905Y-130500476D01*
X162460429Y-130548095D01*
X162222333Y-130548095D01*
X162031857Y-130500476D01*
X161936619Y-130452857D01*
X161889000Y-130405238D01*
X161841381Y-130310000D01*
X161841381Y-129357619D02*
X161841381Y-129262380D01*
X161889000Y-129167142D01*
X161936619Y-129119523D01*
X162031857Y-129071904D01*
X162222333Y-129024285D01*
X162460429Y-129024285D01*
X162650905Y-129071904D01*
X162746143Y-129119523D01*
X162793762Y-129167142D01*
X162841381Y-129262380D01*
X162841381Y-129357619D01*
X162793762Y-129452857D01*
X162746143Y-129500476D01*
X162650905Y-129548095D01*
X162460429Y-129595714D01*
X162222333Y-129595714D01*
X162031857Y-129548095D01*
X161936619Y-129500476D01*
X161889000Y-129452857D01*
X161841381Y-129357619D01*
X161841381Y-128690952D02*
X161841381Y-128071904D01*
X162222333Y-128405238D01*
X162222333Y-128262380D01*
X162269952Y-128167142D01*
X162317571Y-128119523D01*
X162412810Y-128071904D01*
X162650905Y-128071904D01*
X162746143Y-128119523D01*
X162793762Y-128167142D01*
X162841381Y-128262380D01*
X162841381Y-128548095D01*
X162793762Y-128643333D01*
X162746143Y-128690952D01*
X162555667Y-127690952D02*
X162555667Y-127214761D01*
X162841381Y-127786190D02*
X161841381Y-127452857D01*
X162841381Y-127119523D01*
X173061381Y-134357619D02*
X173870905Y-134357619D01*
X173966143Y-134310000D01*
X174013762Y-134262381D01*
X174061381Y-134167143D01*
X174061381Y-133976666D01*
X174013762Y-133881428D01*
X173966143Y-133833809D01*
X173870905Y-133786190D01*
X173061381Y-133786190D01*
X174061381Y-132833809D02*
X174061381Y-133310000D01*
X173061381Y-133310000D01*
X174061381Y-132500476D02*
X173061381Y-132500476D01*
X174061381Y-131929047D01*
X173061381Y-131929047D01*
X173156619Y-131500476D02*
X173109000Y-131452857D01*
X173061381Y-131357619D01*
X173061381Y-131119523D01*
X173109000Y-131024285D01*
X173156619Y-130976666D01*
X173251857Y-130929047D01*
X173347095Y-130929047D01*
X173489952Y-130976666D01*
X174061381Y-131548095D01*
X174061381Y-130929047D01*
X173061381Y-130310000D02*
X173061381Y-130214761D01*
X173109000Y-130119523D01*
X173156619Y-130071904D01*
X173251857Y-130024285D01*
X173442333Y-129976666D01*
X173680429Y-129976666D01*
X173870905Y-130024285D01*
X173966143Y-130071904D01*
X174013762Y-130119523D01*
X174061381Y-130214761D01*
X174061381Y-130310000D01*
X174013762Y-130405238D01*
X173966143Y-130452857D01*
X173870905Y-130500476D01*
X173680429Y-130548095D01*
X173442333Y-130548095D01*
X173251857Y-130500476D01*
X173156619Y-130452857D01*
X173109000Y-130405238D01*
X173061381Y-130310000D01*
X173061381Y-129357619D02*
X173061381Y-129262380D01*
X173109000Y-129167142D01*
X173156619Y-129119523D01*
X173251857Y-129071904D01*
X173442333Y-129024285D01*
X173680429Y-129024285D01*
X173870905Y-129071904D01*
X173966143Y-129119523D01*
X174013762Y-129167142D01*
X174061381Y-129262380D01*
X174061381Y-129357619D01*
X174013762Y-129452857D01*
X173966143Y-129500476D01*
X173870905Y-129548095D01*
X173680429Y-129595714D01*
X173442333Y-129595714D01*
X173251857Y-129548095D01*
X173156619Y-129500476D01*
X173109000Y-129452857D01*
X173061381Y-129357619D01*
X173061381Y-128690952D02*
X173061381Y-128071904D01*
X173442333Y-128405238D01*
X173442333Y-128262380D01*
X173489952Y-128167142D01*
X173537571Y-128119523D01*
X173632810Y-128071904D01*
X173870905Y-128071904D01*
X173966143Y-128119523D01*
X174013762Y-128167142D01*
X174061381Y-128262380D01*
X174061381Y-128548095D01*
X174013762Y-128643333D01*
X173966143Y-128690952D01*
X173775667Y-127690952D02*
X173775667Y-127214761D01*
X174061381Y-127786190D02*
X173061381Y-127452857D01*
X174061381Y-127119523D01*
X185567143Y-112958095D02*
X185614762Y-113005714D01*
X185662381Y-113148571D01*
X185662381Y-113243809D01*
X185614762Y-113386667D01*
X185519524Y-113481905D01*
X185424286Y-113529524D01*
X185233810Y-113577143D01*
X185090952Y-113577143D01*
X184900476Y-113529524D01*
X184805238Y-113481905D01*
X184710000Y-113386667D01*
X184662381Y-113243809D01*
X184662381Y-113148571D01*
X184710000Y-113005714D01*
X184757619Y-112958095D01*
X185662381Y-112386667D02*
X185614762Y-112481905D01*
X185567143Y-112529524D01*
X185471905Y-112577143D01*
X185186190Y-112577143D01*
X185090952Y-112529524D01*
X185043333Y-112481905D01*
X184995714Y-112386667D01*
X184995714Y-112243809D01*
X185043333Y-112148571D01*
X185090952Y-112100952D01*
X185186190Y-112053333D01*
X185471905Y-112053333D01*
X185567143Y-112100952D01*
X185614762Y-112148571D01*
X185662381Y-112243809D01*
X185662381Y-112386667D01*
X184995714Y-111624762D02*
X185662381Y-111624762D01*
X185090952Y-111624762D02*
X185043333Y-111577143D01*
X184995714Y-111481905D01*
X184995714Y-111339047D01*
X185043333Y-111243809D01*
X185138571Y-111196190D01*
X185662381Y-111196190D01*
X184995714Y-110720000D02*
X185662381Y-110720000D01*
X185090952Y-110720000D02*
X185043333Y-110672381D01*
X184995714Y-110577143D01*
X184995714Y-110434285D01*
X185043333Y-110339047D01*
X185138571Y-110291428D01*
X185662381Y-110291428D01*
X185757619Y-110053333D02*
X185757619Y-109291428D01*
X184662381Y-108862857D02*
X184662381Y-108767618D01*
X184710000Y-108672380D01*
X184757619Y-108624761D01*
X184852857Y-108577142D01*
X185043333Y-108529523D01*
X185281429Y-108529523D01*
X185471905Y-108577142D01*
X185567143Y-108624761D01*
X185614762Y-108672380D01*
X185662381Y-108767618D01*
X185662381Y-108862857D01*
X185614762Y-108958095D01*
X185567143Y-109005714D01*
X185471905Y-109053333D01*
X185281429Y-109100952D01*
X185043333Y-109100952D01*
X184852857Y-109053333D01*
X184757619Y-109005714D01*
X184710000Y-108958095D01*
X184662381Y-108862857D01*
X185662381Y-107577142D02*
X185662381Y-108148571D01*
X185662381Y-107862857D02*
X184662381Y-107862857D01*
X184805238Y-107958095D01*
X184900476Y-108053333D01*
X184948095Y-108148571D01*
X185662381Y-107243809D02*
X184995714Y-106719999D01*
X184995714Y-107243809D02*
X185662381Y-106719999D01*
X184662381Y-106148571D02*
X184662381Y-106053332D01*
X184710000Y-105958094D01*
X184757619Y-105910475D01*
X184852857Y-105862856D01*
X185043333Y-105815237D01*
X185281429Y-105815237D01*
X185471905Y-105862856D01*
X185567143Y-105910475D01*
X185614762Y-105958094D01*
X185662381Y-106053332D01*
X185662381Y-106148571D01*
X185614762Y-106243809D01*
X185567143Y-106291428D01*
X185471905Y-106339047D01*
X185281429Y-106386666D01*
X185043333Y-106386666D01*
X184852857Y-106339047D01*
X184757619Y-106291428D01*
X184710000Y-106243809D01*
X184662381Y-106148571D01*
X184995714Y-104958094D02*
X185662381Y-104958094D01*
X184614762Y-105196190D02*
X185329048Y-105434285D01*
X185329048Y-104815237D01*
X178093810Y-109672381D02*
X178093810Y-108672381D01*
X178522381Y-108767619D02*
X178570000Y-108720000D01*
X178665238Y-108672381D01*
X178903334Y-108672381D01*
X178998572Y-108720000D01*
X179046191Y-108767619D01*
X179093810Y-108862857D01*
X179093810Y-108958095D01*
X179046191Y-109100952D01*
X178474762Y-109672381D01*
X179093810Y-109672381D01*
X180093810Y-109577143D02*
X180046191Y-109624762D01*
X179903334Y-109672381D01*
X179808096Y-109672381D01*
X179665238Y-109624762D01*
X179570000Y-109529524D01*
X179522381Y-109434286D01*
X179474762Y-109243810D01*
X179474762Y-109100952D01*
X179522381Y-108910476D01*
X179570000Y-108815238D01*
X179665238Y-108720000D01*
X179808096Y-108672381D01*
X179903334Y-108672381D01*
X180046191Y-108720000D01*
X180093810Y-108767619D01*
X134767143Y-138739095D02*
X134814762Y-138786714D01*
X134862381Y-138929571D01*
X134862381Y-139024809D01*
X134814762Y-139167667D01*
X134719524Y-139262905D01*
X134624286Y-139310524D01*
X134433810Y-139358143D01*
X134290952Y-139358143D01*
X134100476Y-139310524D01*
X134005238Y-139262905D01*
X133910000Y-139167667D01*
X133862381Y-139024809D01*
X133862381Y-138929571D01*
X133910000Y-138786714D01*
X133957619Y-138739095D01*
X134862381Y-138167667D02*
X134814762Y-138262905D01*
X134767143Y-138310524D01*
X134671905Y-138358143D01*
X134386190Y-138358143D01*
X134290952Y-138310524D01*
X134243333Y-138262905D01*
X134195714Y-138167667D01*
X134195714Y-138024809D01*
X134243333Y-137929571D01*
X134290952Y-137881952D01*
X134386190Y-137834333D01*
X134671905Y-137834333D01*
X134767143Y-137881952D01*
X134814762Y-137929571D01*
X134862381Y-138024809D01*
X134862381Y-138167667D01*
X134195714Y-137405762D02*
X134862381Y-137405762D01*
X134290952Y-137405762D02*
X134243333Y-137358143D01*
X134195714Y-137262905D01*
X134195714Y-137120047D01*
X134243333Y-137024809D01*
X134338571Y-136977190D01*
X134862381Y-136977190D01*
X134195714Y-136501000D02*
X134862381Y-136501000D01*
X134290952Y-136501000D02*
X134243333Y-136453381D01*
X134195714Y-136358143D01*
X134195714Y-136215285D01*
X134243333Y-136120047D01*
X134338571Y-136072428D01*
X134862381Y-136072428D01*
X134957619Y-135834333D02*
X134957619Y-135072428D01*
X133862381Y-134643857D02*
X133862381Y-134548618D01*
X133910000Y-134453380D01*
X133957619Y-134405761D01*
X134052857Y-134358142D01*
X134243333Y-134310523D01*
X134481429Y-134310523D01*
X134671905Y-134358142D01*
X134767143Y-134405761D01*
X134814762Y-134453380D01*
X134862381Y-134548618D01*
X134862381Y-134643857D01*
X134814762Y-134739095D01*
X134767143Y-134786714D01*
X134671905Y-134834333D01*
X134481429Y-134881952D01*
X134243333Y-134881952D01*
X134052857Y-134834333D01*
X133957619Y-134786714D01*
X133910000Y-134739095D01*
X133862381Y-134643857D01*
X134862381Y-133358142D02*
X134862381Y-133929571D01*
X134862381Y-133643857D02*
X133862381Y-133643857D01*
X134005238Y-133739095D01*
X134100476Y-133834333D01*
X134148095Y-133929571D01*
X134862381Y-133024809D02*
X134195714Y-132500999D01*
X134195714Y-133024809D02*
X134862381Y-132500999D01*
X133862381Y-131929571D02*
X133862381Y-131834332D01*
X133910000Y-131739094D01*
X133957619Y-131691475D01*
X134052857Y-131643856D01*
X134243333Y-131596237D01*
X134481429Y-131596237D01*
X134671905Y-131643856D01*
X134767143Y-131691475D01*
X134814762Y-131739094D01*
X134862381Y-131834332D01*
X134862381Y-131929571D01*
X134814762Y-132024809D01*
X134767143Y-132072428D01*
X134671905Y-132120047D01*
X134481429Y-132167666D01*
X134243333Y-132167666D01*
X134052857Y-132120047D01*
X133957619Y-132072428D01*
X133910000Y-132024809D01*
X133862381Y-131929571D01*
X133957619Y-131215285D02*
X133910000Y-131167666D01*
X133862381Y-131072428D01*
X133862381Y-130834332D01*
X133910000Y-130739094D01*
X133957619Y-130691475D01*
X134052857Y-130643856D01*
X134148095Y-130643856D01*
X134290952Y-130691475D01*
X134862381Y-131262904D01*
X134862381Y-130643856D01*
X127167143Y-135453381D02*
X127167143Y-134453381D01*
X127405238Y-134453381D01*
X127548096Y-134501000D01*
X127643334Y-134596238D01*
X127690953Y-134691476D01*
X127738572Y-134881952D01*
X127738572Y-135024810D01*
X127690953Y-135215286D01*
X127643334Y-135310524D01*
X127548096Y-135405762D01*
X127405238Y-135453381D01*
X127167143Y-135453381D01*
X128738572Y-135358143D02*
X128690953Y-135405762D01*
X128548096Y-135453381D01*
X128452858Y-135453381D01*
X128310000Y-135405762D01*
X128214762Y-135310524D01*
X128167143Y-135215286D01*
X128119524Y-135024810D01*
X128119524Y-134881952D01*
X128167143Y-134691476D01*
X128214762Y-134596238D01*
X128310000Y-134501000D01*
X128452858Y-134453381D01*
X128548096Y-134453381D01*
X128690953Y-134501000D01*
X128738572Y-134548619D01*
X128929048Y-135548619D02*
X129690953Y-135548619D01*
X129929048Y-135453381D02*
X129929048Y-134453381D01*
X130262382Y-135167667D01*
X130595715Y-134453381D01*
X130595715Y-135453381D01*
X131262381Y-134453381D02*
X131452858Y-134453381D01*
X131548096Y-134501000D01*
X131643334Y-134596238D01*
X131690953Y-134786714D01*
X131690953Y-135120048D01*
X131643334Y-135310524D01*
X131548096Y-135405762D01*
X131452858Y-135453381D01*
X131262381Y-135453381D01*
X131167143Y-135405762D01*
X131071905Y-135310524D01*
X131024286Y-135120048D01*
X131024286Y-134786714D01*
X131071905Y-134596238D01*
X131167143Y-134501000D01*
X131262381Y-134453381D01*
X131976667Y-134453381D02*
X132548096Y-134453381D01*
X132262381Y-135453381D02*
X132262381Y-134453381D01*
X133071905Y-134453381D02*
X133262382Y-134453381D01*
X133357620Y-134501000D01*
X133452858Y-134596238D01*
X133500477Y-134786714D01*
X133500477Y-135120048D01*
X133452858Y-135310524D01*
X133357620Y-135405762D01*
X133262382Y-135453381D01*
X133071905Y-135453381D01*
X132976667Y-135405762D01*
X132881429Y-135310524D01*
X132833810Y-135120048D01*
X132833810Y-134786714D01*
X132881429Y-134596238D01*
X132976667Y-134501000D01*
X133071905Y-134453381D01*
X134500477Y-135453381D02*
X134167143Y-134977190D01*
X133929048Y-135453381D02*
X133929048Y-134453381D01*
X134310001Y-134453381D01*
X134405239Y-134501000D01*
X134452858Y-134548619D01*
X134500477Y-134643857D01*
X134500477Y-134786714D01*
X134452858Y-134881952D01*
X134405239Y-134929571D01*
X134310001Y-134977190D01*
X133929048Y-134977190D01*
X139549524Y-142387143D02*
X139501905Y-142434762D01*
X139359048Y-142482381D01*
X139263810Y-142482381D01*
X139120952Y-142434762D01*
X139025714Y-142339524D01*
X138978095Y-142244286D01*
X138930476Y-142053810D01*
X138930476Y-141910952D01*
X138978095Y-141720476D01*
X139025714Y-141625238D01*
X139120952Y-141530000D01*
X139263810Y-141482381D01*
X139359048Y-141482381D01*
X139501905Y-141530000D01*
X139549524Y-141577619D01*
X139978095Y-142482381D02*
X139978095Y-141482381D01*
X140549524Y-142482381D01*
X140549524Y-141482381D01*
X141216190Y-142006190D02*
X141216190Y-142482381D01*
X140882857Y-141482381D02*
X141216190Y-142006190D01*
X141549524Y-141482381D01*
X142406667Y-142482381D02*
X141835238Y-142482381D01*
X142120952Y-142482381D02*
X142120952Y-141482381D01*
X142025714Y-141625238D01*
X141930476Y-141720476D01*
X141835238Y-141768095D01*
X142740000Y-141482381D02*
X143406667Y-141482381D01*
X142978095Y-142482381D01*
X143787619Y-142101429D02*
X144549524Y-142101429D01*
X144930476Y-141482381D02*
X145549524Y-141482381D01*
X145216190Y-141863333D01*
X145359048Y-141863333D01*
X145454286Y-141910952D01*
X145501905Y-141958571D01*
X145549524Y-142053810D01*
X145549524Y-142291905D01*
X145501905Y-142387143D01*
X145454286Y-142434762D01*
X145359048Y-142482381D01*
X145073333Y-142482381D01*
X144978095Y-142434762D01*
X144930476Y-142387143D01*
X140954286Y-136945714D02*
X140954286Y-137612381D01*
X140716190Y-136564762D02*
X140478095Y-137279048D01*
X141097143Y-137279048D01*
X141478095Y-137612381D02*
X141478095Y-136612381D01*
X142049524Y-137612381D01*
X142049524Y-136612381D01*
X142478095Y-136707619D02*
X142525714Y-136660000D01*
X142620952Y-136612381D01*
X142859048Y-136612381D01*
X142954286Y-136660000D01*
X143001905Y-136707619D01*
X143049524Y-136802857D01*
X143049524Y-136898095D01*
X143001905Y-137040952D01*
X142430476Y-137612381D01*
X143049524Y-137612381D01*
X143620952Y-137040952D02*
X143525714Y-136993333D01*
X143478095Y-136945714D01*
X143430476Y-136850476D01*
X143430476Y-136802857D01*
X143478095Y-136707619D01*
X143525714Y-136660000D01*
X143620952Y-136612381D01*
X143811429Y-136612381D01*
X143906667Y-136660000D01*
X143954286Y-136707619D01*
X144001905Y-136802857D01*
X144001905Y-136850476D01*
X143954286Y-136945714D01*
X143906667Y-136993333D01*
X143811429Y-137040952D01*
X143620952Y-137040952D01*
X143525714Y-137088571D01*
X143478095Y-137136190D01*
X143430476Y-137231429D01*
X143430476Y-137421905D01*
X143478095Y-137517143D01*
X143525714Y-137564762D01*
X143620952Y-137612381D01*
X143811429Y-137612381D01*
X143906667Y-137564762D01*
X143954286Y-137517143D01*
X144001905Y-137421905D01*
X144001905Y-137231429D01*
X143954286Y-137136190D01*
X143906667Y-137088571D01*
X143811429Y-137040952D01*
X165247143Y-105338095D02*
X165294762Y-105385714D01*
X165342381Y-105528571D01*
X165342381Y-105623809D01*
X165294762Y-105766667D01*
X165199524Y-105861905D01*
X165104286Y-105909524D01*
X164913810Y-105957143D01*
X164770952Y-105957143D01*
X164580476Y-105909524D01*
X164485238Y-105861905D01*
X164390000Y-105766667D01*
X164342381Y-105623809D01*
X164342381Y-105528571D01*
X164390000Y-105385714D01*
X164437619Y-105338095D01*
X165342381Y-104766667D02*
X165294762Y-104861905D01*
X165247143Y-104909524D01*
X165151905Y-104957143D01*
X164866190Y-104957143D01*
X164770952Y-104909524D01*
X164723333Y-104861905D01*
X164675714Y-104766667D01*
X164675714Y-104623809D01*
X164723333Y-104528571D01*
X164770952Y-104480952D01*
X164866190Y-104433333D01*
X165151905Y-104433333D01*
X165247143Y-104480952D01*
X165294762Y-104528571D01*
X165342381Y-104623809D01*
X165342381Y-104766667D01*
X164675714Y-104004762D02*
X165342381Y-104004762D01*
X164770952Y-104004762D02*
X164723333Y-103957143D01*
X164675714Y-103861905D01*
X164675714Y-103719047D01*
X164723333Y-103623809D01*
X164818571Y-103576190D01*
X165342381Y-103576190D01*
X164675714Y-103100000D02*
X165342381Y-103100000D01*
X164770952Y-103100000D02*
X164723333Y-103052381D01*
X164675714Y-102957143D01*
X164675714Y-102814285D01*
X164723333Y-102719047D01*
X164818571Y-102671428D01*
X165342381Y-102671428D01*
X165437619Y-102433333D02*
X165437619Y-101671428D01*
X164342381Y-101242857D02*
X164342381Y-101147618D01*
X164390000Y-101052380D01*
X164437619Y-101004761D01*
X164532857Y-100957142D01*
X164723333Y-100909523D01*
X164961429Y-100909523D01*
X165151905Y-100957142D01*
X165247143Y-101004761D01*
X165294762Y-101052380D01*
X165342381Y-101147618D01*
X165342381Y-101242857D01*
X165294762Y-101338095D01*
X165247143Y-101385714D01*
X165151905Y-101433333D01*
X164961429Y-101480952D01*
X164723333Y-101480952D01*
X164532857Y-101433333D01*
X164437619Y-101385714D01*
X164390000Y-101338095D01*
X164342381Y-101242857D01*
X165342381Y-99957142D02*
X165342381Y-100528571D01*
X165342381Y-100242857D02*
X164342381Y-100242857D01*
X164485238Y-100338095D01*
X164580476Y-100433333D01*
X164628095Y-100528571D01*
X165342381Y-99623809D02*
X164675714Y-99099999D01*
X164675714Y-99623809D02*
X165342381Y-99099999D01*
X164342381Y-98528571D02*
X164342381Y-98433332D01*
X164390000Y-98338094D01*
X164437619Y-98290475D01*
X164532857Y-98242856D01*
X164723333Y-98195237D01*
X164961429Y-98195237D01*
X165151905Y-98242856D01*
X165247143Y-98290475D01*
X165294762Y-98338094D01*
X165342381Y-98433332D01*
X165342381Y-98528571D01*
X165294762Y-98623809D01*
X165247143Y-98671428D01*
X165151905Y-98719047D01*
X164961429Y-98766666D01*
X164723333Y-98766666D01*
X164532857Y-98719047D01*
X164437619Y-98671428D01*
X164390000Y-98623809D01*
X164342381Y-98528571D01*
X164342381Y-97861904D02*
X164342381Y-97242856D01*
X164723333Y-97576190D01*
X164723333Y-97433332D01*
X164770952Y-97338094D01*
X164818571Y-97290475D01*
X164913810Y-97242856D01*
X165151905Y-97242856D01*
X165247143Y-97290475D01*
X165294762Y-97338094D01*
X165342381Y-97433332D01*
X165342381Y-97719047D01*
X165294762Y-97814285D01*
X165247143Y-97861904D01*
X157829524Y-102004762D02*
X157972381Y-102052381D01*
X158210477Y-102052381D01*
X158305715Y-102004762D01*
X158353334Y-101957143D01*
X158400953Y-101861905D01*
X158400953Y-101766667D01*
X158353334Y-101671429D01*
X158305715Y-101623810D01*
X158210477Y-101576190D01*
X158020000Y-101528571D01*
X157924762Y-101480952D01*
X157877143Y-101433333D01*
X157829524Y-101338095D01*
X157829524Y-101242857D01*
X157877143Y-101147619D01*
X157924762Y-101100000D01*
X158020000Y-101052381D01*
X158258096Y-101052381D01*
X158400953Y-101100000D01*
X158829524Y-101528571D02*
X159162858Y-101528571D01*
X159305715Y-102052381D02*
X158829524Y-102052381D01*
X158829524Y-101052381D01*
X159305715Y-101052381D01*
X160305715Y-102052381D02*
X159972381Y-101576190D01*
X159734286Y-102052381D02*
X159734286Y-101052381D01*
X160115239Y-101052381D01*
X160210477Y-101100000D01*
X160258096Y-101147619D01*
X160305715Y-101242857D01*
X160305715Y-101385714D01*
X160258096Y-101480952D01*
X160210477Y-101528571D01*
X160115239Y-101576190D01*
X159734286Y-101576190D01*
X160591429Y-101052381D02*
X160924762Y-102052381D01*
X161258096Y-101052381D01*
X161781905Y-101052381D02*
X161972382Y-101052381D01*
X162067620Y-101100000D01*
X162162858Y-101195238D01*
X162210477Y-101385714D01*
X162210477Y-101719048D01*
X162162858Y-101909524D01*
X162067620Y-102004762D01*
X161972382Y-102052381D01*
X161781905Y-102052381D01*
X161686667Y-102004762D01*
X161591429Y-101909524D01*
X161543810Y-101719048D01*
X161543810Y-101385714D01*
X161591429Y-101195238D01*
X161686667Y-101100000D01*
X161781905Y-101052381D01*
X151322381Y-110721429D02*
X151322381Y-110054762D01*
X152322381Y-110483334D01*
X152274762Y-109721429D02*
X152322381Y-109578572D01*
X152322381Y-109340476D01*
X152274762Y-109245238D01*
X152227143Y-109197619D01*
X152131905Y-109150000D01*
X152036667Y-109150000D01*
X151941429Y-109197619D01*
X151893810Y-109245238D01*
X151846190Y-109340476D01*
X151798571Y-109530953D01*
X151750952Y-109626191D01*
X151703333Y-109673810D01*
X151608095Y-109721429D01*
X151512857Y-109721429D01*
X151417619Y-109673810D01*
X151370000Y-109626191D01*
X151322381Y-109530953D01*
X151322381Y-109292857D01*
X151370000Y-109150000D01*
X151798571Y-108721429D02*
X151798571Y-108388095D01*
X152322381Y-108245238D02*
X152322381Y-108721429D01*
X151322381Y-108721429D01*
X151322381Y-108245238D01*
X151370000Y-107292857D02*
X151322381Y-107388095D01*
X151322381Y-107530952D01*
X151370000Y-107673810D01*
X151465238Y-107769048D01*
X151560476Y-107816667D01*
X151750952Y-107864286D01*
X151893810Y-107864286D01*
X152084286Y-107816667D01*
X152179524Y-107769048D01*
X152274762Y-107673810D01*
X152322381Y-107530952D01*
X152322381Y-107435714D01*
X152274762Y-107292857D01*
X152227143Y-107245238D01*
X151893810Y-107245238D01*
X151893810Y-107435714D01*
X152322381Y-106816667D02*
X151322381Y-106816667D01*
X152036667Y-106483333D01*
X151322381Y-106150000D01*
X152322381Y-106150000D01*
X151798571Y-105673810D02*
X151798571Y-105340476D01*
X152322381Y-105197619D02*
X152322381Y-105673810D01*
X151322381Y-105673810D01*
X151322381Y-105197619D01*
X152322381Y-104769048D02*
X151322381Y-104769048D01*
X152322381Y-104197619D01*
X151322381Y-104197619D01*
X151322381Y-103864286D02*
X151322381Y-103292857D01*
X152322381Y-103578572D02*
X151322381Y-103578572D01*
X152417619Y-103197619D02*
X152417619Y-102435714D01*
X152227143Y-101626190D02*
X152274762Y-101673809D01*
X152322381Y-101816666D01*
X152322381Y-101911904D01*
X152274762Y-102054762D01*
X152179524Y-102150000D01*
X152084286Y-102197619D01*
X151893810Y-102245238D01*
X151750952Y-102245238D01*
X151560476Y-102197619D01*
X151465238Y-102150000D01*
X151370000Y-102054762D01*
X151322381Y-101911904D01*
X151322381Y-101816666D01*
X151370000Y-101673809D01*
X151417619Y-101626190D01*
X152227143Y-100626190D02*
X152274762Y-100673809D01*
X152322381Y-100816666D01*
X152322381Y-100911904D01*
X152274762Y-101054762D01*
X152179524Y-101150000D01*
X152084286Y-101197619D01*
X151893810Y-101245238D01*
X151750952Y-101245238D01*
X151560476Y-101197619D01*
X151465238Y-101150000D01*
X151370000Y-101054762D01*
X151322381Y-100911904D01*
X151322381Y-100816666D01*
X151370000Y-100673809D01*
X151417619Y-100626190D01*
X146782381Y-105291905D02*
X146782381Y-104625238D01*
X147782381Y-105053810D01*
X147734762Y-104291905D02*
X147782381Y-104149048D01*
X147782381Y-103910952D01*
X147734762Y-103815714D01*
X147687143Y-103768095D01*
X147591905Y-103720476D01*
X147496667Y-103720476D01*
X147401429Y-103768095D01*
X147353810Y-103815714D01*
X147306190Y-103910952D01*
X147258571Y-104101429D01*
X147210952Y-104196667D01*
X147163333Y-104244286D01*
X147068095Y-104291905D01*
X146972857Y-104291905D01*
X146877619Y-104244286D01*
X146830000Y-104196667D01*
X146782381Y-104101429D01*
X146782381Y-103863333D01*
X146830000Y-103720476D01*
X147258571Y-103291905D02*
X147258571Y-102958571D01*
X147782381Y-102815714D02*
X147782381Y-103291905D01*
X146782381Y-103291905D01*
X146782381Y-102815714D01*
X146830000Y-101863333D02*
X146782381Y-101958571D01*
X146782381Y-102101428D01*
X146830000Y-102244286D01*
X146925238Y-102339524D01*
X147020476Y-102387143D01*
X147210952Y-102434762D01*
X147353810Y-102434762D01*
X147544286Y-102387143D01*
X147639524Y-102339524D01*
X147734762Y-102244286D01*
X147782381Y-102101428D01*
X147782381Y-102006190D01*
X147734762Y-101863333D01*
X147687143Y-101815714D01*
X147353810Y-101815714D01*
X147353810Y-102006190D01*
X138739524Y-101262381D02*
X138406190Y-100786190D01*
X138168095Y-101262381D02*
X138168095Y-100262381D01*
X138549048Y-100262381D01*
X138644286Y-100310000D01*
X138691905Y-100357619D01*
X138739524Y-100452857D01*
X138739524Y-100595714D01*
X138691905Y-100690952D01*
X138644286Y-100738571D01*
X138549048Y-100786190D01*
X138168095Y-100786190D01*
D12*
X137941905Y-99286190D02*
X137656191Y-99286190D01*
X137799048Y-99286190D02*
X137799048Y-98786190D01*
X137751429Y-98857619D01*
X137703810Y-98905238D01*
X137656191Y-98929048D01*
X138156191Y-99286190D02*
X138156191Y-98786190D01*
X138203810Y-99095714D02*
X138346667Y-99286190D01*
X138346667Y-98952857D02*
X138156191Y-99143333D01*
X138441905Y-99333810D02*
X138822857Y-99333810D01*
X139037143Y-98786190D02*
X139084762Y-98786190D01*
X139132381Y-98810000D01*
X139156190Y-98833810D01*
X139180000Y-98881429D01*
X139203809Y-98976667D01*
X139203809Y-99095714D01*
X139180000Y-99190952D01*
X139156190Y-99238571D01*
X139132381Y-99262381D01*
X139084762Y-99286190D01*
X139037143Y-99286190D01*
X138989524Y-99262381D01*
X138965714Y-99238571D01*
X138941905Y-99190952D01*
X138918095Y-99095714D01*
X138918095Y-98976667D01*
X138941905Y-98881429D01*
X138965714Y-98833810D01*
X138989524Y-98810000D01*
X139037143Y-98786190D01*
D11*
X138739524Y-105072381D02*
X138406190Y-104596190D01*
X138168095Y-105072381D02*
X138168095Y-104072381D01*
X138549048Y-104072381D01*
X138644286Y-104120000D01*
X138691905Y-104167619D01*
X138739524Y-104262857D01*
X138739524Y-104405714D01*
X138691905Y-104500952D01*
X138644286Y-104548571D01*
X138549048Y-104596190D01*
X138168095Y-104596190D01*
D12*
X137941905Y-103096190D02*
X137656191Y-103096190D01*
X137799048Y-103096190D02*
X137799048Y-102596190D01*
X137751429Y-102667619D01*
X137703810Y-102715238D01*
X137656191Y-102739048D01*
X138156191Y-103096190D02*
X138156191Y-102596190D01*
X138203810Y-102905714D02*
X138346667Y-103096190D01*
X138346667Y-102762857D02*
X138156191Y-102953333D01*
X138441905Y-103143810D02*
X138822857Y-103143810D01*
X139203809Y-103096190D02*
X138918095Y-103096190D01*
X139060952Y-103096190D02*
X139060952Y-102596190D01*
X139013333Y-102667619D01*
X138965714Y-102715238D01*
X138918095Y-102739048D01*
D11*
X138739524Y-108882381D02*
X138406190Y-108406190D01*
X138168095Y-108882381D02*
X138168095Y-107882381D01*
X138549048Y-107882381D01*
X138644286Y-107930000D01*
X138691905Y-107977619D01*
X138739524Y-108072857D01*
X138739524Y-108215714D01*
X138691905Y-108310952D01*
X138644286Y-108358571D01*
X138549048Y-108406190D01*
X138168095Y-108406190D01*
D12*
X137941905Y-106906190D02*
X137656191Y-106906190D01*
X137799048Y-106906190D02*
X137799048Y-106406190D01*
X137751429Y-106477619D01*
X137703810Y-106525238D01*
X137656191Y-106549048D01*
X138156191Y-106906190D02*
X138156191Y-106406190D01*
X138203810Y-106715714D02*
X138346667Y-106906190D01*
X138346667Y-106572857D02*
X138156191Y-106763333D01*
X138441905Y-106953810D02*
X138822857Y-106953810D01*
X138918095Y-106453810D02*
X138941905Y-106430000D01*
X138989524Y-106406190D01*
X139108571Y-106406190D01*
X139156190Y-106430000D01*
X139180000Y-106453810D01*
X139203809Y-106501429D01*
X139203809Y-106549048D01*
X139180000Y-106620476D01*
X138894286Y-106906190D01*
X139203809Y-106906190D01*
D11*
X138739524Y-112692381D02*
X138406190Y-112216190D01*
X138168095Y-112692381D02*
X138168095Y-111692381D01*
X138549048Y-111692381D01*
X138644286Y-111740000D01*
X138691905Y-111787619D01*
X138739524Y-111882857D01*
X138739524Y-112025714D01*
X138691905Y-112120952D01*
X138644286Y-112168571D01*
X138549048Y-112216190D01*
X138168095Y-112216190D01*
D12*
X137941905Y-110716190D02*
X137656191Y-110716190D01*
X137799048Y-110716190D02*
X137799048Y-110216190D01*
X137751429Y-110287619D01*
X137703810Y-110335238D01*
X137656191Y-110359048D01*
X138156191Y-110716190D02*
X138156191Y-110216190D01*
X138203810Y-110525714D02*
X138346667Y-110716190D01*
X138346667Y-110382857D02*
X138156191Y-110573333D01*
X138441905Y-110763810D02*
X138822857Y-110763810D01*
X138894286Y-110216190D02*
X139203809Y-110216190D01*
X139037143Y-110406667D01*
X139108571Y-110406667D01*
X139156190Y-110430476D01*
X139180000Y-110454286D01*
X139203809Y-110501905D01*
X139203809Y-110620952D01*
X139180000Y-110668571D01*
X139156190Y-110692381D01*
X139108571Y-110716190D01*
X138965714Y-110716190D01*
X138918095Y-110692381D01*
X138894286Y-110668571D01*
D11*
X138739524Y-116502381D02*
X138406190Y-116026190D01*
X138168095Y-116502381D02*
X138168095Y-115502381D01*
X138549048Y-115502381D01*
X138644286Y-115550000D01*
X138691905Y-115597619D01*
X138739524Y-115692857D01*
X138739524Y-115835714D01*
X138691905Y-115930952D01*
X138644286Y-115978571D01*
X138549048Y-116026190D01*
X138168095Y-116026190D01*
D12*
X137941905Y-114526190D02*
X137656191Y-114526190D01*
X137799048Y-114526190D02*
X137799048Y-114026190D01*
X137751429Y-114097619D01*
X137703810Y-114145238D01*
X137656191Y-114169048D01*
X138156191Y-114526190D02*
X138156191Y-114026190D01*
X138203810Y-114335714D02*
X138346667Y-114526190D01*
X138346667Y-114192857D02*
X138156191Y-114383333D01*
X138441905Y-114573810D02*
X138822857Y-114573810D01*
X139156190Y-114192857D02*
X139156190Y-114526190D01*
X139037143Y-114002381D02*
X138918095Y-114359524D01*
X139227619Y-114359524D01*
D11*
X138739524Y-120312381D02*
X138406190Y-119836190D01*
X138168095Y-120312381D02*
X138168095Y-119312381D01*
X138549048Y-119312381D01*
X138644286Y-119360000D01*
X138691905Y-119407619D01*
X138739524Y-119502857D01*
X138739524Y-119645714D01*
X138691905Y-119740952D01*
X138644286Y-119788571D01*
X138549048Y-119836190D01*
X138168095Y-119836190D01*
D12*
X137941905Y-118336190D02*
X137656191Y-118336190D01*
X137799048Y-118336190D02*
X137799048Y-117836190D01*
X137751429Y-117907619D01*
X137703810Y-117955238D01*
X137656191Y-117979048D01*
X138156191Y-118336190D02*
X138156191Y-117836190D01*
X138203810Y-118145714D02*
X138346667Y-118336190D01*
X138346667Y-118002857D02*
X138156191Y-118193333D01*
X138441905Y-118383810D02*
X138822857Y-118383810D01*
X139180000Y-117836190D02*
X138941905Y-117836190D01*
X138918095Y-118074286D01*
X138941905Y-118050476D01*
X138989524Y-118026667D01*
X139108571Y-118026667D01*
X139156190Y-118050476D01*
X139180000Y-118074286D01*
X139203809Y-118121905D01*
X139203809Y-118240952D01*
X139180000Y-118288571D01*
X139156190Y-118312381D01*
X139108571Y-118336190D01*
X138989524Y-118336190D01*
X138941905Y-118312381D01*
X138918095Y-118288571D01*
D11*
X138739524Y-124122381D02*
X138406190Y-123646190D01*
X138168095Y-124122381D02*
X138168095Y-123122381D01*
X138549048Y-123122381D01*
X138644286Y-123170000D01*
X138691905Y-123217619D01*
X138739524Y-123312857D01*
X138739524Y-123455714D01*
X138691905Y-123550952D01*
X138644286Y-123598571D01*
X138549048Y-123646190D01*
X138168095Y-123646190D01*
D12*
X137941905Y-122146190D02*
X137656191Y-122146190D01*
X137799048Y-122146190D02*
X137799048Y-121646190D01*
X137751429Y-121717619D01*
X137703810Y-121765238D01*
X137656191Y-121789048D01*
X138156191Y-122146190D02*
X138156191Y-121646190D01*
X138203810Y-121955714D02*
X138346667Y-122146190D01*
X138346667Y-121812857D02*
X138156191Y-122003333D01*
X138441905Y-122193810D02*
X138822857Y-122193810D01*
X139156190Y-121646190D02*
X139060952Y-121646190D01*
X139013333Y-121670000D01*
X138989524Y-121693810D01*
X138941905Y-121765238D01*
X138918095Y-121860476D01*
X138918095Y-122050952D01*
X138941905Y-122098571D01*
X138965714Y-122122381D01*
X139013333Y-122146190D01*
X139108571Y-122146190D01*
X139156190Y-122122381D01*
X139180000Y-122098571D01*
X139203809Y-122050952D01*
X139203809Y-121931905D01*
X139180000Y-121884286D01*
X139156190Y-121860476D01*
X139108571Y-121836667D01*
X139013333Y-121836667D01*
X138965714Y-121860476D01*
X138941905Y-121884286D01*
X138918095Y-121931905D01*
D11*
X138739524Y-127932381D02*
X138406190Y-127456190D01*
X138168095Y-127932381D02*
X138168095Y-126932381D01*
X138549048Y-126932381D01*
X138644286Y-126980000D01*
X138691905Y-127027619D01*
X138739524Y-127122857D01*
X138739524Y-127265714D01*
X138691905Y-127360952D01*
X138644286Y-127408571D01*
X138549048Y-127456190D01*
X138168095Y-127456190D01*
D12*
X137941905Y-125956190D02*
X137656191Y-125956190D01*
X137799048Y-125956190D02*
X137799048Y-125456190D01*
X137751429Y-125527619D01*
X137703810Y-125575238D01*
X137656191Y-125599048D01*
X138156191Y-125956190D02*
X138156191Y-125456190D01*
X138203810Y-125765714D02*
X138346667Y-125956190D01*
X138346667Y-125622857D02*
X138156191Y-125813333D01*
X138441905Y-126003810D02*
X138822857Y-126003810D01*
X138894286Y-125456190D02*
X139227619Y-125456190D01*
X139013333Y-125956190D01*
D11*
X131437143Y-101062381D02*
X130960952Y-101062381D01*
X130960952Y-100062381D01*
X131770476Y-100538571D02*
X132103810Y-100538571D01*
X132246667Y-101062381D02*
X131770476Y-101062381D01*
X131770476Y-100062381D01*
X132246667Y-100062381D01*
X132675238Y-101062381D02*
X132675238Y-100062381D01*
X132913333Y-100062381D01*
X133056191Y-100110000D01*
X133151429Y-100205238D01*
X133199048Y-100300476D01*
X133246667Y-100490952D01*
X133246667Y-100633810D01*
X133199048Y-100824286D01*
X133151429Y-100919524D01*
X133056191Y-101014762D01*
X132913333Y-101062381D01*
X132675238Y-101062381D01*
D10*
X131632381Y-97990952D02*
X131441905Y-97990952D01*
X131441905Y-97590952D01*
X131765715Y-97781429D02*
X131899048Y-97781429D01*
X131956191Y-97990952D02*
X131765715Y-97990952D01*
X131765715Y-97590952D01*
X131956191Y-97590952D01*
X132127620Y-97990952D02*
X132127620Y-97590952D01*
X132222858Y-97590952D01*
X132280001Y-97610000D01*
X132318096Y-97648095D01*
X132337144Y-97686190D01*
X132356192Y-97762381D01*
X132356192Y-97819524D01*
X132337144Y-97895714D01*
X132318096Y-97933810D01*
X132280001Y-97971905D01*
X132222858Y-97990952D01*
X132127620Y-97990952D01*
X132603811Y-97590952D02*
X132641906Y-97590952D01*
X132680001Y-97610000D01*
X132699049Y-97629048D01*
X132718096Y-97667143D01*
X132737144Y-97743333D01*
X132737144Y-97838571D01*
X132718096Y-97914762D01*
X132699049Y-97952857D01*
X132680001Y-97971905D01*
X132641906Y-97990952D01*
X132603811Y-97990952D01*
X132565715Y-97971905D01*
X132546668Y-97952857D01*
X132527620Y-97914762D01*
X132508572Y-97838571D01*
X132508572Y-97743333D01*
X132527620Y-97667143D01*
X132546668Y-97629048D01*
X132565715Y-97610000D01*
X132603811Y-97590952D01*
D11*
X131437143Y-104872381D02*
X130960952Y-104872381D01*
X130960952Y-103872381D01*
X131770476Y-104348571D02*
X132103810Y-104348571D01*
X132246667Y-104872381D02*
X131770476Y-104872381D01*
X131770476Y-103872381D01*
X132246667Y-103872381D01*
X132675238Y-104872381D02*
X132675238Y-103872381D01*
X132913333Y-103872381D01*
X133056191Y-103920000D01*
X133151429Y-104015238D01*
X133199048Y-104110476D01*
X133246667Y-104300952D01*
X133246667Y-104443810D01*
X133199048Y-104634286D01*
X133151429Y-104729524D01*
X133056191Y-104824762D01*
X132913333Y-104872381D01*
X132675238Y-104872381D01*
D10*
X131632381Y-101800952D02*
X131441905Y-101800952D01*
X131441905Y-101400952D01*
X131765715Y-101591429D02*
X131899048Y-101591429D01*
X131956191Y-101800952D02*
X131765715Y-101800952D01*
X131765715Y-101400952D01*
X131956191Y-101400952D01*
X132127620Y-101800952D02*
X132127620Y-101400952D01*
X132222858Y-101400952D01*
X132280001Y-101420000D01*
X132318096Y-101458095D01*
X132337144Y-101496190D01*
X132356192Y-101572381D01*
X132356192Y-101629524D01*
X132337144Y-101705714D01*
X132318096Y-101743810D01*
X132280001Y-101781905D01*
X132222858Y-101800952D01*
X132127620Y-101800952D01*
X132737144Y-101800952D02*
X132508572Y-101800952D01*
X132622858Y-101800952D02*
X132622858Y-101400952D01*
X132584763Y-101458095D01*
X132546668Y-101496190D01*
X132508572Y-101515238D01*
D11*
X131437143Y-108682381D02*
X130960952Y-108682381D01*
X130960952Y-107682381D01*
X131770476Y-108158571D02*
X132103810Y-108158571D01*
X132246667Y-108682381D02*
X131770476Y-108682381D01*
X131770476Y-107682381D01*
X132246667Y-107682381D01*
X132675238Y-108682381D02*
X132675238Y-107682381D01*
X132913333Y-107682381D01*
X133056191Y-107730000D01*
X133151429Y-107825238D01*
X133199048Y-107920476D01*
X133246667Y-108110952D01*
X133246667Y-108253810D01*
X133199048Y-108444286D01*
X133151429Y-108539524D01*
X133056191Y-108634762D01*
X132913333Y-108682381D01*
X132675238Y-108682381D01*
D10*
X131632381Y-105610952D02*
X131441905Y-105610952D01*
X131441905Y-105210952D01*
X131765715Y-105401429D02*
X131899048Y-105401429D01*
X131956191Y-105610952D02*
X131765715Y-105610952D01*
X131765715Y-105210952D01*
X131956191Y-105210952D01*
X132127620Y-105610952D02*
X132127620Y-105210952D01*
X132222858Y-105210952D01*
X132280001Y-105230000D01*
X132318096Y-105268095D01*
X132337144Y-105306190D01*
X132356192Y-105382381D01*
X132356192Y-105439524D01*
X132337144Y-105515714D01*
X132318096Y-105553810D01*
X132280001Y-105591905D01*
X132222858Y-105610952D01*
X132127620Y-105610952D01*
X132508572Y-105249048D02*
X132527620Y-105230000D01*
X132565715Y-105210952D01*
X132660953Y-105210952D01*
X132699049Y-105230000D01*
X132718096Y-105249048D01*
X132737144Y-105287143D01*
X132737144Y-105325238D01*
X132718096Y-105382381D01*
X132489525Y-105610952D01*
X132737144Y-105610952D01*
D11*
X131437143Y-112492381D02*
X130960952Y-112492381D01*
X130960952Y-111492381D01*
X131770476Y-111968571D02*
X132103810Y-111968571D01*
X132246667Y-112492381D02*
X131770476Y-112492381D01*
X131770476Y-111492381D01*
X132246667Y-111492381D01*
X132675238Y-112492381D02*
X132675238Y-111492381D01*
X132913333Y-111492381D01*
X133056191Y-111540000D01*
X133151429Y-111635238D01*
X133199048Y-111730476D01*
X133246667Y-111920952D01*
X133246667Y-112063810D01*
X133199048Y-112254286D01*
X133151429Y-112349524D01*
X133056191Y-112444762D01*
X132913333Y-112492381D01*
X132675238Y-112492381D01*
D10*
X131632381Y-109420952D02*
X131441905Y-109420952D01*
X131441905Y-109020952D01*
X131765715Y-109211429D02*
X131899048Y-109211429D01*
X131956191Y-109420952D02*
X131765715Y-109420952D01*
X131765715Y-109020952D01*
X131956191Y-109020952D01*
X132127620Y-109420952D02*
X132127620Y-109020952D01*
X132222858Y-109020952D01*
X132280001Y-109040000D01*
X132318096Y-109078095D01*
X132337144Y-109116190D01*
X132356192Y-109192381D01*
X132356192Y-109249524D01*
X132337144Y-109325714D01*
X132318096Y-109363810D01*
X132280001Y-109401905D01*
X132222858Y-109420952D01*
X132127620Y-109420952D01*
X132489525Y-109020952D02*
X132737144Y-109020952D01*
X132603811Y-109173333D01*
X132660953Y-109173333D01*
X132699049Y-109192381D01*
X132718096Y-109211429D01*
X132737144Y-109249524D01*
X132737144Y-109344762D01*
X132718096Y-109382857D01*
X132699049Y-109401905D01*
X132660953Y-109420952D01*
X132546668Y-109420952D01*
X132508572Y-109401905D01*
X132489525Y-109382857D01*
D11*
X131437143Y-116302381D02*
X130960952Y-116302381D01*
X130960952Y-115302381D01*
X131770476Y-115778571D02*
X132103810Y-115778571D01*
X132246667Y-116302381D02*
X131770476Y-116302381D01*
X131770476Y-115302381D01*
X132246667Y-115302381D01*
X132675238Y-116302381D02*
X132675238Y-115302381D01*
X132913333Y-115302381D01*
X133056191Y-115350000D01*
X133151429Y-115445238D01*
X133199048Y-115540476D01*
X133246667Y-115730952D01*
X133246667Y-115873810D01*
X133199048Y-116064286D01*
X133151429Y-116159524D01*
X133056191Y-116254762D01*
X132913333Y-116302381D01*
X132675238Y-116302381D01*
D10*
X131632381Y-113230952D02*
X131441905Y-113230952D01*
X131441905Y-112830952D01*
X131765715Y-113021429D02*
X131899048Y-113021429D01*
X131956191Y-113230952D02*
X131765715Y-113230952D01*
X131765715Y-112830952D01*
X131956191Y-112830952D01*
X132127620Y-113230952D02*
X132127620Y-112830952D01*
X132222858Y-112830952D01*
X132280001Y-112850000D01*
X132318096Y-112888095D01*
X132337144Y-112926190D01*
X132356192Y-113002381D01*
X132356192Y-113059524D01*
X132337144Y-113135714D01*
X132318096Y-113173810D01*
X132280001Y-113211905D01*
X132222858Y-113230952D01*
X132127620Y-113230952D01*
X132699049Y-112964286D02*
X132699049Y-113230952D01*
X132603811Y-112811905D02*
X132508572Y-113097619D01*
X132756192Y-113097619D01*
D11*
X131437143Y-120112381D02*
X130960952Y-120112381D01*
X130960952Y-119112381D01*
X131770476Y-119588571D02*
X132103810Y-119588571D01*
X132246667Y-120112381D02*
X131770476Y-120112381D01*
X131770476Y-119112381D01*
X132246667Y-119112381D01*
X132675238Y-120112381D02*
X132675238Y-119112381D01*
X132913333Y-119112381D01*
X133056191Y-119160000D01*
X133151429Y-119255238D01*
X133199048Y-119350476D01*
X133246667Y-119540952D01*
X133246667Y-119683810D01*
X133199048Y-119874286D01*
X133151429Y-119969524D01*
X133056191Y-120064762D01*
X132913333Y-120112381D01*
X132675238Y-120112381D01*
D10*
X131632381Y-117040952D02*
X131441905Y-117040952D01*
X131441905Y-116640952D01*
X131765715Y-116831429D02*
X131899048Y-116831429D01*
X131956191Y-117040952D02*
X131765715Y-117040952D01*
X131765715Y-116640952D01*
X131956191Y-116640952D01*
X132127620Y-117040952D02*
X132127620Y-116640952D01*
X132222858Y-116640952D01*
X132280001Y-116660000D01*
X132318096Y-116698095D01*
X132337144Y-116736190D01*
X132356192Y-116812381D01*
X132356192Y-116869524D01*
X132337144Y-116945714D01*
X132318096Y-116983810D01*
X132280001Y-117021905D01*
X132222858Y-117040952D01*
X132127620Y-117040952D01*
X132718096Y-116640952D02*
X132527620Y-116640952D01*
X132508572Y-116831429D01*
X132527620Y-116812381D01*
X132565715Y-116793333D01*
X132660953Y-116793333D01*
X132699049Y-116812381D01*
X132718096Y-116831429D01*
X132737144Y-116869524D01*
X132737144Y-116964762D01*
X132718096Y-117002857D01*
X132699049Y-117021905D01*
X132660953Y-117040952D01*
X132565715Y-117040952D01*
X132527620Y-117021905D01*
X132508572Y-117002857D01*
D11*
X131437143Y-123922381D02*
X130960952Y-123922381D01*
X130960952Y-122922381D01*
X131770476Y-123398571D02*
X132103810Y-123398571D01*
X132246667Y-123922381D02*
X131770476Y-123922381D01*
X131770476Y-122922381D01*
X132246667Y-122922381D01*
X132675238Y-123922381D02*
X132675238Y-122922381D01*
X132913333Y-122922381D01*
X133056191Y-122970000D01*
X133151429Y-123065238D01*
X133199048Y-123160476D01*
X133246667Y-123350952D01*
X133246667Y-123493810D01*
X133199048Y-123684286D01*
X133151429Y-123779524D01*
X133056191Y-123874762D01*
X132913333Y-123922381D01*
X132675238Y-123922381D01*
D10*
X131632381Y-120850952D02*
X131441905Y-120850952D01*
X131441905Y-120450952D01*
X131765715Y-120641429D02*
X131899048Y-120641429D01*
X131956191Y-120850952D02*
X131765715Y-120850952D01*
X131765715Y-120450952D01*
X131956191Y-120450952D01*
X132127620Y-120850952D02*
X132127620Y-120450952D01*
X132222858Y-120450952D01*
X132280001Y-120470000D01*
X132318096Y-120508095D01*
X132337144Y-120546190D01*
X132356192Y-120622381D01*
X132356192Y-120679524D01*
X132337144Y-120755714D01*
X132318096Y-120793810D01*
X132280001Y-120831905D01*
X132222858Y-120850952D01*
X132127620Y-120850952D01*
X132699049Y-120450952D02*
X132622858Y-120450952D01*
X132584763Y-120470000D01*
X132565715Y-120489048D01*
X132527620Y-120546190D01*
X132508572Y-120622381D01*
X132508572Y-120774762D01*
X132527620Y-120812857D01*
X132546668Y-120831905D01*
X132584763Y-120850952D01*
X132660953Y-120850952D01*
X132699049Y-120831905D01*
X132718096Y-120812857D01*
X132737144Y-120774762D01*
X132737144Y-120679524D01*
X132718096Y-120641429D01*
X132699049Y-120622381D01*
X132660953Y-120603333D01*
X132584763Y-120603333D01*
X132546668Y-120622381D01*
X132527620Y-120641429D01*
X132508572Y-120679524D01*
D11*
X131437143Y-127732381D02*
X130960952Y-127732381D01*
X130960952Y-126732381D01*
X131770476Y-127208571D02*
X132103810Y-127208571D01*
X132246667Y-127732381D02*
X131770476Y-127732381D01*
X131770476Y-126732381D01*
X132246667Y-126732381D01*
X132675238Y-127732381D02*
X132675238Y-126732381D01*
X132913333Y-126732381D01*
X133056191Y-126780000D01*
X133151429Y-126875238D01*
X133199048Y-126970476D01*
X133246667Y-127160952D01*
X133246667Y-127303810D01*
X133199048Y-127494286D01*
X133151429Y-127589524D01*
X133056191Y-127684762D01*
X132913333Y-127732381D01*
X132675238Y-127732381D01*
D10*
X131632381Y-124660952D02*
X131441905Y-124660952D01*
X131441905Y-124260952D01*
X131765715Y-124451429D02*
X131899048Y-124451429D01*
X131956191Y-124660952D02*
X131765715Y-124660952D01*
X131765715Y-124260952D01*
X131956191Y-124260952D01*
X132127620Y-124660952D02*
X132127620Y-124260952D01*
X132222858Y-124260952D01*
X132280001Y-124280000D01*
X132318096Y-124318095D01*
X132337144Y-124356190D01*
X132356192Y-124432381D01*
X132356192Y-124489524D01*
X132337144Y-124565714D01*
X132318096Y-124603810D01*
X132280001Y-124641905D01*
X132222858Y-124660952D01*
X132127620Y-124660952D01*
X132489525Y-124260952D02*
X132756192Y-124260952D01*
X132584763Y-124660952D01*
D11*
X134767143Y-144708095D02*
X134814762Y-144755714D01*
X134862381Y-144898571D01*
X134862381Y-144993809D01*
X134814762Y-145136667D01*
X134719524Y-145231905D01*
X134624286Y-145279524D01*
X134433810Y-145327143D01*
X134290952Y-145327143D01*
X134100476Y-145279524D01*
X134005238Y-145231905D01*
X133910000Y-145136667D01*
X133862381Y-144993809D01*
X133862381Y-144898571D01*
X133910000Y-144755714D01*
X133957619Y-144708095D01*
X134862381Y-144136667D02*
X134814762Y-144231905D01*
X134767143Y-144279524D01*
X134671905Y-144327143D01*
X134386190Y-144327143D01*
X134290952Y-144279524D01*
X134243333Y-144231905D01*
X134195714Y-144136667D01*
X134195714Y-143993809D01*
X134243333Y-143898571D01*
X134290952Y-143850952D01*
X134386190Y-143803333D01*
X134671905Y-143803333D01*
X134767143Y-143850952D01*
X134814762Y-143898571D01*
X134862381Y-143993809D01*
X134862381Y-144136667D01*
X134195714Y-143374762D02*
X134862381Y-143374762D01*
X134290952Y-143374762D02*
X134243333Y-143327143D01*
X134195714Y-143231905D01*
X134195714Y-143089047D01*
X134243333Y-142993809D01*
X134338571Y-142946190D01*
X134862381Y-142946190D01*
X134195714Y-142470000D02*
X134862381Y-142470000D01*
X134290952Y-142470000D02*
X134243333Y-142422381D01*
X134195714Y-142327143D01*
X134195714Y-142184285D01*
X134243333Y-142089047D01*
X134338571Y-142041428D01*
X134862381Y-142041428D01*
X134957619Y-141803333D02*
X134957619Y-141041428D01*
X133862381Y-140612857D02*
X133862381Y-140517618D01*
X133910000Y-140422380D01*
X133957619Y-140374761D01*
X134052857Y-140327142D01*
X134243333Y-140279523D01*
X134481429Y-140279523D01*
X134671905Y-140327142D01*
X134767143Y-140374761D01*
X134814762Y-140422380D01*
X134862381Y-140517618D01*
X134862381Y-140612857D01*
X134814762Y-140708095D01*
X134767143Y-140755714D01*
X134671905Y-140803333D01*
X134481429Y-140850952D01*
X134243333Y-140850952D01*
X134052857Y-140803333D01*
X133957619Y-140755714D01*
X133910000Y-140708095D01*
X133862381Y-140612857D01*
X134862381Y-139327142D02*
X134862381Y-139898571D01*
X134862381Y-139612857D02*
X133862381Y-139612857D01*
X134005238Y-139708095D01*
X134100476Y-139803333D01*
X134148095Y-139898571D01*
X134862381Y-138993809D02*
X134195714Y-138469999D01*
X134195714Y-138993809D02*
X134862381Y-138469999D01*
X133862381Y-137898571D02*
X133862381Y-137803332D01*
X133910000Y-137708094D01*
X133957619Y-137660475D01*
X134052857Y-137612856D01*
X134243333Y-137565237D01*
X134481429Y-137565237D01*
X134671905Y-137612856D01*
X134767143Y-137660475D01*
X134814762Y-137708094D01*
X134862381Y-137803332D01*
X134862381Y-137898571D01*
X134814762Y-137993809D01*
X134767143Y-138041428D01*
X134671905Y-138089047D01*
X134481429Y-138136666D01*
X134243333Y-138136666D01*
X134052857Y-138089047D01*
X133957619Y-138041428D01*
X133910000Y-137993809D01*
X133862381Y-137898571D01*
X133957619Y-137184285D02*
X133910000Y-137136666D01*
X133862381Y-137041428D01*
X133862381Y-136803332D01*
X133910000Y-136708094D01*
X133957619Y-136660475D01*
X134052857Y-136612856D01*
X134148095Y-136612856D01*
X134290952Y-136660475D01*
X134862381Y-137231904D01*
X134862381Y-136612856D01*
X127548095Y-141422381D02*
X127548095Y-140422381D01*
X127881429Y-141136667D01*
X128214762Y-140422381D01*
X128214762Y-141422381D01*
X128452857Y-141517619D02*
X129214762Y-141517619D01*
X129452857Y-141422381D02*
X129452857Y-140422381D01*
X129833810Y-140422381D01*
X129929048Y-140470000D01*
X129976667Y-140517619D01*
X130024286Y-140612857D01*
X130024286Y-140755714D01*
X129976667Y-140850952D01*
X129929048Y-140898571D01*
X129833810Y-140946190D01*
X129452857Y-140946190D01*
X130643333Y-140422381D02*
X130833810Y-140422381D01*
X130929048Y-140470000D01*
X131024286Y-140565238D01*
X131071905Y-140755714D01*
X131071905Y-141089048D01*
X131024286Y-141279524D01*
X130929048Y-141374762D01*
X130833810Y-141422381D01*
X130643333Y-141422381D01*
X130548095Y-141374762D01*
X130452857Y-141279524D01*
X130405238Y-141089048D01*
X130405238Y-140755714D01*
X130452857Y-140565238D01*
X130548095Y-140470000D01*
X130643333Y-140422381D01*
X131405238Y-140422381D02*
X131643333Y-141422381D01*
X131833810Y-140708095D01*
X132024286Y-141422381D01*
X132262381Y-140422381D01*
X132643333Y-140898571D02*
X132976667Y-140898571D01*
X133119524Y-141422381D02*
X132643333Y-141422381D01*
X132643333Y-140422381D01*
X133119524Y-140422381D01*
X134119524Y-141422381D02*
X133786190Y-140946190D01*
X133548095Y-141422381D02*
X133548095Y-140422381D01*
X133929048Y-140422381D01*
X134024286Y-140470000D01*
X134071905Y-140517619D01*
X134119524Y-140612857D01*
X134119524Y-140755714D01*
X134071905Y-140850952D01*
X134024286Y-140898571D01*
X133929048Y-140946190D01*
X133548095Y-140946190D01*
X151217619Y-146132381D02*
X151789048Y-146132381D01*
X151503333Y-147132381D02*
X151503333Y-146132381D01*
X152122381Y-147132381D02*
X152122381Y-146132381D01*
X152598571Y-147132381D02*
X152598571Y-146132381D01*
X152979524Y-146132381D01*
X153074762Y-146180000D01*
X153122381Y-146227619D01*
X153170000Y-146322857D01*
X153170000Y-146465714D01*
X153122381Y-146560952D01*
X153074762Y-146608571D01*
X152979524Y-146656190D01*
X152598571Y-146656190D01*
X154122381Y-147132381D02*
X153550952Y-147132381D01*
X153836666Y-147132381D02*
X153836666Y-146132381D01*
X153741428Y-146275238D01*
X153646190Y-146370476D01*
X153550952Y-146418095D01*
X155074762Y-147132381D02*
X154503333Y-147132381D01*
X154789047Y-147132381D02*
X154789047Y-146132381D01*
X154693809Y-146275238D01*
X154598571Y-146370476D01*
X154503333Y-146418095D01*
X155979524Y-146132381D02*
X155503333Y-146132381D01*
X155455714Y-146608571D01*
X155503333Y-146560952D01*
X155598571Y-146513333D01*
X155836667Y-146513333D01*
X155931905Y-146560952D01*
X155979524Y-146608571D01*
X156027143Y-146703810D01*
X156027143Y-146941905D01*
X155979524Y-147037143D01*
X155931905Y-147084762D01*
X155836667Y-147132381D01*
X155598571Y-147132381D01*
X155503333Y-147084762D01*
X155455714Y-147037143D01*
X151217619Y-123652381D02*
X151789048Y-123652381D01*
X151503333Y-124652381D02*
X151503333Y-123652381D01*
X152122381Y-124652381D02*
X152122381Y-123652381D01*
X152598571Y-124652381D02*
X152598571Y-123652381D01*
X152979524Y-123652381D01*
X153074762Y-123700000D01*
X153122381Y-123747619D01*
X153170000Y-123842857D01*
X153170000Y-123985714D01*
X153122381Y-124080952D01*
X153074762Y-124128571D01*
X152979524Y-124176190D01*
X152598571Y-124176190D01*
X154122381Y-124652381D02*
X153550952Y-124652381D01*
X153836666Y-124652381D02*
X153836666Y-123652381D01*
X153741428Y-123795238D01*
X153646190Y-123890476D01*
X153550952Y-123938095D01*
X155074762Y-124652381D02*
X154503333Y-124652381D01*
X154789047Y-124652381D02*
X154789047Y-123652381D01*
X154693809Y-123795238D01*
X154598571Y-123890476D01*
X154503333Y-123938095D01*
X155979524Y-123652381D02*
X155503333Y-123652381D01*
X155455714Y-124128571D01*
X155503333Y-124080952D01*
X155598571Y-124033333D01*
X155836667Y-124033333D01*
X155931905Y-124080952D01*
X155979524Y-124128571D01*
X156027143Y-124223810D01*
X156027143Y-124461905D01*
X155979524Y-124557143D01*
X155931905Y-124604762D01*
X155836667Y-124652381D01*
X155598571Y-124652381D01*
X155503333Y-124604762D01*
X155455714Y-124557143D01*
X142549524Y-127932381D02*
X142216190Y-127456190D01*
X141978095Y-127932381D02*
X141978095Y-126932381D01*
X142359048Y-126932381D01*
X142454286Y-126980000D01*
X142501905Y-127027619D01*
X142549524Y-127122857D01*
X142549524Y-127265714D01*
X142501905Y-127360952D01*
X142454286Y-127408571D01*
X142359048Y-127456190D01*
X141978095Y-127456190D01*
D12*
X141751905Y-125956190D02*
X141466191Y-125956190D01*
X141609048Y-125956190D02*
X141609048Y-125456190D01*
X141561429Y-125527619D01*
X141513810Y-125575238D01*
X141466191Y-125599048D01*
X141966191Y-125956190D02*
X141966191Y-125456190D01*
X142013810Y-125765714D02*
X142156667Y-125956190D01*
X142156667Y-125622857D02*
X141966191Y-125813333D01*
X142251905Y-126003810D02*
X142632857Y-126003810D01*
X142823333Y-125670476D02*
X142775714Y-125646667D01*
X142751905Y-125622857D01*
X142728095Y-125575238D01*
X142728095Y-125551429D01*
X142751905Y-125503810D01*
X142775714Y-125480000D01*
X142823333Y-125456190D01*
X142918571Y-125456190D01*
X142966190Y-125480000D01*
X142990000Y-125503810D01*
X143013809Y-125551429D01*
X143013809Y-125575238D01*
X142990000Y-125622857D01*
X142966190Y-125646667D01*
X142918571Y-125670476D01*
X142823333Y-125670476D01*
X142775714Y-125694286D01*
X142751905Y-125718095D01*
X142728095Y-125765714D01*
X142728095Y-125860952D01*
X142751905Y-125908571D01*
X142775714Y-125932381D01*
X142823333Y-125956190D01*
X142918571Y-125956190D01*
X142966190Y-125932381D01*
X142990000Y-125908571D01*
X143013809Y-125860952D01*
X143013809Y-125765714D01*
X142990000Y-125718095D01*
X142966190Y-125694286D01*
X142918571Y-125670476D01*
D11*
X141978095Y-147832381D02*
X141978095Y-146832381D01*
X142216190Y-146832381D01*
X142359048Y-146880000D01*
X142454286Y-146975238D01*
X142501905Y-147070476D01*
X142549524Y-147260952D01*
X142549524Y-147403810D01*
X142501905Y-147594286D01*
X142454286Y-147689524D01*
X142359048Y-147784762D01*
X142216190Y-147832381D01*
X141978095Y-147832381D01*
X141501905Y-142732381D02*
X141501905Y-141732381D01*
X141740000Y-141732381D01*
X141882858Y-141780000D01*
X141978096Y-141875238D01*
X142025715Y-141970476D01*
X142073334Y-142160952D01*
X142073334Y-142303810D01*
X142025715Y-142494286D01*
X141978096Y-142589524D01*
X141882858Y-142684762D01*
X141740000Y-142732381D01*
X141501905Y-142732381D01*
X143025715Y-142732381D02*
X142454286Y-142732381D01*
X142740000Y-142732381D02*
X142740000Y-141732381D01*
X142644762Y-141875238D01*
X142549524Y-141970476D01*
X142454286Y-142018095D01*
X146011333Y-124854381D02*
X146011333Y-123854381D01*
X146392286Y-123854381D01*
X146487524Y-123902000D01*
X146535143Y-123949619D01*
X146582762Y-124044857D01*
X146582762Y-124187714D01*
X146535143Y-124282952D01*
X146487524Y-124330571D01*
X146392286Y-124378190D01*
X146011333Y-124378190D01*
X147201809Y-123854381D02*
X147392286Y-123854381D01*
X147487524Y-123902000D01*
X147582762Y-123997238D01*
X147630381Y-124187714D01*
X147630381Y-124521048D01*
X147582762Y-124711524D01*
X147487524Y-124806762D01*
X147392286Y-124854381D01*
X147201809Y-124854381D01*
X147106571Y-124806762D01*
X147011333Y-124711524D01*
X146963714Y-124521048D01*
X146963714Y-124187714D01*
X147011333Y-123997238D01*
X147106571Y-123902000D01*
X147201809Y-123854381D01*
X147916095Y-123854381D02*
X148487524Y-123854381D01*
X148201809Y-124854381D02*
X148201809Y-123854381D01*
X181697762Y-95654286D02*
X181745381Y-95511429D01*
X181745381Y-95273333D01*
X181697762Y-95178095D01*
X181650143Y-95130476D01*
X181554905Y-95082857D01*
X181459667Y-95082857D01*
X181364429Y-95130476D01*
X181316810Y-95178095D01*
X181269190Y-95273333D01*
X181221571Y-95463810D01*
X181173952Y-95559048D01*
X181126333Y-95606667D01*
X181031095Y-95654286D01*
X180935857Y-95654286D01*
X180840619Y-95606667D01*
X180793000Y-95559048D01*
X180745381Y-95463810D01*
X180745381Y-95225714D01*
X180793000Y-95082857D01*
X180745381Y-94749524D02*
X181745381Y-94511429D01*
X181031095Y-94320952D01*
X181745381Y-94130476D01*
X180745381Y-93892381D01*
X181840619Y-93749524D02*
X181840619Y-92987619D01*
X181745381Y-92749524D02*
X180745381Y-92749524D01*
X180745381Y-92511429D01*
X180793000Y-92368571D01*
X180888238Y-92273333D01*
X180983476Y-92225714D01*
X181173952Y-92178095D01*
X181316810Y-92178095D01*
X181507286Y-92225714D01*
X181602524Y-92273333D01*
X181697762Y-92368571D01*
X181745381Y-92511429D01*
X181745381Y-92749524D01*
X181745381Y-91749524D02*
X180745381Y-91749524D01*
X181745381Y-91273334D02*
X180745381Y-91273334D01*
X180745381Y-90892381D01*
X180793000Y-90797143D01*
X180840619Y-90749524D01*
X180935857Y-90701905D01*
X181078714Y-90701905D01*
X181173952Y-90749524D01*
X181221571Y-90797143D01*
X181269190Y-90892381D01*
X181269190Y-91273334D01*
X181840619Y-90511429D02*
X181840619Y-89749524D01*
X181745381Y-89606667D02*
X181078714Y-89082857D01*
X181078714Y-89606667D02*
X181745381Y-89082857D01*
X180745381Y-88511429D02*
X180745381Y-88416190D01*
X180793000Y-88320952D01*
X180840619Y-88273333D01*
X180935857Y-88225714D01*
X181126333Y-88178095D01*
X181364429Y-88178095D01*
X181554905Y-88225714D01*
X181650143Y-88273333D01*
X181697762Y-88320952D01*
X181745381Y-88416190D01*
X181745381Y-88511429D01*
X181697762Y-88606667D01*
X181650143Y-88654286D01*
X181554905Y-88701905D01*
X181364429Y-88749524D01*
X181126333Y-88749524D01*
X180935857Y-88701905D01*
X180840619Y-88654286D01*
X180793000Y-88606667D01*
X180745381Y-88511429D01*
X181173952Y-87606667D02*
X181126333Y-87701905D01*
X181078714Y-87749524D01*
X180983476Y-87797143D01*
X180935857Y-87797143D01*
X180840619Y-87749524D01*
X180793000Y-87701905D01*
X180745381Y-87606667D01*
X180745381Y-87416190D01*
X180793000Y-87320952D01*
X180840619Y-87273333D01*
X180935857Y-87225714D01*
X180983476Y-87225714D01*
X181078714Y-87273333D01*
X181126333Y-87320952D01*
X181173952Y-87416190D01*
X181173952Y-87606667D01*
X181221571Y-87701905D01*
X181269190Y-87749524D01*
X181364429Y-87797143D01*
X181554905Y-87797143D01*
X181650143Y-87749524D01*
X181697762Y-87701905D01*
X181745381Y-87606667D01*
X181745381Y-87416190D01*
X181697762Y-87320952D01*
X181650143Y-87273333D01*
X181554905Y-87225714D01*
X181364429Y-87225714D01*
X181269190Y-87273333D01*
X181221571Y-87320952D01*
X181173952Y-87416190D01*
X169375381Y-95511429D02*
X168375381Y-95511429D01*
X168375381Y-95130476D01*
X168423000Y-95035238D01*
X168470619Y-94987619D01*
X168565857Y-94940000D01*
X168708714Y-94940000D01*
X168803952Y-94987619D01*
X168851571Y-95035238D01*
X168899190Y-95130476D01*
X168899190Y-95511429D01*
X168375381Y-94320953D02*
X168375381Y-94130476D01*
X168423000Y-94035238D01*
X168518238Y-93940000D01*
X168708714Y-93892381D01*
X169042048Y-93892381D01*
X169232524Y-93940000D01*
X169327762Y-94035238D01*
X169375381Y-94130476D01*
X169375381Y-94320953D01*
X169327762Y-94416191D01*
X169232524Y-94511429D01*
X169042048Y-94559048D01*
X168708714Y-94559048D01*
X168518238Y-94511429D01*
X168423000Y-94416191D01*
X168375381Y-94320953D01*
X169375381Y-92892381D02*
X168899190Y-93225715D01*
X169375381Y-93463810D02*
X168375381Y-93463810D01*
X168375381Y-93082857D01*
X168423000Y-92987619D01*
X168470619Y-92940000D01*
X168565857Y-92892381D01*
X168708714Y-92892381D01*
X168803952Y-92940000D01*
X168851571Y-92987619D01*
X168899190Y-93082857D01*
X168899190Y-93463810D01*
X168375381Y-92606667D02*
X168375381Y-92035238D01*
X169375381Y-92320953D02*
X168375381Y-92320953D01*
X168851571Y-91368571D02*
X168899190Y-91225714D01*
X168946810Y-91178095D01*
X169042048Y-91130476D01*
X169184905Y-91130476D01*
X169280143Y-91178095D01*
X169327762Y-91225714D01*
X169375381Y-91320952D01*
X169375381Y-91701905D01*
X168375381Y-91701905D01*
X168375381Y-91368571D01*
X168423000Y-91273333D01*
X168470619Y-91225714D01*
X168565857Y-91178095D01*
X168661095Y-91178095D01*
X168756333Y-91225714D01*
X168803952Y-91273333D01*
X168851571Y-91368571D01*
X168851571Y-91701905D01*
X169470619Y-90940000D02*
X169470619Y-90178095D01*
X169327762Y-89987619D02*
X169375381Y-89844762D01*
X169375381Y-89606666D01*
X169327762Y-89511428D01*
X169280143Y-89463809D01*
X169184905Y-89416190D01*
X169089667Y-89416190D01*
X168994429Y-89463809D01*
X168946810Y-89511428D01*
X168899190Y-89606666D01*
X168851571Y-89797143D01*
X168803952Y-89892381D01*
X168756333Y-89940000D01*
X168661095Y-89987619D01*
X168565857Y-89987619D01*
X168470619Y-89940000D01*
X168423000Y-89892381D01*
X168375381Y-89797143D01*
X168375381Y-89559047D01*
X168423000Y-89416190D01*
X168375381Y-89082857D02*
X169375381Y-88844762D01*
X168661095Y-88654285D01*
X169375381Y-88463809D01*
X168375381Y-88225714D01*
X168375381Y-87654286D02*
X168375381Y-87559047D01*
X168423000Y-87463809D01*
X168470619Y-87416190D01*
X168565857Y-87368571D01*
X168756333Y-87320952D01*
X168994429Y-87320952D01*
X169184905Y-87368571D01*
X169280143Y-87416190D01*
X169327762Y-87463809D01*
X169375381Y-87559047D01*
X169375381Y-87654286D01*
X169327762Y-87749524D01*
X169280143Y-87797143D01*
X169184905Y-87844762D01*
X168994429Y-87892381D01*
X168756333Y-87892381D01*
X168565857Y-87844762D01*
X168470619Y-87797143D01*
X168423000Y-87749524D01*
X168375381Y-87654286D01*
X169057143Y-145978095D02*
X169104762Y-146025714D01*
X169152381Y-146168571D01*
X169152381Y-146263809D01*
X169104762Y-146406667D01*
X169009524Y-146501905D01*
X168914286Y-146549524D01*
X168723810Y-146597143D01*
X168580952Y-146597143D01*
X168390476Y-146549524D01*
X168295238Y-146501905D01*
X168200000Y-146406667D01*
X168152381Y-146263809D01*
X168152381Y-146168571D01*
X168200000Y-146025714D01*
X168247619Y-145978095D01*
X169152381Y-145406667D02*
X169104762Y-145501905D01*
X169057143Y-145549524D01*
X168961905Y-145597143D01*
X168676190Y-145597143D01*
X168580952Y-145549524D01*
X168533333Y-145501905D01*
X168485714Y-145406667D01*
X168485714Y-145263809D01*
X168533333Y-145168571D01*
X168580952Y-145120952D01*
X168676190Y-145073333D01*
X168961905Y-145073333D01*
X169057143Y-145120952D01*
X169104762Y-145168571D01*
X169152381Y-145263809D01*
X169152381Y-145406667D01*
X168485714Y-144644762D02*
X169152381Y-144644762D01*
X168580952Y-144644762D02*
X168533333Y-144597143D01*
X168485714Y-144501905D01*
X168485714Y-144359047D01*
X168533333Y-144263809D01*
X168628571Y-144216190D01*
X169152381Y-144216190D01*
X168485714Y-143740000D02*
X169152381Y-143740000D01*
X168580952Y-143740000D02*
X168533333Y-143692381D01*
X168485714Y-143597143D01*
X168485714Y-143454285D01*
X168533333Y-143359047D01*
X168628571Y-143311428D01*
X169152381Y-143311428D01*
X169247619Y-143073333D02*
X169247619Y-142311428D01*
X168152381Y-141882857D02*
X168152381Y-141787618D01*
X168200000Y-141692380D01*
X168247619Y-141644761D01*
X168342857Y-141597142D01*
X168533333Y-141549523D01*
X168771429Y-141549523D01*
X168961905Y-141597142D01*
X169057143Y-141644761D01*
X169104762Y-141692380D01*
X169152381Y-141787618D01*
X169152381Y-141882857D01*
X169104762Y-141978095D01*
X169057143Y-142025714D01*
X168961905Y-142073333D01*
X168771429Y-142120952D01*
X168533333Y-142120952D01*
X168342857Y-142073333D01*
X168247619Y-142025714D01*
X168200000Y-141978095D01*
X168152381Y-141882857D01*
X169152381Y-140597142D02*
X169152381Y-141168571D01*
X169152381Y-140882857D02*
X168152381Y-140882857D01*
X168295238Y-140978095D01*
X168390476Y-141073333D01*
X168438095Y-141168571D01*
X169152381Y-140263809D02*
X168485714Y-139739999D01*
X168485714Y-140263809D02*
X169152381Y-139739999D01*
X168152381Y-139168571D02*
X168152381Y-139073332D01*
X168200000Y-138978094D01*
X168247619Y-138930475D01*
X168342857Y-138882856D01*
X168533333Y-138835237D01*
X168771429Y-138835237D01*
X168961905Y-138882856D01*
X169057143Y-138930475D01*
X169104762Y-138978094D01*
X169152381Y-139073332D01*
X169152381Y-139168571D01*
X169104762Y-139263809D01*
X169057143Y-139311428D01*
X168961905Y-139359047D01*
X168771429Y-139406666D01*
X168533333Y-139406666D01*
X168342857Y-139359047D01*
X168247619Y-139311428D01*
X168200000Y-139263809D01*
X168152381Y-139168571D01*
X168247619Y-138454285D02*
X168200000Y-138406666D01*
X168152381Y-138311428D01*
X168152381Y-138073332D01*
X168200000Y-137978094D01*
X168247619Y-137930475D01*
X168342857Y-137882856D01*
X168438095Y-137882856D01*
X168580952Y-137930475D01*
X169152381Y-138501904D01*
X169152381Y-137882856D01*
X159861904Y-142644762D02*
X160004761Y-142692381D01*
X160242857Y-142692381D01*
X160338095Y-142644762D01*
X160385714Y-142597143D01*
X160433333Y-142501905D01*
X160433333Y-142406667D01*
X160385714Y-142311429D01*
X160338095Y-142263810D01*
X160242857Y-142216190D01*
X160052380Y-142168571D01*
X159957142Y-142120952D01*
X159909523Y-142073333D01*
X159861904Y-141978095D01*
X159861904Y-141882857D01*
X159909523Y-141787619D01*
X159957142Y-141740000D01*
X160052380Y-141692381D01*
X160290476Y-141692381D01*
X160433333Y-141740000D01*
X160719047Y-142025714D02*
X161099999Y-142025714D01*
X160861904Y-141692381D02*
X160861904Y-142549524D01*
X160909523Y-142644762D01*
X161004761Y-142692381D01*
X161099999Y-142692381D01*
X161814286Y-142644762D02*
X161719048Y-142692381D01*
X161528571Y-142692381D01*
X161433333Y-142644762D01*
X161385714Y-142549524D01*
X161385714Y-142168571D01*
X161433333Y-142073333D01*
X161528571Y-142025714D01*
X161719048Y-142025714D01*
X161814286Y-142073333D01*
X161861905Y-142168571D01*
X161861905Y-142263810D01*
X161385714Y-142359048D01*
X162290476Y-142025714D02*
X162290476Y-143025714D01*
X162290476Y-142073333D02*
X162385714Y-142025714D01*
X162576191Y-142025714D01*
X162671429Y-142073333D01*
X162719048Y-142120952D01*
X162766667Y-142216190D01*
X162766667Y-142501905D01*
X162719048Y-142597143D01*
X162671429Y-142644762D01*
X162576191Y-142692381D01*
X162385714Y-142692381D01*
X162290476Y-142644762D01*
X163195238Y-142025714D02*
X163195238Y-143025714D01*
X163195238Y-142073333D02*
X163290476Y-142025714D01*
X163480953Y-142025714D01*
X163576191Y-142073333D01*
X163623810Y-142120952D01*
X163671429Y-142216190D01*
X163671429Y-142501905D01*
X163623810Y-142597143D01*
X163576191Y-142644762D01*
X163480953Y-142692381D01*
X163290476Y-142692381D01*
X163195238Y-142644762D01*
X164480953Y-142644762D02*
X164385715Y-142692381D01*
X164195238Y-142692381D01*
X164100000Y-142644762D01*
X164052381Y-142549524D01*
X164052381Y-142168571D01*
X164100000Y-142073333D01*
X164195238Y-142025714D01*
X164385715Y-142025714D01*
X164480953Y-142073333D01*
X164528572Y-142168571D01*
X164528572Y-142263810D01*
X164052381Y-142359048D01*
X164957143Y-142692381D02*
X164957143Y-142025714D01*
X164957143Y-142216190D02*
X165004762Y-142120952D01*
X165052381Y-142073333D01*
X165147619Y-142025714D01*
X165242858Y-142025714D01*
X165338096Y-142787619D02*
X166100001Y-142787619D01*
X166338096Y-142692381D02*
X166338096Y-141692381D01*
X166719049Y-141692381D01*
X166814287Y-141740000D01*
X166861906Y-141787619D01*
X166909525Y-141882857D01*
X166909525Y-142025714D01*
X166861906Y-142120952D01*
X166814287Y-142168571D01*
X166719049Y-142216190D01*
X166338096Y-142216190D01*
X167480953Y-142692381D02*
X167385715Y-142644762D01*
X167338096Y-142597143D01*
X167290477Y-142501905D01*
X167290477Y-142216190D01*
X167338096Y-142120952D01*
X167385715Y-142073333D01*
X167480953Y-142025714D01*
X167623811Y-142025714D01*
X167719049Y-142073333D01*
X167766668Y-142120952D01*
X167814287Y-142216190D01*
X167814287Y-142501905D01*
X167766668Y-142597143D01*
X167719049Y-142644762D01*
X167623811Y-142692381D01*
X167480953Y-142692381D01*
X168147620Y-142025714D02*
X168338096Y-142692381D01*
X168528573Y-142216190D01*
X168719049Y-142692381D01*
X168909525Y-142025714D01*
X169671430Y-142644762D02*
X169576192Y-142692381D01*
X169385715Y-142692381D01*
X169290477Y-142644762D01*
X169242858Y-142549524D01*
X169242858Y-142168571D01*
X169290477Y-142073333D01*
X169385715Y-142025714D01*
X169576192Y-142025714D01*
X169671430Y-142073333D01*
X169719049Y-142168571D01*
X169719049Y-142263810D01*
X169242858Y-142359048D01*
X170147620Y-142692381D02*
X170147620Y-142025714D01*
X170147620Y-142216190D02*
X170195239Y-142120952D01*
X170242858Y-142073333D01*
X170338096Y-142025714D01*
X170433335Y-142025714D01*
X185567143Y-120578095D02*
X185614762Y-120625714D01*
X185662381Y-120768571D01*
X185662381Y-120863809D01*
X185614762Y-121006667D01*
X185519524Y-121101905D01*
X185424286Y-121149524D01*
X185233810Y-121197143D01*
X185090952Y-121197143D01*
X184900476Y-121149524D01*
X184805238Y-121101905D01*
X184710000Y-121006667D01*
X184662381Y-120863809D01*
X184662381Y-120768571D01*
X184710000Y-120625714D01*
X184757619Y-120578095D01*
X185662381Y-120006667D02*
X185614762Y-120101905D01*
X185567143Y-120149524D01*
X185471905Y-120197143D01*
X185186190Y-120197143D01*
X185090952Y-120149524D01*
X185043333Y-120101905D01*
X184995714Y-120006667D01*
X184995714Y-119863809D01*
X185043333Y-119768571D01*
X185090952Y-119720952D01*
X185186190Y-119673333D01*
X185471905Y-119673333D01*
X185567143Y-119720952D01*
X185614762Y-119768571D01*
X185662381Y-119863809D01*
X185662381Y-120006667D01*
X184995714Y-119244762D02*
X185662381Y-119244762D01*
X185090952Y-119244762D02*
X185043333Y-119197143D01*
X184995714Y-119101905D01*
X184995714Y-118959047D01*
X185043333Y-118863809D01*
X185138571Y-118816190D01*
X185662381Y-118816190D01*
X184995714Y-118340000D02*
X185662381Y-118340000D01*
X185090952Y-118340000D02*
X185043333Y-118292381D01*
X184995714Y-118197143D01*
X184995714Y-118054285D01*
X185043333Y-117959047D01*
X185138571Y-117911428D01*
X185662381Y-117911428D01*
X185757619Y-117673333D02*
X185757619Y-116911428D01*
X184662381Y-116482857D02*
X184662381Y-116387618D01*
X184710000Y-116292380D01*
X184757619Y-116244761D01*
X184852857Y-116197142D01*
X185043333Y-116149523D01*
X185281429Y-116149523D01*
X185471905Y-116197142D01*
X185567143Y-116244761D01*
X185614762Y-116292380D01*
X185662381Y-116387618D01*
X185662381Y-116482857D01*
X185614762Y-116578095D01*
X185567143Y-116625714D01*
X185471905Y-116673333D01*
X185281429Y-116720952D01*
X185043333Y-116720952D01*
X184852857Y-116673333D01*
X184757619Y-116625714D01*
X184710000Y-116578095D01*
X184662381Y-116482857D01*
X185662381Y-115197142D02*
X185662381Y-115768571D01*
X185662381Y-115482857D02*
X184662381Y-115482857D01*
X184805238Y-115578095D01*
X184900476Y-115673333D01*
X184948095Y-115768571D01*
X185662381Y-114863809D02*
X184995714Y-114339999D01*
X184995714Y-114863809D02*
X185662381Y-114339999D01*
X184662381Y-113768571D02*
X184662381Y-113673332D01*
X184710000Y-113578094D01*
X184757619Y-113530475D01*
X184852857Y-113482856D01*
X185043333Y-113435237D01*
X185281429Y-113435237D01*
X185471905Y-113482856D01*
X185567143Y-113530475D01*
X185614762Y-113578094D01*
X185662381Y-113673332D01*
X185662381Y-113768571D01*
X185614762Y-113863809D01*
X185567143Y-113911428D01*
X185471905Y-113959047D01*
X185281429Y-114006666D01*
X185043333Y-114006666D01*
X184852857Y-113959047D01*
X184757619Y-113911428D01*
X184710000Y-113863809D01*
X184662381Y-113768571D01*
X184757619Y-113054285D02*
X184710000Y-113006666D01*
X184662381Y-112911428D01*
X184662381Y-112673332D01*
X184710000Y-112578094D01*
X184757619Y-112530475D01*
X184852857Y-112482856D01*
X184948095Y-112482856D01*
X185090952Y-112530475D01*
X185662381Y-113101904D01*
X185662381Y-112482856D01*
X178800476Y-117292381D02*
X178800476Y-116292381D01*
X179181429Y-116292381D01*
X179276667Y-116340000D01*
X179324286Y-116387619D01*
X179371905Y-116482857D01*
X179371905Y-116625714D01*
X179324286Y-116720952D01*
X179276667Y-116768571D01*
X179181429Y-116816190D01*
X178800476Y-116816190D01*
X179800476Y-117292381D02*
X179800476Y-116292381D01*
X180276666Y-117292381D02*
X180276666Y-116292381D01*
X180848095Y-117292381D01*
X180848095Y-116292381D01*
X181848095Y-116340000D02*
X181752857Y-116292381D01*
X181610000Y-116292381D01*
X181467142Y-116340000D01*
X181371904Y-116435238D01*
X181324285Y-116530476D01*
X181276666Y-116720952D01*
X181276666Y-116863810D01*
X181324285Y-117054286D01*
X181371904Y-117149524D01*
X181467142Y-117244762D01*
X181610000Y-117292381D01*
X181705238Y-117292381D01*
X181848095Y-117244762D01*
X181895714Y-117197143D01*
X181895714Y-116863810D01*
X181705238Y-116863810D01*
X182086190Y-117387619D02*
X182848095Y-117387619D01*
X183562381Y-116292381D02*
X183086190Y-116292381D01*
X183038571Y-116768571D01*
X183086190Y-116720952D01*
X183181428Y-116673333D01*
X183419524Y-116673333D01*
X183514762Y-116720952D01*
X183562381Y-116768571D01*
X183610000Y-116863810D01*
X183610000Y-117101905D01*
X183562381Y-117197143D01*
X183514762Y-117244762D01*
X183419524Y-117292381D01*
X183181428Y-117292381D01*
X183086190Y-117244762D01*
X183038571Y-117197143D01*
X183895714Y-116292381D02*
X184229047Y-117292381D01*
X184562381Y-116292381D01*
X141044762Y-94384286D02*
X141092381Y-94241429D01*
X141092381Y-94003333D01*
X141044762Y-93908095D01*
X140997143Y-93860476D01*
X140901905Y-93812857D01*
X140806667Y-93812857D01*
X140711429Y-93860476D01*
X140663810Y-93908095D01*
X140616190Y-94003333D01*
X140568571Y-94193810D01*
X140520952Y-94289048D01*
X140473333Y-94336667D01*
X140378095Y-94384286D01*
X140282857Y-94384286D01*
X140187619Y-94336667D01*
X140140000Y-94289048D01*
X140092381Y-94193810D01*
X140092381Y-93955714D01*
X140140000Y-93812857D01*
X140092381Y-93479524D02*
X141092381Y-93241429D01*
X140378095Y-93050952D01*
X141092381Y-92860476D01*
X140092381Y-92622381D01*
X141187619Y-92479524D02*
X141187619Y-91717619D01*
X141092381Y-91479524D02*
X140092381Y-91479524D01*
X140092381Y-91241429D01*
X140140000Y-91098571D01*
X140235238Y-91003333D01*
X140330476Y-90955714D01*
X140520952Y-90908095D01*
X140663810Y-90908095D01*
X140854286Y-90955714D01*
X140949524Y-91003333D01*
X141044762Y-91098571D01*
X141092381Y-91241429D01*
X141092381Y-91479524D01*
X141092381Y-90479524D02*
X140092381Y-90479524D01*
X141092381Y-90003334D02*
X140092381Y-90003334D01*
X140092381Y-89622381D01*
X140140000Y-89527143D01*
X140187619Y-89479524D01*
X140282857Y-89431905D01*
X140425714Y-89431905D01*
X140520952Y-89479524D01*
X140568571Y-89527143D01*
X140616190Y-89622381D01*
X140616190Y-90003334D01*
X141187619Y-89241429D02*
X141187619Y-88479524D01*
X141092381Y-88336667D02*
X140425714Y-87812857D01*
X140425714Y-88336667D02*
X141092381Y-87812857D01*
X140092381Y-87241429D02*
X140092381Y-87146190D01*
X140140000Y-87050952D01*
X140187619Y-87003333D01*
X140282857Y-86955714D01*
X140473333Y-86908095D01*
X140711429Y-86908095D01*
X140901905Y-86955714D01*
X140997143Y-87003333D01*
X141044762Y-87050952D01*
X141092381Y-87146190D01*
X141092381Y-87241429D01*
X141044762Y-87336667D01*
X140997143Y-87384286D01*
X140901905Y-87431905D01*
X140711429Y-87479524D01*
X140473333Y-87479524D01*
X140282857Y-87431905D01*
X140187619Y-87384286D01*
X140140000Y-87336667D01*
X140092381Y-87241429D01*
X140425714Y-86050952D02*
X141092381Y-86050952D01*
X140044762Y-86289048D02*
X140759048Y-86527143D01*
X140759048Y-85908095D01*
X133802381Y-94170000D02*
X132802381Y-94170000D01*
X132802381Y-93789047D01*
X132850000Y-93693809D01*
X132897619Y-93646190D01*
X132992857Y-93598571D01*
X133135714Y-93598571D01*
X133230952Y-93646190D01*
X133278571Y-93693809D01*
X133326190Y-93789047D01*
X133326190Y-94170000D01*
X132802381Y-92979524D02*
X132802381Y-92789047D01*
X132850000Y-92693809D01*
X132945238Y-92598571D01*
X133135714Y-92550952D01*
X133469048Y-92550952D01*
X133659524Y-92598571D01*
X133754762Y-92693809D01*
X133802381Y-92789047D01*
X133802381Y-92979524D01*
X133754762Y-93074762D01*
X133659524Y-93170000D01*
X133469048Y-93217619D01*
X133135714Y-93217619D01*
X132945238Y-93170000D01*
X132850000Y-93074762D01*
X132802381Y-92979524D01*
X133802381Y-91550952D02*
X133326190Y-91884286D01*
X133802381Y-92122381D02*
X132802381Y-92122381D01*
X132802381Y-91741428D01*
X132850000Y-91646190D01*
X132897619Y-91598571D01*
X132992857Y-91550952D01*
X133135714Y-91550952D01*
X133230952Y-91598571D01*
X133278571Y-91646190D01*
X133326190Y-91741428D01*
X133326190Y-92122381D01*
X132802381Y-91265238D02*
X132802381Y-90693809D01*
X133802381Y-90979524D02*
X132802381Y-90979524D01*
X133516667Y-90408095D02*
X133516667Y-89931904D01*
X133802381Y-90503333D02*
X132802381Y-90170000D01*
X133802381Y-89836666D01*
X133897619Y-89741428D02*
X133897619Y-88979523D01*
X133754762Y-88789047D02*
X133802381Y-88646190D01*
X133802381Y-88408094D01*
X133754762Y-88312856D01*
X133707143Y-88265237D01*
X133611905Y-88217618D01*
X133516667Y-88217618D01*
X133421429Y-88265237D01*
X133373810Y-88312856D01*
X133326190Y-88408094D01*
X133278571Y-88598571D01*
X133230952Y-88693809D01*
X133183333Y-88741428D01*
X133088095Y-88789047D01*
X132992857Y-88789047D01*
X132897619Y-88741428D01*
X132850000Y-88693809D01*
X132802381Y-88598571D01*
X132802381Y-88360475D01*
X132850000Y-88217618D01*
X132802381Y-87884285D02*
X133802381Y-87646190D01*
X133088095Y-87455713D01*
X133802381Y-87265237D01*
X132802381Y-87027142D01*
X133802381Y-86122380D02*
X133802381Y-86693809D01*
X133802381Y-86408095D02*
X132802381Y-86408095D01*
X132945238Y-86503333D01*
X133040476Y-86598571D01*
X133088095Y-86693809D01*
M02*
