G04 #@! TF.FileFunction,Paste,Top*
%FSLAX46Y46*%
G04 Gerber Fmt 4.6, Leading zero omitted, Abs format (unit mm)*
G04 Created by KiCad (PCBNEW 4.0.7) date 04/06/18 15:52:27*
%MOMM*%
%LPD*%
G01*
G04 APERTURE LIST*
%ADD10C,0.100000*%
%ADD11R,0.900000X2.800000*%
%ADD12R,0.700000X1.300000*%
%ADD13R,1.200000X1.200000*%
%ADD14R,2.500000X1.800000*%
G04 APERTURE END LIST*
D10*
D11*
X144440000Y-109140000D03*
X145880000Y-109140000D03*
X147320000Y-109140000D03*
X148760000Y-109140000D03*
X150200000Y-109140000D03*
X150200000Y-99140000D03*
X148760000Y-99140000D03*
X147320000Y-99140000D03*
X145880000Y-99140000D03*
X144440000Y-99140000D03*
D12*
X137480000Y-99060000D03*
X139380000Y-99060000D03*
X137480000Y-102870000D03*
X139380000Y-102870000D03*
X137480000Y-106680000D03*
X139380000Y-106680000D03*
X137480000Y-110490000D03*
X139380000Y-110490000D03*
X137480000Y-114300000D03*
X139380000Y-114300000D03*
X137480000Y-118110000D03*
X139380000Y-118110000D03*
X137480000Y-121920000D03*
X139380000Y-121920000D03*
X137480000Y-125730000D03*
X139380000Y-125730000D03*
D13*
X133180000Y-99060000D03*
X130980000Y-99060000D03*
X133180000Y-102870000D03*
X130980000Y-102870000D03*
X133180000Y-106680000D03*
X130980000Y-106680000D03*
X133180000Y-110490000D03*
X130980000Y-110490000D03*
X133180000Y-114300000D03*
X130980000Y-114300000D03*
X133180000Y-118110000D03*
X130980000Y-118110000D03*
X133180000Y-121920000D03*
X130980000Y-121920000D03*
X133180000Y-125730000D03*
X130980000Y-125730000D03*
D12*
X141290000Y-125730000D03*
X143190000Y-125730000D03*
D14*
X140240000Y-144780000D03*
X144240000Y-144780000D03*
M02*
