M48
;DRILL file {KiCad 4.0.7} date 04/06/18 15:52:32
;FORMAT={-:-/ absolute / metric / decimal}
FMAT,2
METRIC,TZ
T1C0.400
T2C0.800
T3C1.000
%
G90
G05
M71
T1
X127.184Y-84.888
X129.681Y-92.494
X130.263Y-52.124
X130.855Y-54.75
X134.136Y-84.334
X136.249Y-95.512
X136.307Y-84.199
X136.608Y-87.92
X136.781Y-77.856
X136.878Y-79.521
X137.055Y-96.875
X137.081Y-73.409
X137.729Y-78.248
X138.012Y-111.719
X138.012Y-116.342
X138.092Y-120.287
X138.43Y-125.75
X138.433Y-92.98
X139.026Y-58.088
X139.026Y-61.215
X139.026Y-108.35
X139.026Y-119.919
X139.075Y-64.052
X139.441Y-70.714
X139.854Y-108.96
X140.566Y-75.652
X141.074Y-64.93
X141.359Y-107.347
X141.491Y-85.397
X141.786Y-54.642
X141.89Y-52.18
X141.89Y-137.176
X142.665Y-65.965
X142.789Y-74.902
X142.816Y-85.749
X144.469Y-105.764
X144.754Y-54.746
X144.988Y-113.761
X144.988Y-116.688
X144.995Y-104.408
X145.743Y-64.128
X146.789Y-73.917
X147.306Y-85.592
X147.618Y-113.637
X148.218Y-96.482
X148.277Y-102.312
X148.295Y-119.262
X148.418Y-112.883
X148.65Y-85.029
X149.291Y-116.37
X149.355Y-95.157
X150.033Y-74.025
X150.111Y-75.202
X150.482Y-102.304
X150.923Y-113.761
X151.622Y-83.812
X152.057Y-94.894
X152.725Y-110.595
X152.899Y-95.468
X152.968Y-66.007
X153.085Y-75.068
X155.009Y-69.752
X155.598Y-94.165
X155.896Y-81.775
X156.029Y-78.638
X156.876Y-64.571
X156.973Y-73.274
X157.62Y-75.269
X157.778Y-90.345
X158.078Y-84.888
X158.676Y-66.031
X159.13Y-64.629
X159.71Y-90.345
X159.945Y-64.791
X160.178Y-75.334
X161.593Y-107.337
X161.994Y-84.391
X162.392Y-65.536
X162.43Y-98.646
X162.877Y-114.258
X163.507Y-65.291
X163.515Y-107.869
X164.002Y-115.779
X164.555Y-75.27
X164.95Y-64.226
X164.951Y-107.072
X165.167Y-65.947
X165.453Y-65.063
X165.492Y-75.171
X166.803Y-75.278
X167.666Y-52.954
X168.073Y-84.745
X168.166Y-104.449
X168.444Y-51.406
X168.7Y-92.982
X170.827Y-55.865
X170.844Y-61.562
X171.701Y-57.453
X172.574Y-79.558
X172.651Y-76.787
X172.745Y-114.441
X173.394Y-60.337
X173.394Y-122.007
X173.481Y-92.415
X173.873Y-79.66
X173.901Y-74.123
X173.96Y-86.524
X174.085Y-58.433
X174.123Y-75.523
X174.132Y-67.363
X175.759Y-78.717
X175.938Y-106.822
X176.215Y-67.892
X176.275Y-66.288
X176.65Y-94.557
X177.055Y-116.155
X177.116Y-54.483
X177.237Y-84.915
X177.331Y-117.318
X178.986Y-54.483
X179.583Y-87.418
X179.705Y-84.893
X180.828Y-54.837
X180.957Y-85.622
X181.872Y-93.809
X182.286Y-111.253
X183.503Y-54.827
T2
X129.54Y-86.36
X129.54Y-93.98
X132.08Y-86.36
X132.08Y-93.98
X134.62Y-86.36
X134.62Y-93.98
X137.16Y-86.36
X137.16Y-93.98
X138.43Y-134.62
X138.43Y-137.16
X138.43Y-139.7
X146.05Y-134.62
X146.05Y-137.16
X146.05Y-139.7
X147.193Y-115.697
X147.193Y-120.777
X149.733Y-118.237
X160.033Y-87.63
X160.033Y-95.25
X162.573Y-87.63
X162.573Y-95.25
X164.719Y-127.
X164.719Y-134.62
X165.113Y-87.63
X165.113Y-95.25
X167.259Y-127.
X167.259Y-134.62
X167.653Y-87.63
X167.653Y-95.25
X169.799Y-127.
X169.799Y-134.62
X170.193Y-87.63
X170.193Y-95.25
X172.339Y-127.
X172.339Y-134.62
X172.733Y-87.63
X172.733Y-95.25
X174.879Y-127.
X174.879Y-134.62
X175.273Y-87.63
X175.273Y-95.25
X177.419Y-127.
X177.419Y-134.62
X177.813Y-87.63
X177.813Y-95.25
X179.959Y-127.
X179.959Y-134.62
X182.499Y-127.
X182.499Y-134.62
T3
X129.54Y-135.001
X129.54Y-140.97
X130.81Y-58.42
X130.81Y-60.96
X130.81Y-63.5
X130.81Y-66.04
X130.81Y-68.58
X130.81Y-71.12
X130.81Y-73.66
X130.81Y-76.2
X130.81Y-78.74
X130.81Y-81.28
X132.08Y-135.001
X132.08Y-140.97
X133.35Y-58.42
X133.35Y-60.96
X133.35Y-63.5
X133.35Y-66.04
X133.35Y-68.58
X133.35Y-71.12
X133.35Y-73.66
X133.35Y-76.2
X133.35Y-78.74
X133.35Y-81.28
X142.24Y-68.58
X142.24Y-71.12
X142.24Y-78.74
X142.24Y-81.28
X142.24Y-88.9
X142.24Y-91.44
X144.78Y-58.42
X144.78Y-60.96
X144.78Y-68.58
X144.78Y-71.12
X144.78Y-78.74
X144.78Y-81.28
X144.78Y-88.9
X144.78Y-91.44
X147.32Y-58.42
X147.32Y-60.96
X147.32Y-68.58
X147.32Y-71.12
X147.32Y-78.74
X147.32Y-81.28
X147.32Y-88.9
X147.32Y-91.44
X149.86Y-58.42
X149.86Y-60.96
X149.86Y-68.58
X149.86Y-71.12
X149.86Y-78.74
X149.86Y-81.28
X149.86Y-88.9
X149.86Y-91.44
X151.13Y-144.78
X152.4Y-58.42
X152.4Y-60.96
X152.4Y-68.58
X152.4Y-71.12
X152.4Y-78.74
X152.4Y-81.28
X152.4Y-88.9
X152.4Y-91.44
X153.67Y-144.78
X154.94Y-58.42
X154.94Y-60.96
X156.21Y-144.78
X157.48Y-58.42
X157.48Y-60.96
X157.48Y-101.6
X157.48Y-109.22
X157.48Y-116.84
X160.02Y-58.42
X160.02Y-60.96
X160.02Y-68.58
X160.02Y-71.12
X160.02Y-78.74
X160.02Y-81.28
X160.02Y-101.6
X160.02Y-109.22
X160.02Y-116.84
X162.56Y-58.42
X162.56Y-60.96
X162.56Y-68.58
X162.56Y-71.12
X162.56Y-78.74
X162.56Y-81.28
X162.56Y-101.6
X162.56Y-109.22
X162.56Y-116.84
X163.83Y-142.24
X165.1Y-58.42
X165.1Y-60.96
X165.1Y-68.58
X165.1Y-71.12
X165.1Y-78.74
X165.1Y-81.28
X165.1Y-109.22
X165.1Y-116.84
X166.37Y-142.24
X167.64Y-58.42
X167.64Y-60.96
X167.64Y-68.58
X167.64Y-71.12
X167.64Y-78.74
X167.64Y-81.28
X170.18Y-68.58
X170.18Y-71.12
X170.18Y-78.74
X170.18Y-81.28
X170.18Y-101.6
X171.45Y-142.24
X172.72Y-101.6
X173.99Y-142.24
X175.26Y-101.6
X175.26Y-109.22
X176.53Y-142.24
X177.8Y-101.6
X177.8Y-109.22
X179.07Y-58.42
X179.07Y-60.96
X179.07Y-63.5
X179.07Y-66.04
X179.07Y-68.58
X179.07Y-71.12
X179.07Y-73.66
X179.07Y-76.2
X179.07Y-78.74
X179.07Y-81.28
X179.07Y-142.24
X180.34Y-101.6
X180.34Y-109.22
X180.34Y-116.84
X181.61Y-58.42
X181.61Y-60.96
X181.61Y-63.5
X181.61Y-66.04
X181.61Y-68.58
X181.61Y-71.12
X181.61Y-73.66
X181.61Y-76.2
X181.61Y-78.74
X181.61Y-81.28
X181.61Y-142.24
X182.88Y-101.6
X182.88Y-109.22
X182.88Y-116.84
T0
M30
