G04 #@! TF.FileFunction,Legend,Bot*
%FSLAX46Y46*%
G04 Gerber Fmt 4.6, Leading zero omitted, Abs format (unit mm)*
G04 Created by KiCad (PCBNEW 4.0.7) date 04/06/18 15:52:27*
%MOMM*%
%LPD*%
G01*
G04 APERTURE LIST*
%ADD10C,0.100000*%
%ADD11C,0.200000*%
%ADD12C,0.150000*%
%ADD13C,0.300000*%
%ADD14C,0.175000*%
%ADD15C,0.120000*%
G04 APERTURE END LIST*
D10*
D11*
X168973500Y-59690000D02*
X168973500Y-59626500D01*
X166370000Y-59690000D02*
X168973500Y-59690000D01*
X166370000Y-62293500D02*
X166370000Y-59690000D01*
X168973500Y-57086500D02*
X168973500Y-57150000D01*
X168973500Y-62293500D02*
X168973500Y-57086500D01*
X143446500Y-62293500D02*
X168973500Y-62293500D01*
X143446500Y-57086500D02*
X143446500Y-62293500D01*
X168973500Y-57086500D02*
X143446500Y-57086500D01*
D12*
X155773238Y-108672381D02*
X155773238Y-109481905D01*
X155725619Y-109577143D01*
X155678000Y-109624762D01*
X155582762Y-109672381D01*
X155392285Y-109672381D01*
X155297047Y-109624762D01*
X155249428Y-109577143D01*
X155201809Y-109481905D01*
X155201809Y-108672381D01*
X154773238Y-109386667D02*
X154297047Y-109386667D01*
X154868476Y-109672381D02*
X154535143Y-108672381D01*
X154201809Y-109672381D01*
X153297047Y-109672381D02*
X153630381Y-109196190D01*
X153868476Y-109672381D02*
X153868476Y-108672381D01*
X153487523Y-108672381D01*
X153392285Y-108720000D01*
X153344666Y-108767619D01*
X153297047Y-108862857D01*
X153297047Y-109005714D01*
X153344666Y-109100952D01*
X153392285Y-109148571D01*
X153487523Y-109196190D01*
X153868476Y-109196190D01*
X153011333Y-108672381D02*
X152439904Y-108672381D01*
X152725619Y-109672381D02*
X152725619Y-108672381D01*
X155574809Y-117292381D02*
X155574809Y-116292381D01*
X155193856Y-116292381D01*
X155098618Y-116340000D01*
X155050999Y-116387619D01*
X155003380Y-116482857D01*
X155003380Y-116625714D01*
X155050999Y-116720952D01*
X155098618Y-116768571D01*
X155193856Y-116816190D01*
X155574809Y-116816190D01*
X154574809Y-117292381D02*
X154574809Y-116292381D01*
X154098619Y-117292381D02*
X154098619Y-116292381D01*
X153527190Y-117292381D01*
X153527190Y-116292381D01*
X152527190Y-116340000D02*
X152622428Y-116292381D01*
X152765285Y-116292381D01*
X152908143Y-116340000D01*
X153003381Y-116435238D01*
X153051000Y-116530476D01*
X153098619Y-116720952D01*
X153098619Y-116863810D01*
X153051000Y-117054286D01*
X153003381Y-117149524D01*
X152908143Y-117244762D01*
X152765285Y-117292381D01*
X152670047Y-117292381D01*
X152527190Y-117244762D01*
X152479571Y-117197143D01*
X152479571Y-116863810D01*
X152670047Y-116863810D01*
X155733476Y-102131762D02*
X155590619Y-102179381D01*
X155352523Y-102179381D01*
X155257285Y-102131762D01*
X155209666Y-102084143D01*
X155162047Y-101988905D01*
X155162047Y-101893667D01*
X155209666Y-101798429D01*
X155257285Y-101750810D01*
X155352523Y-101703190D01*
X155543000Y-101655571D01*
X155638238Y-101607952D01*
X155685857Y-101560333D01*
X155733476Y-101465095D01*
X155733476Y-101369857D01*
X155685857Y-101274619D01*
X155638238Y-101227000D01*
X155543000Y-101179381D01*
X155304904Y-101179381D01*
X155162047Y-101227000D01*
X154733476Y-101655571D02*
X154400142Y-101655571D01*
X154257285Y-102179381D02*
X154733476Y-102179381D01*
X154733476Y-101179381D01*
X154257285Y-101179381D01*
X153257285Y-102179381D02*
X153590619Y-101703190D01*
X153828714Y-102179381D02*
X153828714Y-101179381D01*
X153447761Y-101179381D01*
X153352523Y-101227000D01*
X153304904Y-101274619D01*
X153257285Y-101369857D01*
X153257285Y-101512714D01*
X153304904Y-101607952D01*
X153352523Y-101655571D01*
X153447761Y-101703190D01*
X153828714Y-101703190D01*
X152971571Y-101179381D02*
X152638238Y-102179381D01*
X152304904Y-101179381D01*
X151781095Y-101179381D02*
X151590618Y-101179381D01*
X151495380Y-101227000D01*
X151400142Y-101322238D01*
X151352523Y-101512714D01*
X151352523Y-101846048D01*
X151400142Y-102036524D01*
X151495380Y-102131762D01*
X151590618Y-102179381D01*
X151781095Y-102179381D01*
X151876333Y-102131762D01*
X151971571Y-102036524D01*
X152019190Y-101846048D01*
X152019190Y-101512714D01*
X151971571Y-101322238D01*
X151876333Y-101227000D01*
X151781095Y-101179381D01*
X168354143Y-102179381D02*
X168354143Y-101179381D01*
X167973190Y-101179381D01*
X167877952Y-101227000D01*
X167830333Y-101274619D01*
X167782714Y-101369857D01*
X167782714Y-101512714D01*
X167830333Y-101607952D01*
X167877952Y-101655571D01*
X167973190Y-101703190D01*
X168354143Y-101703190D01*
X167354143Y-102179381D02*
X167354143Y-101179381D01*
X167020809Y-101893667D01*
X166687476Y-101179381D01*
X166687476Y-102179381D01*
X166020810Y-101179381D02*
X165830333Y-101179381D01*
X165735095Y-101227000D01*
X165639857Y-101322238D01*
X165592238Y-101512714D01*
X165592238Y-101846048D01*
X165639857Y-102036524D01*
X165735095Y-102131762D01*
X165830333Y-102179381D01*
X166020810Y-102179381D01*
X166116048Y-102131762D01*
X166211286Y-102036524D01*
X166258905Y-101846048D01*
X166258905Y-101512714D01*
X166211286Y-101322238D01*
X166116048Y-101227000D01*
X166020810Y-101179381D01*
X165163667Y-102179381D02*
X165163667Y-101179381D01*
X164925572Y-101179381D01*
X164782714Y-101227000D01*
X164687476Y-101322238D01*
X164639857Y-101417476D01*
X164592238Y-101607952D01*
X164592238Y-101750810D01*
X164639857Y-101941286D01*
X164687476Y-102036524D01*
X164782714Y-102131762D01*
X164925572Y-102179381D01*
X165163667Y-102179381D01*
X173315190Y-109672381D02*
X173315190Y-108672381D01*
X172886619Y-108767619D02*
X172839000Y-108720000D01*
X172743762Y-108672381D01*
X172505666Y-108672381D01*
X172410428Y-108720000D01*
X172362809Y-108767619D01*
X172315190Y-108862857D01*
X172315190Y-108958095D01*
X172362809Y-109100952D01*
X172934238Y-109672381D01*
X172315190Y-109672381D01*
X171315190Y-109577143D02*
X171362809Y-109624762D01*
X171505666Y-109672381D01*
X171600904Y-109672381D01*
X171743762Y-109624762D01*
X171839000Y-109529524D01*
X171886619Y-109434286D01*
X171934238Y-109243810D01*
X171934238Y-109100952D01*
X171886619Y-108910476D01*
X171839000Y-108815238D01*
X171743762Y-108720000D01*
X171600904Y-108672381D01*
X171505666Y-108672381D01*
X171362809Y-108720000D01*
X171315190Y-108767619D01*
X178450524Y-117292381D02*
X178450524Y-116292381D01*
X178069571Y-116292381D01*
X177974333Y-116340000D01*
X177926714Y-116387619D01*
X177879095Y-116482857D01*
X177879095Y-116625714D01*
X177926714Y-116720952D01*
X177974333Y-116768571D01*
X178069571Y-116816190D01*
X178450524Y-116816190D01*
X177450524Y-117292381D02*
X177450524Y-116292381D01*
X176974334Y-117292381D02*
X176974334Y-116292381D01*
X176402905Y-117292381D01*
X176402905Y-116292381D01*
X175402905Y-116340000D02*
X175498143Y-116292381D01*
X175641000Y-116292381D01*
X175783858Y-116340000D01*
X175879096Y-116435238D01*
X175926715Y-116530476D01*
X175974334Y-116720952D01*
X175974334Y-116863810D01*
X175926715Y-117054286D01*
X175879096Y-117149524D01*
X175783858Y-117244762D01*
X175641000Y-117292381D01*
X175545762Y-117292381D01*
X175402905Y-117244762D01*
X175355286Y-117197143D01*
X175355286Y-116863810D01*
X175545762Y-116863810D01*
X175164810Y-117387619D02*
X174402905Y-117387619D01*
X173688619Y-116292381D02*
X174164810Y-116292381D01*
X174212429Y-116768571D01*
X174164810Y-116720952D01*
X174069572Y-116673333D01*
X173831476Y-116673333D01*
X173736238Y-116720952D01*
X173688619Y-116768571D01*
X173641000Y-116863810D01*
X173641000Y-117101905D01*
X173688619Y-117197143D01*
X173736238Y-117244762D01*
X173831476Y-117292381D01*
X174069572Y-117292381D01*
X174164810Y-117244762D01*
X174212429Y-117197143D01*
X173355286Y-116292381D02*
X173021953Y-117292381D01*
X172688619Y-116292381D01*
D13*
X183808428Y-119233143D02*
X182665571Y-119233143D01*
X180808428Y-119233143D02*
X179665571Y-119233143D01*
X180237000Y-119804571D02*
X180237000Y-118661714D01*
D12*
X136492857Y-89902571D02*
X136492857Y-88402571D01*
X135921429Y-88402571D01*
X135778571Y-88474000D01*
X135707143Y-88545429D01*
X135635714Y-88688286D01*
X135635714Y-88902571D01*
X135707143Y-89045429D01*
X135778571Y-89116857D01*
X135921429Y-89188286D01*
X136492857Y-89188286D01*
X134707143Y-88402571D02*
X134421429Y-88402571D01*
X134278571Y-88474000D01*
X134135714Y-88616857D01*
X134064286Y-88902571D01*
X134064286Y-89402571D01*
X134135714Y-89688286D01*
X134278571Y-89831143D01*
X134421429Y-89902571D01*
X134707143Y-89902571D01*
X134850000Y-89831143D01*
X134992857Y-89688286D01*
X135064286Y-89402571D01*
X135064286Y-88902571D01*
X134992857Y-88616857D01*
X134850000Y-88474000D01*
X134707143Y-88402571D01*
X132564285Y-89902571D02*
X133064285Y-89188286D01*
X133421428Y-89902571D02*
X133421428Y-88402571D01*
X132850000Y-88402571D01*
X132707142Y-88474000D01*
X132635714Y-88545429D01*
X132564285Y-88688286D01*
X132564285Y-88902571D01*
X132635714Y-89045429D01*
X132707142Y-89116857D01*
X132850000Y-89188286D01*
X133421428Y-89188286D01*
X132135714Y-88402571D02*
X131278571Y-88402571D01*
X131707142Y-89902571D02*
X131707142Y-88402571D01*
X130850000Y-89474000D02*
X130135714Y-89474000D01*
X130992857Y-89902571D02*
X130492857Y-88402571D01*
X129992857Y-89902571D01*
X135350000Y-92231143D02*
X135135714Y-92302571D01*
X134778571Y-92302571D01*
X134635714Y-92231143D01*
X134564285Y-92159714D01*
X134492857Y-92016857D01*
X134492857Y-91874000D01*
X134564285Y-91731143D01*
X134635714Y-91659714D01*
X134778571Y-91588286D01*
X135064285Y-91516857D01*
X135207143Y-91445429D01*
X135278571Y-91374000D01*
X135350000Y-91231143D01*
X135350000Y-91088286D01*
X135278571Y-90945429D01*
X135207143Y-90874000D01*
X135064285Y-90802571D01*
X134707143Y-90802571D01*
X134492857Y-90874000D01*
X133992857Y-90802571D02*
X133635714Y-92302571D01*
X133350000Y-91231143D01*
X133064286Y-92302571D01*
X132707143Y-90802571D01*
X131350000Y-92302571D02*
X132207143Y-92302571D01*
X131778571Y-92302571D02*
X131778571Y-90802571D01*
X131921428Y-91016857D01*
X132064286Y-91159714D01*
X132207143Y-91231143D01*
D11*
X127508000Y-123317000D02*
X127508000Y-121920000D01*
X139700000Y-123317000D02*
X127508000Y-123317000D01*
X139700000Y-123317000D02*
X139700000Y-121920000D01*
X144272000Y-123317000D02*
X139700000Y-123317000D01*
X144272000Y-121920000D02*
X144272000Y-123317000D01*
X144272000Y-115824000D02*
X127508000Y-115824000D01*
D12*
X143700524Y-114643762D02*
X143557667Y-114691381D01*
X143319571Y-114691381D01*
X143224333Y-114643762D01*
X143176714Y-114596143D01*
X143129095Y-114500905D01*
X143129095Y-114405667D01*
X143176714Y-114310429D01*
X143224333Y-114262810D01*
X143319571Y-114215190D01*
X143510048Y-114167571D01*
X143605286Y-114119952D01*
X143652905Y-114072333D01*
X143700524Y-113977095D01*
X143700524Y-113881857D01*
X143652905Y-113786619D01*
X143605286Y-113739000D01*
X143510048Y-113691381D01*
X143271952Y-113691381D01*
X143129095Y-113739000D01*
X142795762Y-113691381D02*
X142557667Y-114691381D01*
X142367190Y-113977095D01*
X142176714Y-114691381D01*
X141938619Y-113691381D01*
X141033857Y-114691381D02*
X141605286Y-114691381D01*
X141319572Y-114691381D02*
X141319572Y-113691381D01*
X141414810Y-113834238D01*
X141510048Y-113929476D01*
X141605286Y-113977095D01*
X138129095Y-113691381D02*
X137938618Y-113691381D01*
X137843380Y-113739000D01*
X137748142Y-113834238D01*
X137700523Y-114024714D01*
X137700523Y-114358048D01*
X137748142Y-114548524D01*
X137843380Y-114643762D01*
X137938618Y-114691381D01*
X138129095Y-114691381D01*
X138224333Y-114643762D01*
X138319571Y-114548524D01*
X138367190Y-114358048D01*
X138367190Y-114024714D01*
X138319571Y-113834238D01*
X138224333Y-113739000D01*
X138129095Y-113691381D01*
X137271952Y-114691381D02*
X137271952Y-113691381D01*
X136890999Y-113691381D01*
X136795761Y-113739000D01*
X136748142Y-113786619D01*
X136700523Y-113881857D01*
X136700523Y-114024714D01*
X136748142Y-114119952D01*
X136795761Y-114167571D01*
X136890999Y-114215190D01*
X137271952Y-114215190D01*
X136414809Y-113691381D02*
X135843380Y-113691381D01*
X136129095Y-114691381D02*
X136129095Y-113691381D01*
X135510047Y-114691381D02*
X135510047Y-113691381D01*
X134843381Y-113691381D02*
X134652904Y-113691381D01*
X134557666Y-113739000D01*
X134462428Y-113834238D01*
X134414809Y-114024714D01*
X134414809Y-114358048D01*
X134462428Y-114548524D01*
X134557666Y-114643762D01*
X134652904Y-114691381D01*
X134843381Y-114691381D01*
X134938619Y-114643762D01*
X135033857Y-114548524D01*
X135081476Y-114358048D01*
X135081476Y-114024714D01*
X135033857Y-113834238D01*
X134938619Y-113739000D01*
X134843381Y-113691381D01*
X133986238Y-114691381D02*
X133986238Y-113691381D01*
X133414809Y-114691381D01*
X133414809Y-113691381D01*
X143462429Y-116991381D02*
X143367190Y-116991381D01*
X143271952Y-117039000D01*
X143224333Y-117086619D01*
X143176714Y-117181857D01*
X143129095Y-117372333D01*
X143129095Y-117610429D01*
X143176714Y-117800905D01*
X143224333Y-117896143D01*
X143271952Y-117943762D01*
X143367190Y-117991381D01*
X143462429Y-117991381D01*
X143557667Y-117943762D01*
X143605286Y-117896143D01*
X143652905Y-117800905D01*
X143700524Y-117610429D01*
X143700524Y-117372333D01*
X143652905Y-117181857D01*
X143605286Y-117086619D01*
X143557667Y-117039000D01*
X143462429Y-116991381D01*
X142510048Y-116991381D02*
X142414809Y-116991381D01*
X142319571Y-117039000D01*
X142271952Y-117086619D01*
X142224333Y-117181857D01*
X142176714Y-117372333D01*
X142176714Y-117610429D01*
X142224333Y-117800905D01*
X142271952Y-117896143D01*
X142319571Y-117943762D01*
X142414809Y-117991381D01*
X142510048Y-117991381D01*
X142605286Y-117943762D01*
X142652905Y-117896143D01*
X142700524Y-117800905D01*
X142748143Y-117610429D01*
X142748143Y-117372333D01*
X142700524Y-117181857D01*
X142652905Y-117086619D01*
X142605286Y-117039000D01*
X142510048Y-116991381D01*
X141557667Y-116991381D02*
X141462428Y-116991381D01*
X141367190Y-117039000D01*
X141319571Y-117086619D01*
X141271952Y-117181857D01*
X141224333Y-117372333D01*
X141224333Y-117610429D01*
X141271952Y-117800905D01*
X141319571Y-117896143D01*
X141367190Y-117943762D01*
X141462428Y-117991381D01*
X141557667Y-117991381D01*
X141652905Y-117943762D01*
X141700524Y-117896143D01*
X141748143Y-117800905D01*
X141795762Y-117610429D01*
X141795762Y-117372333D01*
X141748143Y-117181857D01*
X141700524Y-117086619D01*
X141652905Y-117039000D01*
X141557667Y-116991381D01*
X140891000Y-116991381D02*
X140224333Y-117991381D01*
X140224333Y-116991381D02*
X140891000Y-117991381D01*
X138319571Y-117991381D02*
X138319571Y-116991381D01*
X137938618Y-116991381D01*
X137843380Y-117039000D01*
X137795761Y-117086619D01*
X137748142Y-117181857D01*
X137748142Y-117324714D01*
X137795761Y-117419952D01*
X137843380Y-117467571D01*
X137938618Y-117515190D01*
X138319571Y-117515190D01*
X137129095Y-116991381D02*
X136938618Y-116991381D01*
X136843380Y-117039000D01*
X136748142Y-117134238D01*
X136700523Y-117324714D01*
X136700523Y-117658048D01*
X136748142Y-117848524D01*
X136843380Y-117943762D01*
X136938618Y-117991381D01*
X137129095Y-117991381D01*
X137224333Y-117943762D01*
X137319571Y-117848524D01*
X137367190Y-117658048D01*
X137367190Y-117324714D01*
X137319571Y-117134238D01*
X137224333Y-117039000D01*
X137129095Y-116991381D01*
X135700523Y-117991381D02*
X136033857Y-117515190D01*
X136271952Y-117991381D02*
X136271952Y-116991381D01*
X135890999Y-116991381D01*
X135795761Y-117039000D01*
X135748142Y-117086619D01*
X135700523Y-117181857D01*
X135700523Y-117324714D01*
X135748142Y-117419952D01*
X135795761Y-117467571D01*
X135890999Y-117515190D01*
X136271952Y-117515190D01*
X135414809Y-116991381D02*
X134843380Y-116991381D01*
X135129095Y-117991381D02*
X135129095Y-116991381D01*
X134557666Y-117705667D02*
X134081475Y-117705667D01*
X134652904Y-117991381D02*
X134319571Y-116991381D01*
X133986237Y-117991381D01*
X132700523Y-116991381D02*
X132510046Y-116991381D01*
X132414808Y-117039000D01*
X132319570Y-117134238D01*
X132271951Y-117324714D01*
X132271951Y-117658048D01*
X132319570Y-117848524D01*
X132414808Y-117943762D01*
X132510046Y-117991381D01*
X132700523Y-117991381D01*
X132795761Y-117943762D01*
X132890999Y-117848524D01*
X132938618Y-117658048D01*
X132938618Y-117324714D01*
X132890999Y-117134238D01*
X132795761Y-117039000D01*
X132700523Y-116991381D01*
X131843380Y-117991381D02*
X131843380Y-116991381D01*
X131462427Y-116991381D01*
X131367189Y-117039000D01*
X131319570Y-117086619D01*
X131271951Y-117181857D01*
X131271951Y-117324714D01*
X131319570Y-117419952D01*
X131367189Y-117467571D01*
X131462427Y-117515190D01*
X131843380Y-117515190D01*
X130843380Y-117467571D02*
X130510046Y-117467571D01*
X130367189Y-117991381D02*
X130843380Y-117991381D01*
X130843380Y-116991381D01*
X130367189Y-116991381D01*
X129938618Y-117991381D02*
X129938618Y-116991381D01*
X129367189Y-117991381D01*
X129367189Y-116991381D01*
X143129095Y-119641381D02*
X143700524Y-119641381D01*
X143414810Y-119641381D02*
X143414810Y-118641381D01*
X143510048Y-118784238D01*
X143605286Y-118879476D01*
X143700524Y-118927095D01*
X142510048Y-118641381D02*
X142414809Y-118641381D01*
X142319571Y-118689000D01*
X142271952Y-118736619D01*
X142224333Y-118831857D01*
X142176714Y-119022333D01*
X142176714Y-119260429D01*
X142224333Y-119450905D01*
X142271952Y-119546143D01*
X142319571Y-119593762D01*
X142414809Y-119641381D01*
X142510048Y-119641381D01*
X142605286Y-119593762D01*
X142652905Y-119546143D01*
X142700524Y-119450905D01*
X142748143Y-119260429D01*
X142748143Y-119022333D01*
X142700524Y-118831857D01*
X142652905Y-118736619D01*
X142605286Y-118689000D01*
X142510048Y-118641381D01*
X141557667Y-118641381D02*
X141462428Y-118641381D01*
X141367190Y-118689000D01*
X141319571Y-118736619D01*
X141271952Y-118831857D01*
X141224333Y-119022333D01*
X141224333Y-119260429D01*
X141271952Y-119450905D01*
X141319571Y-119546143D01*
X141367190Y-119593762D01*
X141462428Y-119641381D01*
X141557667Y-119641381D01*
X141652905Y-119593762D01*
X141700524Y-119546143D01*
X141748143Y-119450905D01*
X141795762Y-119260429D01*
X141795762Y-119022333D01*
X141748143Y-118831857D01*
X141700524Y-118736619D01*
X141652905Y-118689000D01*
X141557667Y-118641381D01*
X140891000Y-118641381D02*
X140224333Y-119641381D01*
X140224333Y-118641381D02*
X140891000Y-119641381D01*
X137843380Y-119641381D02*
X138319571Y-119641381D01*
X138319571Y-118641381D01*
X137510047Y-119117571D02*
X137176713Y-119117571D01*
X137033856Y-119641381D02*
X137510047Y-119641381D01*
X137510047Y-118641381D01*
X137033856Y-118641381D01*
X136605285Y-119641381D02*
X136605285Y-118641381D01*
X136367190Y-118641381D01*
X136224332Y-118689000D01*
X136129094Y-118784238D01*
X136081475Y-118879476D01*
X136033856Y-119069952D01*
X136033856Y-119212810D01*
X136081475Y-119403286D01*
X136129094Y-119498524D01*
X136224332Y-119593762D01*
X136367190Y-119641381D01*
X136605285Y-119641381D01*
X135652904Y-119593762D02*
X135510047Y-119641381D01*
X135271951Y-119641381D01*
X135176713Y-119593762D01*
X135129094Y-119546143D01*
X135081475Y-119450905D01*
X135081475Y-119355667D01*
X135129094Y-119260429D01*
X135176713Y-119212810D01*
X135271951Y-119165190D01*
X135462428Y-119117571D01*
X135557666Y-119069952D01*
X135605285Y-119022333D01*
X135652904Y-118927095D01*
X135652904Y-118831857D01*
X135605285Y-118736619D01*
X135557666Y-118689000D01*
X135462428Y-118641381D01*
X135224332Y-118641381D01*
X135081475Y-118689000D01*
X143462429Y-120291381D02*
X143367190Y-120291381D01*
X143271952Y-120339000D01*
X143224333Y-120386619D01*
X143176714Y-120481857D01*
X143129095Y-120672333D01*
X143129095Y-120910429D01*
X143176714Y-121100905D01*
X143224333Y-121196143D01*
X143271952Y-121243762D01*
X143367190Y-121291381D01*
X143462429Y-121291381D01*
X143557667Y-121243762D01*
X143605286Y-121196143D01*
X143652905Y-121100905D01*
X143700524Y-120910429D01*
X143700524Y-120672333D01*
X143652905Y-120481857D01*
X143605286Y-120386619D01*
X143557667Y-120339000D01*
X143462429Y-120291381D01*
X142176714Y-121291381D02*
X142748143Y-121291381D01*
X142462429Y-121291381D02*
X142462429Y-120291381D01*
X142557667Y-120434238D01*
X142652905Y-120529476D01*
X142748143Y-120577095D01*
X141557667Y-120291381D02*
X141462428Y-120291381D01*
X141367190Y-120339000D01*
X141319571Y-120386619D01*
X141271952Y-120481857D01*
X141224333Y-120672333D01*
X141224333Y-120910429D01*
X141271952Y-121100905D01*
X141319571Y-121196143D01*
X141367190Y-121243762D01*
X141462428Y-121291381D01*
X141557667Y-121291381D01*
X141652905Y-121243762D01*
X141700524Y-121196143D01*
X141748143Y-121100905D01*
X141795762Y-120910429D01*
X141795762Y-120672333D01*
X141748143Y-120481857D01*
X141700524Y-120386619D01*
X141652905Y-120339000D01*
X141557667Y-120291381D01*
X140891000Y-120291381D02*
X140224333Y-121291381D01*
X140224333Y-120291381D02*
X140891000Y-121291381D01*
X138414809Y-120291381D02*
X137748142Y-120291381D01*
X138176714Y-121291381D01*
X137414809Y-121243762D02*
X137271952Y-121291381D01*
X137033856Y-121291381D01*
X136938618Y-121243762D01*
X136890999Y-121196143D01*
X136843380Y-121100905D01*
X136843380Y-121005667D01*
X136890999Y-120910429D01*
X136938618Y-120862810D01*
X137033856Y-120815190D01*
X137224333Y-120767571D01*
X137319571Y-120719952D01*
X137367190Y-120672333D01*
X137414809Y-120577095D01*
X137414809Y-120481857D01*
X137367190Y-120386619D01*
X137319571Y-120339000D01*
X137224333Y-120291381D01*
X136986237Y-120291381D01*
X136843380Y-120339000D01*
X136414809Y-120767571D02*
X136081475Y-120767571D01*
X135938618Y-121291381D02*
X136414809Y-121291381D01*
X136414809Y-120291381D01*
X135938618Y-120291381D01*
X134986237Y-120339000D02*
X135081475Y-120291381D01*
X135224332Y-120291381D01*
X135367190Y-120339000D01*
X135462428Y-120434238D01*
X135510047Y-120529476D01*
X135557666Y-120719952D01*
X135557666Y-120862810D01*
X135510047Y-121053286D01*
X135462428Y-121148524D01*
X135367190Y-121243762D01*
X135224332Y-121291381D01*
X135129094Y-121291381D01*
X134986237Y-121243762D01*
X134938618Y-121196143D01*
X134938618Y-120862810D01*
X135129094Y-120862810D01*
X143462429Y-121941381D02*
X143367190Y-121941381D01*
X143271952Y-121989000D01*
X143224333Y-122036619D01*
X143176714Y-122131857D01*
X143129095Y-122322333D01*
X143129095Y-122560429D01*
X143176714Y-122750905D01*
X143224333Y-122846143D01*
X143271952Y-122893762D01*
X143367190Y-122941381D01*
X143462429Y-122941381D01*
X143557667Y-122893762D01*
X143605286Y-122846143D01*
X143652905Y-122750905D01*
X143700524Y-122560429D01*
X143700524Y-122322333D01*
X143652905Y-122131857D01*
X143605286Y-122036619D01*
X143557667Y-121989000D01*
X143462429Y-121941381D01*
X142510048Y-121941381D02*
X142414809Y-121941381D01*
X142319571Y-121989000D01*
X142271952Y-122036619D01*
X142224333Y-122131857D01*
X142176714Y-122322333D01*
X142176714Y-122560429D01*
X142224333Y-122750905D01*
X142271952Y-122846143D01*
X142319571Y-122893762D01*
X142414809Y-122941381D01*
X142510048Y-122941381D01*
X142605286Y-122893762D01*
X142652905Y-122846143D01*
X142700524Y-122750905D01*
X142748143Y-122560429D01*
X142748143Y-122322333D01*
X142700524Y-122131857D01*
X142652905Y-122036619D01*
X142605286Y-121989000D01*
X142510048Y-121941381D01*
X141224333Y-122941381D02*
X141795762Y-122941381D01*
X141510048Y-122941381D02*
X141510048Y-121941381D01*
X141605286Y-122084238D01*
X141700524Y-122179476D01*
X141795762Y-122227095D01*
X140891000Y-121941381D02*
X140224333Y-122941381D01*
X140224333Y-121941381D02*
X140891000Y-122941381D01*
X138319571Y-122941381D02*
X138319571Y-121941381D01*
X137938618Y-121941381D01*
X137843380Y-121989000D01*
X137795761Y-122036619D01*
X137748142Y-122131857D01*
X137748142Y-122274714D01*
X137795761Y-122369952D01*
X137843380Y-122417571D01*
X137938618Y-122465190D01*
X138319571Y-122465190D01*
X137367190Y-122655667D02*
X136890999Y-122655667D01*
X137462428Y-122941381D02*
X137129095Y-121941381D01*
X136795761Y-122941381D01*
X136271952Y-121941381D02*
X136176713Y-121941381D01*
X136081475Y-121989000D01*
X136033856Y-122036619D01*
X135986237Y-122131857D01*
X135938618Y-122322333D01*
X135938618Y-122560429D01*
X135986237Y-122750905D01*
X136033856Y-122846143D01*
X136081475Y-122893762D01*
X136176713Y-122941381D01*
X136271952Y-122941381D01*
X136367190Y-122893762D01*
X136414809Y-122846143D01*
X136462428Y-122750905D01*
X136510047Y-122560429D01*
X136510047Y-122322333D01*
X136462428Y-122131857D01*
X136414809Y-122036619D01*
X136367190Y-121989000D01*
X136271952Y-121941381D01*
X134748142Y-122941381D02*
X134748142Y-121941381D01*
X134367189Y-121941381D01*
X134271951Y-121989000D01*
X134224332Y-122036619D01*
X134176713Y-122131857D01*
X134176713Y-122274714D01*
X134224332Y-122369952D01*
X134271951Y-122417571D01*
X134367189Y-122465190D01*
X134748142Y-122465190D01*
X133557666Y-121941381D02*
X133367189Y-121941381D01*
X133271951Y-121989000D01*
X133176713Y-122084238D01*
X133129094Y-122274714D01*
X133129094Y-122608048D01*
X133176713Y-122798524D01*
X133271951Y-122893762D01*
X133367189Y-122941381D01*
X133557666Y-122941381D01*
X133652904Y-122893762D01*
X133748142Y-122798524D01*
X133795761Y-122608048D01*
X133795761Y-122274714D01*
X133748142Y-122084238D01*
X133652904Y-121989000D01*
X133557666Y-121941381D01*
X132843380Y-121941381D02*
X132271951Y-121941381D01*
X132557666Y-122941381D02*
X132557666Y-121941381D01*
D11*
X139700000Y-113030000D02*
X139700000Y-121920000D01*
X139573000Y-95123000D02*
X127127000Y-95123000D01*
X139573000Y-85217000D02*
X139573000Y-95123000D01*
X127127000Y-85217000D02*
X139573000Y-85217000D01*
X127127000Y-95123000D02*
X127127000Y-85217000D01*
X126873000Y-95377000D02*
X126873000Y-92837000D01*
X128143000Y-95377000D02*
X126873000Y-95377000D01*
X184150000Y-115570000D02*
X184150000Y-118110000D01*
X179070000Y-115570000D02*
X184150000Y-115570000D01*
X179070000Y-118110000D02*
X179070000Y-115570000D01*
X184150000Y-118110000D02*
X179070000Y-118110000D01*
D12*
X155995381Y-139660381D02*
X155423952Y-139660381D01*
X155709667Y-140660381D02*
X155709667Y-139660381D01*
X155090619Y-140660381D02*
X155090619Y-139660381D01*
X154614429Y-140660381D02*
X154614429Y-139660381D01*
X154233476Y-139660381D01*
X154138238Y-139708000D01*
X154090619Y-139755619D01*
X154043000Y-139850857D01*
X154043000Y-139993714D01*
X154090619Y-140088952D01*
X154138238Y-140136571D01*
X154233476Y-140184190D01*
X154614429Y-140184190D01*
X153090619Y-140660381D02*
X153662048Y-140660381D01*
X153376334Y-140660381D02*
X153376334Y-139660381D01*
X153471572Y-139803238D01*
X153566810Y-139898476D01*
X153662048Y-139946095D01*
X152138238Y-140660381D02*
X152709667Y-140660381D01*
X152423953Y-140660381D02*
X152423953Y-139660381D01*
X152519191Y-139803238D01*
X152614429Y-139898476D01*
X152709667Y-139946095D01*
X151233476Y-139660381D02*
X151709667Y-139660381D01*
X151757286Y-140136571D01*
X151709667Y-140088952D01*
X151614429Y-140041333D01*
X151376333Y-140041333D01*
X151281095Y-140088952D01*
X151233476Y-140136571D01*
X151185857Y-140231810D01*
X151185857Y-140469905D01*
X151233476Y-140565143D01*
X151281095Y-140612762D01*
X151376333Y-140660381D01*
X151614429Y-140660381D01*
X151709667Y-140612762D01*
X151757286Y-140565143D01*
X143525714Y-136945714D02*
X143525714Y-137612381D01*
X143763810Y-136564762D02*
X144001905Y-137279048D01*
X143382857Y-137279048D01*
X143001905Y-137612381D02*
X143001905Y-136612381D01*
X142430476Y-137612381D01*
X142430476Y-136612381D01*
X142001905Y-136707619D02*
X141954286Y-136660000D01*
X141859048Y-136612381D01*
X141620952Y-136612381D01*
X141525714Y-136660000D01*
X141478095Y-136707619D01*
X141430476Y-136802857D01*
X141430476Y-136898095D01*
X141478095Y-137040952D01*
X142049524Y-137612381D01*
X141430476Y-137612381D01*
X140859048Y-137040952D02*
X140954286Y-136993333D01*
X141001905Y-136945714D01*
X141049524Y-136850476D01*
X141049524Y-136802857D01*
X141001905Y-136707619D01*
X140954286Y-136660000D01*
X140859048Y-136612381D01*
X140668571Y-136612381D01*
X140573333Y-136660000D01*
X140525714Y-136707619D01*
X140478095Y-136802857D01*
X140478095Y-136850476D01*
X140525714Y-136945714D01*
X140573333Y-136993333D01*
X140668571Y-137040952D01*
X140859048Y-137040952D01*
X140954286Y-137088571D01*
X141001905Y-137136190D01*
X141049524Y-137231429D01*
X141049524Y-137421905D01*
X141001905Y-137517143D01*
X140954286Y-137564762D01*
X140859048Y-137612381D01*
X140668571Y-137612381D01*
X140573333Y-137564762D01*
X140525714Y-137517143D01*
X140478095Y-137421905D01*
X140478095Y-137231429D01*
X140525714Y-137136190D01*
X140573333Y-137088571D01*
X140668571Y-137040952D01*
D13*
X133135428Y-138029143D02*
X131992571Y-138029143D01*
X130135428Y-138029143D02*
X128992571Y-138029143D01*
X129564000Y-138600571D02*
X129564000Y-137457714D01*
D12*
X151066333Y-120229381D02*
X150733000Y-121229381D01*
X150399666Y-120229381D01*
X149494904Y-121134143D02*
X149542523Y-121181762D01*
X149685380Y-121229381D01*
X149780618Y-121229381D01*
X149923476Y-121181762D01*
X150018714Y-121086524D01*
X150066333Y-120991286D01*
X150113952Y-120800810D01*
X150113952Y-120657952D01*
X150066333Y-120467476D01*
X150018714Y-120372238D01*
X149923476Y-120277000D01*
X149780618Y-120229381D01*
X149685380Y-120229381D01*
X149542523Y-120277000D01*
X149494904Y-120324619D01*
X148494904Y-121134143D02*
X148542523Y-121181762D01*
X148685380Y-121229381D01*
X148780618Y-121229381D01*
X148923476Y-121181762D01*
X149018714Y-121086524D01*
X149066333Y-120991286D01*
X149113952Y-120800810D01*
X149113952Y-120657952D01*
X149066333Y-120467476D01*
X149018714Y-120372238D01*
X148923476Y-120277000D01*
X148780618Y-120229381D01*
X148685380Y-120229381D01*
X148542523Y-120277000D01*
X148494904Y-120324619D01*
X148232667Y-118816381D02*
X148232667Y-117816381D01*
X147851714Y-117816381D01*
X147756476Y-117864000D01*
X147708857Y-117911619D01*
X147661238Y-118006857D01*
X147661238Y-118149714D01*
X147708857Y-118244952D01*
X147756476Y-118292571D01*
X147851714Y-118340190D01*
X148232667Y-118340190D01*
X147280286Y-118530667D02*
X146804095Y-118530667D01*
X147375524Y-118816381D02*
X147042191Y-117816381D01*
X146708857Y-118816381D01*
X146185048Y-117816381D02*
X146089809Y-117816381D01*
X145994571Y-117864000D01*
X145946952Y-117911619D01*
X145899333Y-118006857D01*
X145851714Y-118197333D01*
X145851714Y-118435429D01*
X145899333Y-118625905D01*
X145946952Y-118721143D01*
X145994571Y-118768762D01*
X146089809Y-118816381D01*
X146185048Y-118816381D01*
X146280286Y-118768762D01*
X146327905Y-118721143D01*
X146375524Y-118625905D01*
X146423143Y-118435429D01*
X146423143Y-118197333D01*
X146375524Y-118006857D01*
X146327905Y-117911619D01*
X146280286Y-117864000D01*
X146185048Y-117816381D01*
X150621904Y-115070000D02*
X150717142Y-115022381D01*
X150859999Y-115022381D01*
X151002857Y-115070000D01*
X151098095Y-115165238D01*
X151145714Y-115260476D01*
X151193333Y-115450952D01*
X151193333Y-115593810D01*
X151145714Y-115784286D01*
X151098095Y-115879524D01*
X151002857Y-115974762D01*
X150859999Y-116022381D01*
X150764761Y-116022381D01*
X150621904Y-115974762D01*
X150574285Y-115927143D01*
X150574285Y-115593810D01*
X150764761Y-115593810D01*
X150145714Y-116022381D02*
X150145714Y-115022381D01*
X149574285Y-116022381D01*
X149574285Y-115022381D01*
X149098095Y-116022381D02*
X149098095Y-115022381D01*
X148860000Y-115022381D01*
X148717142Y-115070000D01*
X148621904Y-115165238D01*
X148574285Y-115260476D01*
X148526666Y-115450952D01*
X148526666Y-115593810D01*
X148574285Y-115784286D01*
X148621904Y-115879524D01*
X148717142Y-115974762D01*
X148860000Y-116022381D01*
X149098095Y-116022381D01*
X174210955Y-129437762D02*
X174068098Y-129485381D01*
X173830002Y-129485381D01*
X173734764Y-129437762D01*
X173687145Y-129390143D01*
X173639526Y-129294905D01*
X173639526Y-129199667D01*
X173687145Y-129104429D01*
X173734764Y-129056810D01*
X173830002Y-129009190D01*
X174020479Y-128961571D01*
X174115717Y-128913952D01*
X174163336Y-128866333D01*
X174210955Y-128771095D01*
X174210955Y-128675857D01*
X174163336Y-128580619D01*
X174115717Y-128533000D01*
X174020479Y-128485381D01*
X173782383Y-128485381D01*
X173639526Y-128533000D01*
X173353812Y-128818714D02*
X172972860Y-128818714D01*
X173210955Y-128485381D02*
X173210955Y-129342524D01*
X173163336Y-129437762D01*
X173068098Y-129485381D01*
X172972860Y-129485381D01*
X172258573Y-129437762D02*
X172353811Y-129485381D01*
X172544288Y-129485381D01*
X172639526Y-129437762D01*
X172687145Y-129342524D01*
X172687145Y-128961571D01*
X172639526Y-128866333D01*
X172544288Y-128818714D01*
X172353811Y-128818714D01*
X172258573Y-128866333D01*
X172210954Y-128961571D01*
X172210954Y-129056810D01*
X172687145Y-129152048D01*
X171782383Y-128818714D02*
X171782383Y-129818714D01*
X171782383Y-128866333D02*
X171687145Y-128818714D01*
X171496668Y-128818714D01*
X171401430Y-128866333D01*
X171353811Y-128913952D01*
X171306192Y-129009190D01*
X171306192Y-129294905D01*
X171353811Y-129390143D01*
X171401430Y-129437762D01*
X171496668Y-129485381D01*
X171687145Y-129485381D01*
X171782383Y-129437762D01*
X170877621Y-128818714D02*
X170877621Y-129818714D01*
X170877621Y-128866333D02*
X170782383Y-128818714D01*
X170591906Y-128818714D01*
X170496668Y-128866333D01*
X170449049Y-128913952D01*
X170401430Y-129009190D01*
X170401430Y-129294905D01*
X170449049Y-129390143D01*
X170496668Y-129437762D01*
X170591906Y-129485381D01*
X170782383Y-129485381D01*
X170877621Y-129437762D01*
X169591906Y-129437762D02*
X169687144Y-129485381D01*
X169877621Y-129485381D01*
X169972859Y-129437762D01*
X170020478Y-129342524D01*
X170020478Y-128961571D01*
X169972859Y-128866333D01*
X169877621Y-128818714D01*
X169687144Y-128818714D01*
X169591906Y-128866333D01*
X169544287Y-128961571D01*
X169544287Y-129056810D01*
X170020478Y-129152048D01*
X169115716Y-129485381D02*
X169115716Y-128818714D01*
X169115716Y-129009190D02*
X169068097Y-128913952D01*
X169020478Y-128866333D01*
X168925240Y-128818714D01*
X168830001Y-128818714D01*
X167734763Y-129485381D02*
X167734763Y-128485381D01*
X167401429Y-129199667D01*
X167068096Y-128485381D01*
X167068096Y-129485381D01*
X166449049Y-129485381D02*
X166544287Y-129437762D01*
X166591906Y-129390143D01*
X166639525Y-129294905D01*
X166639525Y-129009190D01*
X166591906Y-128913952D01*
X166544287Y-128866333D01*
X166449049Y-128818714D01*
X166306191Y-128818714D01*
X166210953Y-128866333D01*
X166163334Y-128913952D01*
X166115715Y-129009190D01*
X166115715Y-129294905D01*
X166163334Y-129390143D01*
X166210953Y-129437762D01*
X166306191Y-129485381D01*
X166449049Y-129485381D01*
X165830001Y-128818714D02*
X165449049Y-128818714D01*
X165687144Y-128485381D02*
X165687144Y-129342524D01*
X165639525Y-129437762D01*
X165544287Y-129485381D01*
X165449049Y-129485381D01*
X164972858Y-129485381D02*
X165068096Y-129437762D01*
X165115715Y-129390143D01*
X165163334Y-129294905D01*
X165163334Y-129009190D01*
X165115715Y-128913952D01*
X165068096Y-128866333D01*
X164972858Y-128818714D01*
X164830000Y-128818714D01*
X164734762Y-128866333D01*
X164687143Y-128913952D01*
X164639524Y-129009190D01*
X164639524Y-129294905D01*
X164687143Y-129390143D01*
X164734762Y-129437762D01*
X164830000Y-129485381D01*
X164972858Y-129485381D01*
X164210953Y-129485381D02*
X164210953Y-128818714D01*
X164210953Y-129009190D02*
X164163334Y-128913952D01*
X164115715Y-128866333D01*
X164020477Y-128818714D01*
X163925238Y-128818714D01*
X167925239Y-131135381D02*
X167925239Y-130135381D01*
X167687144Y-130135381D01*
X167544286Y-130183000D01*
X167449048Y-130278238D01*
X167401429Y-130373476D01*
X167353810Y-130563952D01*
X167353810Y-130706810D01*
X167401429Y-130897286D01*
X167449048Y-130992524D01*
X167544286Y-131087762D01*
X167687144Y-131135381D01*
X167925239Y-131135381D01*
X166925239Y-131135381D02*
X166925239Y-130468714D01*
X166925239Y-130659190D02*
X166877620Y-130563952D01*
X166830001Y-130516333D01*
X166734763Y-130468714D01*
X166639524Y-130468714D01*
X166306191Y-131135381D02*
X166306191Y-130468714D01*
X166306191Y-130135381D02*
X166353810Y-130183000D01*
X166306191Y-130230619D01*
X166258572Y-130183000D01*
X166306191Y-130135381D01*
X166306191Y-130230619D01*
X165925239Y-130468714D02*
X165687144Y-131135381D01*
X165449048Y-130468714D01*
X164687143Y-131087762D02*
X164782381Y-131135381D01*
X164972858Y-131135381D01*
X165068096Y-131087762D01*
X165115715Y-130992524D01*
X165115715Y-130611571D01*
X165068096Y-130516333D01*
X164972858Y-130468714D01*
X164782381Y-130468714D01*
X164687143Y-130516333D01*
X164639524Y-130611571D01*
X164639524Y-130706810D01*
X165115715Y-130802048D01*
X164210953Y-131135381D02*
X164210953Y-130468714D01*
X164210953Y-130659190D02*
X164163334Y-130563952D01*
X164115715Y-130516333D01*
X164020477Y-130468714D01*
X163925238Y-130468714D01*
X172115715Y-131785381D02*
X172115715Y-132594905D01*
X172068096Y-132690143D01*
X172020477Y-132737762D01*
X171925239Y-132785381D01*
X171734762Y-132785381D01*
X171639524Y-132737762D01*
X171591905Y-132690143D01*
X171544286Y-132594905D01*
X171544286Y-131785381D01*
X170591905Y-132785381D02*
X171068096Y-132785381D01*
X171068096Y-131785381D01*
X170258572Y-132785381D02*
X170258572Y-131785381D01*
X169687143Y-132785381D01*
X169687143Y-131785381D01*
X169258572Y-131880619D02*
X169210953Y-131833000D01*
X169115715Y-131785381D01*
X168877619Y-131785381D01*
X168782381Y-131833000D01*
X168734762Y-131880619D01*
X168687143Y-131975857D01*
X168687143Y-132071095D01*
X168734762Y-132213952D01*
X169306191Y-132785381D01*
X168687143Y-132785381D01*
X168068096Y-131785381D02*
X167972857Y-131785381D01*
X167877619Y-131833000D01*
X167830000Y-131880619D01*
X167782381Y-131975857D01*
X167734762Y-132166333D01*
X167734762Y-132404429D01*
X167782381Y-132594905D01*
X167830000Y-132690143D01*
X167877619Y-132737762D01*
X167972857Y-132785381D01*
X168068096Y-132785381D01*
X168163334Y-132737762D01*
X168210953Y-132690143D01*
X168258572Y-132594905D01*
X168306191Y-132404429D01*
X168306191Y-132166333D01*
X168258572Y-131975857D01*
X168210953Y-131880619D01*
X168163334Y-131833000D01*
X168068096Y-131785381D01*
X167115715Y-131785381D02*
X167020476Y-131785381D01*
X166925238Y-131833000D01*
X166877619Y-131880619D01*
X166830000Y-131975857D01*
X166782381Y-132166333D01*
X166782381Y-132404429D01*
X166830000Y-132594905D01*
X166877619Y-132690143D01*
X166925238Y-132737762D01*
X167020476Y-132785381D01*
X167115715Y-132785381D01*
X167210953Y-132737762D01*
X167258572Y-132690143D01*
X167306191Y-132594905D01*
X167353810Y-132404429D01*
X167353810Y-132166333D01*
X167306191Y-131975857D01*
X167258572Y-131880619D01*
X167210953Y-131833000D01*
X167115715Y-131785381D01*
X166449048Y-131785381D02*
X165830000Y-131785381D01*
X166163334Y-132166333D01*
X166020476Y-132166333D01*
X165925238Y-132213952D01*
X165877619Y-132261571D01*
X165830000Y-132356810D01*
X165830000Y-132594905D01*
X165877619Y-132690143D01*
X165925238Y-132737762D01*
X166020476Y-132785381D01*
X166306191Y-132785381D01*
X166401429Y-132737762D01*
X166449048Y-132690143D01*
X165449048Y-132499667D02*
X164972857Y-132499667D01*
X165544286Y-132785381D02*
X165210953Y-131785381D01*
X164877619Y-132785381D01*
X164020476Y-132785381D02*
X164591905Y-132785381D01*
X164306191Y-132785381D02*
X164306191Y-131785381D01*
X164401429Y-131928238D01*
X164496667Y-132023476D01*
X164591905Y-132071095D01*
X136651904Y-136660000D02*
X136747142Y-136612381D01*
X136889999Y-136612381D01*
X137032857Y-136660000D01*
X137128095Y-136755238D01*
X137175714Y-136850476D01*
X137223333Y-137040952D01*
X137223333Y-137183810D01*
X137175714Y-137374286D01*
X137128095Y-137469524D01*
X137032857Y-137564762D01*
X136889999Y-137612381D01*
X136794761Y-137612381D01*
X136651904Y-137564762D01*
X136604285Y-137517143D01*
X136604285Y-137183810D01*
X136794761Y-137183810D01*
X136175714Y-137612381D02*
X136175714Y-136612381D01*
X135604285Y-137612381D01*
X135604285Y-136612381D01*
X135128095Y-137612381D02*
X135128095Y-136612381D01*
X134890000Y-136612381D01*
X134747142Y-136660000D01*
X134651904Y-136755238D01*
X134604285Y-136850476D01*
X134556666Y-137040952D01*
X134556666Y-137183810D01*
X134604285Y-137374286D01*
X134651904Y-137469524D01*
X134747142Y-137564762D01*
X134890000Y-137612381D01*
X135128095Y-137612381D01*
X137080476Y-135072381D02*
X137080476Y-134072381D01*
X136699523Y-134072381D01*
X136604285Y-134120000D01*
X136556666Y-134167619D01*
X136509047Y-134262857D01*
X136509047Y-134405714D01*
X136556666Y-134500952D01*
X136604285Y-134548571D01*
X136699523Y-134596190D01*
X137080476Y-134596190D01*
X136080476Y-134548571D02*
X135747142Y-134548571D01*
X135604285Y-135072381D02*
X136080476Y-135072381D01*
X136080476Y-134072381D01*
X135604285Y-134072381D01*
X135223333Y-134167619D02*
X135175714Y-134120000D01*
X135080476Y-134072381D01*
X134842380Y-134072381D01*
X134747142Y-134120000D01*
X134699523Y-134167619D01*
X134651904Y-134262857D01*
X134651904Y-134358095D01*
X134699523Y-134500952D01*
X135270952Y-135072381D01*
X134651904Y-135072381D01*
D11*
X127508000Y-113030000D02*
X127508000Y-121920000D01*
X144272000Y-113030000D02*
X127508000Y-113030000D01*
X144272000Y-121920000D02*
X144272000Y-113030000D01*
D12*
X175271142Y-92372571D02*
X175271142Y-90872571D01*
X174699714Y-90872571D01*
X174556856Y-90944000D01*
X174485428Y-91015429D01*
X174413999Y-91158286D01*
X174413999Y-91372571D01*
X174485428Y-91515429D01*
X174556856Y-91586857D01*
X174699714Y-91658286D01*
X175271142Y-91658286D01*
X173485428Y-90872571D02*
X173199714Y-90872571D01*
X173056856Y-90944000D01*
X172913999Y-91086857D01*
X172842571Y-91372571D01*
X172842571Y-91872571D01*
X172913999Y-92158286D01*
X173056856Y-92301143D01*
X173199714Y-92372571D01*
X173485428Y-92372571D01*
X173628285Y-92301143D01*
X173771142Y-92158286D01*
X173842571Y-91872571D01*
X173842571Y-91372571D01*
X173771142Y-91086857D01*
X173628285Y-90944000D01*
X173485428Y-90872571D01*
X171342570Y-92372571D02*
X171842570Y-91658286D01*
X172199713Y-92372571D02*
X172199713Y-90872571D01*
X171628285Y-90872571D01*
X171485427Y-90944000D01*
X171413999Y-91015429D01*
X171342570Y-91158286D01*
X171342570Y-91372571D01*
X171413999Y-91515429D01*
X171485427Y-91586857D01*
X171628285Y-91658286D01*
X172199713Y-91658286D01*
X170913999Y-90872571D02*
X170056856Y-90872571D01*
X170485427Y-92372571D02*
X170485427Y-90872571D01*
X169056856Y-91586857D02*
X168842570Y-91658286D01*
X168771142Y-91729714D01*
X168699713Y-91872571D01*
X168699713Y-92086857D01*
X168771142Y-92229714D01*
X168842570Y-92301143D01*
X168985428Y-92372571D01*
X169556856Y-92372571D01*
X169556856Y-90872571D01*
X169056856Y-90872571D01*
X168913999Y-90944000D01*
X168842570Y-91015429D01*
X168771142Y-91158286D01*
X168771142Y-91301143D01*
X168842570Y-91444000D01*
X168913999Y-91515429D01*
X169056856Y-91586857D01*
X169556856Y-91586857D01*
X168413999Y-92515429D02*
X167271142Y-92515429D01*
X166985428Y-92301143D02*
X166771142Y-92372571D01*
X166413999Y-92372571D01*
X166271142Y-92301143D01*
X166199713Y-92229714D01*
X166128285Y-92086857D01*
X166128285Y-91944000D01*
X166199713Y-91801143D01*
X166271142Y-91729714D01*
X166413999Y-91658286D01*
X166699713Y-91586857D01*
X166842571Y-91515429D01*
X166913999Y-91444000D01*
X166985428Y-91301143D01*
X166985428Y-91158286D01*
X166913999Y-91015429D01*
X166842571Y-90944000D01*
X166699713Y-90872571D01*
X166342571Y-90872571D01*
X166128285Y-90944000D01*
X165628285Y-90872571D02*
X165271142Y-92372571D01*
X164985428Y-91301143D01*
X164699714Y-92372571D01*
X164342571Y-90872571D01*
X163485428Y-90872571D02*
X163342571Y-90872571D01*
X163199714Y-90944000D01*
X163128285Y-91015429D01*
X163056856Y-91158286D01*
X162985428Y-91444000D01*
X162985428Y-91801143D01*
X163056856Y-92086857D01*
X163128285Y-92229714D01*
X163199714Y-92301143D01*
X163342571Y-92372571D01*
X163485428Y-92372571D01*
X163628285Y-92301143D01*
X163699714Y-92229714D01*
X163771142Y-92086857D01*
X163842571Y-91801143D01*
X163842571Y-91444000D01*
X163771142Y-91158286D01*
X163699714Y-91015429D01*
X163628285Y-90944000D01*
X163485428Y-90872571D01*
D14*
X170816310Y-103711714D02*
X169216310Y-103711714D01*
X169216310Y-104092667D01*
X169292500Y-104187905D01*
X169368690Y-104235524D01*
X169521071Y-104283143D01*
X169749643Y-104283143D01*
X169902024Y-104235524D01*
X169978214Y-104187905D01*
X170054405Y-104092667D01*
X170054405Y-103711714D01*
X170816310Y-104711714D02*
X169216310Y-104711714D01*
X169216310Y-104949809D01*
X169292500Y-105092667D01*
X169444881Y-105187905D01*
X169597262Y-105235524D01*
X169902024Y-105283143D01*
X170130595Y-105283143D01*
X170435357Y-105235524D01*
X170587738Y-105187905D01*
X170740119Y-105092667D01*
X170816310Y-104949809D01*
X170816310Y-104711714D01*
X169216310Y-106140286D02*
X169216310Y-105949809D01*
X169292500Y-105854571D01*
X169368690Y-105806952D01*
X169597262Y-105711714D01*
X169902024Y-105664095D01*
X170511548Y-105664095D01*
X170663929Y-105711714D01*
X170740119Y-105759333D01*
X170816310Y-105854571D01*
X170816310Y-106045048D01*
X170740119Y-106140286D01*
X170663929Y-106187905D01*
X170511548Y-106235524D01*
X170130595Y-106235524D01*
X169978214Y-106187905D01*
X169902024Y-106140286D01*
X169825833Y-106045048D01*
X169825833Y-105854571D01*
X169902024Y-105759333D01*
X169978214Y-105711714D01*
X170130595Y-105664095D01*
X173391310Y-103711714D02*
X171791310Y-103711714D01*
X171791310Y-104092667D01*
X171867500Y-104187905D01*
X171943690Y-104235524D01*
X172096071Y-104283143D01*
X172324643Y-104283143D01*
X172477024Y-104235524D01*
X172553214Y-104187905D01*
X172629405Y-104092667D01*
X172629405Y-103711714D01*
X172553214Y-105045048D02*
X172629405Y-105187905D01*
X172705595Y-105235524D01*
X172857976Y-105283143D01*
X173086548Y-105283143D01*
X173238929Y-105235524D01*
X173315119Y-105187905D01*
X173391310Y-105092667D01*
X173391310Y-104711714D01*
X171791310Y-104711714D01*
X171791310Y-105045048D01*
X171867500Y-105140286D01*
X171943690Y-105187905D01*
X172096071Y-105235524D01*
X172248452Y-105235524D01*
X172400833Y-105187905D01*
X172477024Y-105140286D01*
X172553214Y-105045048D01*
X172553214Y-104711714D01*
X171791310Y-106187905D02*
X171791310Y-105711714D01*
X172553214Y-105664095D01*
X172477024Y-105711714D01*
X172400833Y-105806952D01*
X172400833Y-106045048D01*
X172477024Y-106140286D01*
X172553214Y-106187905D01*
X172705595Y-106235524D01*
X173086548Y-106235524D01*
X173238929Y-106187905D01*
X173315119Y-106140286D01*
X173391310Y-106045048D01*
X173391310Y-105806952D01*
X173315119Y-105711714D01*
X173238929Y-105664095D01*
X175966310Y-103711714D02*
X174366310Y-103711714D01*
X174366310Y-104092667D01*
X174442500Y-104187905D01*
X174518690Y-104235524D01*
X174671071Y-104283143D01*
X174899643Y-104283143D01*
X175052024Y-104235524D01*
X175128214Y-104187905D01*
X175204405Y-104092667D01*
X175204405Y-103711714D01*
X175128214Y-105045048D02*
X175204405Y-105187905D01*
X175280595Y-105235524D01*
X175432976Y-105283143D01*
X175661548Y-105283143D01*
X175813929Y-105235524D01*
X175890119Y-105187905D01*
X175966310Y-105092667D01*
X175966310Y-104711714D01*
X174366310Y-104711714D01*
X174366310Y-105045048D01*
X174442500Y-105140286D01*
X174518690Y-105187905D01*
X174671071Y-105235524D01*
X174823452Y-105235524D01*
X174975833Y-105187905D01*
X175052024Y-105140286D01*
X175128214Y-105045048D01*
X175128214Y-104711714D01*
X174366310Y-106140286D02*
X174366310Y-105949809D01*
X174442500Y-105854571D01*
X174518690Y-105806952D01*
X174747262Y-105711714D01*
X175052024Y-105664095D01*
X175661548Y-105664095D01*
X175813929Y-105711714D01*
X175890119Y-105759333D01*
X175966310Y-105854571D01*
X175966310Y-106045048D01*
X175890119Y-106140286D01*
X175813929Y-106187905D01*
X175661548Y-106235524D01*
X175280595Y-106235524D01*
X175128214Y-106187905D01*
X175052024Y-106140286D01*
X174975833Y-106045048D01*
X174975833Y-105854571D01*
X175052024Y-105759333D01*
X175128214Y-105711714D01*
X175280595Y-105664095D01*
X178541310Y-103711714D02*
X176941310Y-103711714D01*
X176941310Y-104092667D01*
X177017500Y-104187905D01*
X177093690Y-104235524D01*
X177246071Y-104283143D01*
X177474643Y-104283143D01*
X177627024Y-104235524D01*
X177703214Y-104187905D01*
X177779405Y-104092667D01*
X177779405Y-103711714D01*
X177703214Y-105045048D02*
X177779405Y-105187905D01*
X177855595Y-105235524D01*
X178007976Y-105283143D01*
X178236548Y-105283143D01*
X178388929Y-105235524D01*
X178465119Y-105187905D01*
X178541310Y-105092667D01*
X178541310Y-104711714D01*
X176941310Y-104711714D01*
X176941310Y-105045048D01*
X177017500Y-105140286D01*
X177093690Y-105187905D01*
X177246071Y-105235524D01*
X177398452Y-105235524D01*
X177550833Y-105187905D01*
X177627024Y-105140286D01*
X177703214Y-105045048D01*
X177703214Y-104711714D01*
X176941310Y-105616476D02*
X176941310Y-106283143D01*
X178541310Y-105854571D01*
X179592500Y-104140286D02*
X179516310Y-104045048D01*
X179516310Y-103902191D01*
X179592500Y-103759333D01*
X179744881Y-103664095D01*
X179897262Y-103616476D01*
X180202024Y-103568857D01*
X180430595Y-103568857D01*
X180735357Y-103616476D01*
X180887738Y-103664095D01*
X181040119Y-103759333D01*
X181116310Y-103902191D01*
X181116310Y-103997429D01*
X181040119Y-104140286D01*
X180963929Y-104187905D01*
X180430595Y-104187905D01*
X180430595Y-103997429D01*
X181116310Y-104616476D02*
X179516310Y-104616476D01*
X181116310Y-105187905D01*
X179516310Y-105187905D01*
X181116310Y-105664095D02*
X179516310Y-105664095D01*
X179516310Y-105902190D01*
X179592500Y-106045048D01*
X179744881Y-106140286D01*
X179897262Y-106187905D01*
X180202024Y-106235524D01*
X180430595Y-106235524D01*
X180735357Y-106187905D01*
X180887738Y-106140286D01*
X181040119Y-106045048D01*
X181116310Y-105902190D01*
X181116310Y-105664095D01*
X182091310Y-103664095D02*
X183691310Y-103997428D01*
X182091310Y-104330762D01*
X183538929Y-105235524D02*
X183615119Y-105187905D01*
X183691310Y-105045048D01*
X183691310Y-104949810D01*
X183615119Y-104806952D01*
X183462738Y-104711714D01*
X183310357Y-104664095D01*
X183005595Y-104616476D01*
X182777024Y-104616476D01*
X182472262Y-104664095D01*
X182319881Y-104711714D01*
X182167500Y-104806952D01*
X182091310Y-104949810D01*
X182091310Y-105045048D01*
X182167500Y-105187905D01*
X182243690Y-105235524D01*
X183538929Y-106235524D02*
X183615119Y-106187905D01*
X183691310Y-106045048D01*
X183691310Y-105949810D01*
X183615119Y-105806952D01*
X183462738Y-105711714D01*
X183310357Y-105664095D01*
X183005595Y-105616476D01*
X182777024Y-105616476D01*
X182472262Y-105664095D01*
X182319881Y-105711714D01*
X182167500Y-105806952D01*
X182091310Y-105949810D01*
X182091310Y-106045048D01*
X182167500Y-106187905D01*
X182243690Y-106235524D01*
X174407500Y-111760286D02*
X174331310Y-111665048D01*
X174331310Y-111522191D01*
X174407500Y-111379333D01*
X174559881Y-111284095D01*
X174712262Y-111236476D01*
X175017024Y-111188857D01*
X175245595Y-111188857D01*
X175550357Y-111236476D01*
X175702738Y-111284095D01*
X175855119Y-111379333D01*
X175931310Y-111522191D01*
X175931310Y-111617429D01*
X175855119Y-111760286D01*
X175778929Y-111807905D01*
X175245595Y-111807905D01*
X175245595Y-111617429D01*
X175931310Y-112236476D02*
X174331310Y-112236476D01*
X175931310Y-112807905D01*
X174331310Y-112807905D01*
X175931310Y-113284095D02*
X174331310Y-113284095D01*
X174331310Y-113522190D01*
X174407500Y-113665048D01*
X174559881Y-113760286D01*
X174712262Y-113807905D01*
X175017024Y-113855524D01*
X175245595Y-113855524D01*
X175550357Y-113807905D01*
X175702738Y-113760286D01*
X175855119Y-113665048D01*
X175931310Y-113522190D01*
X175931310Y-113284095D01*
X176906310Y-111284095D02*
X178506310Y-111617428D01*
X176906310Y-111950762D01*
X178353929Y-112855524D02*
X178430119Y-112807905D01*
X178506310Y-112665048D01*
X178506310Y-112569810D01*
X178430119Y-112426952D01*
X178277738Y-112331714D01*
X178125357Y-112284095D01*
X177820595Y-112236476D01*
X177592024Y-112236476D01*
X177287262Y-112284095D01*
X177134881Y-112331714D01*
X176982500Y-112426952D01*
X176906310Y-112569810D01*
X176906310Y-112665048D01*
X176982500Y-112807905D01*
X177058690Y-112855524D01*
X178353929Y-113855524D02*
X178430119Y-113807905D01*
X178506310Y-113665048D01*
X178506310Y-113569810D01*
X178430119Y-113426952D01*
X178277738Y-113331714D01*
X178125357Y-113284095D01*
X177820595Y-113236476D01*
X177592024Y-113236476D01*
X177287262Y-113284095D01*
X177134881Y-113331714D01*
X176982500Y-113426952D01*
X176906310Y-113569810D01*
X176906310Y-113665048D01*
X176982500Y-113807905D01*
X177058690Y-113855524D01*
X181081310Y-111331714D02*
X179481310Y-111331714D01*
X179481310Y-111712667D01*
X179557500Y-111807905D01*
X179633690Y-111855524D01*
X179786071Y-111903143D01*
X180014643Y-111903143D01*
X180167024Y-111855524D01*
X180243214Y-111807905D01*
X180319405Y-111712667D01*
X180319405Y-111331714D01*
X180928929Y-112903143D02*
X181005119Y-112855524D01*
X181081310Y-112712667D01*
X181081310Y-112617429D01*
X181005119Y-112474571D01*
X180852738Y-112379333D01*
X180700357Y-112331714D01*
X180395595Y-112284095D01*
X180167024Y-112284095D01*
X179862262Y-112331714D01*
X179709881Y-112379333D01*
X179557500Y-112474571D01*
X179481310Y-112617429D01*
X179481310Y-112712667D01*
X179557500Y-112855524D01*
X179633690Y-112903143D01*
X179481310Y-113522190D02*
X179481310Y-113617429D01*
X179557500Y-113712667D01*
X179633690Y-113760286D01*
X179786071Y-113807905D01*
X180090833Y-113855524D01*
X180471786Y-113855524D01*
X180776548Y-113807905D01*
X180928929Y-113760286D01*
X181005119Y-113712667D01*
X181081310Y-113617429D01*
X181081310Y-113522190D01*
X181005119Y-113426952D01*
X180928929Y-113379333D01*
X180776548Y-113331714D01*
X180471786Y-113284095D01*
X180090833Y-113284095D01*
X179786071Y-113331714D01*
X179633690Y-113379333D01*
X179557500Y-113426952D01*
X179481310Y-113522190D01*
X183656310Y-111331714D02*
X182056310Y-111331714D01*
X182056310Y-111712667D01*
X182132500Y-111807905D01*
X182208690Y-111855524D01*
X182361071Y-111903143D01*
X182589643Y-111903143D01*
X182742024Y-111855524D01*
X182818214Y-111807905D01*
X182894405Y-111712667D01*
X182894405Y-111331714D01*
X183503929Y-112903143D02*
X183580119Y-112855524D01*
X183656310Y-112712667D01*
X183656310Y-112617429D01*
X183580119Y-112474571D01*
X183427738Y-112379333D01*
X183275357Y-112331714D01*
X182970595Y-112284095D01*
X182742024Y-112284095D01*
X182437262Y-112331714D01*
X182284881Y-112379333D01*
X182132500Y-112474571D01*
X182056310Y-112617429D01*
X182056310Y-112712667D01*
X182132500Y-112855524D01*
X182208690Y-112903143D01*
X183656310Y-113855524D02*
X183656310Y-113284095D01*
X183656310Y-113569809D02*
X182056310Y-113569809D01*
X182284881Y-113474571D01*
X182437262Y-113379333D01*
X182513452Y-113284095D01*
X156551310Y-118904095D02*
X158151310Y-119237428D01*
X156551310Y-119570762D01*
X157998929Y-120475524D02*
X158075119Y-120427905D01*
X158151310Y-120285048D01*
X158151310Y-120189810D01*
X158075119Y-120046952D01*
X157922738Y-119951714D01*
X157770357Y-119904095D01*
X157465595Y-119856476D01*
X157237024Y-119856476D01*
X156932262Y-119904095D01*
X156779881Y-119951714D01*
X156627500Y-120046952D01*
X156551310Y-120189810D01*
X156551310Y-120285048D01*
X156627500Y-120427905D01*
X156703690Y-120475524D01*
X157998929Y-121475524D02*
X158075119Y-121427905D01*
X158151310Y-121285048D01*
X158151310Y-121189810D01*
X158075119Y-121046952D01*
X157922738Y-120951714D01*
X157770357Y-120904095D01*
X157465595Y-120856476D01*
X157237024Y-120856476D01*
X156932262Y-120904095D01*
X156779881Y-120951714D01*
X156627500Y-121046952D01*
X156551310Y-121189810D01*
X156551310Y-121285048D01*
X156627500Y-121427905D01*
X156703690Y-121475524D01*
X160726310Y-118951714D02*
X159126310Y-118951714D01*
X159126310Y-119332667D01*
X159202500Y-119427905D01*
X159278690Y-119475524D01*
X159431071Y-119523143D01*
X159659643Y-119523143D01*
X159812024Y-119475524D01*
X159888214Y-119427905D01*
X159964405Y-119332667D01*
X159964405Y-118951714D01*
X160726310Y-119951714D02*
X159126310Y-119951714D01*
X159126310Y-120189809D01*
X159202500Y-120332667D01*
X159354881Y-120427905D01*
X159507262Y-120475524D01*
X159812024Y-120523143D01*
X160040595Y-120523143D01*
X160345357Y-120475524D01*
X160497738Y-120427905D01*
X160650119Y-120332667D01*
X160726310Y-120189809D01*
X160726310Y-119951714D01*
X159126310Y-121142190D02*
X159126310Y-121237429D01*
X159202500Y-121332667D01*
X159278690Y-121380286D01*
X159431071Y-121427905D01*
X159735833Y-121475524D01*
X160116786Y-121475524D01*
X160421548Y-121427905D01*
X160573929Y-121380286D01*
X160650119Y-121332667D01*
X160726310Y-121237429D01*
X160726310Y-121142190D01*
X160650119Y-121046952D01*
X160573929Y-120999333D01*
X160421548Y-120951714D01*
X160116786Y-120904095D01*
X159735833Y-120904095D01*
X159431071Y-120951714D01*
X159278690Y-120999333D01*
X159202500Y-121046952D01*
X159126310Y-121142190D01*
X163301310Y-118951714D02*
X161701310Y-118951714D01*
X161701310Y-119332667D01*
X161777500Y-119427905D01*
X161853690Y-119475524D01*
X162006071Y-119523143D01*
X162234643Y-119523143D01*
X162387024Y-119475524D01*
X162463214Y-119427905D01*
X162539405Y-119332667D01*
X162539405Y-118951714D01*
X163301310Y-119951714D02*
X161701310Y-119951714D01*
X161701310Y-120189809D01*
X161777500Y-120332667D01*
X161929881Y-120427905D01*
X162082262Y-120475524D01*
X162387024Y-120523143D01*
X162615595Y-120523143D01*
X162920357Y-120475524D01*
X163072738Y-120427905D01*
X163225119Y-120332667D01*
X163301310Y-120189809D01*
X163301310Y-119951714D01*
X163301310Y-121475524D02*
X163301310Y-120904095D01*
X163301310Y-121189809D02*
X161701310Y-121189809D01*
X161929881Y-121094571D01*
X162082262Y-120999333D01*
X162158452Y-120904095D01*
X164352500Y-119380286D02*
X164276310Y-119285048D01*
X164276310Y-119142191D01*
X164352500Y-118999333D01*
X164504881Y-118904095D01*
X164657262Y-118856476D01*
X164962024Y-118808857D01*
X165190595Y-118808857D01*
X165495357Y-118856476D01*
X165647738Y-118904095D01*
X165800119Y-118999333D01*
X165876310Y-119142191D01*
X165876310Y-119237429D01*
X165800119Y-119380286D01*
X165723929Y-119427905D01*
X165190595Y-119427905D01*
X165190595Y-119237429D01*
X165876310Y-119856476D02*
X164276310Y-119856476D01*
X165876310Y-120427905D01*
X164276310Y-120427905D01*
X165876310Y-120904095D02*
X164276310Y-120904095D01*
X164276310Y-121142190D01*
X164352500Y-121285048D01*
X164504881Y-121380286D01*
X164657262Y-121427905D01*
X164962024Y-121475524D01*
X165190595Y-121475524D01*
X165495357Y-121427905D01*
X165647738Y-121380286D01*
X165800119Y-121285048D01*
X165876310Y-121142190D01*
X165876310Y-120904095D01*
X158151310Y-111331714D02*
X156551310Y-111331714D01*
X156551310Y-111712667D01*
X156627500Y-111807905D01*
X156703690Y-111855524D01*
X156856071Y-111903143D01*
X157084643Y-111903143D01*
X157237024Y-111855524D01*
X157313214Y-111807905D01*
X157389405Y-111712667D01*
X157389405Y-111331714D01*
X158151310Y-112331714D02*
X156551310Y-112331714D01*
X156551310Y-112569809D01*
X156627500Y-112712667D01*
X156779881Y-112807905D01*
X156932262Y-112855524D01*
X157237024Y-112903143D01*
X157465595Y-112903143D01*
X157770357Y-112855524D01*
X157922738Y-112807905D01*
X158075119Y-112712667D01*
X158151310Y-112569809D01*
X158151310Y-112331714D01*
X156551310Y-113522190D02*
X156551310Y-113617429D01*
X156627500Y-113712667D01*
X156703690Y-113760286D01*
X156856071Y-113807905D01*
X157160833Y-113855524D01*
X157541786Y-113855524D01*
X157846548Y-113807905D01*
X157998929Y-113760286D01*
X158075119Y-113712667D01*
X158151310Y-113617429D01*
X158151310Y-113522190D01*
X158075119Y-113426952D01*
X157998929Y-113379333D01*
X157846548Y-113331714D01*
X157541786Y-113284095D01*
X157160833Y-113284095D01*
X156856071Y-113331714D01*
X156703690Y-113379333D01*
X156627500Y-113426952D01*
X156551310Y-113522190D01*
X160726310Y-111331714D02*
X159126310Y-111331714D01*
X159126310Y-111712667D01*
X159202500Y-111807905D01*
X159278690Y-111855524D01*
X159431071Y-111903143D01*
X159659643Y-111903143D01*
X159812024Y-111855524D01*
X159888214Y-111807905D01*
X159964405Y-111712667D01*
X159964405Y-111331714D01*
X160726310Y-112331714D02*
X159126310Y-112331714D01*
X159126310Y-112569809D01*
X159202500Y-112712667D01*
X159354881Y-112807905D01*
X159507262Y-112855524D01*
X159812024Y-112903143D01*
X160040595Y-112903143D01*
X160345357Y-112855524D01*
X160497738Y-112807905D01*
X160650119Y-112712667D01*
X160726310Y-112569809D01*
X160726310Y-112331714D01*
X160726310Y-113855524D02*
X160726310Y-113284095D01*
X160726310Y-113569809D02*
X159126310Y-113569809D01*
X159354881Y-113474571D01*
X159507262Y-113379333D01*
X159583452Y-113284095D01*
X161777500Y-111760286D02*
X161701310Y-111665048D01*
X161701310Y-111522191D01*
X161777500Y-111379333D01*
X161929881Y-111284095D01*
X162082262Y-111236476D01*
X162387024Y-111188857D01*
X162615595Y-111188857D01*
X162920357Y-111236476D01*
X163072738Y-111284095D01*
X163225119Y-111379333D01*
X163301310Y-111522191D01*
X163301310Y-111617429D01*
X163225119Y-111760286D01*
X163148929Y-111807905D01*
X162615595Y-111807905D01*
X162615595Y-111617429D01*
X163301310Y-112236476D02*
X161701310Y-112236476D01*
X163301310Y-112807905D01*
X161701310Y-112807905D01*
X163301310Y-113284095D02*
X161701310Y-113284095D01*
X161701310Y-113522190D01*
X161777500Y-113665048D01*
X161929881Y-113760286D01*
X162082262Y-113807905D01*
X162387024Y-113855524D01*
X162615595Y-113855524D01*
X162920357Y-113807905D01*
X163072738Y-113760286D01*
X163225119Y-113665048D01*
X163301310Y-113522190D01*
X163301310Y-113284095D01*
X164276310Y-111284095D02*
X165876310Y-111617428D01*
X164276310Y-111950762D01*
X165723929Y-112855524D02*
X165800119Y-112807905D01*
X165876310Y-112665048D01*
X165876310Y-112569810D01*
X165800119Y-112426952D01*
X165647738Y-112331714D01*
X165495357Y-112284095D01*
X165190595Y-112236476D01*
X164962024Y-112236476D01*
X164657262Y-112284095D01*
X164504881Y-112331714D01*
X164352500Y-112426952D01*
X164276310Y-112569810D01*
X164276310Y-112665048D01*
X164352500Y-112807905D01*
X164428690Y-112855524D01*
X165723929Y-113855524D02*
X165800119Y-113807905D01*
X165876310Y-113665048D01*
X165876310Y-113569810D01*
X165800119Y-113426952D01*
X165647738Y-113331714D01*
X165495357Y-113284095D01*
X165190595Y-113236476D01*
X164962024Y-113236476D01*
X164657262Y-113284095D01*
X164504881Y-113331714D01*
X164352500Y-113426952D01*
X164276310Y-113569810D01*
X164276310Y-113665048D01*
X164352500Y-113807905D01*
X164428690Y-113855524D01*
X158168810Y-103457714D02*
X156568810Y-103457714D01*
X156568810Y-103838667D01*
X156645000Y-103933905D01*
X156721190Y-103981524D01*
X156873571Y-104029143D01*
X157102143Y-104029143D01*
X157254524Y-103981524D01*
X157330714Y-103933905D01*
X157406905Y-103838667D01*
X157406905Y-103457714D01*
X158168810Y-104457714D02*
X156568810Y-104457714D01*
X156568810Y-104695809D01*
X156645000Y-104838667D01*
X156797381Y-104933905D01*
X156949762Y-104981524D01*
X157254524Y-105029143D01*
X157483095Y-105029143D01*
X157787857Y-104981524D01*
X157940238Y-104933905D01*
X158092619Y-104838667D01*
X158168810Y-104695809D01*
X158168810Y-104457714D01*
X156721190Y-105410095D02*
X156645000Y-105457714D01*
X156568810Y-105552952D01*
X156568810Y-105791048D01*
X156645000Y-105886286D01*
X156721190Y-105933905D01*
X156873571Y-105981524D01*
X157025952Y-105981524D01*
X157254524Y-105933905D01*
X158168810Y-105362476D01*
X158168810Y-105981524D01*
X159143810Y-103410095D02*
X160743810Y-103743428D01*
X159143810Y-104076762D01*
X160591429Y-104981524D02*
X160667619Y-104933905D01*
X160743810Y-104791048D01*
X160743810Y-104695810D01*
X160667619Y-104552952D01*
X160515238Y-104457714D01*
X160362857Y-104410095D01*
X160058095Y-104362476D01*
X159829524Y-104362476D01*
X159524762Y-104410095D01*
X159372381Y-104457714D01*
X159220000Y-104552952D01*
X159143810Y-104695810D01*
X159143810Y-104791048D01*
X159220000Y-104933905D01*
X159296190Y-104981524D01*
X160591429Y-105981524D02*
X160667619Y-105933905D01*
X160743810Y-105791048D01*
X160743810Y-105695810D01*
X160667619Y-105552952D01*
X160515238Y-105457714D01*
X160362857Y-105410095D01*
X160058095Y-105362476D01*
X159829524Y-105362476D01*
X159524762Y-105410095D01*
X159372381Y-105457714D01*
X159220000Y-105552952D01*
X159143810Y-105695810D01*
X159143810Y-105791048D01*
X159220000Y-105933905D01*
X159296190Y-105981524D01*
X161795000Y-103886286D02*
X161718810Y-103791048D01*
X161718810Y-103648191D01*
X161795000Y-103505333D01*
X161947381Y-103410095D01*
X162099762Y-103362476D01*
X162404524Y-103314857D01*
X162633095Y-103314857D01*
X162937857Y-103362476D01*
X163090238Y-103410095D01*
X163242619Y-103505333D01*
X163318810Y-103648191D01*
X163318810Y-103743429D01*
X163242619Y-103886286D01*
X163166429Y-103933905D01*
X162633095Y-103933905D01*
X162633095Y-103743429D01*
X163318810Y-104362476D02*
X161718810Y-104362476D01*
X163318810Y-104933905D01*
X161718810Y-104933905D01*
X163318810Y-105410095D02*
X161718810Y-105410095D01*
X161718810Y-105648190D01*
X161795000Y-105791048D01*
X161947381Y-105886286D01*
X162099762Y-105933905D01*
X162404524Y-105981524D01*
X162633095Y-105981524D01*
X162937857Y-105933905D01*
X163090238Y-105886286D01*
X163242619Y-105791048D01*
X163318810Y-105648190D01*
X163318810Y-105410095D01*
D13*
X166917428Y-144887143D02*
X165774571Y-144887143D01*
X163917428Y-144887143D02*
X162774571Y-144887143D01*
X163346000Y-145458571D02*
X163346000Y-144315714D01*
D11*
X176517300Y-110515400D02*
X176517300Y-107975400D01*
X158750000Y-110528100D02*
X158750000Y-107950000D01*
X158750000Y-118148100D02*
X158750000Y-115595400D01*
X171450000Y-102895400D02*
X171450000Y-100368100D01*
X158750000Y-100317300D02*
X158762700Y-100317300D01*
X158750000Y-102895400D02*
X158750000Y-100317300D01*
X180314600Y-143560800D02*
X180403500Y-143560800D01*
X180314600Y-140919200D02*
X180314600Y-143560800D01*
X183896000Y-125679200D02*
X163322000Y-125679200D01*
X183896000Y-135940800D02*
X183896000Y-125679200D01*
X163322000Y-135940800D02*
X183896000Y-135940800D01*
X163322000Y-125679200D02*
X163322000Y-135940800D01*
X177761900Y-57086500D02*
X177761900Y-82562700D01*
X177761900Y-82562700D02*
X182943500Y-82562700D01*
X182943500Y-82562700D02*
X182943500Y-57086500D01*
X182943500Y-57086500D02*
X177761900Y-57086500D01*
X180352700Y-57111900D02*
X180352700Y-59677300D01*
X180352700Y-59677300D02*
X177761900Y-59677300D01*
X132080000Y-80010000D02*
X134670800Y-80010000D01*
X132080000Y-82575400D02*
X132080000Y-80010000D01*
X140919200Y-80010000D02*
X140919200Y-79984600D01*
X143535400Y-80010000D02*
X140919200Y-80010000D01*
X143535400Y-82575400D02*
X143535400Y-80010000D01*
X153746200Y-82600800D02*
X153746200Y-82524600D01*
X140919200Y-82600800D02*
X153746200Y-82600800D01*
X140919200Y-77419200D02*
X140919200Y-82600800D01*
X153746200Y-77419200D02*
X140919200Y-77419200D01*
X153746200Y-82600800D02*
X153746200Y-77419200D01*
X158699200Y-69850000D02*
X158699200Y-69824600D01*
X161315400Y-69850000D02*
X158699200Y-69850000D01*
X161315400Y-72415400D02*
X161315400Y-69850000D01*
X171526200Y-72440800D02*
X171526200Y-72364600D01*
X158699200Y-72440800D02*
X171526200Y-72440800D01*
X158699200Y-67259200D02*
X158699200Y-72440800D01*
X171526200Y-67259200D02*
X158699200Y-67259200D01*
X171526200Y-72440800D02*
X171526200Y-67259200D01*
X140893800Y-69875400D02*
X140893800Y-69850000D01*
X143510000Y-69875400D02*
X140893800Y-69875400D01*
X143510000Y-72440800D02*
X143510000Y-69875400D01*
X153720800Y-72466200D02*
X153720800Y-72390000D01*
X140893800Y-72466200D02*
X153720800Y-72466200D01*
X140893800Y-67284600D02*
X140893800Y-72466200D01*
X153720800Y-67284600D02*
X140893800Y-67284600D01*
X153720800Y-72466200D02*
X153720800Y-67284600D01*
X171526200Y-82600800D02*
X171526200Y-77419200D01*
X171526200Y-77419200D02*
X158699200Y-77419200D01*
X158699200Y-77419200D02*
X158699200Y-82600800D01*
X158699200Y-82600800D02*
X171526200Y-82600800D01*
X171526200Y-82600800D02*
X171526200Y-82524600D01*
X161315400Y-82575400D02*
X161315400Y-80010000D01*
X161315400Y-80010000D02*
X158699200Y-80010000D01*
X158699200Y-80010000D02*
X158699200Y-79984600D01*
X129489200Y-82600800D02*
X134670800Y-82600800D01*
X129489200Y-57124600D02*
X129489200Y-82600800D01*
X134670800Y-57124600D02*
X129489200Y-57124600D01*
X134670800Y-82600800D02*
X134670800Y-57124600D01*
X128219200Y-139649200D02*
X128498600Y-139649200D01*
X128219200Y-142290800D02*
X128219200Y-139649200D01*
X128524000Y-139649200D02*
X128574800Y-139649200D01*
X133400800Y-139649200D02*
X128524000Y-139649200D01*
X133400800Y-142290800D02*
X133400800Y-139649200D01*
X128219200Y-142290800D02*
X133400800Y-142290800D01*
X128219200Y-133680200D02*
X128574800Y-133680200D01*
X129489200Y-133705600D02*
X129489200Y-133680200D01*
X128219200Y-136321800D02*
X128219200Y-133705600D01*
X128549400Y-133680200D02*
X128574800Y-133680200D01*
X133400800Y-133680200D02*
X128549400Y-133680200D01*
X133400800Y-136321800D02*
X133400800Y-133680200D01*
X128219200Y-136321800D02*
X133400800Y-136321800D01*
X142265400Y-134289800D02*
G75*
G03X143230600Y-133273800I-25400J990600D01*
G01*
X141249400Y-133248400D02*
G75*
G03X142189200Y-134289800I990600J-50800D01*
G01*
X141224000Y-133299200D02*
X141224000Y-133324600D01*
X139598400Y-133299200D02*
X141224000Y-133299200D01*
X139598400Y-141020800D02*
X139598400Y-133299200D01*
X143256000Y-133299200D02*
X143256000Y-133324600D01*
X144881600Y-133299200D02*
X143256000Y-133299200D01*
X144881600Y-141020800D02*
X144881600Y-133299200D01*
X139598400Y-141020800D02*
X144881600Y-141020800D01*
X182930800Y-143560800D02*
X182422800Y-143560800D01*
X182930800Y-140919200D02*
X182930800Y-143560800D01*
X170129200Y-140919200D02*
X182930800Y-140919200D01*
X170129200Y-143560800D02*
X170129200Y-140919200D01*
X170129200Y-143560800D02*
X182448200Y-143560800D01*
X156210000Y-141097000D02*
X156260800Y-141097000D01*
X156210000Y-143687800D02*
X156210000Y-141097000D01*
X153670000Y-141071600D02*
X153695400Y-141071600D01*
X153670000Y-143713200D02*
X153670000Y-141071600D01*
X151130000Y-143738600D02*
X151130000Y-141071600D01*
X148539200Y-132207000D02*
X158775400Y-132207000D01*
X148564600Y-141071600D02*
X148640800Y-141071600D01*
X148564600Y-125196600D02*
X148564600Y-141071600D01*
X158800800Y-125196600D02*
X148564600Y-125196600D01*
X158800800Y-141071600D02*
X158800800Y-125196600D01*
X148564600Y-141071600D02*
X158800800Y-141071600D01*
X168859200Y-100279200D02*
X169672000Y-100279200D01*
X168859200Y-102920800D02*
X168859200Y-100279200D01*
X184200800Y-100279200D02*
X169697400Y-100279200D01*
X184200800Y-102920800D02*
X184200800Y-100279200D01*
X168859200Y-102920800D02*
X184200800Y-102920800D01*
X156159200Y-100279200D02*
X156565600Y-100279200D01*
X156159200Y-102920800D02*
X156159200Y-100279200D01*
X163880800Y-100279200D02*
X156591000Y-100279200D01*
X163880800Y-102920800D02*
X163880800Y-100279200D01*
X156159200Y-102920800D02*
X163880800Y-102920800D01*
X156159200Y-115519200D02*
X156260800Y-115519200D01*
X166420800Y-115519200D02*
X156159200Y-115519200D01*
X156159200Y-118160800D02*
X156159200Y-115519200D01*
X166420800Y-118160800D02*
X166420800Y-115519200D01*
X156159200Y-118160800D02*
X166420800Y-118160800D01*
X156159200Y-107899200D02*
X156210000Y-107899200D01*
X156159200Y-110540800D02*
X156159200Y-107899200D01*
X166420800Y-110540800D02*
X156159200Y-110540800D01*
X166420800Y-107899200D02*
X166420800Y-110540800D01*
X156159200Y-107899200D02*
X166420800Y-107899200D01*
X156159200Y-107950000D02*
X156159200Y-107899200D01*
X173939200Y-110540800D02*
X173964600Y-110515400D01*
X173939200Y-107899200D02*
X173939200Y-110540800D01*
X176530000Y-107899200D02*
X173939200Y-107899200D01*
X184200800Y-107899200D02*
X176530000Y-107899200D01*
X184200800Y-110540800D02*
X184200800Y-107899200D01*
X173939200Y-110540800D02*
X184200800Y-110540800D01*
X157353000Y-96647000D02*
X157353000Y-94107000D01*
X158623000Y-96647000D02*
X157353000Y-96647000D01*
X140893800Y-90170000D02*
X140893800Y-90144600D01*
X143510000Y-90170000D02*
X140893800Y-90170000D01*
X143510000Y-92735400D02*
X143510000Y-90170000D01*
X153720800Y-92760800D02*
X153720800Y-92684600D01*
X140893800Y-92760800D02*
X153720800Y-92760800D01*
X140893800Y-87579200D02*
X140893800Y-92760800D01*
X153720800Y-87579200D02*
X140893800Y-87579200D01*
X153720800Y-92760800D02*
X153720800Y-87579200D01*
X157556200Y-96443800D02*
X157556200Y-96393000D01*
X180289200Y-96443800D02*
X157556200Y-96443800D01*
X180289200Y-86436200D02*
X180289200Y-96443800D01*
X157556200Y-86436200D02*
X180289200Y-86436200D01*
X157556200Y-96418400D02*
X157556200Y-86436200D01*
D13*
X148955190Y-99322952D02*
X148955190Y-96822952D01*
X148431381Y-96822952D01*
X148117095Y-96942000D01*
X147907571Y-97180095D01*
X147802810Y-97418190D01*
X147698048Y-97894381D01*
X147698048Y-98251524D01*
X147802810Y-98727714D01*
X147907571Y-98965810D01*
X148117095Y-99203905D01*
X148431381Y-99322952D01*
X148955190Y-99322952D01*
X145498048Y-99322952D02*
X146231381Y-98132476D01*
X146755190Y-99322952D02*
X146755190Y-96822952D01*
X145917095Y-96822952D01*
X145707571Y-96942000D01*
X145602810Y-97061048D01*
X145498048Y-97299143D01*
X145498048Y-97656286D01*
X145602810Y-97894381D01*
X145707571Y-98013429D01*
X145917095Y-98132476D01*
X146755190Y-98132476D01*
X144555190Y-99084857D02*
X144450429Y-99203905D01*
X144555190Y-99322952D01*
X144659952Y-99203905D01*
X144555190Y-99084857D01*
X144555190Y-99322952D01*
X141831381Y-99322952D02*
X141831381Y-96822952D01*
X141831381Y-98013429D02*
X140574239Y-98013429D01*
X140574239Y-99322952D02*
X140574239Y-96822952D01*
X139526619Y-98013429D02*
X138793286Y-98013429D01*
X138479000Y-99322952D02*
X139526619Y-99322952D01*
X139526619Y-96822952D01*
X138479000Y-96822952D01*
X136488524Y-99322952D02*
X137536143Y-99322952D01*
X137536143Y-96822952D01*
X135021858Y-98013429D02*
X135755191Y-98013429D01*
X135755191Y-99322952D02*
X135755191Y-96822952D01*
X134707572Y-96822952D01*
X133869477Y-98013429D02*
X133136144Y-98013429D01*
X132821858Y-99322952D02*
X133869477Y-99322952D01*
X133869477Y-96822952D01*
X132821858Y-96822952D01*
X130621859Y-99322952D02*
X131355192Y-98132476D01*
X131879001Y-99322952D02*
X131879001Y-96822952D01*
X131040906Y-96822952D01*
X130831382Y-96942000D01*
X130726621Y-97061048D01*
X130621859Y-97299143D01*
X130621859Y-97656286D01*
X130726621Y-97894381D01*
X130831382Y-98013429D01*
X131040906Y-98132476D01*
X131879001Y-98132476D01*
X129993287Y-96822952D02*
X128736144Y-96822952D01*
X129364716Y-99322952D02*
X129364716Y-96822952D01*
X127583764Y-98132476D02*
X127583764Y-99322952D01*
X128317097Y-96822952D02*
X127583764Y-98132476D01*
X126850431Y-96822952D01*
X149059952Y-102658667D02*
X148012333Y-102658667D01*
X149269476Y-103372952D02*
X148536143Y-100872952D01*
X147802810Y-103372952D01*
X147383762Y-100872952D02*
X146126619Y-100872952D01*
X146755191Y-103372952D02*
X146755191Y-100872952D01*
X145393286Y-103372952D02*
X145393286Y-100872952D01*
X144659953Y-102658667D01*
X143926620Y-100872952D01*
X143926620Y-103372952D01*
X142879000Y-102063429D02*
X142145667Y-102063429D01*
X141831381Y-103372952D02*
X142879000Y-103372952D01*
X142879000Y-100872952D01*
X141831381Y-100872952D01*
X139736144Y-100992000D02*
X139945667Y-100872952D01*
X140259953Y-100872952D01*
X140574239Y-100992000D01*
X140783763Y-101230095D01*
X140888524Y-101468190D01*
X140993286Y-101944381D01*
X140993286Y-102301524D01*
X140888524Y-102777714D01*
X140783763Y-103015810D01*
X140574239Y-103253905D01*
X140259953Y-103372952D01*
X140050429Y-103372952D01*
X139736144Y-103253905D01*
X139631382Y-103134857D01*
X139631382Y-102301524D01*
X140050429Y-102301524D01*
X138793286Y-102658667D02*
X137745667Y-102658667D01*
X139002810Y-103372952D02*
X138269477Y-100872952D01*
X137536144Y-103372952D01*
X137012334Y-100872952D02*
X135650430Y-100872952D01*
X136383763Y-101825333D01*
X136069477Y-101825333D01*
X135859953Y-101944381D01*
X135755191Y-102063429D01*
X135650430Y-102301524D01*
X135650430Y-102896762D01*
X135755191Y-103134857D01*
X135859953Y-103253905D01*
X136069477Y-103372952D01*
X136698049Y-103372952D01*
X136907572Y-103253905D01*
X137012334Y-103134857D01*
X134812334Y-101111048D02*
X134707572Y-100992000D01*
X134498049Y-100872952D01*
X133974239Y-100872952D01*
X133764715Y-100992000D01*
X133659953Y-101111048D01*
X133555192Y-101349143D01*
X133555192Y-101587238D01*
X133659953Y-101944381D01*
X134917096Y-103372952D01*
X133555192Y-103372952D01*
X131669477Y-101706286D02*
X131669477Y-103372952D01*
X132193287Y-100753905D02*
X132717096Y-102539619D01*
X131355192Y-102539619D01*
X130517096Y-103372952D02*
X130517096Y-100872952D01*
X129679001Y-100872952D01*
X129469477Y-100992000D01*
X129364716Y-101111048D01*
X129259954Y-101349143D01*
X129259954Y-101706286D01*
X129364716Y-101944381D01*
X129469477Y-102063429D01*
X129679001Y-102182476D01*
X130517096Y-102182476D01*
X127583763Y-102063429D02*
X127269477Y-102182476D01*
X127164716Y-102301524D01*
X127059954Y-102539619D01*
X127059954Y-102896762D01*
X127164716Y-103134857D01*
X127269477Y-103253905D01*
X127479001Y-103372952D01*
X128317096Y-103372952D01*
X128317096Y-100872952D01*
X127583763Y-100872952D01*
X127374239Y-100992000D01*
X127269477Y-101111048D01*
X127164716Y-101349143D01*
X127164716Y-101587238D01*
X127269477Y-101825333D01*
X127374239Y-101944381D01*
X127583763Y-102063429D01*
X128317096Y-102063429D01*
X148221857Y-106113429D02*
X147907571Y-106232476D01*
X147802810Y-106351524D01*
X147698048Y-106589619D01*
X147698048Y-106946762D01*
X147802810Y-107184857D01*
X147907571Y-107303905D01*
X148117095Y-107422952D01*
X148955190Y-107422952D01*
X148955190Y-104922952D01*
X148221857Y-104922952D01*
X148012333Y-105042000D01*
X147907571Y-105161048D01*
X147802810Y-105399143D01*
X147802810Y-105637238D01*
X147907571Y-105875333D01*
X148012333Y-105994381D01*
X148221857Y-106113429D01*
X148955190Y-106113429D01*
X145498048Y-107422952D02*
X146231381Y-106232476D01*
X146755190Y-107422952D02*
X146755190Y-104922952D01*
X145917095Y-104922952D01*
X145707571Y-105042000D01*
X145602810Y-105161048D01*
X145498048Y-105399143D01*
X145498048Y-105756286D01*
X145602810Y-105994381D01*
X145707571Y-106113429D01*
X145917095Y-106232476D01*
X146755190Y-106232476D01*
X144555190Y-106113429D02*
X143821857Y-106113429D01*
X143507571Y-107422952D02*
X144555190Y-107422952D01*
X144555190Y-104922952D01*
X143507571Y-104922952D01*
X142669476Y-106708667D02*
X141621857Y-106708667D01*
X142879000Y-107422952D02*
X142145667Y-104922952D01*
X141412334Y-107422952D01*
X140679000Y-107422952D02*
X140679000Y-104922952D01*
X139421858Y-107422952D02*
X140364715Y-105994381D01*
X139421858Y-104922952D02*
X140679000Y-106351524D01*
X138479000Y-106470571D02*
X136802810Y-106470571D01*
X135336143Y-104922952D02*
X134917095Y-104922952D01*
X134707571Y-105042000D01*
X134498048Y-105280095D01*
X134393286Y-105756286D01*
X134393286Y-106589619D01*
X134498048Y-107065810D01*
X134707571Y-107303905D01*
X134917095Y-107422952D01*
X135336143Y-107422952D01*
X135545667Y-107303905D01*
X135755190Y-107065810D01*
X135859952Y-106589619D01*
X135859952Y-105756286D01*
X135755190Y-105280095D01*
X135545667Y-105042000D01*
X135336143Y-104922952D01*
X133450428Y-104922952D02*
X133450428Y-106946762D01*
X133345667Y-107184857D01*
X133240905Y-107303905D01*
X133031381Y-107422952D01*
X132612333Y-107422952D01*
X132402809Y-107303905D01*
X132298048Y-107184857D01*
X132193286Y-106946762D01*
X132193286Y-104922952D01*
X131459952Y-104922952D02*
X130202809Y-104922952D01*
X130831381Y-107422952D02*
X130831381Y-104922952D01*
X148955190Y-110163429D02*
X148221857Y-110163429D01*
X147907571Y-111472952D02*
X148955190Y-111472952D01*
X148955190Y-108972952D01*
X147907571Y-108972952D01*
X145707572Y-111234857D02*
X145812334Y-111353905D01*
X146126619Y-111472952D01*
X146336143Y-111472952D01*
X146650429Y-111353905D01*
X146859953Y-111115810D01*
X146964714Y-110877714D01*
X147069476Y-110401524D01*
X147069476Y-110044381D01*
X146964714Y-109568190D01*
X146859953Y-109330095D01*
X146650429Y-109092000D01*
X146336143Y-108972952D01*
X146126619Y-108972952D01*
X145812334Y-109092000D01*
X145707572Y-109211048D01*
X144764714Y-110163429D02*
X144031381Y-110163429D01*
X143717095Y-111472952D02*
X144764714Y-111472952D01*
X144764714Y-108972952D01*
X143717095Y-108972952D01*
X141307572Y-108972952D02*
X139945668Y-108972952D01*
X140679001Y-109925333D01*
X140364715Y-109925333D01*
X140155191Y-110044381D01*
X140050429Y-110163429D01*
X139945668Y-110401524D01*
X139945668Y-110996762D01*
X140050429Y-111234857D01*
X140155191Y-111353905D01*
X140364715Y-111472952D01*
X140993287Y-111472952D01*
X141202810Y-111353905D01*
X141307572Y-111234857D01*
X138059953Y-108972952D02*
X138479001Y-108972952D01*
X138688525Y-109092000D01*
X138793287Y-109211048D01*
X139002810Y-109568190D01*
X139107572Y-110044381D01*
X139107572Y-110996762D01*
X139002810Y-111234857D01*
X138898049Y-111353905D01*
X138688525Y-111472952D01*
X138269477Y-111472952D01*
X138059953Y-111353905D01*
X137955191Y-111234857D01*
X137850430Y-110996762D01*
X137850430Y-110401524D01*
X137955191Y-110163429D01*
X138059953Y-110044381D01*
X138269477Y-109925333D01*
X138688525Y-109925333D01*
X138898049Y-110044381D01*
X139002810Y-110163429D01*
X139107572Y-110401524D01*
X135755192Y-111472952D02*
X137012334Y-111472952D01*
X136383763Y-111472952D02*
X136383763Y-108972952D01*
X136593287Y-109330095D01*
X136802811Y-109568190D01*
X137012334Y-109687238D01*
X134917096Y-109211048D02*
X134812334Y-109092000D01*
X134602811Y-108972952D01*
X134079001Y-108972952D01*
X133869477Y-109092000D01*
X133764715Y-109211048D01*
X133659954Y-109449143D01*
X133659954Y-109687238D01*
X133764715Y-110044381D01*
X135021858Y-111472952D01*
X133659954Y-111472952D01*
D15*
X143450000Y-57090000D02*
X143450000Y-62290000D01*
X166370000Y-57090000D02*
X143450000Y-57090000D01*
X168970000Y-62290000D02*
X143450000Y-62290000D01*
X166370000Y-57090000D02*
X166370000Y-59690000D01*
X166370000Y-59690000D02*
X168970000Y-59690000D01*
X168970000Y-59690000D02*
X168970000Y-62290000D01*
X167640000Y-57090000D02*
X168970000Y-57090000D01*
X168970000Y-57090000D02*
X168970000Y-58420000D01*
D12*
X170108571Y-58142381D02*
X170108571Y-58475715D01*
X170632381Y-58618572D02*
X170632381Y-58142381D01*
X169632381Y-58142381D01*
X169632381Y-58618572D01*
X169632381Y-58951905D02*
X170632381Y-59618572D01*
X169632381Y-59618572D02*
X170632381Y-58951905D01*
X169632381Y-59856667D02*
X169632381Y-60428096D01*
X170632381Y-60142381D02*
X169632381Y-60142381D01*
X169632381Y-60666191D02*
X169632381Y-61285239D01*
X170013333Y-60951905D01*
X170013333Y-61094763D01*
X170060952Y-61190001D01*
X170108571Y-61237620D01*
X170203810Y-61285239D01*
X170441905Y-61285239D01*
X170537143Y-61237620D01*
X170584762Y-61190001D01*
X170632381Y-61094763D01*
X170632381Y-60809048D01*
X170584762Y-60713810D01*
X170537143Y-60666191D01*
M02*
