G04 #@! TF.GenerationSoftware,KiCad,Pcbnew,(5.0.0)*
G04 #@! TF.CreationDate,2019-02-20T18:13:07-05:00*
G04 #@! TF.ProjectId,AVR_LCD 2.0,4156525F4C434420322E302E6B696361,rev?*
G04 #@! TF.SameCoordinates,Original*
G04 #@! TF.FileFunction,Soldermask,Bot*
G04 #@! TF.FilePolarity,Negative*
%FSLAX46Y46*%
G04 Gerber Fmt 4.6, Leading zero omitted, Abs format (unit mm)*
G04 Created by KiCad (PCBNEW (5.0.0)) date 02/20/19 18:13:07*
%MOMM*%
%LPD*%
G01*
G04 APERTURE LIST*
%ADD10O,2.100000X2.100000*%
%ADD11R,2.100000X2.100000*%
%ADD12C,2.150000*%
%ADD13R,2.150000X2.150000*%
%ADD14O,4.900000X3.400000*%
%ADD15C,3.000000*%
%ADD16O,4.900000X2.500000*%
G04 APERTURE END LIST*
D10*
G04 #@! TO.C,BreakOut_EXT1*
X113840000Y-134810000D03*
X111300000Y-134810000D03*
X113840000Y-132270000D03*
X111300000Y-132270000D03*
X113840000Y-129730000D03*
X111300000Y-129730000D03*
X113840000Y-127190000D03*
X111300000Y-127190000D03*
X113840000Y-124650000D03*
X111300000Y-124650000D03*
X113840000Y-122110000D03*
X111300000Y-122110000D03*
X113840000Y-119570000D03*
X111300000Y-119570000D03*
X113840000Y-117030000D03*
X111300000Y-117030000D03*
X113840000Y-114490000D03*
X111300000Y-114490000D03*
X113840000Y-111950000D03*
D11*
X111300000Y-111950000D03*
G04 #@! TD*
D10*
G04 #@! TO.C,J1*
X58194800Y-95248800D03*
X58194800Y-92708800D03*
X58194800Y-90168800D03*
D11*
X58194800Y-87628800D03*
G04 #@! TD*
D10*
G04 #@! TO.C,J2*
X58160000Y-65480000D03*
X58160000Y-62940000D03*
X58160000Y-60400000D03*
D11*
X58160000Y-57860000D03*
G04 #@! TD*
D10*
G04 #@! TO.C,J3*
X113840000Y-57650000D03*
X111300000Y-57650000D03*
X113840000Y-55110000D03*
D11*
X111300000Y-55110000D03*
G04 #@! TD*
G04 #@! TO.C,J4*
X58160000Y-70560000D03*
D10*
X58160000Y-73100000D03*
X58160000Y-75640000D03*
X58160000Y-78180000D03*
G04 #@! TD*
D12*
G04 #@! TO.C,J5*
X103090000Y-62450000D03*
D13*
X103090000Y-64950000D03*
G04 #@! TD*
D10*
G04 #@! TO.C,U2*
X86160000Y-56800000D03*
X83620000Y-56800000D03*
X81080000Y-56800000D03*
D11*
X78540000Y-56800000D03*
D14*
X94090000Y-56600000D03*
X70590000Y-56600000D03*
X94090000Y-80100000D03*
X70590000Y-80100000D03*
G04 #@! TD*
D15*
G04 #@! TO.C,U5*
X85390000Y-88100000D03*
X79390000Y-94100000D03*
D16*
X82340000Y-85250000D03*
X85890000Y-96950000D03*
X78840000Y-96950000D03*
G04 #@! TD*
D11*
G04 #@! TO.C,X-Plained_EXT1*
X111300000Y-70340000D03*
D10*
X113840000Y-70340000D03*
X111300000Y-72880000D03*
X113840000Y-72880000D03*
X111300000Y-75420000D03*
X113840000Y-75420000D03*
X111300000Y-77960000D03*
X113840000Y-77960000D03*
X111300000Y-80500000D03*
X113840000Y-80500000D03*
X111300000Y-83040000D03*
X113840000Y-83040000D03*
X111300000Y-85580000D03*
X113840000Y-85580000D03*
X111300000Y-88120000D03*
X113840000Y-88120000D03*
X111300000Y-90660000D03*
X113840000Y-90660000D03*
X111300000Y-93200000D03*
X113840000Y-93200000D03*
G04 #@! TD*
M02*
