M48
;DRILL file {KiCad (5.0.0)} date 03/25/19 18:44:17
;FORMAT={-:-/ absolute / metric / decimal}
FMAT,2
METRIC,TZ
T1C0.400
T2C0.800
T3C1.000
T4C1.050
T5C1.600
%
G90
G05
M71
T1
X64.256Y-80.466
X71.571Y-93.522
X76.55Y-91.103
X77.838Y-90.951
X96.075Y-98.407
X99.115Y-84.68
X100.317Y-87.048
X102.278Y-95.703
X103.6Y-90.669
X103.607Y-93.975
X104.097Y-70.624
X106.607Y-82.15
X107.002Y-86.443
X107.629Y-107.119
X107.788Y-114.909
X107.868Y-82.903
X111.891Y-95.447
X112.834Y-86.85
X114.13Y-101.814
X114.887Y-96.282
T3
X58.195Y-87.629
X58.195Y-90.169
X58.195Y-92.709
X58.195Y-95.249
X111.3Y-111.95
X111.3Y-114.49
X111.3Y-117.03
X111.3Y-119.57
X111.3Y-122.11
X111.3Y-124.65
X111.3Y-127.19
X111.3Y-129.73
X111.3Y-132.27
X111.3Y-134.81
X113.84Y-111.95
X113.84Y-114.49
X113.84Y-117.03
X113.84Y-119.57
X113.84Y-122.11
X113.84Y-124.65
X113.84Y-127.19
X113.84Y-129.73
X113.84Y-132.27
X113.84Y-134.81
X58.16Y-70.56
X58.16Y-73.1
X58.16Y-75.64
X58.16Y-78.18
X70.59Y-56.6
X70.59Y-80.1
X78.54Y-56.8
X81.08Y-56.8
X83.62Y-56.8
X86.16Y-56.8
X94.09Y-56.6
X94.09Y-80.1
X111.3Y-70.34
X111.3Y-72.88
X111.3Y-75.42
X111.3Y-77.96
X111.3Y-80.5
X111.3Y-83.04
X111.3Y-85.58
X111.3Y-88.12
X111.3Y-90.66
X111.3Y-93.2
X113.84Y-70.34
X113.84Y-72.88
X113.84Y-75.42
X113.84Y-77.96
X113.84Y-80.5
X113.84Y-83.04
X113.84Y-85.58
X113.84Y-88.12
X113.84Y-90.66
X113.84Y-93.2
X58.16Y-57.86
X58.16Y-60.4
X58.16Y-62.94
X58.16Y-65.48
X111.3Y-55.11
X111.3Y-57.65
X113.84Y-55.11
X113.84Y-57.65
T4
X103.09Y-62.45
X103.09Y-64.95
T5
X79.39Y-94.1
X85.39Y-88.1
T2
X77.49Y-96.95G85X80.19Y-96.95
G05
X80.99Y-85.25G85X83.69Y-85.25
G05
X84.54Y-96.95G85X87.24Y-96.95
G05
T0
M30
