G04 #@! TF.GenerationSoftware,KiCad,Pcbnew,(5.0.0)*
G04 #@! TF.CreationDate,2019-03-25T18:44:15-04:00*
G04 #@! TF.ProjectId,AVR_LCD 2.0,4156525F4C434420322E302E6B696361,rev?*
G04 #@! TF.SameCoordinates,Original*
G04 #@! TF.FileFunction,Copper,L2,Bot,Signal*
G04 #@! TF.FilePolarity,Positive*
%FSLAX46Y46*%
G04 Gerber Fmt 4.6, Leading zero omitted, Abs format (unit mm)*
G04 Created by KiCad (PCBNEW (5.0.0)) date 03/25/19 18:44:15*
%MOMM*%
%LPD*%
G01*
G04 APERTURE LIST*
G04 #@! TA.AperFunction,ComponentPad*
%ADD10O,1.700000X1.700000*%
G04 #@! TD*
G04 #@! TA.AperFunction,ComponentPad*
%ADD11R,1.700000X1.700000*%
G04 #@! TD*
G04 #@! TA.AperFunction,ComponentPad*
%ADD12C,1.750000*%
G04 #@! TD*
G04 #@! TA.AperFunction,ComponentPad*
%ADD13R,1.750000X1.750000*%
G04 #@! TD*
G04 #@! TA.AperFunction,ComponentPad*
%ADD14O,4.500000X3.000000*%
G04 #@! TD*
G04 #@! TA.AperFunction,ComponentPad*
%ADD15C,2.600000*%
G04 #@! TD*
G04 #@! TA.AperFunction,ComponentPad*
%ADD16O,4.500000X2.100000*%
G04 #@! TD*
G04 #@! TA.AperFunction,ViaPad*
%ADD17C,0.800000*%
G04 #@! TD*
G04 #@! TA.AperFunction,Conductor*
%ADD18C,0.380000*%
G04 #@! TD*
G04 #@! TA.AperFunction,NonConductor*
%ADD19C,0.400000*%
G04 #@! TD*
G04 APERTURE END LIST*
D10*
G04 #@! TO.P,BreakOut_EXT1,20*
G04 #@! TO.N,VCC*
X113840000Y-134810000D03*
G04 #@! TO.P,BreakOut_EXT1,19*
G04 #@! TO.N,GND*
X111300000Y-134810000D03*
G04 #@! TO.P,BreakOut_EXT1,18*
G04 #@! TO.N,PB7*
X113840000Y-132270000D03*
G04 #@! TO.P,BreakOut_EXT1,17*
G04 #@! TO.N,PB6*
X111300000Y-132270000D03*
G04 #@! TO.P,BreakOut_EXT1,16*
G04 #@! TO.N,PB5*
X113840000Y-129730000D03*
G04 #@! TO.P,BreakOut_EXT1,15*
G04 #@! TO.N,PB4*
X111300000Y-129730000D03*
G04 #@! TO.P,BreakOut_EXT1,14*
G04 #@! TO.N,Net-(BreakOut_EXT1-Pad14)*
X113840000Y-127190000D03*
G04 #@! TO.P,BreakOut_EXT1,13*
G04 #@! TO.N,PD0*
X111300000Y-127190000D03*
G04 #@! TO.P,BreakOut_EXT1,12*
G04 #@! TO.N,Net-(BreakOut_EXT1-Pad12)*
X113840000Y-124650000D03*
G04 #@! TO.P,BreakOut_EXT1,11*
G04 #@! TO.N,Net-(BreakOut_EXT1-Pad11)*
X111300000Y-124650000D03*
G04 #@! TO.P,BreakOut_EXT1,10*
G04 #@! TO.N,PC0*
X113840000Y-122110000D03*
G04 #@! TO.P,BreakOut_EXT1,9*
G04 #@! TO.N,PC1*
X111300000Y-122110000D03*
G04 #@! TO.P,BreakOut_EXT1,8*
G04 #@! TO.N,Net-(BreakOut_EXT1-Pad8)*
X113840000Y-119570000D03*
G04 #@! TO.P,BreakOut_EXT1,7*
G04 #@! TO.N,Net-(BreakOut_EXT1-Pad7)*
X111300000Y-119570000D03*
G04 #@! TO.P,BreakOut_EXT1,6*
G04 #@! TO.N,Net-(BreakOut_EXT1-Pad6)*
X113840000Y-117030000D03*
G04 #@! TO.P,BreakOut_EXT1,5*
G04 #@! TO.N,Net-(BreakOut_EXT1-Pad5)*
X111300000Y-117030000D03*
G04 #@! TO.P,BreakOut_EXT1,4*
G04 #@! TO.N,Net-(BreakOut_EXT1-Pad4)*
X113840000Y-114490000D03*
G04 #@! TO.P,BreakOut_EXT1,3*
G04 #@! TO.N,Net-(BreakOut_EXT1-Pad3)*
X111300000Y-114490000D03*
G04 #@! TO.P,BreakOut_EXT1,2*
G04 #@! TO.N,Net-(BreakOut_EXT1-Pad2)*
X113840000Y-111950000D03*
D11*
G04 #@! TO.P,BreakOut_EXT1,1*
G04 #@! TO.N,Net-(BreakOut_EXT1-Pad1)*
X111300000Y-111950000D03*
G04 #@! TD*
D10*
G04 #@! TO.P,J1,4*
G04 #@! TO.N,GND*
X58194800Y-95248800D03*
G04 #@! TO.P,J1,3*
G04 #@! TO.N,VCC*
X58194800Y-92708800D03*
G04 #@! TO.P,J1,2*
G04 #@! TO.N,5V*
X58194800Y-90168800D03*
D11*
G04 #@! TO.P,J1,1*
G04 #@! TO.N,5V_IN*
X58194800Y-87628800D03*
G04 #@! TD*
D10*
G04 #@! TO.P,J2,4*
G04 #@! TO.N,PC1*
X58160000Y-65480000D03*
G04 #@! TO.P,J2,3*
G04 #@! TO.N,PC0*
X58160000Y-62940000D03*
G04 #@! TO.P,J2,2*
G04 #@! TO.N,GND*
X58160000Y-60400000D03*
D11*
G04 #@! TO.P,J2,1*
G04 #@! TO.N,VCC*
X58160000Y-57860000D03*
G04 #@! TD*
D10*
G04 #@! TO.P,J3,4*
G04 #@! TO.N,VCC*
X113840000Y-57650000D03*
G04 #@! TO.P,J3,3*
G04 #@! TO.N,5V*
X111300000Y-57650000D03*
G04 #@! TO.P,J3,2*
G04 #@! TO.N,GND*
X113840000Y-55110000D03*
D11*
G04 #@! TO.P,J3,1*
G04 #@! TO.N,5V_IN*
X111300000Y-55110000D03*
G04 #@! TD*
G04 #@! TO.P,J4,1*
G04 #@! TO.N,GND*
X58160000Y-70560000D03*
D10*
G04 #@! TO.P,J4,2*
G04 #@! TO.N,VCC*
X58160000Y-73100000D03*
G04 #@! TO.P,J4,3*
G04 #@! TO.N,PC1*
X58160000Y-75640000D03*
G04 #@! TO.P,J4,4*
G04 #@! TO.N,PC0*
X58160000Y-78180000D03*
G04 #@! TD*
D12*
G04 #@! TO.P,J5,2*
G04 #@! TO.N,GND*
X103090000Y-62450000D03*
D13*
G04 #@! TO.P,J5,1*
G04 #@! TO.N,VCC*
X103090000Y-64950000D03*
G04 #@! TD*
D10*
G04 #@! TO.P,U2,4*
G04 #@! TO.N,PC1*
X86160000Y-56800000D03*
G04 #@! TO.P,U2,3*
G04 #@! TO.N,PC0*
X83620000Y-56800000D03*
G04 #@! TO.P,U2,2*
G04 #@! TO.N,GND*
X81080000Y-56800000D03*
D11*
G04 #@! TO.P,U2,1*
G04 #@! TO.N,VCC*
X78540000Y-56800000D03*
D14*
G04 #@! TO.P,U2,5*
G04 #@! TO.N,GND*
X94090000Y-56600000D03*
X70590000Y-56600000D03*
X94090000Y-80100000D03*
X70590000Y-80100000D03*
G04 #@! TD*
D15*
G04 #@! TO.P,U5,7*
G04 #@! TO.N,GND*
X85390000Y-88100000D03*
X79390000Y-94100000D03*
D16*
X82340000Y-85250000D03*
X85890000Y-96950000D03*
X78840000Y-96950000D03*
G04 #@! TD*
D11*
G04 #@! TO.P,X-Plained_EXT1,1*
G04 #@! TO.N,Net-(BreakOut_EXT1-Pad1)*
X111300000Y-70340000D03*
D10*
G04 #@! TO.P,X-Plained_EXT1,2*
G04 #@! TO.N,Net-(BreakOut_EXT1-Pad2)*
X113840000Y-70340000D03*
G04 #@! TO.P,X-Plained_EXT1,3*
G04 #@! TO.N,Net-(BreakOut_EXT1-Pad3)*
X111300000Y-72880000D03*
G04 #@! TO.P,X-Plained_EXT1,4*
G04 #@! TO.N,Net-(BreakOut_EXT1-Pad4)*
X113840000Y-72880000D03*
G04 #@! TO.P,X-Plained_EXT1,5*
G04 #@! TO.N,Net-(BreakOut_EXT1-Pad5)*
X111300000Y-75420000D03*
G04 #@! TO.P,X-Plained_EXT1,6*
G04 #@! TO.N,Net-(BreakOut_EXT1-Pad6)*
X113840000Y-75420000D03*
G04 #@! TO.P,X-Plained_EXT1,7*
G04 #@! TO.N,Net-(BreakOut_EXT1-Pad7)*
X111300000Y-77960000D03*
G04 #@! TO.P,X-Plained_EXT1,8*
G04 #@! TO.N,Net-(BreakOut_EXT1-Pad8)*
X113840000Y-77960000D03*
G04 #@! TO.P,X-Plained_EXT1,9*
G04 #@! TO.N,PC1*
X111300000Y-80500000D03*
G04 #@! TO.P,X-Plained_EXT1,10*
G04 #@! TO.N,PC0*
X113840000Y-80500000D03*
G04 #@! TO.P,X-Plained_EXT1,11*
G04 #@! TO.N,Net-(BreakOut_EXT1-Pad11)*
X111300000Y-83040000D03*
G04 #@! TO.P,X-Plained_EXT1,12*
G04 #@! TO.N,Net-(BreakOut_EXT1-Pad12)*
X113840000Y-83040000D03*
G04 #@! TO.P,X-Plained_EXT1,13*
G04 #@! TO.N,PD0*
X111300000Y-85580000D03*
G04 #@! TO.P,X-Plained_EXT1,14*
G04 #@! TO.N,Net-(BreakOut_EXT1-Pad14)*
X113840000Y-85580000D03*
G04 #@! TO.P,X-Plained_EXT1,15*
G04 #@! TO.N,PB4*
X111300000Y-88120000D03*
G04 #@! TO.P,X-Plained_EXT1,16*
G04 #@! TO.N,PB5*
X113840000Y-88120000D03*
G04 #@! TO.P,X-Plained_EXT1,17*
G04 #@! TO.N,PB6*
X111300000Y-90660000D03*
G04 #@! TO.P,X-Plained_EXT1,18*
G04 #@! TO.N,PB7*
X113840000Y-90660000D03*
G04 #@! TO.P,X-Plained_EXT1,19*
G04 #@! TO.N,GND*
X111300000Y-93200000D03*
G04 #@! TO.P,X-Plained_EXT1,20*
G04 #@! TO.N,VCC*
X113840000Y-93200000D03*
G04 #@! TD*
D17*
G04 #@! TO.N,VCC*
X71571200Y-93521600D03*
G04 #@! TO.N,GND*
X100317000Y-87048500D03*
X64256000Y-80466000D03*
G04 #@! TO.N,PB7*
X96074900Y-98407200D03*
G04 #@! TO.N,PB6*
X102277700Y-95702800D03*
G04 #@! TO.N,PB5*
X103606600Y-93974900D03*
G04 #@! TO.N,PB4*
X76549800Y-91103000D03*
G04 #@! TO.N,Net-(BreakOut_EXT1-Pad14)*
X111891000Y-95447500D03*
X112834000Y-86850000D03*
G04 #@! TO.N,PD0*
X77838100Y-90951400D03*
X103599900Y-90668700D03*
G04 #@! TO.N,Net-(BreakOut_EXT1-Pad11)*
X107002500Y-86443200D03*
G04 #@! TO.N,PC1*
X99115100Y-84679700D03*
G04 #@! TO.N,Net-(BreakOut_EXT1-Pad7)*
X107868500Y-82903400D03*
G04 #@! TO.N,Net-(BreakOut_EXT1-Pad4)*
X114886600Y-96281600D03*
G04 #@! TO.N,Net-(BreakOut_EXT1-Pad3)*
X107788400Y-114909000D03*
G04 #@! TO.N,Net-(BreakOut_EXT1-Pad2)*
X114129900Y-101813900D03*
G04 #@! TO.N,Net-(BreakOut_EXT1-Pad1)*
X107628700Y-107119400D03*
X106606600Y-82150500D03*
G04 #@! TO.N,5V*
X104097500Y-70623700D03*
G04 #@! TD*
D18*
G04 #@! TO.N,VCC*
X113840000Y-57650000D02*
X112599700Y-57650000D01*
G04 #@! TO.N,GND*
X103090000Y-62086100D02*
X103090000Y-62450000D01*
G04 #@! TO.N,VCC*
X79780300Y-56800000D02*
X79780300Y-56334900D01*
X79780300Y-56334900D02*
X81415800Y-54699400D01*
X112599700Y-57650000D02*
X112599700Y-58115100D01*
X112599700Y-58115100D02*
X108628700Y-62086100D01*
X78540000Y-56800000D02*
X79780300Y-56800000D01*
X59007600Y-93521600D02*
X58194800Y-92708800D01*
X71571200Y-93521600D02*
X59007600Y-93521600D01*
X107208900Y-62086100D02*
X108628700Y-62086100D01*
X104345000Y-64950000D02*
X107208900Y-62086100D01*
X103090000Y-64950000D02*
X104345000Y-64950000D01*
X90911600Y-54699400D02*
X90354500Y-54699400D01*
X96006000Y-54304000D02*
X91307000Y-54304000D01*
X81415800Y-54699400D02*
X90354500Y-54699400D01*
X99017123Y-64950000D02*
X98038000Y-63970877D01*
X91307000Y-54304000D02*
X90911600Y-54699400D01*
X98038000Y-63970877D02*
X98038000Y-56336000D01*
X103090000Y-64950000D02*
X99017123Y-64950000D01*
X98038000Y-56336000D02*
X96006000Y-54304000D01*
G04 #@! TO.N,GND*
X58160000Y-70560000D02*
X59400300Y-70560000D01*
X70590000Y-80100000D02*
X67949700Y-80100000D01*
X67949700Y-80100000D02*
X59400300Y-71550600D01*
X59400300Y-71550600D02*
X59400300Y-70560000D01*
X93015500Y-80100000D02*
X99964000Y-87048500D01*
X99964000Y-87048500D02*
X100317000Y-87048500D01*
X94090000Y-80100000D02*
X93015500Y-80100000D01*
X92769900Y-80100000D02*
X91449700Y-80100000D01*
X92769900Y-80100000D02*
X93015500Y-80100000D01*
X88530300Y-96950000D02*
X106309700Y-96950000D01*
X106309700Y-96950000D02*
X110059700Y-93200000D01*
X85390000Y-85376200D02*
X86173500Y-85376200D01*
X86173500Y-85376200D02*
X91449700Y-80100000D01*
X84822400Y-85250000D02*
X85263800Y-85250000D01*
X85263800Y-85250000D02*
X85390000Y-85376200D01*
X85390000Y-85376200D02*
X85390000Y-88100000D01*
X82340000Y-85250000D02*
X84822400Y-85250000D01*
X70590000Y-56600000D02*
X67949700Y-56600000D01*
X58160000Y-60400000D02*
X64149700Y-60400000D01*
X64149700Y-60400000D02*
X67949700Y-56600000D01*
X94090000Y-56600000D02*
X91449700Y-56600000D01*
X81080000Y-56800000D02*
X82320300Y-56800000D01*
X82320300Y-56800000D02*
X82320300Y-56334900D01*
X82320300Y-56334900D02*
X83102600Y-55552600D01*
X83102600Y-55552600D02*
X90402300Y-55552600D01*
X90402300Y-55552600D02*
X91449700Y-56600000D01*
X85890000Y-96950000D02*
X88530300Y-96950000D01*
X111300000Y-93200000D02*
X110059700Y-93200000D01*
X70224000Y-80466000D02*
X70590000Y-80100000D01*
X64256000Y-80466000D02*
X70224000Y-80466000D01*
G04 #@! TO.N,PB7*
X106243600Y-98407200D02*
X96074900Y-98407200D01*
X113840000Y-91900300D02*
X113374800Y-91900300D01*
X113374800Y-91900300D02*
X112599700Y-92675400D01*
X112599700Y-92675400D02*
X112599700Y-93679400D01*
X112599700Y-93679400D02*
X111621900Y-94657200D01*
X111621900Y-94657200D02*
X109993600Y-94657200D01*
X109993600Y-94657200D02*
X106243600Y-98407200D01*
X106243600Y-98407200D02*
X106243600Y-123890500D01*
X106243600Y-123890500D02*
X110842700Y-128489600D01*
X110842700Y-128489600D02*
X111890200Y-128489600D01*
X111890200Y-128489600D02*
X112570000Y-129169400D01*
X112570000Y-129169400D02*
X112570000Y-130273700D01*
X112570000Y-130273700D02*
X113326000Y-131029700D01*
X113326000Y-131029700D02*
X113840000Y-131029700D01*
X113840000Y-132270000D02*
X113840000Y-131029700D01*
X113840000Y-90660000D02*
X113840000Y-91900300D01*
G04 #@! TO.N,PB6*
X111300000Y-90660000D02*
X110059700Y-90660000D01*
X110059700Y-90660000D02*
X105016900Y-95702800D01*
X105016900Y-95702800D02*
X102277700Y-95702800D01*
G04 #@! TO.N,PB5*
X113840000Y-88120000D02*
X112599700Y-88120000D01*
X112599700Y-88120000D02*
X112599700Y-88585200D01*
X112599700Y-88585200D02*
X111824600Y-89360300D01*
X111824600Y-89360300D02*
X110379700Y-89360300D01*
X110379700Y-89360300D02*
X105765100Y-93974900D01*
X105765100Y-93974900D02*
X103606600Y-93974900D01*
G04 #@! TO.N,PB4*
X83228600Y-92371400D02*
X77818200Y-92371400D01*
X77818200Y-92371400D02*
X76549800Y-91103000D01*
X110059700Y-88120000D02*
X105808300Y-92371400D01*
X105808300Y-92371400D02*
X83228600Y-92371400D01*
X83228600Y-92371400D02*
X83228600Y-97526800D01*
X83228600Y-97526800D02*
X84901400Y-99199600D01*
X84901400Y-99199600D02*
X99728700Y-99199600D01*
X99728700Y-99199600D02*
X102945400Y-102416300D01*
X102945400Y-102416300D02*
X102945400Y-122615700D01*
X102945400Y-122615700D02*
X110059700Y-129730000D01*
X111300000Y-129730000D02*
X110059700Y-129730000D01*
X111300000Y-88120000D02*
X110059700Y-88120000D01*
G04 #@! TO.N,Net-(BreakOut_EXT1-Pad14)*
X111891000Y-95447500D02*
X106838400Y-100500100D01*
X106838400Y-100500100D02*
X106838400Y-121980000D01*
X106838400Y-121980000D02*
X110778400Y-125920000D01*
X110778400Y-125920000D02*
X111843700Y-125920000D01*
X111843700Y-125920000D02*
X112599700Y-126676000D01*
X112599700Y-126676000D02*
X112599700Y-127190000D01*
X113840000Y-85580000D02*
X113840000Y-86820300D01*
X113840000Y-127190000D02*
X112599700Y-127190000D01*
X113840000Y-86820300D02*
X112863700Y-86820300D01*
X112863700Y-86820300D02*
X112834000Y-86850000D01*
G04 #@! TO.N,PD0*
X103599900Y-90668700D02*
X103317200Y-90951400D01*
X103317200Y-90951400D02*
X77838100Y-90951400D01*
X110059700Y-85580000D02*
X104971000Y-90668700D01*
X104971000Y-90668700D02*
X103599900Y-90668700D01*
X111300000Y-85580000D02*
X110059700Y-85580000D01*
G04 #@! TO.N,Net-(BreakOut_EXT1-Pad12)*
X113840000Y-124650000D02*
X113840000Y-123409700D01*
X113840000Y-83040000D02*
X113840000Y-84280300D01*
X113840000Y-84280300D02*
X114305100Y-84280300D01*
X114305100Y-84280300D02*
X115100700Y-85075900D01*
X115100700Y-85075900D02*
X115100700Y-94949700D01*
X115100700Y-94949700D02*
X112570000Y-97480400D01*
X112570000Y-97480400D02*
X112570000Y-122653700D01*
X112570000Y-122653700D02*
X113326000Y-123409700D01*
X113326000Y-123409700D02*
X113840000Y-123409700D01*
G04 #@! TO.N,Net-(BreakOut_EXT1-Pad11)*
X111300000Y-83040000D02*
X110059700Y-83040000D01*
X110059700Y-83040000D02*
X110059700Y-83386000D01*
X110059700Y-83386000D02*
X107002500Y-86443200D01*
G04 #@! TO.N,PC0*
X58160000Y-62940000D02*
X58160000Y-64180300D01*
X58160000Y-78180000D02*
X58160000Y-76939700D01*
X58160000Y-76939700D02*
X57694900Y-76939700D01*
X57694900Y-76939700D02*
X56912600Y-76157400D01*
X56912600Y-76157400D02*
X56912600Y-64913700D01*
X56912600Y-64913700D02*
X57646000Y-64180300D01*
X57646000Y-64180300D02*
X58160000Y-64180300D01*
X83620000Y-56800000D02*
X77480000Y-62940000D01*
X77480000Y-62940000D02*
X58160000Y-62940000D01*
G04 #@! TO.N,PC1*
X111300000Y-80500000D02*
X111300000Y-81740300D01*
X111300000Y-81740300D02*
X110377900Y-81740300D01*
X110377900Y-81740300D02*
X107438500Y-84679700D01*
X107438500Y-84679700D02*
X99115100Y-84679700D01*
X86160000Y-56800000D02*
X84919700Y-56800000D01*
X84919700Y-56800000D02*
X84919700Y-57265100D01*
X84919700Y-57265100D02*
X76704800Y-65480000D01*
X76704800Y-65480000D02*
X58160000Y-65480000D01*
G04 #@! TO.N,Net-(BreakOut_EXT1-Pad8)*
X113840000Y-77960000D02*
X112599600Y-76719600D01*
X112599600Y-76719600D02*
X112599600Y-74829800D01*
X112599600Y-74829800D02*
X113279400Y-74150000D01*
X113279400Y-74150000D02*
X114385400Y-74150000D01*
X114385400Y-74150000D02*
X116354600Y-76119200D01*
X116354600Y-76119200D02*
X116354600Y-116329100D01*
X116354600Y-116329100D02*
X114354000Y-118329700D01*
X114354000Y-118329700D02*
X113840000Y-118329700D01*
X113840000Y-119570000D02*
X113840000Y-118329700D01*
G04 #@! TO.N,Net-(BreakOut_EXT1-Pad7)*
X111300000Y-77960000D02*
X111300000Y-79200300D01*
X111300000Y-79200300D02*
X110834900Y-79200300D01*
X110834900Y-79200300D02*
X107868500Y-82166700D01*
X107868500Y-82166700D02*
X107868500Y-82903400D01*
G04 #@! TO.N,Net-(BreakOut_EXT1-Pad6)*
X113840000Y-117030000D02*
X113840000Y-115789700D01*
X113840000Y-75420000D02*
X113840000Y-76660300D01*
X113840000Y-76660300D02*
X114305100Y-76660300D01*
X114305100Y-76660300D02*
X115758800Y-78114000D01*
X115758800Y-78114000D02*
X115758800Y-114384900D01*
X115758800Y-114384900D02*
X114354000Y-115789700D01*
X114354000Y-115789700D02*
X113840000Y-115789700D01*
G04 #@! TO.N,Net-(BreakOut_EXT1-Pad4)*
X114886600Y-96281600D02*
X115139600Y-96534600D01*
X115139600Y-96534600D02*
X115139600Y-112464100D01*
X115139600Y-112464100D02*
X114354000Y-113249700D01*
X114354000Y-113249700D02*
X113840000Y-113249700D01*
X113840000Y-114490000D02*
X113840000Y-113249700D01*
G04 #@! TO.N,Net-(BreakOut_EXT1-Pad3)*
X111300000Y-114490000D02*
X110059700Y-114490000D01*
X107788400Y-114909000D02*
X109640700Y-114909000D01*
X109640700Y-114909000D02*
X110059700Y-114490000D01*
G04 #@! TO.N,Net-(BreakOut_EXT1-Pad2)*
X114129900Y-101813900D02*
X113840000Y-102103800D01*
X113840000Y-102103800D02*
X113840000Y-111950000D01*
G04 #@! TO.N,Net-(BreakOut_EXT1-Pad1)*
X111300000Y-70340000D02*
X111300000Y-71580300D01*
X111300000Y-111950000D02*
X111300000Y-110709700D01*
X107628700Y-107119400D02*
X111219000Y-110709700D01*
X111219000Y-110709700D02*
X111300000Y-110709700D01*
X111300000Y-71580300D02*
X110834900Y-71580300D01*
X110834900Y-71580300D02*
X106606600Y-75808600D01*
X106606600Y-75808600D02*
X106606600Y-82150500D01*
G04 #@! TO.N,5V*
X104097500Y-70623700D02*
X96895300Y-77825900D01*
X96895300Y-77825900D02*
X78478500Y-77825900D01*
X66135600Y-90168800D02*
X72892000Y-83412400D01*
X58194800Y-90168800D02*
X66135600Y-90168800D01*
X78478500Y-77825900D02*
X72892000Y-83412400D01*
X72892000Y-83412400D02*
X72688800Y-83615600D01*
G04 #@! TO.N,5V_IN*
X80492900Y-74389100D02*
X67253200Y-87628800D01*
X98857000Y-74389100D02*
X80492900Y-74389100D01*
X112540300Y-55110000D02*
X112540300Y-55575200D01*
X67253200Y-87628800D02*
X58194800Y-87628800D01*
X112540300Y-55575200D02*
X113315400Y-56350300D01*
X115094900Y-58151200D02*
X98857000Y-74389100D01*
X111300000Y-55110000D02*
X112540300Y-55110000D01*
X113315400Y-56350300D02*
X114303600Y-56350300D01*
X114303600Y-56350300D02*
X115094900Y-57141600D01*
X115094900Y-57141600D02*
X115094900Y-58151200D01*
G04 #@! TD*
D19*
G36*
X112639066Y-135817000D02*
X112500934Y-135817000D01*
X112570000Y-135713636D01*
X112639066Y-135817000D01*
X112639066Y-135817000D01*
G37*
X112639066Y-135817000D02*
X112500934Y-135817000D01*
X112570000Y-135713636D01*
X112639066Y-135817000D01*
G36*
X102247881Y-123188144D02*
X102247883Y-123188146D01*
X102297980Y-123263121D01*
X102372955Y-123313218D01*
X109362182Y-130302446D01*
X109412279Y-130377421D01*
X109487254Y-130427518D01*
X109487255Y-130427519D01*
X109531758Y-130457255D01*
X109709318Y-130575897D01*
X109971259Y-130628000D01*
X109971262Y-130628000D01*
X110034660Y-130640610D01*
X110176745Y-130853255D01*
X110396364Y-131000000D01*
X110176745Y-131146745D01*
X109832396Y-131662099D01*
X109711477Y-132270000D01*
X109832396Y-132877901D01*
X110176745Y-133393255D01*
X110396364Y-133540000D01*
X110176745Y-133686745D01*
X109832396Y-134202099D01*
X109711477Y-134810000D01*
X109832396Y-135417901D01*
X110099066Y-135817000D01*
X104385489Y-135817000D01*
X103831202Y-135752377D01*
X103349693Y-135577597D01*
X102921307Y-135296735D01*
X102569027Y-134924860D01*
X102311740Y-134481909D01*
X102160151Y-133981400D01*
X102123000Y-133565131D01*
X102123000Y-123001246D01*
X102247881Y-123188144D01*
X102247881Y-123188144D01*
G37*
X102247881Y-123188144D02*
X102247883Y-123188146D01*
X102297980Y-123263121D01*
X102372955Y-123313218D01*
X109362182Y-130302446D01*
X109412279Y-130377421D01*
X109487254Y-130427518D01*
X109487255Y-130427519D01*
X109531758Y-130457255D01*
X109709318Y-130575897D01*
X109971259Y-130628000D01*
X109971262Y-130628000D01*
X110034660Y-130640610D01*
X110176745Y-130853255D01*
X110396364Y-131000000D01*
X110176745Y-131146745D01*
X109832396Y-131662099D01*
X109711477Y-132270000D01*
X109832396Y-132877901D01*
X110176745Y-133393255D01*
X110396364Y-133540000D01*
X110176745Y-133686745D01*
X109832396Y-134202099D01*
X109711477Y-134810000D01*
X109832396Y-135417901D01*
X110099066Y-135817000D01*
X104385489Y-135817000D01*
X103831202Y-135752377D01*
X103349693Y-135577597D01*
X102921307Y-135296735D01*
X102569027Y-134924860D01*
X102311740Y-134481909D01*
X102160151Y-133981400D01*
X102123000Y-133565131D01*
X102123000Y-123001246D01*
X102247881Y-123188144D01*
G36*
X116057000Y-134544217D02*
X116000416Y-134939330D01*
X115858535Y-135251379D01*
X115634773Y-135511068D01*
X115347122Y-135697513D01*
X115064246Y-135782111D01*
X115307604Y-135417901D01*
X115428523Y-134810000D01*
X115307604Y-134202099D01*
X114963255Y-133686745D01*
X114743636Y-133540000D01*
X114963255Y-133393255D01*
X115307604Y-132877901D01*
X115428523Y-132270000D01*
X115307604Y-131662099D01*
X114963255Y-131146745D01*
X114750611Y-131004661D01*
X114748975Y-130996433D01*
X114963255Y-130853255D01*
X115307604Y-130337901D01*
X115428523Y-129730000D01*
X115307604Y-129122099D01*
X114963255Y-128606745D01*
X114743636Y-128460000D01*
X114963255Y-128313255D01*
X115307604Y-127797901D01*
X115428523Y-127190000D01*
X115307604Y-126582099D01*
X114963255Y-126066745D01*
X114743636Y-125920000D01*
X114963255Y-125773255D01*
X115307604Y-125257901D01*
X115428523Y-124650000D01*
X115307604Y-124042099D01*
X114963255Y-123526745D01*
X114750611Y-123384661D01*
X114748975Y-123376433D01*
X114963255Y-123233255D01*
X115307604Y-122717901D01*
X115428523Y-122110000D01*
X115307604Y-121502099D01*
X114963255Y-120986745D01*
X114743636Y-120840000D01*
X114963255Y-120693255D01*
X115307604Y-120177901D01*
X115428523Y-119570000D01*
X115307604Y-118962099D01*
X115181016Y-118772647D01*
X116057000Y-117896663D01*
X116057000Y-134544217D01*
X116057000Y-134544217D01*
G37*
X116057000Y-134544217D02*
X116000416Y-134939330D01*
X115858535Y-135251379D01*
X115634773Y-135511068D01*
X115347122Y-135697513D01*
X115064246Y-135782111D01*
X115307604Y-135417901D01*
X115428523Y-134810000D01*
X115307604Y-134202099D01*
X114963255Y-133686745D01*
X114743636Y-133540000D01*
X114963255Y-133393255D01*
X115307604Y-132877901D01*
X115428523Y-132270000D01*
X115307604Y-131662099D01*
X114963255Y-131146745D01*
X114750611Y-131004661D01*
X114748975Y-130996433D01*
X114963255Y-130853255D01*
X115307604Y-130337901D01*
X115428523Y-129730000D01*
X115307604Y-129122099D01*
X114963255Y-128606745D01*
X114743636Y-128460000D01*
X114963255Y-128313255D01*
X115307604Y-127797901D01*
X115428523Y-127190000D01*
X115307604Y-126582099D01*
X114963255Y-126066745D01*
X114743636Y-125920000D01*
X114963255Y-125773255D01*
X115307604Y-125257901D01*
X115428523Y-124650000D01*
X115307604Y-124042099D01*
X114963255Y-123526745D01*
X114750611Y-123384661D01*
X114748975Y-123376433D01*
X114963255Y-123233255D01*
X115307604Y-122717901D01*
X115428523Y-122110000D01*
X115307604Y-121502099D01*
X114963255Y-120986745D01*
X114743636Y-120840000D01*
X114963255Y-120693255D01*
X115307604Y-120177901D01*
X115428523Y-119570000D01*
X115307604Y-118962099D01*
X115181016Y-118772647D01*
X116057000Y-117896663D01*
X116057000Y-134544217D01*
G36*
X112716745Y-133393255D02*
X112936364Y-133540000D01*
X112716745Y-133686745D01*
X112570000Y-133906364D01*
X112423255Y-133686745D01*
X112203636Y-133540000D01*
X112423255Y-133393255D01*
X112570000Y-133173636D01*
X112716745Y-133393255D01*
X112716745Y-133393255D01*
G37*
X112716745Y-133393255D02*
X112936364Y-133540000D01*
X112716745Y-133686745D01*
X112570000Y-133906364D01*
X112423255Y-133686745D01*
X112203636Y-133540000D01*
X112423255Y-133393255D01*
X112570000Y-133173636D01*
X112716745Y-133393255D01*
G36*
X110396364Y-115760000D02*
X110176745Y-115906745D01*
X109832396Y-116422099D01*
X109711477Y-117030000D01*
X109832396Y-117637901D01*
X110176745Y-118153255D01*
X110396364Y-118300000D01*
X110176745Y-118446745D01*
X109832396Y-118962099D01*
X109711477Y-119570000D01*
X109832396Y-120177901D01*
X110176745Y-120693255D01*
X110396364Y-120840000D01*
X110176745Y-120986745D01*
X109832396Y-121502099D01*
X109711477Y-122110000D01*
X109832396Y-122717901D01*
X110176745Y-123233255D01*
X110396364Y-123380000D01*
X110176745Y-123526745D01*
X109967806Y-123839443D01*
X107736400Y-121608037D01*
X107736400Y-116017000D01*
X108008795Y-116017000D01*
X108416032Y-115848317D01*
X108457349Y-115807000D01*
X109552264Y-115807000D01*
X109640700Y-115824591D01*
X109729136Y-115807000D01*
X109729141Y-115807000D01*
X109991082Y-115754897D01*
X110189904Y-115622048D01*
X110396364Y-115760000D01*
X110396364Y-115760000D01*
G37*
X110396364Y-115760000D02*
X110176745Y-115906745D01*
X109832396Y-116422099D01*
X109711477Y-117030000D01*
X109832396Y-117637901D01*
X110176745Y-118153255D01*
X110396364Y-118300000D01*
X110176745Y-118446745D01*
X109832396Y-118962099D01*
X109711477Y-119570000D01*
X109832396Y-120177901D01*
X110176745Y-120693255D01*
X110396364Y-120840000D01*
X110176745Y-120986745D01*
X109832396Y-121502099D01*
X109711477Y-122110000D01*
X109832396Y-122717901D01*
X110176745Y-123233255D01*
X110396364Y-123380000D01*
X110176745Y-123526745D01*
X109967806Y-123839443D01*
X107736400Y-121608037D01*
X107736400Y-116017000D01*
X108008795Y-116017000D01*
X108416032Y-115848317D01*
X108457349Y-115807000D01*
X109552264Y-115807000D01*
X109640700Y-115824591D01*
X109729136Y-115807000D01*
X109729141Y-115807000D01*
X109991082Y-115754897D01*
X110189904Y-115622048D01*
X110396364Y-115760000D01*
G36*
X105345601Y-123745938D02*
X103843400Y-122243737D01*
X103843400Y-102504738D01*
X103860991Y-102416300D01*
X103843400Y-102327860D01*
X103843400Y-102327859D01*
X103791297Y-102065918D01*
X103708657Y-101942239D01*
X103642919Y-101843855D01*
X103642918Y-101843854D01*
X103592821Y-101768879D01*
X103517847Y-101718783D01*
X101104263Y-99305200D01*
X105345600Y-99305200D01*
X105345601Y-123745938D01*
X105345601Y-123745938D01*
G37*
X105345601Y-123745938D02*
X103843400Y-122243737D01*
X103843400Y-102504738D01*
X103860991Y-102416300D01*
X103843400Y-102327860D01*
X103843400Y-102327859D01*
X103791297Y-102065918D01*
X103708657Y-101942239D01*
X103642919Y-101843855D01*
X103642918Y-101843854D01*
X103592821Y-101768879D01*
X103517847Y-101718783D01*
X101104263Y-99305200D01*
X105345600Y-99305200D01*
X105345601Y-123745938D01*
G36*
X115456601Y-115957135D02*
X115181045Y-116232691D01*
X115181016Y-116232647D01*
X115456601Y-115957062D01*
X115456601Y-115957135D01*
X115456601Y-115957135D01*
G37*
X115456601Y-115957135D02*
X115181045Y-116232691D01*
X115181016Y-116232647D01*
X115456601Y-115957062D01*
X115456601Y-115957135D01*
G36*
X109895235Y-110655899D02*
X109783079Y-110823752D01*
X109728130Y-111100000D01*
X109728130Y-112800000D01*
X109783079Y-113076248D01*
X109939561Y-113310439D01*
X110129546Y-113437383D01*
X110034660Y-113579389D01*
X109971263Y-113592000D01*
X109971259Y-113592000D01*
X109709318Y-113644103D01*
X109412279Y-113842579D01*
X109362179Y-113917559D01*
X109268738Y-114011000D01*
X108457349Y-114011000D01*
X108416032Y-113969683D01*
X108008795Y-113801000D01*
X107736400Y-113801000D01*
X107736400Y-108497063D01*
X109895235Y-110655899D01*
X109895235Y-110655899D01*
G37*
X109895235Y-110655899D02*
X109783079Y-110823752D01*
X109728130Y-111100000D01*
X109728130Y-112800000D01*
X109783079Y-113076248D01*
X109939561Y-113310439D01*
X110129546Y-113437383D01*
X110034660Y-113579389D01*
X109971263Y-113592000D01*
X109971259Y-113592000D01*
X109709318Y-113644103D01*
X109412279Y-113842579D01*
X109362179Y-113917559D01*
X109268738Y-114011000D01*
X108457349Y-114011000D01*
X108416032Y-113969683D01*
X108008795Y-113801000D01*
X107736400Y-113801000D01*
X107736400Y-108497063D01*
X109895235Y-110655899D01*
G36*
X111997557Y-96782880D02*
X111922579Y-96832979D01*
X111724103Y-97130019D01*
X111672000Y-97391960D01*
X111672000Y-97391964D01*
X111654409Y-97480400D01*
X111672000Y-97568836D01*
X111672000Y-109878248D01*
X111650382Y-109863803D01*
X111641251Y-109861987D01*
X108736700Y-106957437D01*
X108736700Y-106899005D01*
X108568017Y-106491768D01*
X108256332Y-106180083D01*
X107849095Y-106011400D01*
X107736400Y-106011400D01*
X107736400Y-100872063D01*
X112052963Y-96555500D01*
X112111395Y-96555500D01*
X112305223Y-96475214D01*
X111997557Y-96782880D01*
X111997557Y-96782880D01*
G37*
X111997557Y-96782880D02*
X111922579Y-96832979D01*
X111724103Y-97130019D01*
X111672000Y-97391960D01*
X111672000Y-97391964D01*
X111654409Y-97480400D01*
X111672000Y-97568836D01*
X111672000Y-109878248D01*
X111650382Y-109863803D01*
X111641251Y-109861987D01*
X108736700Y-106957437D01*
X108736700Y-106899005D01*
X108568017Y-106491768D01*
X108256332Y-106180083D01*
X107849095Y-106011400D01*
X107736400Y-106011400D01*
X107736400Y-100872063D01*
X112052963Y-96555500D01*
X112111395Y-96555500D01*
X112305223Y-96475214D01*
X111997557Y-96782880D01*
G36*
X114241600Y-97203549D02*
X114241600Y-100705900D01*
X113909505Y-100705900D01*
X113502268Y-100874583D01*
X113468000Y-100908851D01*
X113468000Y-97852363D01*
X114179207Y-97141156D01*
X114241600Y-97203549D01*
X114241600Y-97203549D01*
G37*
X114241600Y-97203549D02*
X114241600Y-100705900D01*
X113909505Y-100705900D01*
X113502268Y-100874583D01*
X113468000Y-100908851D01*
X113468000Y-97852363D01*
X114179207Y-97141156D01*
X114241600Y-97203549D01*
G36*
X107141600Y-98926937D02*
X107141600Y-98779163D01*
X110365564Y-95555200D01*
X110513337Y-95555200D01*
X107141600Y-98926937D01*
X107141600Y-98926937D01*
G37*
X107141600Y-98926937D02*
X107141600Y-98779163D01*
X110365564Y-95555200D01*
X110513337Y-95555200D01*
X107141600Y-98926937D01*
G36*
X91272718Y-79219612D02*
X91099318Y-79254103D01*
X90877255Y-79402481D01*
X90877254Y-79402482D01*
X90802279Y-79452579D01*
X90752182Y-79527554D01*
X85801537Y-84478200D01*
X85725076Y-84478200D01*
X85614182Y-84404103D01*
X85352241Y-84352000D01*
X85352236Y-84352000D01*
X85263800Y-84334409D01*
X85175364Y-84352000D01*
X85054304Y-84352000D01*
X84807447Y-83982553D01*
X84225937Y-83594000D01*
X83713147Y-83492000D01*
X80966853Y-83492000D01*
X80454063Y-83594000D01*
X79872553Y-83982553D01*
X79484000Y-84564063D01*
X79347559Y-85250000D01*
X79484000Y-85935937D01*
X79872553Y-86517447D01*
X80454063Y-86906000D01*
X80966853Y-87008000D01*
X83668878Y-87008000D01*
X83382000Y-87700584D01*
X83382000Y-88499416D01*
X83687700Y-89237441D01*
X84252559Y-89802300D01*
X84858768Y-90053400D01*
X78507049Y-90053400D01*
X78465732Y-90012083D01*
X78058495Y-89843400D01*
X77617705Y-89843400D01*
X77210468Y-90012083D01*
X77093595Y-90128956D01*
X76770195Y-89995000D01*
X76329405Y-89995000D01*
X75922168Y-90163683D01*
X75610483Y-90475368D01*
X75441800Y-90882605D01*
X75441800Y-91323395D01*
X75610483Y-91730632D01*
X75922168Y-92042317D01*
X76329405Y-92211000D01*
X76387837Y-92211000D01*
X77120680Y-92943843D01*
X77170779Y-93018821D01*
X77467818Y-93217297D01*
X77573479Y-93238314D01*
X77382000Y-93700584D01*
X77382000Y-94499416D01*
X77668878Y-95192000D01*
X77466853Y-95192000D01*
X76954063Y-95294000D01*
X76372553Y-95682553D01*
X75984000Y-96264063D01*
X75847559Y-96950000D01*
X75984000Y-97635937D01*
X76372553Y-98217447D01*
X76954063Y-98606000D01*
X77466853Y-98708000D01*
X80213147Y-98708000D01*
X80725937Y-98606000D01*
X81307447Y-98217447D01*
X81696000Y-97635937D01*
X81832441Y-96950000D01*
X81696000Y-96264063D01*
X81307447Y-95682553D01*
X80911651Y-95418090D01*
X81092300Y-95237441D01*
X81398000Y-94499416D01*
X81398000Y-93700584D01*
X81219398Y-93269400D01*
X82330600Y-93269400D01*
X82330601Y-97438359D01*
X82313009Y-97526800D01*
X82382704Y-97877182D01*
X82531081Y-98099244D01*
X82531083Y-98099246D01*
X82581180Y-98174221D01*
X82656155Y-98224318D01*
X83248837Y-98817000D01*
X59385489Y-98817000D01*
X58831202Y-98752377D01*
X58349693Y-98577597D01*
X57921307Y-98296735D01*
X57569027Y-97924860D01*
X57311740Y-97481909D01*
X57160151Y-96981400D01*
X57123000Y-96565131D01*
X57123000Y-96406436D01*
X57586899Y-96716404D01*
X58041350Y-96806800D01*
X58348250Y-96806800D01*
X58802701Y-96716404D01*
X59318055Y-96372055D01*
X59662404Y-95856701D01*
X59783323Y-95248800D01*
X59662404Y-94640899D01*
X59514537Y-94419600D01*
X70902251Y-94419600D01*
X70943568Y-94460917D01*
X71350805Y-94629600D01*
X71791595Y-94629600D01*
X72198832Y-94460917D01*
X72510517Y-94149232D01*
X72679200Y-93741995D01*
X72679200Y-93301205D01*
X72510517Y-92893968D01*
X72198832Y-92582283D01*
X71791595Y-92413600D01*
X71350805Y-92413600D01*
X70943568Y-92582283D01*
X70902251Y-92623600D01*
X59766376Y-92623600D01*
X59662404Y-92100899D01*
X59318055Y-91585545D01*
X59098436Y-91438800D01*
X59318055Y-91292055D01*
X59468566Y-91066800D01*
X66047164Y-91066800D01*
X66135600Y-91084391D01*
X66224036Y-91066800D01*
X66224041Y-91066800D01*
X66485982Y-91014697D01*
X66783021Y-90816221D01*
X66833120Y-90741243D01*
X73589519Y-83984845D01*
X73589521Y-83984842D01*
X78850464Y-78723900D01*
X91603942Y-78723900D01*
X91272718Y-79219612D01*
X91272718Y-79219612D01*
G37*
X91272718Y-79219612D02*
X91099318Y-79254103D01*
X90877255Y-79402481D01*
X90877254Y-79402482D01*
X90802279Y-79452579D01*
X90752182Y-79527554D01*
X85801537Y-84478200D01*
X85725076Y-84478200D01*
X85614182Y-84404103D01*
X85352241Y-84352000D01*
X85352236Y-84352000D01*
X85263800Y-84334409D01*
X85175364Y-84352000D01*
X85054304Y-84352000D01*
X84807447Y-83982553D01*
X84225937Y-83594000D01*
X83713147Y-83492000D01*
X80966853Y-83492000D01*
X80454063Y-83594000D01*
X79872553Y-83982553D01*
X79484000Y-84564063D01*
X79347559Y-85250000D01*
X79484000Y-85935937D01*
X79872553Y-86517447D01*
X80454063Y-86906000D01*
X80966853Y-87008000D01*
X83668878Y-87008000D01*
X83382000Y-87700584D01*
X83382000Y-88499416D01*
X83687700Y-89237441D01*
X84252559Y-89802300D01*
X84858768Y-90053400D01*
X78507049Y-90053400D01*
X78465732Y-90012083D01*
X78058495Y-89843400D01*
X77617705Y-89843400D01*
X77210468Y-90012083D01*
X77093595Y-90128956D01*
X76770195Y-89995000D01*
X76329405Y-89995000D01*
X75922168Y-90163683D01*
X75610483Y-90475368D01*
X75441800Y-90882605D01*
X75441800Y-91323395D01*
X75610483Y-91730632D01*
X75922168Y-92042317D01*
X76329405Y-92211000D01*
X76387837Y-92211000D01*
X77120680Y-92943843D01*
X77170779Y-93018821D01*
X77467818Y-93217297D01*
X77573479Y-93238314D01*
X77382000Y-93700584D01*
X77382000Y-94499416D01*
X77668878Y-95192000D01*
X77466853Y-95192000D01*
X76954063Y-95294000D01*
X76372553Y-95682553D01*
X75984000Y-96264063D01*
X75847559Y-96950000D01*
X75984000Y-97635937D01*
X76372553Y-98217447D01*
X76954063Y-98606000D01*
X77466853Y-98708000D01*
X80213147Y-98708000D01*
X80725937Y-98606000D01*
X81307447Y-98217447D01*
X81696000Y-97635937D01*
X81832441Y-96950000D01*
X81696000Y-96264063D01*
X81307447Y-95682553D01*
X80911651Y-95418090D01*
X81092300Y-95237441D01*
X81398000Y-94499416D01*
X81398000Y-93700584D01*
X81219398Y-93269400D01*
X82330600Y-93269400D01*
X82330601Y-97438359D01*
X82313009Y-97526800D01*
X82382704Y-97877182D01*
X82531081Y-98099244D01*
X82531083Y-98099246D01*
X82581180Y-98174221D01*
X82656155Y-98224318D01*
X83248837Y-98817000D01*
X59385489Y-98817000D01*
X58831202Y-98752377D01*
X58349693Y-98577597D01*
X57921307Y-98296735D01*
X57569027Y-97924860D01*
X57311740Y-97481909D01*
X57160151Y-96981400D01*
X57123000Y-96565131D01*
X57123000Y-96406436D01*
X57586899Y-96716404D01*
X58041350Y-96806800D01*
X58348250Y-96806800D01*
X58802701Y-96716404D01*
X59318055Y-96372055D01*
X59662404Y-95856701D01*
X59783323Y-95248800D01*
X59662404Y-94640899D01*
X59514537Y-94419600D01*
X70902251Y-94419600D01*
X70943568Y-94460917D01*
X71350805Y-94629600D01*
X71791595Y-94629600D01*
X72198832Y-94460917D01*
X72510517Y-94149232D01*
X72679200Y-93741995D01*
X72679200Y-93301205D01*
X72510517Y-92893968D01*
X72198832Y-92582283D01*
X71791595Y-92413600D01*
X71350805Y-92413600D01*
X70943568Y-92582283D01*
X70902251Y-92623600D01*
X59766376Y-92623600D01*
X59662404Y-92100899D01*
X59318055Y-91585545D01*
X59098436Y-91438800D01*
X59318055Y-91292055D01*
X59468566Y-91066800D01*
X66047164Y-91066800D01*
X66135600Y-91084391D01*
X66224036Y-91066800D01*
X66224041Y-91066800D01*
X66485982Y-91014697D01*
X66783021Y-90816221D01*
X66833120Y-90741243D01*
X73589519Y-83984845D01*
X73589521Y-83984842D01*
X78850464Y-78723900D01*
X91603942Y-78723900D01*
X91272718Y-79219612D01*
G36*
X94966900Y-98186805D02*
X94966900Y-98301600D01*
X88231503Y-98301600D01*
X88357447Y-98217447D01*
X88604304Y-97848000D01*
X95107238Y-97848000D01*
X94966900Y-98186805D01*
X94966900Y-98186805D01*
G37*
X94966900Y-98186805D02*
X94966900Y-98301600D01*
X88231503Y-98301600D01*
X88357447Y-98217447D01*
X88604304Y-97848000D01*
X95107238Y-97848000D01*
X94966900Y-98186805D01*
G36*
X109362182Y-92627554D02*
X105937737Y-96052000D01*
X105937663Y-96052000D01*
X109362328Y-92627336D01*
X109362182Y-92627554D01*
X109362182Y-92627554D01*
G37*
X109362182Y-92627554D02*
X105937737Y-96052000D01*
X105937663Y-96052000D01*
X109362328Y-92627336D01*
X109362182Y-92627554D01*
G36*
X102667283Y-93347268D02*
X102498600Y-93754505D01*
X102498600Y-94195295D01*
X102667283Y-94602532D01*
X102773718Y-94708967D01*
X102498095Y-94594800D01*
X102057305Y-94594800D01*
X101650068Y-94763483D01*
X101338383Y-95075168D01*
X101169700Y-95482405D01*
X101169700Y-95923195D01*
X101223053Y-96052000D01*
X88604304Y-96052000D01*
X88357447Y-95682553D01*
X87775937Y-95294000D01*
X87263147Y-95192000D01*
X84516853Y-95192000D01*
X84126600Y-95269626D01*
X84126600Y-93269400D01*
X102745151Y-93269400D01*
X102667283Y-93347268D01*
X102667283Y-93347268D01*
G37*
X102667283Y-93347268D02*
X102498600Y-93754505D01*
X102498600Y-94195295D01*
X102667283Y-94602532D01*
X102773718Y-94708967D01*
X102498095Y-94594800D01*
X102057305Y-94594800D01*
X101650068Y-94763483D01*
X101338383Y-95075168D01*
X101169700Y-95482405D01*
X101169700Y-95923195D01*
X101223053Y-96052000D01*
X88604304Y-96052000D01*
X88357447Y-95682553D01*
X87775937Y-95294000D01*
X87263147Y-95192000D01*
X84516853Y-95192000D01*
X84126600Y-95269626D01*
X84126600Y-93269400D01*
X102745151Y-93269400D01*
X102667283Y-93347268D01*
G36*
X113232099Y-94667604D02*
X113686550Y-94758000D01*
X113993450Y-94758000D01*
X114029635Y-94750802D01*
X112918714Y-95861723D01*
X112999000Y-95667895D01*
X112999000Y-95227105D01*
X112830317Y-94819868D01*
X112779756Y-94769307D01*
X113021906Y-94527158D01*
X113232099Y-94667604D01*
X113232099Y-94667604D01*
G37*
X113232099Y-94667604D02*
X113686550Y-94758000D01*
X113993450Y-94758000D01*
X114029635Y-94750802D01*
X112918714Y-95861723D01*
X112999000Y-95667895D01*
X112999000Y-95227105D01*
X112830317Y-94819868D01*
X112779756Y-94769307D01*
X113021906Y-94527158D01*
X113232099Y-94667604D01*
G36*
X57291164Y-93978800D02*
X57123000Y-94091164D01*
X57123000Y-93866436D01*
X57291164Y-93978800D01*
X57291164Y-93978800D01*
G37*
X57291164Y-93978800D02*
X57123000Y-94091164D01*
X57123000Y-93866436D01*
X57291164Y-93978800D01*
G36*
X110396364Y-91930000D02*
X110176745Y-92076745D01*
X110034660Y-92289390D01*
X109971262Y-92302000D01*
X109971259Y-92302000D01*
X109709318Y-92354103D01*
X109487255Y-92502481D01*
X109487254Y-92502482D01*
X109487036Y-92502628D01*
X110194527Y-91795137D01*
X110396364Y-91930000D01*
X110396364Y-91930000D01*
G37*
X110396364Y-91930000D02*
X110176745Y-92076745D01*
X110034660Y-92289390D01*
X109971262Y-92302000D01*
X109971259Y-92302000D01*
X109709318Y-92354103D01*
X109487255Y-92502481D01*
X109487254Y-92502482D01*
X109487036Y-92502628D01*
X110194527Y-91795137D01*
X110396364Y-91930000D01*
G36*
X57291164Y-91438800D02*
X57123000Y-91551164D01*
X57123000Y-91326436D01*
X57291164Y-91438800D01*
X57291164Y-91438800D01*
G37*
X57291164Y-91438800D02*
X57123000Y-91551164D01*
X57123000Y-91326436D01*
X57291164Y-91438800D01*
G36*
X105436337Y-91473400D02*
X105383037Y-91473400D01*
X105543666Y-91366071D01*
X105436337Y-91473400D01*
X105436337Y-91473400D01*
G37*
X105436337Y-91473400D02*
X105383037Y-91473400D01*
X105543666Y-91366071D01*
X105436337Y-91473400D01*
G36*
X109362182Y-87547554D02*
X105668371Y-91241366D01*
X105668520Y-91241143D01*
X109362328Y-87547336D01*
X109362182Y-87547554D01*
X109362182Y-87547554D01*
G37*
X109362182Y-87547554D02*
X105668371Y-91241366D01*
X105668520Y-91241143D01*
X109362328Y-87547336D01*
X109362182Y-87547554D01*
G36*
X91748121Y-81691879D02*
X92478481Y-82179890D01*
X93122533Y-82308000D01*
X93953537Y-82308000D01*
X99266482Y-87620946D01*
X99316579Y-87695921D01*
X99391554Y-87746018D01*
X99391555Y-87746019D01*
X99426875Y-87769619D01*
X99560366Y-87858815D01*
X99689368Y-87987817D01*
X100096605Y-88156500D01*
X100537395Y-88156500D01*
X100944632Y-87987817D01*
X101256317Y-87676132D01*
X101425000Y-87268895D01*
X101425000Y-86828105D01*
X101256317Y-86420868D01*
X100944632Y-86109183D01*
X100537395Y-85940500D01*
X100125964Y-85940500D01*
X99773606Y-85588143D01*
X99784049Y-85577700D01*
X106301051Y-85577700D01*
X106063183Y-85815568D01*
X105894500Y-86222805D01*
X105894500Y-86663595D01*
X106063183Y-87070832D01*
X106374868Y-87382517D01*
X106782105Y-87551200D01*
X106818537Y-87551200D01*
X104599037Y-89770700D01*
X104268849Y-89770700D01*
X104227532Y-89729383D01*
X103820295Y-89560700D01*
X103379505Y-89560700D01*
X102972268Y-89729383D01*
X102660583Y-90041068D01*
X102655475Y-90053400D01*
X85921232Y-90053400D01*
X86527441Y-89802300D01*
X87092300Y-89237441D01*
X87398000Y-88499416D01*
X87398000Y-87700584D01*
X87092300Y-86962559D01*
X86527441Y-86397700D01*
X86288000Y-86298520D01*
X86288000Y-86269017D01*
X86523882Y-86222097D01*
X86820921Y-86023621D01*
X86871020Y-85948643D01*
X91499649Y-81320015D01*
X91748121Y-81691879D01*
X91748121Y-81691879D01*
G37*
X91748121Y-81691879D02*
X92478481Y-82179890D01*
X93122533Y-82308000D01*
X93953537Y-82308000D01*
X99266482Y-87620946D01*
X99316579Y-87695921D01*
X99391554Y-87746018D01*
X99391555Y-87746019D01*
X99426875Y-87769619D01*
X99560366Y-87858815D01*
X99689368Y-87987817D01*
X100096605Y-88156500D01*
X100537395Y-88156500D01*
X100944632Y-87987817D01*
X101256317Y-87676132D01*
X101425000Y-87268895D01*
X101425000Y-86828105D01*
X101256317Y-86420868D01*
X100944632Y-86109183D01*
X100537395Y-85940500D01*
X100125964Y-85940500D01*
X99773606Y-85588143D01*
X99784049Y-85577700D01*
X106301051Y-85577700D01*
X106063183Y-85815568D01*
X105894500Y-86222805D01*
X105894500Y-86663595D01*
X106063183Y-87070832D01*
X106374868Y-87382517D01*
X106782105Y-87551200D01*
X106818537Y-87551200D01*
X104599037Y-89770700D01*
X104268849Y-89770700D01*
X104227532Y-89729383D01*
X103820295Y-89560700D01*
X103379505Y-89560700D01*
X102972268Y-89729383D01*
X102660583Y-90041068D01*
X102655475Y-90053400D01*
X85921232Y-90053400D01*
X86527441Y-89802300D01*
X87092300Y-89237441D01*
X87398000Y-88499416D01*
X87398000Y-87700584D01*
X87092300Y-86962559D01*
X86527441Y-86397700D01*
X86288000Y-86298520D01*
X86288000Y-86269017D01*
X86523882Y-86222097D01*
X86820921Y-86023621D01*
X86871020Y-85948643D01*
X91499649Y-81320015D01*
X91748121Y-81691879D01*
G36*
X65763637Y-89270800D02*
X59468566Y-89270800D01*
X59365254Y-89116183D01*
X59555239Y-88989239D01*
X59711721Y-88755048D01*
X59757122Y-88526800D01*
X66507637Y-88526800D01*
X65763637Y-89270800D01*
X65763637Y-89270800D01*
G37*
X65763637Y-89270800D02*
X59468566Y-89270800D01*
X59365254Y-89116183D01*
X59555239Y-88989239D01*
X59711721Y-88755048D01*
X59757122Y-88526800D01*
X66507637Y-88526800D01*
X65763637Y-89270800D01*
G36*
X110396364Y-86850000D02*
X110176745Y-86996745D01*
X110034660Y-87209390D01*
X109971262Y-87222000D01*
X109971259Y-87222000D01*
X109735501Y-87268895D01*
X109709318Y-87274103D01*
X109487255Y-87422481D01*
X109487254Y-87422482D01*
X109487036Y-87422628D01*
X110194527Y-86715137D01*
X110396364Y-86850000D01*
X110396364Y-86850000D01*
G37*
X110396364Y-86850000D02*
X110176745Y-86996745D01*
X110034660Y-87209390D01*
X109971262Y-87222000D01*
X109971259Y-87222000D01*
X109735501Y-87268895D01*
X109709318Y-87274103D01*
X109487255Y-87422481D01*
X109487254Y-87422482D01*
X109487036Y-87422628D01*
X110194527Y-86715137D01*
X110396364Y-86850000D01*
G36*
X66147737Y-79568000D02*
X64924949Y-79568000D01*
X64883632Y-79526683D01*
X64476395Y-79358000D01*
X64035605Y-79358000D01*
X63628368Y-79526683D01*
X63316683Y-79838368D01*
X63148000Y-80245605D01*
X63148000Y-80686395D01*
X63316683Y-81093632D01*
X63628368Y-81405317D01*
X64035605Y-81574000D01*
X64476395Y-81574000D01*
X64883632Y-81405317D01*
X64924949Y-81364000D01*
X68029039Y-81364000D01*
X68248121Y-81691879D01*
X68978481Y-82179890D01*
X69622533Y-82308000D01*
X71304037Y-82308000D01*
X66881237Y-86730800D01*
X59757122Y-86730800D01*
X59711721Y-86502552D01*
X59555239Y-86268361D01*
X59321048Y-86111879D01*
X59044800Y-86056930D01*
X57344800Y-86056930D01*
X57123000Y-86101049D01*
X57123000Y-79360889D01*
X57552099Y-79647604D01*
X58006550Y-79738000D01*
X58313450Y-79738000D01*
X58767901Y-79647604D01*
X59283255Y-79303255D01*
X59627604Y-78787901D01*
X59748523Y-78180000D01*
X59627604Y-77572099D01*
X59283255Y-77056745D01*
X59070611Y-76914661D01*
X59068975Y-76906433D01*
X59283255Y-76763255D01*
X59627604Y-76247901D01*
X59748523Y-75640000D01*
X59627604Y-75032099D01*
X59283255Y-74516745D01*
X59063636Y-74370000D01*
X59283255Y-74223255D01*
X59627604Y-73707901D01*
X59737111Y-73157374D01*
X66147737Y-79568000D01*
X66147737Y-79568000D01*
G37*
X66147737Y-79568000D02*
X64924949Y-79568000D01*
X64883632Y-79526683D01*
X64476395Y-79358000D01*
X64035605Y-79358000D01*
X63628368Y-79526683D01*
X63316683Y-79838368D01*
X63148000Y-80245605D01*
X63148000Y-80686395D01*
X63316683Y-81093632D01*
X63628368Y-81405317D01*
X64035605Y-81574000D01*
X64476395Y-81574000D01*
X64883632Y-81405317D01*
X64924949Y-81364000D01*
X68029039Y-81364000D01*
X68248121Y-81691879D01*
X68978481Y-82179890D01*
X69622533Y-82308000D01*
X71304037Y-82308000D01*
X66881237Y-86730800D01*
X59757122Y-86730800D01*
X59711721Y-86502552D01*
X59555239Y-86268361D01*
X59321048Y-86111879D01*
X59044800Y-86056930D01*
X57344800Y-86056930D01*
X57123000Y-86101049D01*
X57123000Y-79360889D01*
X57552099Y-79647604D01*
X58006550Y-79738000D01*
X58313450Y-79738000D01*
X58767901Y-79647604D01*
X59283255Y-79303255D01*
X59627604Y-78787901D01*
X59748523Y-78180000D01*
X59627604Y-77572099D01*
X59283255Y-77056745D01*
X59070611Y-76914661D01*
X59068975Y-76906433D01*
X59283255Y-76763255D01*
X59627604Y-76247901D01*
X59748523Y-75640000D01*
X59627604Y-75032099D01*
X59283255Y-74516745D01*
X59063636Y-74370000D01*
X59283255Y-74223255D01*
X59627604Y-73707901D01*
X59737111Y-73157374D01*
X66147737Y-79568000D01*
G36*
X112716745Y-84163255D02*
X112929389Y-84305339D01*
X112931025Y-84313567D01*
X112716745Y-84456745D01*
X112570000Y-84676364D01*
X112423255Y-84456745D01*
X112203636Y-84310000D01*
X112423255Y-84163255D01*
X112570000Y-83943636D01*
X112716745Y-84163255D01*
X112716745Y-84163255D01*
G37*
X112716745Y-84163255D02*
X112929389Y-84305339D01*
X112931025Y-84313567D01*
X112716745Y-84456745D01*
X112570000Y-84676364D01*
X112423255Y-84456745D01*
X112203636Y-84310000D01*
X112423255Y-84163255D01*
X112570000Y-83943636D01*
X112716745Y-84163255D01*
G36*
X115491380Y-54581465D02*
X115751067Y-54805226D01*
X115937513Y-55092878D01*
X116043489Y-55447235D01*
X116057001Y-55629066D01*
X116057000Y-56677113D01*
X116057001Y-56677118D01*
X116057001Y-74551638D01*
X115181697Y-73676334D01*
X115307604Y-73487901D01*
X115428523Y-72880000D01*
X115307604Y-72272099D01*
X114963255Y-71756745D01*
X114743636Y-71610000D01*
X114963255Y-71463255D01*
X115307604Y-70947901D01*
X115428523Y-70340000D01*
X115307604Y-69732099D01*
X114963255Y-69216745D01*
X114447901Y-68872396D01*
X113993450Y-68782000D01*
X113686550Y-68782000D01*
X113232099Y-68872396D01*
X112787383Y-69169546D01*
X112660439Y-68979561D01*
X112426248Y-68823079D01*
X112150000Y-68768130D01*
X110450000Y-68768130D01*
X110173752Y-68823079D01*
X109939561Y-68979561D01*
X109783079Y-69213752D01*
X109728130Y-69490000D01*
X109728130Y-71190000D01*
X109765809Y-71379428D01*
X106034157Y-75111080D01*
X105959179Y-75161179D01*
X105760703Y-75458219D01*
X105708600Y-75720160D01*
X105708600Y-75720164D01*
X105691009Y-75808600D01*
X105708600Y-75897036D01*
X105708601Y-81481550D01*
X105667283Y-81522868D01*
X105498600Y-81930105D01*
X105498600Y-82370895D01*
X105667283Y-82778132D01*
X105978968Y-83089817D01*
X106386205Y-83258500D01*
X106816297Y-83258500D01*
X106929183Y-83531032D01*
X107123194Y-83725043D01*
X107066537Y-83781700D01*
X99784049Y-83781700D01*
X99742732Y-83740383D01*
X99335495Y-83571700D01*
X98894705Y-83571700D01*
X98487468Y-83740383D01*
X98206657Y-84021194D01*
X96099459Y-81913995D01*
X96431879Y-81691879D01*
X96919890Y-80961519D01*
X97091257Y-80100000D01*
X96919890Y-79238481D01*
X96576058Y-78723900D01*
X96806864Y-78723900D01*
X96895300Y-78741491D01*
X96983736Y-78723900D01*
X96983741Y-78723900D01*
X97245682Y-78671797D01*
X97542721Y-78473321D01*
X97592820Y-78398343D01*
X104259464Y-71731700D01*
X104317895Y-71731700D01*
X104725132Y-71563017D01*
X105036817Y-71251332D01*
X105205500Y-70844095D01*
X105205500Y-70403305D01*
X105036817Y-69996068D01*
X104778406Y-69737657D01*
X115667343Y-58848720D01*
X115742321Y-58798621D01*
X115940797Y-58501582D01*
X115992900Y-58239641D01*
X115992900Y-58239637D01*
X116010491Y-58151201D01*
X115992900Y-58062765D01*
X115992900Y-57230035D01*
X116010491Y-57141599D01*
X115992900Y-57053163D01*
X115992900Y-57053159D01*
X115940797Y-56791218D01*
X115742321Y-56494179D01*
X115667344Y-56444081D01*
X115160829Y-55937566D01*
X115307604Y-55717901D01*
X115428523Y-55110000D01*
X115307604Y-54502099D01*
X115303581Y-54496079D01*
X115491380Y-54581465D01*
X115491380Y-54581465D01*
G37*
X115491380Y-54581465D02*
X115751067Y-54805226D01*
X115937513Y-55092878D01*
X116043489Y-55447235D01*
X116057001Y-55629066D01*
X116057000Y-56677113D01*
X116057001Y-56677118D01*
X116057001Y-74551638D01*
X115181697Y-73676334D01*
X115307604Y-73487901D01*
X115428523Y-72880000D01*
X115307604Y-72272099D01*
X114963255Y-71756745D01*
X114743636Y-71610000D01*
X114963255Y-71463255D01*
X115307604Y-70947901D01*
X115428523Y-70340000D01*
X115307604Y-69732099D01*
X114963255Y-69216745D01*
X114447901Y-68872396D01*
X113993450Y-68782000D01*
X113686550Y-68782000D01*
X113232099Y-68872396D01*
X112787383Y-69169546D01*
X112660439Y-68979561D01*
X112426248Y-68823079D01*
X112150000Y-68768130D01*
X110450000Y-68768130D01*
X110173752Y-68823079D01*
X109939561Y-68979561D01*
X109783079Y-69213752D01*
X109728130Y-69490000D01*
X109728130Y-71190000D01*
X109765809Y-71379428D01*
X106034157Y-75111080D01*
X105959179Y-75161179D01*
X105760703Y-75458219D01*
X105708600Y-75720160D01*
X105708600Y-75720164D01*
X105691009Y-75808600D01*
X105708600Y-75897036D01*
X105708601Y-81481550D01*
X105667283Y-81522868D01*
X105498600Y-81930105D01*
X105498600Y-82370895D01*
X105667283Y-82778132D01*
X105978968Y-83089817D01*
X106386205Y-83258500D01*
X106816297Y-83258500D01*
X106929183Y-83531032D01*
X107123194Y-83725043D01*
X107066537Y-83781700D01*
X99784049Y-83781700D01*
X99742732Y-83740383D01*
X99335495Y-83571700D01*
X98894705Y-83571700D01*
X98487468Y-83740383D01*
X98206657Y-84021194D01*
X96099459Y-81913995D01*
X96431879Y-81691879D01*
X96919890Y-80961519D01*
X97091257Y-80100000D01*
X96919890Y-79238481D01*
X96576058Y-78723900D01*
X96806864Y-78723900D01*
X96895300Y-78741491D01*
X96983736Y-78723900D01*
X96983741Y-78723900D01*
X97245682Y-78671797D01*
X97542721Y-78473321D01*
X97592820Y-78398343D01*
X104259464Y-71731700D01*
X104317895Y-71731700D01*
X104725132Y-71563017D01*
X105036817Y-71251332D01*
X105205500Y-70844095D01*
X105205500Y-70403305D01*
X105036817Y-69996068D01*
X104778406Y-69737657D01*
X115667343Y-58848720D01*
X115742321Y-58798621D01*
X115940797Y-58501582D01*
X115992900Y-58239641D01*
X115992900Y-58239637D01*
X116010491Y-58151201D01*
X115992900Y-58062765D01*
X115992900Y-57230035D01*
X116010491Y-57141599D01*
X115992900Y-57053163D01*
X115992900Y-57053159D01*
X115940797Y-56791218D01*
X115742321Y-56494179D01*
X115667344Y-56444081D01*
X115160829Y-55937566D01*
X115307604Y-55717901D01*
X115428523Y-55110000D01*
X115307604Y-54502099D01*
X115303581Y-54496079D01*
X115491380Y-54581465D01*
G36*
X112716745Y-81623255D02*
X112936364Y-81770000D01*
X112716745Y-81916745D01*
X112570000Y-82136364D01*
X112423255Y-81916745D01*
X112208975Y-81773567D01*
X112210611Y-81765339D01*
X112423255Y-81623255D01*
X112570000Y-81403636D01*
X112716745Y-81623255D01*
X112716745Y-81623255D01*
G37*
X112716745Y-81623255D02*
X112936364Y-81770000D01*
X112716745Y-81916745D01*
X112570000Y-82136364D01*
X112423255Y-81916745D01*
X112208975Y-81773567D01*
X112210611Y-81765339D01*
X112423255Y-81623255D01*
X112570000Y-81403636D01*
X112716745Y-81623255D01*
G36*
X114860800Y-81848287D02*
X114743636Y-81770000D01*
X114860800Y-81691713D01*
X114860800Y-81848287D01*
X114860800Y-81848287D01*
G37*
X114860800Y-81848287D02*
X114743636Y-81770000D01*
X114860800Y-81691713D01*
X114860800Y-81848287D01*
G36*
X110176745Y-74003255D02*
X110396364Y-74150000D01*
X110176745Y-74296745D01*
X109832396Y-74812099D01*
X109711477Y-75420000D01*
X109832396Y-76027901D01*
X110176745Y-76543255D01*
X110396364Y-76690000D01*
X110176745Y-76836745D01*
X109832396Y-77352099D01*
X109711477Y-77960000D01*
X109832396Y-78567901D01*
X109978570Y-78786666D01*
X107504600Y-81260637D01*
X107504600Y-76180563D01*
X109978541Y-73706622D01*
X110176745Y-74003255D01*
X110176745Y-74003255D01*
G37*
X110176745Y-74003255D02*
X110396364Y-74150000D01*
X110176745Y-74296745D01*
X109832396Y-74812099D01*
X109711477Y-75420000D01*
X109832396Y-76027901D01*
X110176745Y-76543255D01*
X110396364Y-76690000D01*
X110176745Y-76836745D01*
X109832396Y-77352099D01*
X109711477Y-77960000D01*
X109832396Y-78567901D01*
X109978570Y-78786666D01*
X107504600Y-81260637D01*
X107504600Y-76180563D01*
X109978541Y-73706622D01*
X110176745Y-74003255D01*
G36*
X90752180Y-57172443D02*
X90802279Y-57247421D01*
X91099318Y-57445897D01*
X91272718Y-57480388D01*
X91748121Y-58191879D01*
X92478481Y-58679890D01*
X93122533Y-58808000D01*
X95057467Y-58808000D01*
X95701519Y-58679890D01*
X96431879Y-58191879D01*
X96919890Y-57461519D01*
X97081432Y-56649395D01*
X97140001Y-56707965D01*
X97140000Y-63882441D01*
X97122409Y-63970877D01*
X97140000Y-64059313D01*
X97140000Y-64059317D01*
X97192103Y-64321258D01*
X97390579Y-64618298D01*
X97465556Y-64668397D01*
X98319605Y-65522446D01*
X98369702Y-65597421D01*
X98444677Y-65647518D01*
X98444678Y-65647519D01*
X98568065Y-65729963D01*
X98666741Y-65795897D01*
X98928682Y-65848000D01*
X98928686Y-65848000D01*
X99017122Y-65865591D01*
X99105558Y-65848000D01*
X101497705Y-65848000D01*
X101548079Y-66101248D01*
X101704561Y-66335439D01*
X101938752Y-66491921D01*
X102215000Y-66546870D01*
X103965000Y-66546870D01*
X104241248Y-66491921D01*
X104475439Y-66335439D01*
X104631921Y-66101248D01*
X104686870Y-65825000D01*
X104686870Y-65797590D01*
X104695382Y-65795897D01*
X104992421Y-65597421D01*
X105042520Y-65522443D01*
X107580863Y-62984100D01*
X108540264Y-62984100D01*
X108628700Y-63001691D01*
X108717136Y-62984100D01*
X108717141Y-62984100D01*
X108979082Y-62931997D01*
X109175147Y-62800990D01*
X98485037Y-73491100D01*
X80581335Y-73491100D01*
X80492899Y-73473509D01*
X80404463Y-73491100D01*
X80404459Y-73491100D01*
X80142518Y-73543203D01*
X79845479Y-73741679D01*
X79795381Y-73816656D01*
X73578114Y-80033923D01*
X73419890Y-79238481D01*
X72931879Y-78508121D01*
X72201519Y-78020110D01*
X71557467Y-77892000D01*
X69622533Y-77892000D01*
X68978481Y-78020110D01*
X68248121Y-78508121D01*
X67999649Y-78879986D01*
X60298300Y-71178637D01*
X60298300Y-70648441D01*
X60315892Y-70560000D01*
X60246197Y-70209618D01*
X60047721Y-69912579D01*
X59750682Y-69714103D01*
X59731870Y-69710361D01*
X59731870Y-69710000D01*
X59676921Y-69433752D01*
X59520439Y-69199561D01*
X59286248Y-69043079D01*
X59010000Y-68988130D01*
X57810600Y-68988130D01*
X57810600Y-66999023D01*
X58006550Y-67038000D01*
X58313450Y-67038000D01*
X58767901Y-66947604D01*
X59283255Y-66603255D01*
X59433766Y-66378000D01*
X76616364Y-66378000D01*
X76704800Y-66395591D01*
X76793236Y-66378000D01*
X76793241Y-66378000D01*
X77055182Y-66325897D01*
X77352221Y-66127421D01*
X77402320Y-66052443D01*
X85333334Y-58121430D01*
X85552099Y-58267604D01*
X86006550Y-58358000D01*
X86313450Y-58358000D01*
X86767901Y-58267604D01*
X87283255Y-57923255D01*
X87627604Y-57407901D01*
X87748523Y-56800000D01*
X87679023Y-56450600D01*
X90030337Y-56450600D01*
X90752180Y-57172443D01*
X90752180Y-57172443D01*
G37*
X90752180Y-57172443D02*
X90802279Y-57247421D01*
X91099318Y-57445897D01*
X91272718Y-57480388D01*
X91748121Y-58191879D01*
X92478481Y-58679890D01*
X93122533Y-58808000D01*
X95057467Y-58808000D01*
X95701519Y-58679890D01*
X96431879Y-58191879D01*
X96919890Y-57461519D01*
X97081432Y-56649395D01*
X97140001Y-56707965D01*
X97140000Y-63882441D01*
X97122409Y-63970877D01*
X97140000Y-64059313D01*
X97140000Y-64059317D01*
X97192103Y-64321258D01*
X97390579Y-64618298D01*
X97465556Y-64668397D01*
X98319605Y-65522446D01*
X98369702Y-65597421D01*
X98444677Y-65647518D01*
X98444678Y-65647519D01*
X98568065Y-65729963D01*
X98666741Y-65795897D01*
X98928682Y-65848000D01*
X98928686Y-65848000D01*
X99017122Y-65865591D01*
X99105558Y-65848000D01*
X101497705Y-65848000D01*
X101548079Y-66101248D01*
X101704561Y-66335439D01*
X101938752Y-66491921D01*
X102215000Y-66546870D01*
X103965000Y-66546870D01*
X104241248Y-66491921D01*
X104475439Y-66335439D01*
X104631921Y-66101248D01*
X104686870Y-65825000D01*
X104686870Y-65797590D01*
X104695382Y-65795897D01*
X104992421Y-65597421D01*
X105042520Y-65522443D01*
X107580863Y-62984100D01*
X108540264Y-62984100D01*
X108628700Y-63001691D01*
X108717136Y-62984100D01*
X108717141Y-62984100D01*
X108979082Y-62931997D01*
X109175147Y-62800990D01*
X98485037Y-73491100D01*
X80581335Y-73491100D01*
X80492899Y-73473509D01*
X80404463Y-73491100D01*
X80404459Y-73491100D01*
X80142518Y-73543203D01*
X79845479Y-73741679D01*
X79795381Y-73816656D01*
X73578114Y-80033923D01*
X73419890Y-79238481D01*
X72931879Y-78508121D01*
X72201519Y-78020110D01*
X71557467Y-77892000D01*
X69622533Y-77892000D01*
X68978481Y-78020110D01*
X68248121Y-78508121D01*
X67999649Y-78879986D01*
X60298300Y-71178637D01*
X60298300Y-70648441D01*
X60315892Y-70560000D01*
X60246197Y-70209618D01*
X60047721Y-69912579D01*
X59750682Y-69714103D01*
X59731870Y-69710361D01*
X59731870Y-69710000D01*
X59676921Y-69433752D01*
X59520439Y-69199561D01*
X59286248Y-69043079D01*
X59010000Y-68988130D01*
X57810600Y-68988130D01*
X57810600Y-66999023D01*
X58006550Y-67038000D01*
X58313450Y-67038000D01*
X58767901Y-66947604D01*
X59283255Y-66603255D01*
X59433766Y-66378000D01*
X76616364Y-66378000D01*
X76704800Y-66395591D01*
X76793236Y-66378000D01*
X76793241Y-66378000D01*
X77055182Y-66325897D01*
X77352221Y-66127421D01*
X77402320Y-66052443D01*
X85333334Y-58121430D01*
X85552099Y-58267604D01*
X86006550Y-58358000D01*
X86313450Y-58358000D01*
X86767901Y-58267604D01*
X87283255Y-57923255D01*
X87627604Y-57407901D01*
X87748523Y-56800000D01*
X87679023Y-56450600D01*
X90030337Y-56450600D01*
X90752180Y-57172443D01*
G36*
X112716745Y-79083255D02*
X112936364Y-79230000D01*
X112716745Y-79376745D01*
X112570000Y-79596364D01*
X112423255Y-79376745D01*
X112208975Y-79233567D01*
X112210611Y-79225339D01*
X112423255Y-79083255D01*
X112570000Y-78863636D01*
X112716745Y-79083255D01*
X112716745Y-79083255D01*
G37*
X112716745Y-79083255D02*
X112936364Y-79230000D01*
X112716745Y-79376745D01*
X112570000Y-79596364D01*
X112423255Y-79376745D01*
X112208975Y-79233567D01*
X112210611Y-79225339D01*
X112423255Y-79083255D01*
X112570000Y-78863636D01*
X112716745Y-79083255D01*
G36*
X114860800Y-79308287D02*
X114743636Y-79230000D01*
X114860800Y-79151713D01*
X114860800Y-79308287D01*
X114860800Y-79308287D01*
G37*
X114860800Y-79308287D02*
X114743636Y-79230000D01*
X114860800Y-79151713D01*
X114860800Y-79308287D01*
G36*
X96523337Y-76927900D02*
X79224063Y-76927900D01*
X80864863Y-75287100D01*
X98164137Y-75287100D01*
X96523337Y-76927900D01*
X96523337Y-76927900D01*
G37*
X96523337Y-76927900D02*
X79224063Y-76927900D01*
X80864863Y-75287100D01*
X98164137Y-75287100D01*
X96523337Y-76927900D01*
G36*
X115456600Y-76491163D02*
X115456600Y-76541837D01*
X115161429Y-76246666D01*
X115181727Y-76216290D01*
X115456600Y-76491163D01*
X115456600Y-76491163D01*
G37*
X115456600Y-76491163D02*
X115456600Y-76541837D01*
X115161429Y-76246666D01*
X115181727Y-76216290D01*
X115456600Y-76491163D01*
G36*
X112936364Y-71610000D02*
X112716745Y-71756745D01*
X112570000Y-71976364D01*
X112470454Y-71827383D01*
X112660439Y-71700439D01*
X112787383Y-71510454D01*
X112936364Y-71610000D01*
X112936364Y-71610000D01*
G37*
X112936364Y-71610000D02*
X112716745Y-71756745D01*
X112570000Y-71976364D01*
X112470454Y-71827383D01*
X112660439Y-71700439D01*
X112787383Y-71510454D01*
X112936364Y-71610000D01*
G36*
X76332837Y-64582000D02*
X59433766Y-64582000D01*
X59283255Y-64356745D01*
X59068975Y-64213567D01*
X59070611Y-64205339D01*
X59283255Y-64063255D01*
X59433766Y-63838000D01*
X77076837Y-63838000D01*
X76332837Y-64582000D01*
X76332837Y-64582000D01*
G37*
X76332837Y-64582000D02*
X59433766Y-64582000D01*
X59283255Y-64356745D01*
X59068975Y-64213567D01*
X59070611Y-64205339D01*
X59283255Y-64063255D01*
X59433766Y-63838000D01*
X77076837Y-63838000D01*
X76332837Y-64582000D01*
G36*
X109728130Y-55960000D02*
X109783079Y-56236248D01*
X109939561Y-56470439D01*
X110129546Y-56597383D01*
X109832396Y-57042099D01*
X109711477Y-57650000D01*
X109832396Y-58257901D01*
X110176745Y-58773255D01*
X110473378Y-58971459D01*
X108256737Y-61188100D01*
X107297335Y-61188100D01*
X107208899Y-61170509D01*
X107120463Y-61188100D01*
X107120459Y-61188100D01*
X106858518Y-61240203D01*
X106561479Y-61438679D01*
X106511381Y-61513656D01*
X104466469Y-63558568D01*
X104318802Y-63459899D01*
X104432003Y-63346698D01*
X104673000Y-62764878D01*
X104673000Y-62135122D01*
X104432003Y-61553302D01*
X103986698Y-61107997D01*
X103404878Y-60867000D01*
X102775122Y-60867000D01*
X102193302Y-61107997D01*
X101747997Y-61553302D01*
X101507000Y-62135122D01*
X101507000Y-62764878D01*
X101747997Y-63346698D01*
X101861198Y-63459899D01*
X101704561Y-63564561D01*
X101548079Y-63798752D01*
X101497705Y-64052000D01*
X99389087Y-64052000D01*
X98936000Y-63598914D01*
X98936000Y-56424438D01*
X98953591Y-56336000D01*
X98936000Y-56247562D01*
X98936000Y-56247559D01*
X98883897Y-55985618D01*
X98860098Y-55950000D01*
X98735519Y-55763555D01*
X98735518Y-55763554D01*
X98685421Y-55688579D01*
X98610446Y-55638482D01*
X97354963Y-54383000D01*
X109728130Y-54383000D01*
X109728130Y-55960000D01*
X109728130Y-55960000D01*
G37*
X109728130Y-55960000D02*
X109783079Y-56236248D01*
X109939561Y-56470439D01*
X110129546Y-56597383D01*
X109832396Y-57042099D01*
X109711477Y-57650000D01*
X109832396Y-58257901D01*
X110176745Y-58773255D01*
X110473378Y-58971459D01*
X108256737Y-61188100D01*
X107297335Y-61188100D01*
X107208899Y-61170509D01*
X107120463Y-61188100D01*
X107120459Y-61188100D01*
X106858518Y-61240203D01*
X106561479Y-61438679D01*
X106511381Y-61513656D01*
X104466469Y-63558568D01*
X104318802Y-63459899D01*
X104432003Y-63346698D01*
X104673000Y-62764878D01*
X104673000Y-62135122D01*
X104432003Y-61553302D01*
X103986698Y-61107997D01*
X103404878Y-60867000D01*
X102775122Y-60867000D01*
X102193302Y-61107997D01*
X101747997Y-61553302D01*
X101507000Y-62135122D01*
X101507000Y-62764878D01*
X101747997Y-63346698D01*
X101861198Y-63459899D01*
X101704561Y-63564561D01*
X101548079Y-63798752D01*
X101497705Y-64052000D01*
X99389087Y-64052000D01*
X98936000Y-63598914D01*
X98936000Y-56424438D01*
X98953591Y-56336000D01*
X98936000Y-56247562D01*
X98936000Y-56247559D01*
X98883897Y-55985618D01*
X98860098Y-55950000D01*
X98735519Y-55763555D01*
X98735518Y-55763554D01*
X98685421Y-55688579D01*
X98610446Y-55638482D01*
X97354963Y-54383000D01*
X109728130Y-54383000D01*
X109728130Y-55960000D01*
G36*
X79579428Y-55265809D02*
X79390000Y-55228130D01*
X77690000Y-55228130D01*
X77413752Y-55283079D01*
X77179561Y-55439561D01*
X77023079Y-55673752D01*
X76968130Y-55950000D01*
X76968130Y-57650000D01*
X77023079Y-57926248D01*
X77179561Y-58160439D01*
X77413752Y-58316921D01*
X77690000Y-58371870D01*
X79390000Y-58371870D01*
X79666248Y-58316921D01*
X79900439Y-58160439D01*
X80027383Y-57970454D01*
X80472099Y-58267604D01*
X80814354Y-58335683D01*
X77108037Y-62042000D01*
X59433766Y-62042000D01*
X59283255Y-61816745D01*
X59063636Y-61670000D01*
X59283255Y-61523255D01*
X59433766Y-61298000D01*
X64061264Y-61298000D01*
X64149700Y-61315591D01*
X64238136Y-61298000D01*
X64238141Y-61298000D01*
X64500082Y-61245897D01*
X64797121Y-61047421D01*
X64847220Y-60972443D01*
X67999649Y-57820015D01*
X68248121Y-58191879D01*
X68978481Y-58679890D01*
X69622533Y-58808000D01*
X71557467Y-58808000D01*
X72201519Y-58679890D01*
X72931879Y-58191879D01*
X73419890Y-57461519D01*
X73591257Y-56600000D01*
X73419890Y-55738481D01*
X72931879Y-55008121D01*
X72201519Y-54520110D01*
X71557467Y-54392000D01*
X69622533Y-54392000D01*
X68978481Y-54520110D01*
X68248121Y-55008121D01*
X67772718Y-55719612D01*
X67599318Y-55754103D01*
X67377255Y-55902481D01*
X67377254Y-55902482D01*
X67302279Y-55952579D01*
X67252182Y-56027554D01*
X63777737Y-59502000D01*
X59433766Y-59502000D01*
X59330454Y-59347383D01*
X59520439Y-59220439D01*
X59676921Y-58986248D01*
X59731870Y-58710000D01*
X59731870Y-57010000D01*
X59676921Y-56733752D01*
X59520439Y-56499561D01*
X59286248Y-56343079D01*
X59010000Y-56288130D01*
X57310000Y-56288130D01*
X57161213Y-56317725D01*
X57187623Y-56091202D01*
X57362403Y-55609693D01*
X57643265Y-55181307D01*
X58015140Y-54829026D01*
X58458089Y-54571741D01*
X58958600Y-54420151D01*
X59374869Y-54383000D01*
X80462237Y-54383000D01*
X79579428Y-55265809D01*
X79579428Y-55265809D01*
G37*
X79579428Y-55265809D02*
X79390000Y-55228130D01*
X77690000Y-55228130D01*
X77413752Y-55283079D01*
X77179561Y-55439561D01*
X77023079Y-55673752D01*
X76968130Y-55950000D01*
X76968130Y-57650000D01*
X77023079Y-57926248D01*
X77179561Y-58160439D01*
X77413752Y-58316921D01*
X77690000Y-58371870D01*
X79390000Y-58371870D01*
X79666248Y-58316921D01*
X79900439Y-58160439D01*
X80027383Y-57970454D01*
X80472099Y-58267604D01*
X80814354Y-58335683D01*
X77108037Y-62042000D01*
X59433766Y-62042000D01*
X59283255Y-61816745D01*
X59063636Y-61670000D01*
X59283255Y-61523255D01*
X59433766Y-61298000D01*
X64061264Y-61298000D01*
X64149700Y-61315591D01*
X64238136Y-61298000D01*
X64238141Y-61298000D01*
X64500082Y-61245897D01*
X64797121Y-61047421D01*
X64847220Y-60972443D01*
X67999649Y-57820015D01*
X68248121Y-58191879D01*
X68978481Y-58679890D01*
X69622533Y-58808000D01*
X71557467Y-58808000D01*
X72201519Y-58679890D01*
X72931879Y-58191879D01*
X73419890Y-57461519D01*
X73591257Y-56600000D01*
X73419890Y-55738481D01*
X72931879Y-55008121D01*
X72201519Y-54520110D01*
X71557467Y-54392000D01*
X69622533Y-54392000D01*
X68978481Y-54520110D01*
X68248121Y-55008121D01*
X67772718Y-55719612D01*
X67599318Y-55754103D01*
X67377255Y-55902481D01*
X67377254Y-55902482D01*
X67302279Y-55952579D01*
X67252182Y-56027554D01*
X63777737Y-59502000D01*
X59433766Y-59502000D01*
X59330454Y-59347383D01*
X59520439Y-59220439D01*
X59676921Y-58986248D01*
X59731870Y-58710000D01*
X59731870Y-57010000D01*
X59676921Y-56733752D01*
X59520439Y-56499561D01*
X59286248Y-56343079D01*
X59010000Y-56288130D01*
X57310000Y-56288130D01*
X57161213Y-56317725D01*
X57187623Y-56091202D01*
X57362403Y-55609693D01*
X57643265Y-55181307D01*
X58015140Y-54829026D01*
X58458089Y-54571741D01*
X58958600Y-54420151D01*
X59374869Y-54383000D01*
X80462237Y-54383000D01*
X79579428Y-55265809D01*
G36*
X57256364Y-61670000D02*
X57123000Y-61759111D01*
X57123000Y-61580889D01*
X57256364Y-61670000D01*
X57256364Y-61670000D01*
G37*
X57256364Y-61670000D02*
X57123000Y-61759111D01*
X57123000Y-61580889D01*
X57256364Y-61670000D01*
M02*
